<?xml version="1.0" encoding="utf-8"?>
<!-- Generator: Adobe Illustrator 25.4.0, SVG Export Plug-In . SVG Version: 6.00 Build 0)  -->
<svg version="1.1" id="Layer_1" xmlns="http://www.w3.org/2000/svg" xmlns:xlink="http://www.w3.org/1999/xlink" x="0px" y="0px"
	 viewBox="0 0 200 200" style="enable-background:new 0 0 200 200;" xml:space="preserve">
<style type="text/css">
	.st0{fill:#E73E0C;}
</style>
<g>
	<path class="st0" d="M550.58,157.35c21.88,0,24.47,0.08,33.12,0.48c7.99,0.36,12.33,1.7,15.22,2.82c3.83,1.49,6.56,3.26,9.42,6.13
		c2.87,2.87,4.64,5.6,6.13,9.42c1.12,2.89,2.46,7.23,2.82,15.22c0.39,8.64,0.48,11.23,0.48,33.12s-0.08,24.47-0.48,33.12
		c-0.36,7.99-1.7,12.33-2.82,15.22c-1.49,3.83-3.26,6.56-6.13,9.42c-2.87,2.87-5.6,4.64-9.42,6.13c-2.89,1.12-7.23,2.46-15.22,2.82
		c-8.64,0.39-11.23,0.48-33.12,0.48s-24.48-0.08-33.12-0.48c-7.99-0.36-12.33-1.7-15.22-2.82c-3.83-1.49-6.56-3.26-9.42-6.13
		c-2.87-2.87-4.64-5.6-6.13-9.42c-1.12-2.89-2.46-7.23-2.82-15.22c-0.39-8.64-0.48-11.23-0.48-33.12s0.08-24.47,0.48-33.12
		c0.36-7.99,1.7-12.33,2.82-15.22c1.49-3.83,3.26-6.56,6.13-9.42c2.87-2.87,5.6-4.64,9.42-6.13c2.89-1.12,7.23-2.46,15.22-2.82
		C526.11,157.43,528.7,157.35,550.58,157.35 M550.58,142.58c-22.26,0-25.05,0.09-33.79,0.49c-8.72,0.4-14.68,1.78-19.89,3.81
		c-5.39,2.09-9.96,4.9-14.52,9.45c-4.56,4.56-7.36,9.13-9.45,14.52c-2.03,5.21-3.41,11.17-3.81,19.89
		c-0.4,8.74-0.49,11.53-0.49,33.79c0,22.26,0.09,25.05,0.49,33.79c0.4,8.72,1.78,14.68,3.81,19.89c2.09,5.39,4.9,9.96,9.45,14.52
		c4.56,4.56,9.13,7.36,14.52,9.45c5.21,2.03,11.17,3.41,19.89,3.81c8.74,0.4,11.53,0.49,33.79,0.49s25.05-0.09,33.79-0.49
		c8.72-0.4,14.68-1.78,19.89-3.81c5.39-2.09,9.96-4.9,14.52-9.45c4.56-4.56,7.36-9.13,9.45-14.52c2.03-5.21,3.41-11.17,3.81-19.89
		c0.4-8.74,0.49-11.53,0.49-33.79s-0.09-25.05-0.49-33.79c-0.4-8.72-1.78-14.68-3.81-19.89c-2.09-5.39-4.9-9.96-9.45-14.52
		c-4.56-4.56-9.13-7.36-14.52-9.45c-5.21-2.03-11.17-3.41-19.89-3.81C575.63,142.67,572.84,142.58,550.58,142.58L550.58,142.58z"/>
	<path class="st0" d="M550.58,182.45c-23.24,0-42.09,18.84-42.09,42.09s18.84,42.09,42.09,42.09c23.24,0,42.09-18.84,42.09-42.09
		S573.83,182.45,550.58,182.45z M550.58,251.85c-15.09,0-27.32-12.23-27.32-27.32c0-15.09,12.23-27.32,27.32-27.32
		s27.32,12.23,27.32,27.32C577.9,239.62,565.67,251.85,550.58,251.85z"/>
	<circle class="st0" cx="594.33" cy="180.79" r="9.83"/>
</g>
<path class="st0" d="M600.08-45.35c-7,3.1-14.52,5.2-22.41,6.14c8.06-4.83,14.24-12.48,17.16-21.59
	c-7.54,4.47-15.89,7.72-24.78,9.47c-7.12-7.58-17.26-12.32-28.48-12.32c-21.55,0-39.02,17.47-39.02,39.02
	c0,3.06,0.35,6.04,1.01,8.89c-32.43-1.63-61.18-17.16-80.43-40.77c-3.36,5.76-5.28,12.47-5.28,19.62c0,13.54,6.89,25.48,17.36,32.48
	c-6.4-0.2-12.41-1.96-17.67-4.88c0,0.16,0,0.33,0,0.49c0,18.91,13.45,34.68,31.3,38.26c-3.27,0.89-6.72,1.37-10.28,1.37
	c-2.51,0-4.96-0.25-7.34-0.7c4.97,15.5,19.38,26.78,36.45,27.1c-13.35,10.47-30.18,16.7-48.46,16.7c-3.15,0-6.26-0.18-9.31-0.55
	c17.27,11.07,37.78,17.53,59.81,17.53c71.77,0,111.02-59.46,111.02-111.02c0-1.69-0.04-3.37-0.11-5.05
	C588.23-30.65,594.85-37.52,600.08-45.35z"/>
<path class="st0" d="M173.59,152.93c-6.98,0.87-14.17,0.16-23.77,0.16c11.03-22.06,12.66-41.9,0.86-61.74
	c-12.52-21.04-25.18-42.02-36.72-63.59c-4.63-8.66-8.1-8.62-16.07-4.3c-9.48,5.14-13.05,9.56-5.57,19.22
	c4.54,5.86,7.53,12.92,12.15,21.08c-23.02,1.64-41.11,9.68-52.32,28.62c-13.24,22.37-25.38,45.4-38.91,67.59
	c-6.03,9.89,1.6,11.18,6.9,14.06c5.02,2.72,10.37,10.22,15.58-0.51c4.16-8.56,9.41-16.6,14.68-25.76
	c15.52,24.53,37.01,33.28,64.44,31.4c20.83-1.43,41.83-0.81,62.73-0.3c8.58,0.21,10.84-2.3,11.34-11
	C189.6,155.58,185.51,151.44,173.59,152.93z M101.74,151.66c-16.54-0.04-31.65-15.14-31.11-31.1c0.54-15.96,15.93-30.22,32.77-30.36
	c15.14-0.13,28.79,15.18,28.41,31.86C131.42,139.57,119.1,151.7,101.74,151.66z"/>
<g>
	<path class="st0" d="M705.85-64.25c7.42,0,14.18,0.65,20.29,1.96c6.11,1.31,11.35,3.46,15.71,6.44c4.36,2.98,7.75,6.95,10.15,11.89
		c2.4,4.95,3.6,11.05,3.6,18.33c0,7.85-1.78,14.4-5.35,19.64c-3.57,5.24-8.84,9.53-15.82,12.87c9.6,2.76,16.76,7.6,21.49,14.51
		c4.72,6.91,7.09,15.24,7.09,24.98c0,7.86-1.53,14.66-4.58,20.4c-3.05,5.75-7.17,10.44-12.33,14.07
		c-5.16,3.64-11.06,6.33-17.67,8.08c-6.62,1.74-13.42,2.62-20.4,2.62h-75.5V-64.25H705.85z M701.49-1.19
		c6.11,0,11.13-1.45,15.06-4.36c3.93-2.91,5.89-7.64,5.89-14.18c0-3.63-0.65-6.62-1.96-8.95c-1.31-2.33-3.05-4.15-5.24-5.45
		c-2.18-1.31-4.69-2.22-7.53-2.73c-2.84-0.51-5.78-0.76-8.84-0.76H666.8v36.44L701.49-1.19L701.49-1.19z M703.45,64.91
		c3.34,0,6.55-0.33,9.6-0.98c3.06-0.66,5.74-1.75,8.07-3.27c2.32-1.52,4.18-3.6,5.56-6.22c1.38-2.62,2.07-5.96,2.07-10.04
		c0-8-2.26-13.71-6.76-17.13c-4.51-3.42-10.47-5.13-17.89-5.13H666.8v42.76L703.45,64.91L703.45,64.91z"/>
	<path class="st0" d="M806.13,61.64c4.65,4.51,11.34,6.76,20.07,6.76c6.25,0,11.64-1.56,16.14-4.69c4.51-3.12,7.27-6.44,8.29-9.93
		h27.27c-4.36,13.53-11.06,23.2-20.07,29.02c-9.02,5.82-19.93,8.73-32.73,8.73c-8.87,0-16.87-1.42-24-4.26
		c-7.13-2.84-13.17-6.87-18.11-12.11c-4.95-5.24-8.76-11.49-11.46-18.76c-2.69-7.27-4.03-15.27-4.03-24
		c0-8.44,1.38-16.29,4.15-23.56c2.76-7.27,6.69-13.56,11.78-18.87c5.09-5.31,11.16-9.49,18.22-12.55
		c7.05-3.06,14.87-4.58,23.46-4.58c9.6,0,17.96,1.85,25.09,5.56c7.13,3.71,12.98,8.7,17.57,14.95c4.58,6.26,7.89,13.39,9.93,21.38
		c2.04,8,2.76,16.36,2.18,25.09h-81.38C798.93,49.86,801.47,57.13,806.13,61.64z M841.15,2.29c-3.71-4.07-9.35-6.11-16.91-6.11
		c-4.95,0-9.05,0.84-12.33,2.51c-3.27,1.68-5.89,3.74-7.86,6.22c-1.96,2.47-3.35,5.09-4.14,7.85c-0.8,2.76-1.27,5.24-1.42,7.42h50.4
		C847.44,12.33,844.86,6.37,841.15,2.29z"/>
	<rect x="793.2" y="-56.34" class="st0" width="62.97" height="17.46"/>
</g>
</svg>
