<svg xmlns="http://www.w3.org/2000/svg" viewBox="0 0 756.76 756.76"><defs><style>.cls-1{fill:none;stroke:#000;stroke-miterlimit:10;stroke-width:3px;}</style></defs><g id="Layer_2" data-name="Layer 2"><g id="Layer_1-2" data-name="Layer 1"><path class="cls-1" d="M755.26,378.38c0,5.73-14.12,11.11-14.38,16.77s13.32,12.36,12.8,18-15.08,9.76-15.85,15.38,12.12,13.53,11.08,19.11S733,456,731.7,461.5s10.82,14.58,9.27,20.05-16.62,6.8-18.42,12.19,9.41,15.53,7.36,20.83-17.18,5.22-19.48,10.42,7.93,16.33,5.39,21.42S698.24,550,695.47,555s6.39,17,3.39,21.82-17.85,2-21.07,6.66,4.8,17.51,1.37,22-17.95.31-21.59,4.69,3.17,17.87-.67,22.08S639,631,635,635s1.51,18.09-2.7,21.93-17.69-3-22.07.66-.15,18.15-4.7,21.59-17.34-4.59-22-1.36-1.82,18.05-6.66,21.06S560,692.69,555,695.47s-3.47,17.81-8.57,20.36-16.2-7.7-21.42-5.4-5.11,17.41-10.43,19.48-15.41-9.18-20.82-7.36S487,739.41,481.55,741s-14.49-10.57-20.06-9.27-8.23,16.17-13.85,17.21S434.2,737,428.54,737.83s-9.69,15.33-15.38,15.85-12.29-13.06-18-12.8-11,14.38-16.77,14.38-11.1-14.12-16.77-14.38-12.36,13.32-18,12.8-9.76-15.08-15.38-15.85S314.7,750,309.12,748.91,300.8,733,295.27,731.7s-14.59,10.82-20,9.27-6.81-16.62-12.19-18.42S247.5,732,242.2,729.91s-5.23-17.18-10.43-19.48-16.33,7.93-21.42,5.39-3.6-17.58-8.57-20.35-17,6.39-21.83,3.39-2-17.85-6.66-21.07-17.5,4.8-22,1.37-.32-17.95-4.7-21.59-17.87,3.17-22.08-.67,1.34-17.9-2.69-21.92-18.08,1.51-21.92-2.7,3-17.69-.67-22.07-18.15-.15-21.59-4.7,4.59-17.34,1.37-22-18.06-1.82-21.06-6.66S64.07,560,61.29,555s-17.81-3.47-20.35-8.57,7.7-16.2,5.39-21.42-17.41-5.11-19.47-10.43,9.17-15.41,7.36-20.82S17.36,487,15.8,481.55s10.56-14.49,9.26-20.06S8.9,453.26,7.85,447.64s11.87-13.44,11.09-19.1S3.6,418.85,3.08,413.16s13.06-12.29,12.8-18S1.5,384.11,1.5,378.38s14.12-11.1,14.38-16.77-13.31-12.36-12.8-18,15.08-9.76,15.86-15.38S6.82,314.7,7.85,309.12s15.92-8.32,17.21-13.85-10.82-14.59-9.26-20S32.41,268.41,34.22,263,24.8,247.5,26.86,242.2,44,237,46.33,231.77s-7.93-16.33-5.39-21.42,17.58-3.6,20.36-8.57-6.39-17-3.39-21.83,17.84-2,21.06-6.66-4.8-17.5-1.36-22,17.94-.32,21.58-4.7-3.16-17.87.67-22.08,17.9,1.34,21.93-2.69-1.52-18.08,2.69-21.92,17.7,3,22.08-.67S146.7,81,151.25,77.6,168.6,82.19,173.3,79s1.81-18.06,6.66-21.06,16.84,6.16,21.82,3.38,3.47-17.81,8.58-20.35,16.2,7.7,21.42,5.39,5.1-17.41,10.42-19.47S257.61,36,263,34.22s6.69-16.86,12.19-18.42,14.49,10.56,20,9.26S303.5,8.9,309.12,7.85s13.44,11.87,19.11,11.09S337.91,3.6,343.61,3.08s12.29,13.06,18,12.8S372.66,1.5,378.38,1.5s11.11,14.12,16.77,14.38,12.36-13.31,18-12.8,9.76,15.08,15.38,15.86S442.07,6.82,447.65,7.85,456,23.77,461.5,25.06s14.58-10.82,20.05-9.26,6.8,16.61,12.19,18.42,15.53-9.42,20.83-7.36S519.79,44,525,46.33s16.33-7.93,21.42-5.39S550,58.52,555,61.3s17-6.39,21.82-3.39,2,17.84,6.66,21.06,17.51-4.8,22-1.36.31,17.94,4.69,21.58,17.87-3.16,22.08.67S631,117.76,635,121.79s18.09-1.52,21.93,2.69-3,17.7.66,22.08,18.15.14,21.59,4.69-4.59,17.35-1.36,22.05,18.05,1.81,21.06,6.66-6.17,16.84-3.39,21.82,17.81,3.47,20.36,8.58-7.7,16.2-5.4,21.42,17.41,5.1,19.48,10.42-9.18,15.41-7.36,20.83,16.86,6.69,18.42,12.19-10.57,14.49-9.27,20,16.17,8.23,17.21,13.85S737,322.56,737.83,328.23s15.33,9.68,15.85,15.38-13.06,12.29-12.8,18S755.26,372.66,755.26,378.38Z"/></g></g></svg>