<svg id="Layer_1" data-name="Layer 1" xmlns="http://www.w3.org/2000/svg" viewBox="0 0 800 800"><defs><style>.cls-1{stroke:#000;stroke-miterlimit:10;}</style></defs><path class="cls-1" d="M549.77,319.43a3.25,3.25,0,0,1,1.15-1.39,3,3,0,0,1,1.85-.05,2.23,2.23,0,0,1,1.63.92,2,2,0,0,1-.16,1.77,3,3,0,0,1-1.19,1.47,2.62,2.62,0,0,1-1.94,0c-.84-.25-1.33-.5-1.46-.76A2,2,0,0,1,549.77,319.43Z"/><path class="cls-1" d="M557.26,349.07l11.84-3.29a5.58,5.58,0,0,0,2.65-1.42,1.9,1.9,0,0,0,.58-1.63c-.29-1.32-.19-2.05.29-2.19s.8.07,1,.63l2.38,8.88,1.89,6.17c.25.87.06,1.39-.59,1.58l-2.75.9c-.93.27-1.46.16-1.6-.33s.07-.66.55-.87a2.53,2.53,0,0,0,1.41-1.46,4.35,4.35,0,0,0,.06-2.45c-.21-1-.41-1.76-.6-2.41l-.24-.83a3.84,3.84,0,0,0-.82-1.77,1.61,1.61,0,0,0-1.37-.05l-2,.48-1.58.46a4.41,4.41,0,0,0-1.75.76,1.14,1.14,0,0,0-.1,1.13l.63,1.82a6.13,6.13,0,0,0,1,2.18,2.9,2.9,0,0,0,1.94.81c.94.11,1.44.28,1.5.49.11.37-.12.64-.67.8l-3.48,1c-.44.13-1,.33-1.73.61l-1.09.41c-.52.15-.84,0-1-.37s.14-.79.79-1.08a2.08,2.08,0,0,0,1.18-1.8l.1-.88a26.91,26.91,0,0,0-.71-3.13c-.31-1.07-.76-1.51-1.34-1.34l-1.39.4a20.84,20.84,0,0,0-5,1.93,2.26,2.26,0,0,0-1.18,2.34,11.8,11.8,0,0,1,.17,2,.64.64,0,0,1-.5.62c-.3.09-.57-.25-.79-1l-1.07-4.86-1.32-3.88c-.14-.46,0-.75.4-.86.21-.07.47.09.76.48a4.09,4.09,0,0,0,1.31,1A2.89,2.89,0,0,0,557.26,349.07Z"/><path class="cls-1" d="M569.25,375.29l-5.21.64a7.62,7.62,0,0,0-1.49.32,1.77,1.77,0,0,0-.91.87,4.64,4.64,0,0,0-.13,2.54,16.81,16.81,0,0,0,1,3.72,8,8,0,0,0,1.35,2.52c.44.44.82.82,1.17,1.13s.54.53.55.66c0,.28-.07.44-.32.48a5.37,5.37,0,0,1-3.24-.94,4,4,0,0,1-2.13-2.93c-.07-.54-.13-1.7-.16-3.47a43.58,43.58,0,0,0-.31-4.53c-.16-1.24-.36-2.36-.59-3.37s-.35-1.6-.38-1.8c-.07-.57.13-.89.6-.95a.69.69,0,0,1,.73.34,4.57,4.57,0,0,1,.41.92,1.55,1.55,0,0,0,.84.86,3.14,3.14,0,0,0,1.83.2q7.79-1,10.15-1.26c1.59-.16,2.78-.3,3.6-.4a2.75,2.75,0,0,0,1.88-1,4.19,4.19,0,0,0,.44-2.95q-.06-.48.84-.6c.42-.05.67.24.75.88l.07.91,1.05,8.75,1,5.9c.11.82-.09,1.27-.6,1.34l-1.24.16-2.76.46c-.44.06-.7-.17-.77-.67s.17-.68.68-.77a3.13,3.13,0,0,0,1-.33c.92-.64,1.15-2.66.71-6.07a5.67,5.67,0,0,0-.68-2.58c-.26-.23-.84-.28-1.73-.17l-2.81.37-.82.06-.1,0c-1,.12-1.46.43-1.53.92,0,.2.07.9.23,2.09a7.23,7.23,0,0,0,.73,2.62,3.39,3.39,0,0,0,2,1.32.82.82,0,0,1,.58.17.67.67,0,0,1,.33.49c.05.32-.12.5-.51.55l-3.45.36-3.08.6c-.57.07-.88-.08-.93-.46,0-.22.34-.55,1.11-1a3.2,3.2,0,0,0,1.49-1.44,5.22,5.22,0,0,0,.11-2.51l-.19-1.44Q570.1,375.19,569.25,375.29Z"/><path class="cls-1" d="M561.25,400.18l0-4.29q0-.63.69-.6a.43.43,0,0,1,.47.33,5,5,0,0,1,.13.6c0,.2,0,.36.07.49a2,2,0,0,0,1.82,1.19,26.93,26.93,0,0,0,3.15.28l11.55.4c1.67.05,2.53-.85,2.6-2.71,0-.71.24-1.05.66-1,.58,0,.85.42.83,1.19l-.13,2.21c-.06,1.86-.08,3.5,0,4.91s0,2.21,0,2.37a11,11,0,0,1-1.67,5.87,5.06,5.06,0,0,1-4.72,2.2,4.58,4.58,0,0,1-2.46-.74,3.73,3.73,0,0,1-1.39-1.52c-.26-.55-.47-1.05-.63-1.49s-.26-.66-.31-.66a1.67,1.67,0,0,0-.47.32,15.79,15.79,0,0,1-3.38,2.25,37,37,0,0,0-4.46,2.74c-1,.67-1.49,1.33-1.51,2l.12.63c0,.29-.16.43-.47.42a1.73,1.73,0,0,1-1-.59,2.39,2.39,0,0,1-.54-1.85,5.13,5.13,0,0,1,.79-2.51,9.25,9.25,0,0,1,3.25-2.7c1.67-1,3.25-1.89,4.74-2.68s2.31-1.43,2.45-1.87q0-.06.09-1.2l0-1.21c0-.42-.08-.68-.28-.78a6.9,6.9,0,0,0-1.85-.21l-1.59,0h-1.3c-2.28-.05-3.66.68-4.13,2.17l-.11.55a4.94,4.94,0,0,1-.12.51,1,1,0,0,1-.15.33.51.51,0,0,1-.5.37c-.38,0-.57-.25-.55-.7Zm11.56,3.14-.1,1.35c-.06,1.92.18,3.26.73,4s1.62,1.14,3.19,1.2a4.82,4.82,0,0,0,2.83-1.11,4.92,4.92,0,0,0,1.39-1.86,6.59,6.59,0,0,0,.65-2.65c0-.93-.09-1.5-.35-1.7a3.65,3.65,0,0,0-1.8-.35l-3.18-.11a9.35,9.35,0,0,0-2.63.15A1,1,0,0,0,572.81,403.32Z"/><path class="cls-1" d="M558.86,427.47l.62-3.46c.17-.79.46-1.13.87-1s.63.56.67,1.43a4.3,4.3,0,0,0,.2.88q.48.95,3,1.92a78.79,78.79,0,0,0,9.58,2.53c3.45.76,5.47-.17,6.05-2.81.14-.66.5-.92,1.06-.8s.58.52.41,1.28l-.5,1.81-.56,3.23c-.18.78-.42,1.21-.73,1.27a3.72,3.72,0,0,0-.49.24c-1,.57-1.95,1.08-2.91,1.52s-2.83,1.48-5.63,3.08-4.51,2.56-5.13,2.89-1.11.6-1.49.83-.75.45-1.13.66a4.29,4.29,0,0,0-1.16.78c-.07.31,2.09,1,6.48,1.92l1.32.29a27.89,27.89,0,0,0,2.75.49,4.83,4.83,0,0,0,2.14-.29,2.92,2.92,0,0,0,1.85-1.91c.23-.61.43-.94.59-1a.87.87,0,0,1,.42,0c.41.09.55.41.43,1l-1,4.16-.47,2.81a1.45,1.45,0,0,1-.34.76.65.65,0,0,1-.59.12.54.54,0,0,1-.46-.4q-.08-.31-.15-.75a4,4,0,0,0-.32-.93c-.32-.76-1.3-1.32-2.93-1.68l-.28-.06-9.68-2.44L555,444.53a.69.69,0,0,1-.44-.37.88.88,0,0,1-.08-.61.73.73,0,0,1,.35-.49l5.84-3q2.67-1.4,6.45-3.61t5.62-3.15c1.24-.62,1.88-1,1.91-1.16q.15-.66-7.76-2.4-2.91-.64-4.47-.84a2.31,2.31,0,0,0-2.21.6,5.77,5.77,0,0,0-.94,1.59c-.2.53-.44.76-.72.7a.64.64,0,0,1-.55-.86Z"/><path class="cls-1" d="M551.42,455.47l1.34-3.66a.55.55,0,0,1,.82-.34.63.63,0,0,1,.34.67,4.68,4.68,0,0,0,.73,2.93,19,19,0,0,0,1.48,1.8q.71.75,1.59,1.62c.59.58,2.28,2.37,5,5.38s4.46,4.81,5.08,5.42c1.24,1.18,1.73,2.07,1.48,2.67q-.24.57-1.47.63H567l-1.53,0c-.61,0-2.64.05-6.11.09q-11.19.12-13.31.68c-.2.06-.56.47-1.07,1.23s-1,1.05-1.35.89-.57-.62-.29-1.28l1.86-3.91,1.39-3.76c.18-.44.46-.59.81-.44s.46.65.13,1.42a.73.73,0,0,0,.14.66,1.85,1.85,0,0,0,.87.65,9.83,9.83,0,0,0,3,.28,10.71,10.71,0,0,0,2.59-.13.91.91,0,0,0,.4-.46l1.52-3.59,1-2.41.17-.4a1.65,1.65,0,0,0,.21-.93,7.92,7.92,0,0,0-1.29-1.65,6.62,6.62,0,0,0-2.22-1.8A1.59,1.59,0,0,0,552,458a5.5,5.5,0,0,0-1.24,1.52c-.31.55-.61.76-.9.64s-.36-.64,0-1.47Zm7,8.5-1.9,4.74q-.13.32.27.48a8,8,0,0,0,2.31.09l1.81-.07c2.51-.16,3.81-.34,3.9-.55s-.76-1.12-2.46-2.92a26,26,0,0,0-2.85-2.83C559.1,462.76,558.75,463.11,558.38,464Z"/><path class="cls-1" d="M537.76,483.69l1.84-3c.44-.66.84-.88,1.19-.65s.38.76.1,1.58a4.55,4.55,0,0,0-.14.89q.12,1.06,2.1,2.88a79.36,79.36,0,0,0,8,5.85q4.41,2.94,6.66-.42c.37-.56.8-.68,1.28-.36s.35.69-.08,1.34l-1.13,1.5-1.7,2.81c-.44.66-.82,1-1.13.92a2.72,2.72,0,0,0-.55,0c-1.12.17-2.21.29-3.26.37s-3.17.33-6.37.81-5.13.74-5.82.82-1.26.16-1.69.23l-1.3.21a4,4,0,0,0-1.36.3c-.18.27,1.6,1.65,5.33,4.16l1.13.74a24.28,24.28,0,0,0,2.39,1.46,4.7,4.7,0,0,0,2.09.5,2.89,2.89,0,0,0,2.42-1.1c.44-.48.74-.72.9-.7a.83.83,0,0,1,.41.12c.35.24.36.59,0,1.07l-2.46,3.51L545.19,512a1.48,1.48,0,0,1-.6.59.61.61,0,0,1-.59-.11.52.52,0,0,1-.28-.53c0-.21.07-.47.12-.76a3.42,3.42,0,0,0,0-1c0-.83-.73-1.7-2.12-2.63l-.24-.16-8.12-5.79L528,498.17a.65.65,0,0,1-.27-.5.91.91,0,0,1,.14-.61.73.73,0,0,1,.51-.32l6.53-.68c2-.2,4.43-.55,7.32-1s5-.77,6.38-.89a6,6,0,0,0,2.2-.38q.38-.57-6.35-5.06c-1.66-1.11-2.94-1.91-3.86-2.41a2.33,2.33,0,0,0-2.28-.25,5.91,5.91,0,0,0-1.45,1.14c-.38.43-.69.56-.93.4a.64.64,0,0,1-.2-1Z"/><path class="cls-1" d="M536.67,519.87a.89.89,0,0,1,1.43-.06c.3.29.19.69-.31,1.19l-.58.51-2.73,2.58-5.05,5.3c-2.75,2.75-5.57,4.29-8.46,4.65a9.06,9.06,0,0,1-7.82-3,11.43,11.43,0,0,1-2.75-4,15.38,15.38,0,0,1-.92-4.26,9.22,9.22,0,0,1,.73-4.35,13,13,0,0,1,1.62-3,18.89,18.89,0,0,1,1.39-1.55l5.42-4.93a23.32,23.32,0,0,0,1.78-2q.92-1.15,1-1.26a.77.77,0,0,1,1.23,0,.62.62,0,0,1,.15.74,5.26,5.26,0,0,1-.58.88,2.06,2.06,0,0,0-.45,1.09c0,.4.31,1,1,1.69l7.17,7.27,1.53,1.6q2.82,2.84,4.56,1.37ZM530.4,523l-9.35-9.52c-1.63-1.64-3.26-1.65-4.87,0q-4.06,4-4.12,7.43a8,8,0,0,0,2.49,5.95,10.32,10.32,0,0,0,7.57,3.4,10.48,10.48,0,0,0,7.45-3.34l1.23-1.22c.52-.52.76-.92.7-1.21A4.17,4.17,0,0,0,530.4,523Z"/><path class="cls-1" d="M488.82,533.39a12.93,12.93,0,0,1,8.86-2.19A11.71,11.71,0,0,1,507,545.58a13.5,13.5,0,0,1-14,9.68,9.39,9.39,0,0,1-7.31-4.48q-3.42-5.13-2.22-9.89A12.41,12.41,0,0,1,488.82,533.39Zm12.44,17.76a7.22,7.22,0,0,0,3.34-4.94,9.13,9.13,0,0,0-1.82-6.56,11.69,11.69,0,0,0-6.49-4.8q-4.16-1.29-7,.63a7.39,7.39,0,0,0-2.54,2.67,6.71,6.71,0,0,0-.86,2.83,8.11,8.11,0,0,0,.41,2.79,16.2,16.2,0,0,0,1.9,4,9.94,9.94,0,0,0,6.28,4.35A8.42,8.42,0,0,0,501.26,551.15Z"/><path class="cls-1" d="M459.82,561.46l1.92,5.91a3.65,3.65,0,0,0,1.52,2.14,3.7,3.7,0,0,0,2.93-.06c.48-.16.8,0,.94.39a.68.68,0,0,1-.13.68,1.4,1.4,0,0,1-.66.45l-4.47,1.38-6.39,2.44a9.51,9.51,0,0,1-5.64.3,5,5,0,0,1-3.5-3.51,7,7,0,0,1-.38-2.89,5.64,5.64,0,0,1,.63-2.29,6.31,6.31,0,0,1,1.34-1.64,8.18,8.18,0,0,1,2.78-1.69,13.85,13.85,0,0,1,3.05-.61q1.64-.13,1.74.21c.08.23,0,.39-.34.5l-2,.54a5.41,5.41,0,0,0-1.9,1.3,4.14,4.14,0,0,0-1.24,4.67,4.79,4.79,0,0,0,2.45,2.64,5.35,5.35,0,0,0,4.39.21l.36-.12a3.63,3.63,0,0,0,1.08-.51,1.68,1.68,0,0,0,.46-1.12,5,5,0,0,0-.35-2.27l-4-12.12c-.39-1.16-.87-1.86-1.46-2.1a3.24,3.24,0,0,0-2.06-.08,5.76,5.76,0,0,1-.65.17,4.8,4.8,0,0,0-.51.09,1.09,1.09,0,0,1-.34,0l-.31,0a.42.42,0,0,1-.26-.09.91.91,0,0,1-.36-.49c-.11-.3.12-.55.67-.73l5.39-1.64,3.47-1.31c.76-.25,1.21-.18,1.34.21a.55.55,0,0,1-.08.59,2.56,2.56,0,0,1-.66.47,3.15,3.15,0,0,0-.67.48,2.06,2.06,0,0,0-.51,1.85Q457.68,555,459.82,561.46Z"/><path class="cls-1" d="M434.16,557.64l3.82-.82a.54.54,0,0,1,.71.52c.05.25-.08.47-.38.64a4.58,4.58,0,0,0-2.08,2.18,17.35,17.35,0,0,0-.74,2.21c-.17.67-.34,1.4-.52,2.21s-.79,3.19-1.86,7.14-1.69,6.34-1.87,7.19c-.35,1.68-.83,2.57-1.47,2.68-.41.06-.85-.24-1.32-.91l-.46-.75c-.22-.36-.5-.79-.85-1.28s-1.45-2.21-3.32-5.12q-6.07-9.4-7.69-10.9a3.44,3.44,0,0,0-1.6-.25c-.91,0-1.41-.25-1.47-.66s.22-.82.92-.93l4.31-.51,3.91-.83c.48-.08.74.07.81.45s-.31.73-1.13.87c-.19,0-.35.18-.48.47a1.71,1.71,0,0,0-.09,1.08,9.55,9.55,0,0,0,1.33,2.64,10.66,10.66,0,0,0,1.49,2.12.88.88,0,0,0,.6.1l3.85-.63,2.56-.46.43-.07a1.73,1.73,0,0,0,.9-.32,8.35,8.35,0,0,0,.7-2,6.79,6.79,0,0,0,.35-2.84,1.59,1.59,0,0,0-1.18-1.37,5.5,5.5,0,0,0-1.94-.24q-.94,0-1-.42c-.07-.38.35-.65,1.24-.79Zm-3.47,10.42-5,.92c-.22,0-.31.2-.26.48a7.74,7.74,0,0,0,1.16,2l1,1.49c1.47,2,2.32,3,2.54,3s.55-1.23,1.17-3.63a28.62,28.62,0,0,0,.87-3.92C432.1,568,431.61,567.91,430.69,568.06Z"/><path class="cls-1" d="M404.45,568.36l-.14,10a3.3,3.3,0,0,0,.67,2.31,2.22,2.22,0,0,0,1.49.78c1.47,0,2.21.39,2.21,1.07,0,.38-.45.58-1.35.57l-3.95-.16-3.71.13c-1,0-1.54-.25-1.54-.73,0-.29.31-.54.92-.75a3.43,3.43,0,0,0,1.11-.5,4.31,4.31,0,0,0,.68-2.74V564.78a2.49,2.49,0,0,0-.4-1.62c-.28-.31-1.09-.46-2.44-.47a14.93,14.93,0,0,0-3.87.49,7.22,7.22,0,0,0-2.59,1.1c-.48.4-.89.76-1.23,1.1s-.59.5-.75.5c-.35,0-.53-.39-.52-1.18a4.24,4.24,0,0,1,1.28-2.64,4.92,4.92,0,0,1,3.94-1.45c.61,0,1.79.08,3.56.25s3.26.26,4.48.26l4.19-.22c.67,0,1,.23,1,.68s-.52.77-1.55.86a1.53,1.53,0,0,0-1.06.64,3,3,0,0,0-.49,1.86Z"/><path class="cls-1" d="M379.74,560.06l3.87.51a.55.55,0,0,1,.5.73q-.06.38-.57.48a4.62,4.62,0,0,0-2.7,1.35,20.35,20.35,0,0,0-1.43,1.84c-.38.57-.79,1.21-1.23,1.91s-1.81,2.74-4.14,6.1-3.71,5.42-4.17,6.15q-1.32,2.21-2.28,2c-.41-.08-.72-.51-.94-1.3q0-.25-.18-.87c-.09-.4-.21-.9-.37-1.48s-.63-2.56-1.42-5.94q-2.58-10.89-3.6-12.84a3.46,3.46,0,0,0-1.43-.77c-.85-.33-1.24-.71-1.17-1.12s.49-.69,1.18-.57l4.24,1,4,.52c.48.08.68.32.61.69s-.53.59-1.35.45a.67.67,0,0,0-.61.28,1.83,1.83,0,0,0-.45,1,9.87,9.87,0,0,0,.37,2.93,10.38,10.38,0,0,0,.7,2.5.89.89,0,0,0,.53.3l3.84.69,2.57.42.43.07a1.61,1.61,0,0,0,.95,0,8.08,8.08,0,0,0,1.32-1.62,6.55,6.55,0,0,0,1.27-2.56,1.57,1.57,0,0,0-.64-1.68,5.88,5.88,0,0,0-1.75-.88c-.61-.17-.88-.42-.83-.73s.55-.49,1.43-.33ZM373,568.73l-5-.82c-.22,0-.36.09-.41.37a8.05,8.05,0,0,0,.42,2.28l.46,1.75c.71,2.41,1.17,3.64,1.39,3.68s.93-1,2.32-3a26.91,26.91,0,0,0,2.13-3.4C374.32,569.17,373.9,568.89,373,568.73Z"/><path class="cls-1" d="M351.18,564.9a11.82,11.82,0,0,1-6.05,6.46,11.55,11.55,0,0,1-9.62.48,14.3,14.3,0,0,1-4.44-2.86,5.92,5.92,0,0,0-1-.77,1.22,1.22,0,0,0-.64.07,1.1,1.1,0,0,1-.73,0,.35.35,0,0,1-.24-.42c0-.21.16-.74.39-1.6a25,25,0,0,0,.52-2.48,14.09,14.09,0,0,1,.7-2.64.43.43,0,0,1,.64-.27.72.72,0,0,1,.54.55,13.4,13.4,0,0,0,1.88,5.95,7.77,7.77,0,0,0,3.84,3.17,7,7,0,0,0,4.65.11,6.93,6.93,0,0,0,3.42-2.11,16.26,16.26,0,0,0,2.2-4.4,12.83,12.83,0,0,0,.19-5.73,7.62,7.62,0,0,0-1.54-3.71,7.15,7.15,0,0,0-3.37-2.55,11.4,11.4,0,0,0-3.75-.77,7.77,7.77,0,0,0-2.65.31c-.64.22-1.21.44-1.7.66s-.79.3-.91.25c-.49-.17-.67-.43-.55-.76s.66-.7,1.65-1.19a14.93,14.93,0,0,1,2.76-1.1,10.36,10.36,0,0,1,3.1-.27,14.81,14.81,0,0,1,4.3,1,12.59,12.59,0,0,1,4.39,2.73,8.37,8.37,0,0,1,2.43,3.87A12.75,12.75,0,0,1,351.18,564.9Z"/><path class="cls-1" d="M322,548.83l-4.51,8.29a12.28,12.28,0,0,0-1,2.64c-.21.73.38,1.47,1.76,2.21a1.7,1.7,0,0,1,.67.58.71.71,0,0,1,.06.71.78.78,0,0,1-.59.4,1.06,1.06,0,0,1-.64,0q-.21-.12-1.14-.78a27.68,27.68,0,0,0-2.8-1.67l-4.1-1.93c-.59-.32-.78-.68-.57-1.07s.48-.41.95-.29a6.39,6.39,0,0,0,1.14.21,5.18,5.18,0,0,0,.8,0c.67-.15,1.38-.93,2.14-2.35l5.74-10.48c.82-1.52.92-2.73.3-3.61a6.59,6.59,0,0,0-1.94-1.37c-.45-.24-.58-.55-.38-.92s.65-.57,1.19-.28l4.27,2.62,3.34,1.63a3.16,3.16,0,0,1,1,.71.57.57,0,0,1,0,.61c-.12.24-.57.26-1.33.05a2,2,0,0,0-2,.45A17.07,17.07,0,0,0,322,548.83Z"/><path class="cls-1" d="M303.88,528.31a12.93,12.93,0,0,1,5.05,7.61,11.7,11.7,0,0,1-10.4,13.64,13.53,13.53,0,0,1-13.83-9.94,9.38,9.38,0,0,1,1.76-8.39q3.69-5,8.58-5.41A12.33,12.33,0,0,1,303.88,528.31ZM291.34,546a7.18,7.18,0,0,0,5.77,1.48c2-.36,3.89-1.67,5.57-3.92a11.6,11.6,0,0,0,2.34-7.72c-.12-2.89-1.1-5-3-6.42a7.48,7.48,0,0,0-3.36-1.49,6.65,6.65,0,0,0-3,.14,8.37,8.37,0,0,0-2.49,1.32,16,16,0,0,0-3.13,3.14,10,10,0,0,0-2,7.38A8.44,8.44,0,0,0,291.34,546Z"/><path class="cls-1" d="M264.52,519.54l2.87-3.13c.19-.17.33-.26.42-.26s.21.09.36.25.16.45,0,.87-.37,1-.64,1.8a6.67,6.67,0,0,0-.37,2.41,5.63,5.63,0,0,0,1.31,4,4.33,4.33,0,0,0,2.87,1.49,3.15,3.15,0,0,0,2.51-.79,2.62,2.62,0,0,0,.71-2.43,13.11,13.11,0,0,0-1-3.3c-.51-1.17-1-2.37-1.45-3.6a8.74,8.74,0,0,1-.55-3.73,4.9,4.9,0,0,1,1.6-3.28,6.11,6.11,0,0,1,5.51-1.81A9.55,9.55,0,0,1,284,511a9.08,9.08,0,0,1,1.58,2c.15.37.35.85.59,1.46a16.59,16.59,0,0,1,.59,1.7c.06.26-.37,1.08-1.31,2.47a18.8,18.8,0,0,1-1.89,2.56c-.32.31-.62.33-.88,0a.72.72,0,0,1-.26-.59,4.08,4.08,0,0,1,.33-.88,8.55,8.55,0,0,0,.75-4.59,6.42,6.42,0,0,0-1.61-3.86,4.29,4.29,0,0,0-2.94-1.49,3.54,3.54,0,0,0-2.73,1,3.11,3.11,0,0,0-1,2.68,11,11,0,0,0,1,3.37c.54,1.17,1.07,2.35,1.58,3.55a7.91,7.91,0,0,1,.66,3.66,4.78,4.78,0,0,1-1.59,3.26,5.51,5.51,0,0,1-4.66,1.61,8.13,8.13,0,0,1-4.88-2.7,9.76,9.76,0,0,1-2.06-2.9,11.62,11.62,0,0,0-.56-1.33l-1.24-.61C263.16,521.12,263.52,520.49,264.52,519.54Z"/><path class="cls-1" d="M246.8,497.92a.9.9,0,0,1-.34,1.4q-.54.3-1.05-.63l-.33-.7-1.72-3.34-3.69-6.33q-2.8-5.11-2.11-9.42a9.1,9.1,0,0,1,5-6.69,11.63,11.63,0,0,1,4.6-1.53,15,15,0,0,1,4.34.32,9.13,9.13,0,0,1,4,1.9,14.13,14.13,0,0,1,2.41,2.39c.44.64.8,1.23,1.1,1.76l3.22,6.58a22.29,22.29,0,0,0,1.43,2.27c.57.8.88,1.25.92,1.33a.77.77,0,0,1-.34,1.18.61.61,0,0,1-.75-.06,4.92,4.92,0,0,1-.68-.8,1.94,1.94,0,0,0-.93-.73c-.37-.15-1,0-1.91.52l-9,4.86-2,1q-3.51,1.92-2.59,4ZM245.55,491l11.75-6.33q3-1.67,1.4-4.66-2.76-5-6-6a8,8,0,0,0-6.4.74,10.31,10.31,0,0,0-5.38,6.32,10.52,10.52,0,0,0,1.13,8.09l.84,1.52c.35.65.67,1,1,1A4.21,4.21,0,0,0,245.55,491Z"/><path class="cls-1" d="M241.86,461l-4.13,1.29L232.36,464c-.94.31-1.49.67-1.64,1.09a4.34,4.34,0,0,0,.06,2.08c.2,1,.07,1.52-.37,1.66s-.75,0-.92-.56l-1.18-4.43L227,460.12c-.22-.67-.11-1.08.31-1.22a.65.65,0,0,1,.76.22,4.68,4.68,0,0,1,.52.81,1.42,1.42,0,0,0,.93.69,3.16,3.16,0,0,0,1.89-.16l8.08-2.56a11.61,11.61,0,0,0,5-2.9q2.07-2.24.61-6.72a6.8,6.8,0,0,0-2.84-3.94,7.81,7.81,0,0,0-3.53-1.29,18,18,0,0,0-5.57,1.19l-4.09,1.27a9.59,9.59,0,0,0-3,1.42,2.55,2.55,0,0,0-1,1.27,3.49,3.49,0,0,0,0,1c0,.34.09.6.13.77a3.65,3.65,0,0,1,.07.38c0,.08,0,.19,0,.32a.3.3,0,0,1-.07.27c-.05.16-.2.27-.44.35-.43.14-.83-.36-1.19-1.49l-.72-2.55-1.06-2.64c-.24-.74-.13-1.18.33-1.33s.85.13,1.18.84a1.17,1.17,0,0,0,.77.58,2.57,2.57,0,0,0,1.56-.12l2.1-.68q7.47-2.42,10.19-2.56a9.3,9.3,0,0,1,5.31,1.39A8.92,8.92,0,0,1,247,448c.39,1.19.67,2.18.86,3a14.18,14.18,0,0,1,.32,2.88,6.05,6.05,0,0,1-.52,2.86,7.48,7.48,0,0,1-2,2.34A11.39,11.39,0,0,1,241.86,461Z"/><path class="cls-1" d="M230.78,425.3l5.21-.66a7.79,7.79,0,0,0,1.49-.32,1.77,1.77,0,0,0,.9-.88,4.67,4.67,0,0,0,.12-2.54,16.26,16.26,0,0,0-1-3.71,7.75,7.75,0,0,0-1.36-2.51c-.43-.45-.82-.82-1.17-1.13s-.54-.53-.55-.66.07-.44.32-.48a5.34,5.34,0,0,1,3.24.92,4,4,0,0,1,2.14,2.92c.08.54.13,1.7.18,3.48a43.27,43.27,0,0,0,.32,4.52c.17,1.24.37,2.37.6,3.37s.37,1.61.39,1.8c.08.57-.12.89-.6.95a.66.66,0,0,1-.72-.34,4,4,0,0,1-.42-.91,1.55,1.55,0,0,0-.84-.86,3.16,3.16,0,0,0-1.83-.19c-5.18.7-8.57,1.14-10.15,1.3s-2.78.3-3.59.42a2.71,2.71,0,0,0-1.88,1,4.21,4.21,0,0,0-.43,2.95q.07.48-.84.6-.61.09-.75-.87l-.07-.91-1.09-8.75-1-5.89c-.12-.83.08-1.28.59-1.35l1.24-.16,2.76-.47c.44-.06.7.16.77.67s-.17.67-.67.77a3.13,3.13,0,0,0-1,.33c-.92.65-1.14,2.67-.68,6.08a5.58,5.58,0,0,0,.69,2.58c.25.22.83.27,1.72.15l2.82-.38.81-.06.1,0c.95-.13,1.46-.44,1.52-.93,0-.2-.07-.89-.23-2.08a7.27,7.27,0,0,0-.74-2.63,3.5,3.5,0,0,0-2-1.31.82.82,0,0,1-.58-.16.69.69,0,0,1-.33-.49c-.05-.32.12-.5.5-.56l3.45-.37,3.08-.61c.57-.08.89.08.94.46,0,.22-.34.55-1.11,1a3.08,3.08,0,0,0-1.48,1.44,5.25,5.25,0,0,0-.1,2.51l.2,1.43Q229.93,425.42,230.78,425.3Z"/><path class="cls-1" d="M219.51,390.84l4.24-.23c.26,0,.42,0,.48.1a.58.58,0,0,1,.09.43c0,.23-.2.43-.61.62l-1.72.85a6.83,6.83,0,0,0-2,1.46,5.7,5.7,0,0,0-1.88,3.81,4.4,4.4,0,0,0,1,3.07,3.2,3.2,0,0,0,2.35,1.19,2.62,2.62,0,0,0,2.2-1.25,12.89,12.89,0,0,0,1.59-3.06c.45-1.2.94-2.4,1.47-3.59a8.72,8.72,0,0,1,2.21-3.06,4.89,4.89,0,0,1,3.43-1.23,6.14,6.14,0,0,1,5.22,2.55,9.51,9.51,0,0,1,1.75,5.83,9,9,0,0,1-.25,2.53l-.6,1.46a14.7,14.7,0,0,1-.77,1.63c-.13.22-1,.5-2.66.85a18.65,18.65,0,0,1-3.14.51c-.44,0-.67-.2-.66-.59a.72.72,0,0,1,.22-.59,3.59,3.59,0,0,1,.85-.4,8.52,8.52,0,0,0,3.75-2.77,6.38,6.38,0,0,0,1.54-3.88,4.28,4.28,0,0,0-1.06-3.12,3.57,3.57,0,0,0-2.66-1.19,3.08,3.08,0,0,0-2.57,1.24,10.59,10.59,0,0,0-1.65,3.08c-.44,1.22-.89,2.43-1.35,3.65a8.07,8.07,0,0,1-2.09,3.08,4.84,4.84,0,0,1-3.42,1.22,5.5,5.5,0,0,1-4.45-2.1,8.13,8.13,0,0,1-1.61-5.35,9.61,9.61,0,0,1,.55-3.5c.35-.84.52-1.28.53-1.35l-.47-1.3C217.44,391,218.13,390.82,219.51,390.84Z"/><path class="cls-1" d="M242.29,370.9a13,13,0,0,1-4.59,7.9,11.7,11.7,0,0,1-16.83-3.29,13.5,13.5,0,0,1,2.79-16.8,9.4,9.4,0,0,1,8.3-2.14q6.07,1.13,8.65,5.3A12.35,12.35,0,0,1,242.29,370.9Zm-21.41-3.42a7.22,7.22,0,0,0,1.23,5.84,9.12,9.12,0,0,0,6,3.26,11.71,11.71,0,0,0,8-1.32c2.54-1.39,4-3.22,4.45-5.5a7.39,7.39,0,0,0-.16-3.68,6.74,6.74,0,0,0-1.43-2.59,8.27,8.27,0,0,0-2.29-1.65,16.18,16.18,0,0,0-4.19-1.41,9.94,9.94,0,0,0-7.5,1.48A8.46,8.46,0,0,0,220.88,367.48Z"/><path class="cls-1" d="M243.19,334.05a3.16,3.16,0,0,1-1.8,0,3,3,0,0,1-1.21-1.4,2.17,2.17,0,0,1-.32-1.84,2,2,0,0,1,1.47-1,3,3,0,0,1,1.89,0,3.87,3.87,0,0,1,1.55,3.12A2,2,0,0,1,243.19,334.05Z"/><path class="cls-1" d="M255.41,291.57l3.65,2.17c.21.15.33.27.34.36s0,.22-.17.41-.41.24-.85.17-1.07-.16-1.9-.26a6.85,6.85,0,0,0-2.43.13,5.64,5.64,0,0,0-3.68,2.1,4.3,4.3,0,0,0-.87,3.12,3.14,3.14,0,0,0,1.28,2.3,2.63,2.63,0,0,0,2.53.2,13.64,13.64,0,0,0,3-1.66c1-.74,2.12-1.46,3.22-2.16a8.79,8.79,0,0,1,3.54-1.3,4.88,4.88,0,0,1,3.54.9,6.11,6.11,0,0,1,2.9,5,9.53,9.53,0,0,1-1.8,5.82,8.79,8.79,0,0,1-1.62,1.95l-1.31.88a14.83,14.83,0,0,1-1.54.92c-.24.12-1.13-.14-2.69-.77a19.17,19.17,0,0,1-2.89-1.33c-.37-.26-.44-.54-.22-.86a.69.69,0,0,1,.52-.37,3.89,3.89,0,0,1,.92.14,8.51,8.51,0,0,0,4.66-.2,6.36,6.36,0,0,0,3.44-2.36,4.25,4.25,0,0,0,.86-3.18,3.55,3.55,0,0,0-1.54-2.48,3.1,3.1,0,0,0-2.82-.4,10.48,10.48,0,0,0-3.1,1.64c-1,.76-2.09,1.52-3.15,2.26a7.78,7.78,0,0,1-3.45,1.39,4.78,4.78,0,0,1-3.52-.88,5.52,5.52,0,0,1-2.52-4.24,8.09,8.09,0,0,1,1.65-5.33,9.53,9.53,0,0,1,2.42-2.6c.75-.5,1.14-.77,1.18-.82l.34-1.35C253.59,290.56,254.28,290.78,255.41,291.57Z"/><path class="cls-1" d="M276,283.14l-3.23-2.9-3.85-3.64a.9.9,0,0,0-.72-.22,1.24,1.24,0,0,0-.78.39l-.76.8q-2.58,2.67-2.62,3.83a2.74,2.74,0,0,0,0,1,4.37,4.37,0,0,0,.34.72l.46.78c.14.22.23.38.28.47a1.72,1.72,0,0,1,.14.33.87.87,0,0,1-.29.86c-.2.21-.59,0-1.18-.54a33.21,33.21,0,0,1-2.53-2.89c-.67-.83-.79-1.47-.34-1.94.17-.18.49-.46.93-.83.74-.68,2.31-2.26,4.71-4.76s4.13-4.3,5.16-5.4,1.72-1.85,2.05-2.24.62-.73.87-1,.42-.48.53-.59a1,1,0,0,1,.37-.25c.32-.05.52,0,.61.06l2.46,2.09a4.51,4.51,0,0,1,.86,1,.48.48,0,0,1-.13.55.62.62,0,0,1-.73.07l-1-.43a2.39,2.39,0,0,0-1.6.14,6.24,6.24,0,0,0-2.25,1.54l-1.4,1.39a3.48,3.48,0,0,0-1.08,1.64c-.05.4.3.95,1,1.66l7.67,7.25.8.76.83.74.25.23c1.08,1.05,2.12,1.29,3.11.72a4.27,4.27,0,0,0,.87-.56c.94-.7,1.58-.89,1.9-.58s.42.74.09,1.09L284,287.92l-3,3.54c-.55.58-1,.72-1.28.43a.71.71,0,0,1-.2-.52.9.9,0,0,1,.14-.6,6.13,6.13,0,0,1,.6-.69,3,3,0,0,0,.55-.71,1.57,1.57,0,0,0,0-.81,2.36,2.36,0,0,0-.55-1.13,23.9,23.9,0,0,0-1.89-1.95Z"/><path class="cls-1" d="M294.23,267.49l-2.47-3.56-3.26-4.6c-.58-.81-1.09-1.23-1.53-1.24a4.29,4.29,0,0,0-2,.68c-.86.48-1.43.52-1.7.14s-.18-.72.26-1l3.88-2.45,3.13-2.4c.58-.41,1-.43,1.26-.07a.65.65,0,0,1,0,.78,3.93,3.93,0,0,1-.63.74,1.49,1.49,0,0,0-.37,1.1,3.17,3.17,0,0,0,.72,1.76l4.86,6.94a11.68,11.68,0,0,0,4.27,3.94q2.76,1.31,6.6-1.43a6.78,6.78,0,0,0,2.91-3.9,7.76,7.76,0,0,0,.17-3.75,17.94,17.94,0,0,0-2.8-4.95l-2.44-3.52a9.36,9.36,0,0,0-2.24-2.41,2.65,2.65,0,0,0-1.52-.6,3.67,3.67,0,0,0-1,.28l-.7.35a2.36,2.36,0,0,1-.34.18l-.3.13a.37.37,0,0,1-.27,0,.63.63,0,0,1-.47-.32c-.26-.37.1-.9,1.06-1.58l2.22-1.46,2.21-1.8c.63-.45,1.08-.47,1.36-.08s.13.85-.44,1.38a1.14,1.14,0,0,0-.33.91,2.61,2.61,0,0,0,.58,1.44l1.28,1.81q4.55,6.41,5.5,9a9.34,9.34,0,0,1,.26,5.49,8.92,8.92,0,0,1-3.84,5.17c-1,.72-1.88,1.29-2.57,1.7a14.33,14.33,0,0,1-2.65,1.17,6,6,0,0,1-2.88.36,7.47,7.47,0,0,1-2.83-1.21A11.22,11.22,0,0,1,294.23,267.49Z"/><path class="cls-1" d="M327.7,255.81l-3.81,2a.58.58,0,0,1-.85-.35.44.44,0,0,1,.08-.57,5.21,5.21,0,0,1,.49-.39c.16-.1.29-.2.4-.28a2,2,0,0,0,.25-2.16,27.87,27.87,0,0,0-1.16-2.94l-4.83-10.5q-1-2.28-3.59-1.11c-.64.29-1.05.25-1.22-.13s0-.95.69-1.27l2-.88q2.54-1.17,4.41-2.16l2.1-1.1a11.05,11.05,0,0,1,6-1.14,5.11,5.11,0,0,1,4.09,3.24,4.56,4.56,0,0,1,.44,2.53,3.73,3.73,0,0,1-.73,1.92q-.57.72-1.05,1.23c-.32.34-.47.53-.45.58a1.83,1.83,0,0,0,.5.27,16.17,16.17,0,0,1,3.52,2,38,38,0,0,0,4.45,2.76,2.79,2.79,0,0,0,2.44.46l.51-.39a.39.39,0,0,1,.58.24,1.66,1.66,0,0,1-.06,1.19,2.38,2.38,0,0,1-1.41,1.31,5,5,0,0,1-2.59.42,9.21,9.21,0,0,1-3.88-1.69q-2.44-1.57-4.52-3c-1.38-1-2.31-1.42-2.77-1.35l-1.11.46-1.1.5c-.38.17-.57.38-.57.61a6.55,6.55,0,0,0,.65,1.74l.66,1.44.59,1.17q1.47,3.09,3.79,2.71l.54-.15c.2,0,.37-.1.5-.12a.93.93,0,0,1,.37,0,.5.5,0,0,1,.55.28c.16.35,0,.62-.37.8Zm-2.37-11.74,1.24-.52c1.76-.8,2.84-1.62,3.25-2.44s.3-2-.36-3.39a4.72,4.72,0,0,0-2.26-2,4.85,4.85,0,0,0-2.28-.41,6.59,6.59,0,0,0-2.66.61c-.85.39-1.3.75-1.36,1.08a3.51,3.51,0,0,0,.49,1.76l1.33,2.89A9.2,9.2,0,0,0,324,243.9,1,1,0,0,0,325.33,244.07Z"/><path class="cls-1" d="M352.35,245.82,348.61,247a.56.56,0,0,1-.76-.45.64.64,0,0,1,.33-.68,4.61,4.61,0,0,0,1.89-2.34,18.37,18.37,0,0,0,.54-2.28c.11-.67.22-1.42.33-2.24s.52-3.25,1.24-7.27,1.14-6.47,1.25-7.32c.2-1.71.61-2.64,1.23-2.8.41-.1.87.16,1.4.79.1.14.27.38.52.71s.57.74.95,1.2,1.64,2.08,3.76,4.82q6.85,8.85,8.59,10.2a3.52,3.52,0,0,0,1.61.11c.92,0,1.43.13,1.53.53s-.15.84-.84,1l-4.25.88L364.1,243c-.46.12-.74,0-.84-.38s.24-.76,1.05-1c.19-.05.33-.22.44-.51a1.83,1.83,0,0,0,0-1.09,10,10,0,0,0-1.55-2.52,10.25,10.25,0,0,0-1.68-2,.87.87,0,0,0-.6-.05l-3.78,1-2.51.68-.43.11a1.75,1.75,0,0,0-.86.39,8.63,8.63,0,0,0-.54,2,6.71,6.71,0,0,0-.09,2.86,1.59,1.59,0,0,0,1.29,1.27,5.61,5.61,0,0,0,1.95.07q.94-.13,1.05.33c.1.37-.29.67-1.16.89Zm2.56-10.69,4.93-1.34c.22-.06.29-.23.22-.51a7.77,7.77,0,0,0-1.33-1.9l-1.15-1.4c-1.64-1.9-2.57-2.82-2.78-2.77s-.44,1.28-.85,3.72a25.73,25.73,0,0,0-.53,4C353.51,235.29,354,235.36,354.91,235.13Z"/><path class="cls-1" d="M408.33,219.47l.25,4.24c0,.26,0,.42-.1.48s-.21.1-.43.1-.43-.21-.62-.61-.47-1-.85-1.72A6.71,6.71,0,0,0,405.1,220a5.63,5.63,0,0,0-3.81-1.86,4.31,4.31,0,0,0-3.07,1,3.13,3.13,0,0,0-1.18,2.35,2.6,2.6,0,0,0,1.26,2.2,13,13,0,0,0,3.07,1.57c1.2.44,2.4.93,3.6,1.45A8.82,8.82,0,0,1,408,229a4.85,4.85,0,0,1,1.24,3.43,6.14,6.14,0,0,1-2.52,5.23,9.57,9.57,0,0,1-5.83,1.77,8.65,8.65,0,0,1-2.52-.24l-1.47-.59a15.65,15.65,0,0,1-1.63-.76c-.22-.13-.51-1-.86-2.66a19.71,19.71,0,0,1-.53-3.13c0-.45.2-.68.59-.67a.76.76,0,0,1,.6.22,4,4,0,0,1,.4.85,8.43,8.43,0,0,0,2.78,3.73,6.39,6.39,0,0,0,3.89,1.53,4.33,4.33,0,0,0,3.12-1.08,3.59,3.59,0,0,0,1.18-2.66,3.06,3.06,0,0,0-1.26-2.56,10.52,10.52,0,0,0-3.09-1.65c-1.22-.43-2.43-.87-3.65-1.33a7.94,7.94,0,0,1-3.09-2.08,4.81,4.81,0,0,1-1.24-3.4,5.49,5.49,0,0,1,2.09-4.46,8,8,0,0,1,5.34-1.64,9.49,9.49,0,0,1,3.51.54c.83.34,1.28.51,1.34.52l1.31-.48C408.14,217.4,408.35,218.09,408.33,219.47Z"/><path class="cls-1" d="M426.86,231.74l.59-4.29.85-5.23a.89.89,0,0,0-.22-.73,1.23,1.23,0,0,0-.76-.42l-1.09-.19c-2.44-.41-4-.42-4.64,0a2.58,2.58,0,0,0-.83.57,3.9,3.9,0,0,0-.41.69q-.23.45-.39.81c-.1.24-.18.41-.23.5a2.59,2.59,0,0,1-.2.31.91.91,0,0,1-.87.24c-.28-.05-.36-.48-.22-1.28a32.19,32.19,0,0,1,1-3.72c.3-1,.77-1.48,1.41-1.37a11.89,11.89,0,0,1,1.21.3q1.45.35,6.59,1.22c3.41.59,5.87,1,7.36,1.24s2.49.38,3,.44l1.32.15.79.11a.94.94,0,0,1,.41.17q.33.34.3.54l-.36,3.21a4.15,4.15,0,0,1-.33,1.26.48.48,0,0,1-.53.21c-.24,0-.39-.23-.46-.57s-.15-.7-.23-1.09a2.36,2.36,0,0,0-1-1.25,6.35,6.35,0,0,0-2.54-1l-1.94-.39a3.44,3.44,0,0,0-2,0c-.36.18-.62.78-.8,1.79L430,234.42l-.18,1.1-.14,1.1-.06.33c-.25,1.49.13,2.48,1.15,3a5,5,0,0,0,1,.41c1.1.38,1.62.8,1.54,1.24s-.37.77-.85.69l-5-1.2-4.61-.49c-.79-.14-1.15-.41-1.08-.82a.78.78,0,0,1,.32-.46,1,1,0,0,1,.58-.22,6.28,6.28,0,0,1,.91.11,2.64,2.64,0,0,0,.89.05,1.47,1.47,0,0,0,.69-.42,2.37,2.37,0,0,0,.62-1.09,25.8,25.8,0,0,0,.56-2.66Z"/><path class="cls-1" d="M450,238.05l1.56-4.05,2-5.28c.35-.93.41-1.59.17-2a4.15,4.15,0,0,0-1.67-1.24c-.88-.45-1.24-.89-1.07-1.33s.5-.56,1-.37l4.2,1.82,3.75,1.25c.66.24.92.58.76,1a.64.64,0,0,1-.63.46,4.77,4.77,0,0,1-1-.1,1.4,1.4,0,0,0-1.11.3,3.26,3.26,0,0,0-1.06,1.59l-3,7.92a11.63,11.63,0,0,0-.85,5.75q.46,3,4.89,4.65a6.87,6.87,0,0,0,4.86.22,7.94,7.94,0,0,0,3.2-2,18.28,18.28,0,0,0,2.51-5.1l1.55-4a9.74,9.74,0,0,0,.73-3.19,2.61,2.61,0,0,0-.36-1.6,3.3,3.3,0,0,0-.79-.65,6,6,0,0,0-.68-.38,2.77,2.77,0,0,1-.34-.19l-.27-.17c-.11-.08-.17-.15-.17-.22a.62.62,0,0,1,0-.57c.16-.42.79-.42,1.91,0l2.45,1,2.72.81c.73.27,1,.63.84,1.08s-.63.59-1.39.41a1.19,1.19,0,0,0-.94.24,2.68,2.68,0,0,0-.87,1.3l-.77,2.07q-2.75,7.37-4.31,9.58a9.29,9.29,0,0,1-4.39,3.3,9,9,0,0,1-6.43-.26c-1.17-.44-2.13-.83-2.86-1.17a14.77,14.77,0,0,1-2.46-1.53,6,6,0,0,1-1.91-2.18,7.8,7.8,0,0,1-.6-3A11.52,11.52,0,0,1,450,238.05Z"/><path class="cls-1" d="M484.86,239.2c-.6-.37-.74-.83-.4-1.38.22-.35.63-.35,1.23,0l.63.45,3.15,2.05,6.34,3.68q4.95,3,6.49,7.13a9.11,9.11,0,0,1-1.07,8.31,11.57,11.57,0,0,1-3.24,3.61,15.36,15.36,0,0,1-3.93,1.88,9.26,9.26,0,0,1-4.4.31,13.32,13.32,0,0,1-3.28-.88q-1-.51-1.83-1l-6.05-4.12a20.63,20.63,0,0,0-2.37-1.26c-.89-.42-1.38-.65-1.46-.7a.77.77,0,0,1-.28-1.2.59.59,0,0,1,.67-.32,5.13,5.13,0,0,1,1,.36,2,2,0,0,0,1.16.18c.4-.06.86-.53,1.4-1.4l5.4-8.67,1.2-1.86q2.1-3.41.27-4.76Zm4.5,5.37-7.08,11.31q-1.81,3,1.09,4.75c3.26,2,6,2.76,8.19,2.27a8,8,0,0,0,5.2-3.81,10.35,10.35,0,0,0,1.55-8.16,10.46,10.46,0,0,0-5-6.46l-1.47-.91c-.63-.39-1.08-.52-1.34-.4A4,4,0,0,0,489.36,244.57Z"/><path class="cls-1" d="M507.38,270.66l6.15-7.16a12.46,12.46,0,0,0,1.52-2.38c.35-.66-.07-1.51-1.27-2.52a1.67,1.67,0,0,1-.53-.71.72.72,0,0,1,.09-.71.81.81,0,0,1,.67-.26,1,1,0,0,1,.61.17c.12.11.44.44,1,1a29.09,29.09,0,0,0,2.38,2.22l3.61,2.74c.51.44.63.83.33,1.17s-.55.3-1,.08a6.63,6.63,0,0,0-1.08-.44,5.71,5.71,0,0,0-.78-.16c-.68,0-1.54.63-2.58,1.85l-7.81,9c-1.13,1.33-1.48,2.48-1.05,3.47a6.46,6.46,0,0,0,1.61,1.75c.39.33.45.66.18,1s-.76.42-1.23,0l-3.63-3.47-2.92-2.29a3.28,3.28,0,0,1-.84-.9.58.58,0,0,1,.16-.6c.17-.21.61-.13,1.31.24a2,2,0,0,0,2,0A16.49,16.49,0,0,0,507.38,270.66Z"/><path class="cls-1" d="M520.75,294.53a12.93,12.93,0,0,1-3.33-8.51,11.69,11.69,0,0,1,13-11.14,13.5,13.5,0,0,1,11.42,12.63,9.39,9.39,0,0,1-3.49,7.83q-4.65,4.05-9.52,3.48A12.33,12.33,0,0,1,520.75,294.53Zm16-14.65a7.22,7.22,0,0,0-5.33-2.66q-3.1-.12-6.28,2.66a11.67,11.67,0,0,0-3.91,7.05q-.74,4.29,1.54,6.9a7.57,7.57,0,0,0,3,2.17,6.86,6.86,0,0,0,2.92.49,8.43,8.43,0,0,0,2.72-.77,15.91,15.91,0,0,0,3.71-2.41,10,10,0,0,0,3.51-6.8A8.5,8.5,0,0,0,536.74,279.88Z"/><path d="M329.69,397.69c.71.7,1.46,1.37,2.23,2a35.16,35.16,0,0,0-3,2.61,36,36,0,0,0-8.14,12.09A37.57,37.57,0,0,0,318,428.84q0,8.22,3.14,13.55a28,28,0,0,0,7.58,8.54,34.8,34.8,0,0,0,9.11,4.84q4.68,1.62,7.74,2.58l19.52,6.13c2.8.86,5.56,1.86,8.31,3a33.25,33.25,0,0,1,7.42,4.19,20.5,20.5,0,0,1,5.4,6.13,17.28,17.28,0,0,1,2.09,8.79,19.46,19.46,0,0,1-2.66,10.64A21.66,21.66,0,0,1,379,504a27,27,0,0,1-8.71,3.63,39.9,39.9,0,0,1-8.55,1,27.91,27.91,0,0,1-12.17-2.5,28.3,28.3,0,0,1-9-6.61,34.64,34.64,0,0,1-6-9.51,48.3,48.3,0,0,1-3.31-11.21h-1.93V508h2.25a10.92,10.92,0,0,1,2-2.82,4.88,4.88,0,0,1,2.82-.57,10.75,10.75,0,0,1,4.44,1l4.92,2.18a42.24,42.24,0,0,0,6.53,2.17A42.81,42.81,0,0,0,376,508.35a34,34,0,0,0,11.21-7.09,31.47,31.47,0,0,0,7.25-10.73A34.76,34.76,0,0,0,397,477.06q0-11.13-6.69-17.74t-19.76-10.64L352,443a48.21,48.21,0,0,1-7.18-2.74,29.93,29.93,0,0,1-7-4.6,23.22,23.22,0,0,1-5.32-6.85,20.74,20.74,0,0,1-2.1-9.68,32,32,0,0,1,1.29-8.47,23.52,23.52,0,0,1,4.17-8.1,43.44,43.44,0,0,0,6.72,3.49,44.15,44.15,0,0,0,17.09,3.14c2.26,0,4.25,0,6-.08a44.26,44.26,0,0,0,4.84-.4c1.51-.22,3-.46,4.52-.73a47.62,47.62,0,0,0,5-1.21q3.23-1,6.93-2.25c.38-.14.74-.24,1.11-.35a44.08,44.08,0,0,1,5.51,9,65,65,0,0,1,4.59,14.68h3.52a65,65,0,0,1,4.6-14.68A43.14,43.14,0,0,1,412,404c.59.16,1.19.35,1.82.57q3.71,1.29,6.94,2.25a46.45,46.45,0,0,0,5,1.21c1.5.27,3,.51,4.51.73a44.47,44.47,0,0,0,4.84.4c1.72.06,3.71.08,6,.08a44.15,44.15,0,0,0,17.09-3.14,44.85,44.85,0,0,0,6.11-3.11,23.2,23.2,0,0,1,3.88,7.72,31.57,31.57,0,0,1,1.29,8.47,20.74,20.74,0,0,1-2.1,9.68,23.22,23.22,0,0,1-5.32,6.85,29.88,29.88,0,0,1-7,4.6A48.21,48.21,0,0,1,447.8,443l-18.55,5.65q-13.06,4-19.76,10.64t-6.69,17.74a34.76,34.76,0,0,0,2.58,13.47,31.64,31.64,0,0,0,7.26,10.73,33.93,33.93,0,0,0,11.21,7.09A42.81,42.81,0,0,0,447.56,510a42.61,42.61,0,0,0,6.53-2.17l4.92-2.18a10.74,10.74,0,0,1,4.43-1,4.92,4.92,0,0,1,2.83.57,10.72,10.72,0,0,1,2,2.82h2.26V478.84H468.6a48.27,48.27,0,0,1-3.3,11.21,34.67,34.67,0,0,1-6.05,9.51,28.37,28.37,0,0,1-8.95,6.61,28,28,0,0,1-12.18,2.5,39.9,39.9,0,0,1-8.55-1,27,27,0,0,1-8.71-3.63,21.77,21.77,0,0,1-6.69-6.78,19.54,19.54,0,0,1-2.66-10.64,17.28,17.28,0,0,1,2.1-8.79,20.23,20.23,0,0,1,5.4-6.13,33,33,0,0,1,7.42-4.19q4.11-1.7,8.3-3l19.52-6.13q3.06-1,7.74-2.58a34.65,34.65,0,0,0,9.11-4.84,27.89,27.89,0,0,0,7.58-8.54q3.15-5.33,3.15-13.55A37.57,37.57,0,0,0,479,414.4a36.16,36.16,0,0,0-8.15-12.09c-.79-.78-1.63-1.52-2.5-2.24a33.73,33.73,0,0,0,2.68-2.38,36,36,0,0,0,8.14-12.09A37.57,37.57,0,0,0,482,371.16q0-8.22-3.14-13.55a28,28,0,0,0-7.58-8.54,34.8,34.8,0,0,0-9.11-4.84q-4.68-1.62-7.74-2.58l-19.52-6.13c-2.8-.86-5.56-1.86-8.31-3a33.25,33.25,0,0,1-7.42-4.19,20.5,20.5,0,0,1-5.4-6.13,17.28,17.28,0,0,1-2.09-8.79,19.46,19.46,0,0,1,2.66-10.64A21.66,21.66,0,0,1,421,296a27,27,0,0,1,8.71-3.63,39.9,39.9,0,0,1,8.55-1,27.91,27.91,0,0,1,12.17,2.5,28.3,28.3,0,0,1,9,6.61,34.64,34.64,0,0,1,6,9.51,48.3,48.3,0,0,1,3.31,11.21h1.93V292h-2.25a10.92,10.92,0,0,1-2,2.82,4.88,4.88,0,0,1-2.82.57,10.75,10.75,0,0,1-4.44-1l-4.92-2.18a42.24,42.24,0,0,0-6.53-2.17A42.81,42.81,0,0,0,424,291.65a34,34,0,0,0-11.21,7.09,31.47,31.47,0,0,0-7.25,10.73A34.76,34.76,0,0,0,403,322.94q0,11.13,6.69,17.74t19.76,10.64L448,357a48.21,48.21,0,0,1,7.18,2.74,29.93,29.93,0,0,1,7,4.6,23.22,23.22,0,0,1,5.32,6.85,20.74,20.74,0,0,1,2.1,9.68,32,32,0,0,1-1.29,8.47,23.37,23.37,0,0,1-4,7.87,42.45,42.45,0,0,0-6.34-3.26,44.2,44.2,0,0,0-17.1-3.14c-2.25,0-4.25,0-6,.08a44.05,44.05,0,0,0-4.84.4c-1.51.22-3,.46-4.52.73a47,47,0,0,0-5,1.21q-3.23,1-6.93,2.25c-.54.19-1.05.34-1.55.49a44.22,44.22,0,0,1-5.62-9.13,65,65,0,0,1-4.59-14.68h-3a65.46,65.46,0,0,1-4.6,14.68,43.44,43.44,0,0,1-5.78,9.32c-.73-.18-1.48-.4-2.28-.68q-3.71-1.29-6.94-2.25a46.45,46.45,0,0,0-5-1.21c-1.5-.27-3-.51-4.51-.73a44.47,44.47,0,0,0-4.84-.4c-1.72-.06-3.71-.08-6-.08a42.23,42.23,0,0,0-22.83,6,23.09,23.09,0,0,1-3.7-7.49,31.57,31.57,0,0,1-1.29-8.47,20.86,20.86,0,0,1,2.09-9.68,23.25,23.25,0,0,1,5.33-6.85,29.88,29.88,0,0,1,7-4.6,48.21,48.21,0,0,1,7.18-2.74l18.55-5.65q13.06-4,19.75-10.64t6.7-17.74a34.76,34.76,0,0,0-2.58-13.47,31.64,31.64,0,0,0-7.26-10.73,34,34,0,0,0-11.21-7.09A42.81,42.81,0,0,0,353,290a42.61,42.61,0,0,0-6.53,2.17l-4.92,2.18a10.75,10.75,0,0,1-4.44,1,4.9,4.9,0,0,1-2.82-.57,10.72,10.72,0,0,1-2-2.82H330v29.19h1.93A48.3,48.3,0,0,1,335.25,310a34.67,34.67,0,0,1,6.05-9.51,28.25,28.25,0,0,1,8.95-6.61,27.92,27.92,0,0,1,12.18-2.5,39.74,39.74,0,0,1,8.54,1,26.93,26.93,0,0,1,8.71,3.63,21.8,21.8,0,0,1,6.7,6.78A19.54,19.54,0,0,1,389,313.42a17.28,17.28,0,0,1-2.1,8.79,20.5,20.5,0,0,1-5.4,6.13,33,33,0,0,1-7.42,4.19q-4.11,1.7-8.31,3l-19.51,6.13q-3.06,1-7.74,2.58a34.7,34.7,0,0,0-9.12,4.84,28.15,28.15,0,0,0-7.58,8.54q-3.14,5.33-3.14,13.55a37.57,37.57,0,0,0,2.82,14.44A36,36,0,0,0,329.69,397.69Zm89.88-.3a31,31,0,0,1,7.5-3.07,36,36,0,0,1,7.26-1.12q3.46-.17,6.53-.17,8.55,0,14,2.58a26.31,26.31,0,0,1,6.76,4.47,26.31,26.31,0,0,1-6.58,4.31Q449.58,407,441,407c-2.05,0-4.22-.06-6.53-.17a35.81,35.81,0,0,1-7.26-1.12,30.66,30.66,0,0,1-7.5-3.07,23.81,23.81,0,0,1-3.8-2.69A24.45,24.45,0,0,1,419.57,397.39Zm-74.64-1.78q5.49-2.58,14-2.58c2.05,0,4.22.06,6.53.17a35.81,35.81,0,0,1,7.26,1.12,30.66,30.66,0,0,1,7.5,3.07,23.91,23.91,0,0,1,4.06,2.92,23.44,23.44,0,0,1-3.34,2.3,30.66,30.66,0,0,1-7.5,3.07,35.83,35.83,0,0,1-7.25,1.12c-2.32.11-4.49.17-6.54.17q-8.54,0-14-2.58a26.07,26.07,0,0,1-7-4.72A26.88,26.88,0,0,1,344.93,395.61Z"/></svg>