<?xml version="1.0" standalone="no"?>
<!DOCTYPE svg PUBLIC "-//W3C//DTD SVG 1.1//EN" "http://www.w3.org/Graphics/SVG/1.1/DTD/svg11.dtd" >
<svg xmlns="http://www.w3.org/2000/svg" xmlns:xlink="http://www.w3.org/1999/xlink" version="1.1">
<metadata>
Created by FontForge 20170731 at Sat Jan 23 09:59:03 2021
 By Aleksey,,,
</metadata>
<defs>
<font id="PerchenoOutline" horiz-adv-x="1601" >
  <font-face 
    font-family="Percheno Outline"
    font-weight="400"
    font-stretch="normal"
    units-per-em="2048"
    panose-1="0 0 0 0 0 0 0 0 0 0"
    ascent="1638"
    descent="-410"
    x-height="1108"
    cap-height="1427"
    bbox="-283 -480 2387.84 1842"
    underline-thickness="102"
    underline-position="-307"
    unicode-range="U+000A-20AC"
  />
<missing-glyph horiz-adv-x="1079" 
d="M102 1434h875v-1434h-875v1434zM160 1393l379 -633l381 633h-760zM514 717l-369 614v-1231zM541 674l-379 -631h758zM565 717l371 -621v1239z" />
    <glyph glyph-name=".notdef" horiz-adv-x="1079" 
d="M102 1434h875v-1434h-875v1434zM160 1393l379 -633l381 633h-760zM514 717l-369 614v-1231zM541 674l-379 -631h758zM565 717l371 -621v1239z" />
    <glyph glyph-name=".null" horiz-adv-x="0" 
 />
    <glyph glyph-name=".null" horiz-adv-x="0" 
 />
    <glyph glyph-name="nonmarkingreturn" horiz-adv-x="682" 
 />
    <glyph glyph-name="LF" unicode="&#xa;" horiz-adv-x="0" 
 />
    <glyph glyph-name="controlCR" unicode="&#xd;" horiz-adv-x="0" 
 />
    <glyph glyph-name="space" unicode=" " horiz-adv-x="851" 
 />
    <glyph glyph-name="exclam" unicode="!" horiz-adv-x="487" 
d="M242 255q59 0 99 -40q41 -41 41 -100q0 -58 -41 -99q-40 -40 -99 -40t-99 40q-41 41 -41 99q0 59 41 100q40 40 99 40zM315 43q30 30 30 72q0 43 -30 73t-73 30t-73 -30q-29 -29 -29 -73q0 -43 29 -72q30 -30 73 -30t73 30zM166 796q-14 98 -52 257q-30 127 -30 195
q0 91 40 146q44 61 119 61q47 0 86 -28q37 -28 56 -75q17 -42 17 -101t-33 -198q-22 -98 -40 -189q-15 -83 -23 -158q-8 -71 -13 -171l-1 -24q-1 -15 -11.5 -25.5t-25.5 -10.5h-27q-15 0 -26 10.5t-12 25.5v24q-7 142 -24 261zM154 1372q-33 -46 -33 -124q0 -63 29 -187
q37 -157 53 -259q16 -105 24 -266l1 -23h27l1 23q5 100 13 174q10 96 23 161q17 89 40 190q33 139 33 190t-15 88q-14 36 -43 58q-29 21 -64 21q-56 0 -89 -46z" />
    <glyph glyph-name="quotedbl" unicode="&#x22;" horiz-adv-x="598" 
d="M527 1422q28 -68 3 -143q-25 -69 -34 -114q-17 -75 -25 -154q-2 -25 -20.5 -42t-44.5 -17q-25 0 -44 17t-21 43q-6 73 -24 152q-10 44 -18 70q-12 -36 -19 -69q-17 -75 -25 -154q-2 -25 -20.5 -42t-44.5 -17q-25 0 -44 17t-21 43q-5 66 -25 152q-16 72 -31 114
q-25 70 -4 135q6 19 19 36q42 51 106 51q63 0 105 -51l3 -3l1 1q1 1 1 2q42 51 107 51q62 0 104 -51q8 -9 16 -27zM244 1173q10 42 35 118q0 1 1 3q-16 56 -2 109v2t-1 2q-5 11 -11 19q-31 37 -76 37q-46 0 -77 -37q-7 -8 -12 -25q-18 -55 2 -110q16 -43 34 -119
q19 -89 25 -157q1 -11 9 -18.5t19 -7.5t19 8t9 18q7 72 26 158zM495 1291q21 61 -2 117q-4 9 -11 18q-31 37 -75 37q-47 0 -78 -37q-7 -9 -12 -23q16 -57 2 -109l1 -1v-2q14 -36 33 -119q19 -89 25 -157q1 -11 9 -18.5t19 -7.5t19 8t9 18q7 72 26 158q10 42 35 118z" />
    <glyph glyph-name="numbersign" unicode="#" horiz-adv-x="1228" 
d="M432 671l86 316h279l-85 -316h-280zM748 950h-202l-65 -242h202zM1163 1054q19 -27 10 -57q-6 -20 -23 -33.5t-39 -13.5h-230l-65 -242h194q34 0 52 -26q20 -28 11 -58q-6 -20 -23.5 -33.5t-39.5 -13.5h-229l-75 -278q-5 -20 -22.5 -33t-38.5 -14h-1q-32 0 -51 25t-11 56
l66 244h-202l-75 -278q-5 -20 -22.5 -33t-38.5 -14h-1q-32 0 -51 25q-20 26 -12 56l67 245h-194q-35 0 -53 26q-19 27 -10 57q6 21 23.5 34t39.5 13h229l65 242h-194q-34 0 -52 26q-19 27 -10 58q6 21 23 34t39 13h229l75 278q6 21 23 34.5t39 13.5q31 0 51 -26
q19 -25 11 -55l-66 -245h202l76 278q6 21 23 34.5t39 13.5q31 0 51 -26q19 -25 11 -55l-66 -245h194q33 0 52 -27zM1137 1007q4 14 -4 25t-22 11h-243l79 292q4 13 -4 23.5t-22 10.5q-21 0 -26 -20l-83 -306h-279l78 292q4 13 -4.5 23.5t-21.5 10.5q-21 0 -26 -20l-82 -306
h-258q-20 0 -27 -20q-4 -14 4.5 -25t22.5 -11h243l-86 -316h-258q-19 0 -26 -20q-4 -14 4 -25t22 -11h243l-79 -292q-4 -13 4 -23.5t22 -10.5h1q21 0 26 20l82 306h280l-79 -292q-4 -13 4 -23.5t22 -10.5q21 0 26 20l82 306h258q20 0 27 20q4 14 -4.5 25t-22.5 11h-243
l86 316h258q19 0 26 20z" />
    <glyph glyph-name="dollar" unicode="$" horiz-adv-x="1423" 
d="M235 1079q0 117 122 183q124 68 327 70v-527l-45 10q-105 24 -206 58q-88 29 -145 83q-53 50 -53 123zM646 1294q-165 -8 -271 -65q-103 -57 -103 -150q0 -56 41 -96q52 -49 132 -75q91 -30 201 -56v442zM990 579q91 -33 147 -94q54 -59 54 -142t-51 -141
q-53 -60 -134 -87q-85 -28 -163 -39q-49 -7 -107 -10v585l48 -11q109 -25 206 -61zM1112 227q41 47 41 116q0 70 -43 116q-50 55 -133 85q-85 32 -201 59l-3 1v-498q44 4 65 7q71 10 156 38q72 24 118 76zM1268 607q72 -87 72 -205q0 -211 -204 -323q-153 -85 -363 -100
v-167q0 -26 -18.5 -45t-44.5 -19t-45 19t-19 45v164q-30 1 -86 5q-139 12 -257 58q-14 -5 -25 -14q-16 -15 -40 -15q-20 0 -36 12t-22 31v2l-65 278q-7 26 5.5 49.5t37.5 31.5q10 3 20 3q42 0 61 -39l12 -24l3 -6q3 -7 10.5 -22.5t14.5 -29.5t14 -26q17 -30 28 -41
q18 -18 65 -51q78 -55 175 -68q51 -6 85 -7v530l-98 23q-114 26 -217 64q-108 40 -175 111q-74 79 -74 190q0 183 182 296q154 95 382 104v164q0 26 19 45t45 19t44.5 -19t18.5 -45v-166q5 0 15.5 -0.5t15.5 -1.5h1h2q84 -6 174 -29q62 -16 129 -41q11 4 24 15q16 15 40 15
q20 0 36 -12t22 -31v-1l1 -1l65 -279q7 -26 -5.5 -49t-37.5 -31q-11 -3 -21 -3q-42 0 -60 38l-12 24l-3 7q-25 50 -40 77q-17 30 -28 41q-64 64 -140 96q-73 30 -178 39v-469l103 -23q115 -26 217 -67q106 -43 175 -126zM1118 111q184 101 184 291q0 107 -63 182t-160 114
q-88 36 -211 65l-132 30v538q139 -6 229 -44q85 -36 153 -104q15 -15 34 -49q8 -13 15.5 -28.5t15.5 -33t12 -24.5l12 -24q8 -17 27 -17q6 0 9 1q11 4 16.5 14.5t2.5 21.5l-66 279q-5 17 -22 17q-9 0 -15 -6q-23 -20 -51 -26q-61 24 -136 44q-90 22 -168 28h-1q-23 2 -67 4
v201q0 11 -8 19t-18 8t-18 -8t-8 -19v-201q-244 -2 -400 -98q-165 -101 -165 -265q0 -96 64 -165q60 -64 161 -101q99 -36 212 -62l128 -30v-598q-65 0 -127 8q-106 14 -192 74q-45 32 -70 56q-15 15 -34 49q-8 15 -44 86l-12 24q-8 18 -27 18q-2 0 -8 -2q-26 -9 -19 -35
l65 -280q5 -16 22 -16q9 0 15 6q23 20 51 26l2 -1q123 -49 257 -60q65 -5 121 -5v-201q0 -10 8 -18t18 -8t18 8t8 18v202q223 9 382 97z" />
    <glyph glyph-name="percent" unicode="%" horiz-adv-x="1396" 
d="M1124 533q20 -44 28 -88q7 -41 7 -102q0 -47 -3 -83q-3 -29 -18 -74q-13 -38 -35 -63q-21 -24 -62 -41q-42 -17 -98 -17q-57 0 -99 17q-41 17 -62 41q-22 25 -35 63q-15 45 -18 74q-4 46 -4 83q0 34 4 82q3 31 18 75q13 38 35 63q23 26 62 42q42 17 99 17q71 0 117 -24
q45 -24 64 -65zM1119 264q3 33 3 79q0 49 -7 96q-6 39 -25 78q-15 31 -48 48q-38 20 -99 20q-52 0 -84 -14q-34 -14 -49 -32q-14 -15 -28 -52q-13 -40 -16 -66q-3 -35 -3 -78q0 -46 3 -79q3 -26 16 -66q10 -31 28 -50q14 -17 49 -31q35 -15 84 -15q47 0 84 15q32 14 48 31
q18 19 28 50q13 40 16 66zM1218 609q109 -103 109 -266q0 -160 -110 -264q-109 -103 -274 -103q-167 0 -276 103t-109 264q0 41 5 69l-298 -396q-19 -25 -50 -25q-39 0 -57 35q-18 36 6 66l478 636q-82 -42 -189 -42q-167 0 -276 103t-109 264q0 163 109 266t276 103
q165 0 274 -103q110 -104 110 -266q0 -38 -6 -74l302 402q19 26 51 26q38 0 56 -35q18 -36 -6 -67l-475 -633q83 40 184 40q166 0 275 -103zM203 816q97 -93 250 -93q151 0 249 93t98 237q0 146 -98 239q-96 92 -249 92q-154 0 -250 -92q-98 -93 -98 -239q0 -144 98 -237z
M236 38l368 491q22 37 51 68l550 731q10 13 2.5 27t-23.5 14q-14 0 -21 -10l-969 -1289q-10 -13 -2.5 -27.5t23.5 -14.5q14 0 21 10zM1192 106q98 93 98 237q0 146 -98 239q-96 92 -249 92q-154 0 -250 -92q-2 -2 -5 -5.5t-4 -4.5l-48 -63q-41 -73 -41 -166q0 -144 98 -237
q97 -93 250 -93q150 0 249 93zM634 1243q20 -44 28 -88q7 -41 7 -102q0 -47 -3 -83q-3 -29 -18 -74q-13 -38 -35 -63q-21 -24 -62 -41q-42 -17 -98 -17q-57 0 -99 17q-41 17 -62 41q-22 25 -35 63q-15 45 -18 74q-4 46 -4 83q0 34 4 82q3 29 18 74q14 40 35 64q23 26 62 42
q42 17 99 17q71 0 117 -24q45 -24 64 -65zM629 974q3 33 3 79q0 49 -7 96q-6 39 -25 78q-15 31 -48 48q-38 20 -99 20q-52 0 -84 -14q-34 -14 -49 -32t-28 -52q-13 -40 -16 -66q-3 -35 -3 -78q0 -46 3 -79q3 -26 16 -66q10 -31 28 -50q14 -17 49 -31q35 -15 84 -15
q50 0 84 14q31 13 48 32q18 19 28 50q13 40 16 66z" />
    <glyph glyph-name="ampersand" unicode="&#x26;" horiz-adv-x="1531" 
d="M1156 790q-100 -45 -200 -83l-24 -8q125 -7 220 -69q119 -77 119 -208q0 -208 -205 -323q-163 -91 -384 -91q-137 0 -278 45q-140 49 -237 149q-101 104 -101 246q0 80 32.5 153.5t89.5 131t128 101.5t154 75q-78 25 -132 65q-101 75 -101 193q0 121 111 195.5t293 74.5
q108 0 187 -35q47 -16 80 -52t46 -83q5 15 7 19q20 55 81 95q84 55 188 55q106 0 178 -78q70 -76 70 -176q0 -254 -322 -392zM959 1192q-9 -73 -64 -122.5t-130 -49.5q-81 0 -139 57.5t-58 138.5q0 68 43 122q-70 -4 -111 -47t-41 -98q0 -95 70 -148q51 -36 69 -46
q34 -19 61 -31q15 -7 24.5 -21.5t9.5 -31.5q0 -38 -35 -53q-107 -45 -214 -128q-62 -49 -96.5 -116.5t-34.5 -137.5q0 -190 105 -282q105 -93 264 -93q154 0 265 72q104 70 104 195q0 53 -14 92.5t-34.5 61.5t-49.5 35.5t-53 17.5t-50 4q-70 0 -143.5 -29.5t-127.5 -79.5
l-2 -2l-2 -2q-44 -56 -44 -108q0 -61 31.5 -103t110.5 -42q25 0 48 4q-15 25 -15 59q0 48 34 82t82 34t82.5 -34t34.5 -82q0 -25 -11 -50q-10 -21 -26 -36q-7 -7 -25 -17q-87 -57 -202 -57q-122 0 -200 78t-78 202q0 154 125 273q120 114 287 187q30 13 67 26q2 1 26 10
t39 14q102 38 166 72l1 1q226 110 226 270q0 12 -3.5 23t-14 25.5t-35 23t-59.5 8.5h-4q-35 -3 -62 -16l-1 -1h-1q30 -33 30 -78q0 -48 -34.5 -82.5t-82.5 -34.5q-36 0 -65 19.5t-43 51.5zM833 701l110 41q108 41 198 82q300 130 300 358q0 85 -60 151q-59 65 -151 65
q-96 0 -168 -48q-52 -34 -67 -78q-8 -16 -8 -34q0 -34 24 -57.5t58 -22.5q30 1 52.5 22.5t24.5 51.5q3 56 -47 78q-5 2 -6 8t4 9q29 19 70 34q14 5 26 6q20 4 29 4q66 0 108 -30t42 -88q0 -184 -248 -304q-79 -41 -170 -74q-118 -43 -130 -49q-160 -70 -276 -181
q-114 -109 -114 -245q0 -105 65.5 -174t175.5 -69q103 0 184 52q7 3 17 13q13 13 18 24q8 16 8 34q0 34 -24 57t-58 22q-29 -1 -51.5 -22t-25.5 -50q-3 -39 25 -65q8 -8 5 -18.5t-14 -12.5q-42 -11 -86 -11q-81 0 -130 45.5t-49 136.5q0 64 52 131l4 5q59 56 140.5 89.5
t159.5 33.5q104 0 171 -61.5t67 -187.5q0 -144 -121 -226q-120 -78 -285 -78q-174 0 -289 102q-117 104 -117 310q0 81 39 155.5t106 127.5q116 90 222 134q15 7 12 23q-1 9 -12 14q-37 17 -63 32q-14 7 -73 48q-86 64 -86 179q0 81 60 132t142 51q15 0 39 -2q11 -1 14 -12
t-6 -18q-64 -48 -64 -128q0 -71 52.5 -118.5t124.5 -39.5q54 6 93 44.5t46 92.5q7 58 -24 106t-84 66q-71 33 -173 33q-167 0 -267 -65t-100 -168q0 -99 87.5 -164t262.5 -89q-70 -13 -140.5 -39t-139.5 -67.5t-122 -92.5t-86 -120.5t-33 -146.5q0 -126 91 -220t222 -140
q132 -42 266 -42q75 0 149.5 12.5t148 42t129.5 71.5t90.5 107t34.5 143q0 110 -103 177q-97 63 -236 63h-12q-66 -2 -114 -15q-10 -3 -14 7t6 15q41 20 72 32z" />
    <glyph glyph-name="quotesingle" unicode="'" horiz-adv-x="382" 
d="M311 1422q28 -68 3 -143q-25 -69 -34 -114q-17 -75 -25 -154q-2 -25 -20.5 -42t-44.5 -17t-45 17.5t-21 42.5q-6 73 -24 152q-16 72 -31 114q-25 70 -4 135q6 19 19 36q42 51 106 51q63 0 105 -51q8 -9 16 -27zM279 1291q21 60 -2 116q-5 11 -11 19q-31 37 -76 37
q-46 0 -77 -37q-7 -8 -12 -25q-18 -55 2 -110q16 -43 34 -119q19 -89 25 -157q1 -11 9 -18.5t19 -7.5t19 8t9 18q7 72 26 158q10 42 35 118z" />
    <glyph glyph-name="parenleft" unicode="(" horiz-adv-x="540" 
d="M603 -60q23 -4 38 -22t15 -41q0 -26 -18.5 -44t-44.5 -18h-8q-115 15 -196 55q-118 57 -181 164q-60 100 -84 224q-24 120 -24 284v313q0 156 23 274q22 119 82 223q62 110 180 170q86 43 200 58q1 0 4 0.5t4 0.5q26 0 44.5 -18.5t18.5 -44.5q0 -23 -15 -40.5t-38 -21.5
q-37 -6 -71 -17q-55 -19 -97 -46q-34 -23 -57 -60q-26 -41 -40 -78q-11 -30 -18 -90q-6 -48 -8 -94q-1 -21 -1 -98v-550q0 -197 32 -285q30 -85 93.5 -133.5t166.5 -64.5zM619 -123v1q0 21 -22 25q-221 34 -289 223q-34 92 -34 297v549q0 79 1 100q2 48 8 97q8 69 20 99
q14 38 43 84q29 48 68 73q38 25 106 49q42 14 77 19q22 4 22 25q0 10 -7.5 17.5t-18.5 7.5h-3q-110 -15 -188 -55q-107 -54 -165 -154q-55 -97 -78 -212q-21 -112 -21 -267v-313q0 -163 22 -276q23 -118 80 -213q58 -98 165 -149q80 -39 185 -52h3q11 0 18.5 7.5t7.5 17.5z
" />
    <glyph glyph-name="parenright" unicode=")" horiz-adv-x="540" 
d="M413 1137q24 -120 24 -284v-313q0 -156 -23 -274q-23 -121 -81 -223q-61 -108 -181 -169q-89 -44 -200 -59h-8q-26 0 -44.5 18t-18.5 44q0 23 15 40.5t38 21.5q32 5 71 18q61 21 98 45q31 21 56 61q26 41 40 78q11 30 18 90q6 48 8 94q1 21 1 98v549q0 197 -32 285
q-59 168 -260 199q-23 4 -38 21.5t-15 40.5q0 26 18.5 44.5t44.5 18.5q2 0 4 -0.5t4 -0.5q115 -15 196 -55q119 -58 181 -163q60 -100 84 -225zM400 540v313q0 159 -23 277t-80 213q-57 96 -165 148q-80 39 -185 52h-3q-11 0 -18.5 -7.5t-7.5 -17.5q0 -9 6.5 -17t15.5 -9
q222 -34 289 -222q35 -94 35 -298v-549q0 -78 -1 -99q-2 -35 -9 -98q-8 -69 -20 -99q-14 -38 -43 -84q-28 -46 -68 -72q-41 -27 -106 -50q-37 -12 -77 -18q-9 -1 -15.5 -9t-6.5 -17q0 -10 7.5 -17.5t18.5 -7.5h3q110 15 188 55q107 54 165 154q55 97 78 212q22 118 22 267z
" />
    <glyph glyph-name="asterisk" unicode="*" horiz-adv-x="770" 
d="M686 1154q13 -5 21 -17t7 -25q-2 -32 -30 -41l-110 -35l47 -105q9 -22 -4 -42q-13 -19 -36 -19q-12 0 -20 4l-102 53l-42 -107q-12 -28 -41 -28q-31 0 -41 30l-36 109l-105 -46q-12 -4 -17 -4q-25 0 -38 21q-12 20 -1 43l52 102l-107 42q-13 5 -21 17t-7 25q2 30 31 40
l109 36l-46 105q-10 22 3 41q13 20 37 20q10 0 20 -5l102 -52l41 107q12 28 41 28q14 0 25.5 -8.5t16.5 -22.5l35 -109l105 46q12 4 18 4q24 0 37 -21q12 -20 1 -43l-52 -102zM672 1107q5 2 5 6t-4 6l-146 56l71 139q4 10 -5 10h-1l-2 -1l-143 -63l-48 149q-1 4 -6 4t-6 -4
l-57 -145l-138 71q-1 1 -3 1q-3 0 -5 -2.5t-1 -6.5l62 -143l-148 -48q-5 -2 -5 -6t5 -6l145 -57l-71 -139q-1 -4 1 -6.5t5 -2.5h2l143 63l48 -148q2 -5 6 -5q5 0 6 4l57 146l139 -71q1 -1 3 -1q3 0 5 2.5t1 6.5l-63 143z" />
    <glyph glyph-name="plus" unicode="+" horiz-adv-x="1009" 
d="M905 671q27 0 46.5 -19.5t19.5 -46.5t-19.5 -46t-46.5 -19h-335v-335q0 -27 -19 -46t-46 -19t-46 19t-19 46v335h-336q-27 0 -46 19t-19 46t19 46.5t46 19.5h336v335q0 27 19 46t46 19t46 -19t19 -46v-335h335zM905 578q11 0 19.5 8t8.5 19t-8.5 19.5t-19.5 8.5h-372v373
q0 11 -8.5 19.5t-19.5 8.5t-19.5 -8.5t-8.5 -19.5v-373h-373q-11 0 -19.5 -8.5t-8.5 -19.5t8.5 -19t19.5 -8h373v-373q0 -11 8.5 -19.5t19.5 -8.5t19.5 8.5t8.5 19.5v373h372z" />
    <glyph glyph-name="comma" unicode="," horiz-adv-x="401" 
d="M197 253q-47 0 -80 -33t-33 -79q0 -43 28.5 -75t70.5 -37q1 -1 6 -26q9 -48 -5 -94q-5 -19 7 -31q9 -9 22 -9q17 0 26 15q27 44 43 84q34 81 34 148q0 62 -31 96h-1q-34 41 -87 41zM47 141q0 62 44 106t106 44q69 0 115 -54q41 -46 41 -121q0 -71 -37 -162
q-20 -48 -45 -89q-20 -33 -58 -33q-28 0 -48 20q-30 30 -17 68q12 38 5 77h-1q-46 14 -75.5 54t-29.5 90z" />
    <glyph glyph-name="hyphen" unicode="-" horiz-adv-x="784" 
d="M685 717q27 0 46 -19t19 -46t-19 -46t-46 -19h-587q-27 0 -46 19t-19 46t19 46t46 19h587zM685 624q11 0 19.5 8.5t8.5 19.5t-8.5 19.5t-19.5 8.5h-587q-11 0 -19.5 -8.5t-8.5 -19.5t8.5 -19.5t19.5 -8.5h587z" />
    <glyph glyph-name="period" unicode="." horiz-adv-x="370" 
d="M185 242q-44 0 -73 -29q-30 -30 -30 -73t30 -73t73 -30t73 30q29 29 29 73t-29 73t-73 29zM86 239q40 40 99 40t99 -40q41 -41 41 -99t-41 -99t-99 -41t-99 41t-41 99t41 99z" />
    <glyph glyph-name="slash" unicode="/" horiz-adv-x="1124" 
d="M1002 1544q20 -31 4 -62l-771 -1624q-19 -37 -58 -37q-35 0 -54 30q-20 31 -4 62l771 1625q18 36 58 36q35 0 54 -30zM972 1498q7 13 -1 26t-23 13q-18 0 -25 -15l-770 -1625q-7 -13 1 -26t23 -13q17 0 24 16z" />
    <glyph glyph-name="zero" unicode="0" horiz-adv-x="1519" 
d="M1117 1201q125 -157 125 -478t-125 -478q-124 -156 -357 -156t-357 156q-126 158 -126 478t126 478q123 155 357 155t357 -155zM1088 268q117 146 117 455t-117 455q-112 141 -328 141t-328 -141q-118 -147 -118 -455t118 -455q112 -141 328 -141t328 141zM1254 1238
q188 -206 188 -515t-188 -515q-190 -208 -494 -208t-494 208q-188 206 -188 515t188 515q190 208 494 208t494 -208zM1226 233q178 196 178 490q0 293 -178 489q-180 197 -466 197q-287 0 -467 -197q-178 -196 -178 -489q0 -294 178 -490q179 -196 467 -196q287 0 466 196z
M988 756q13 -4 20.5 -15.5t6.5 -25.5q-2 -30 -30 -38l-71 -23l30 -69q10 -21 -3 -40t-35 -19q-9 0 -19 5l-67 34l-27 -70q-10 -27 -40 -27t-40 29l-23 72l-68 -31q-8 -3 -17 -3q-23 0 -36 20q-13 21 -2 41l35 67l-70 27q-29 10 -27 40q2 31 29 39l71 23l-30 69q-10 21 3 40
t36 19q9 0 19 -5l67 -34l27 70q10 27 39 27q30 0 40 -29l23 -72l69 30q10 4 17 4q23 0 36 -20q12 -20 1 -41l-34 -67zM974 712q3 1 3 4.5t-3 4.5l-108 42l53 104q5 7 -4 7q-1 0 -1 -0.5t-1 -0.5l-107 -46l-35 110q-2 4 -5 4q-2 0 -4 -4l-43 -108l-103 53h-1l-1 1q-7 0 -5 -7
l47 -106l-111 -36q-3 -1 -3 -4.5t3 -4.5l109 -42l-53 -104q-5 -7 4 -7q1 0 1 0.5t1 0.5l106 46l36 -110q2 -4 4 -4q3 0 5 3l42 109l104 -53h1l1 -1q6 0 4 7l-47 106z" />
    <glyph glyph-name="one" unicode="1" horiz-adv-x="667" 
d="M583 122q20 -21 18 -47t-20.5 -43t-44.5 -17h-324q-26 0 -44.5 17t-20.5 43q-2 27 17 47q18 20 46 20q23 0 40 16.5t17 39.5v815q-53 -61 -116 -105q-15 -11 -36 -11q-37 0 -55 31q-13 21 -7.5 46t25.5 38q51 35 122 142.5t138 235.5q21 41 67 41q32 0 54 -22t22 -53
v-1158q0 -23 16.5 -39.5t39.5 -16.5h1q27 0 45 -20zM536 52q11 0 19 7.5t9 17.5q1 11 -7 19t-19 8h-1q-39 0 -66 27.5t-27 66.5v1158q0 16 -11.5 27t-27.5 11q-23 0 -34 -21q-30 -59 -66 -122.5t-98.5 -151t-107.5 -118.5q-8 -6 -10 -16t3 -18q8 -13 23 -13q6 0 14 5
q98 70 175 182v-923q0 -39 -27.5 -66.5t-66.5 -27.5q-11 0 -19 -8t-7 -19q1 -10 9 -17.5t19 -7.5h324z" />
    <glyph glyph-name="two" unicode="2" horiz-adv-x="1368" 
d="M1276 283q15 -27 6 -54q-29 -93 -77 -147q-72 -82 -245 -82q-142 0 -371 80q-214 75 -296 75q-42 0 -68 -12q-8 -3 -15 -18q-5 -9 -3 -20l-37 -3q-2 23 6 39q11 24 32 35q34 16 85 16q94 0 309 -76q225 -79 358 -79q155 0 217 70q45 51 70 134q4 13 -2.5 24t-19.5 14h-1
q-2 1 -6 1q-16 0 -25 -14q-16 -27 -47 -42q-56 -28 -125 -28q-81 0 -292 64q-219 66 -332 66q-94 0 -165 -44q-30 -20 -42 -32q16 39 34 66q21 30 66 63t80 54q33 20 100 48q27 11 63 25.5t41 16.5q40 16 116 41q216 76 299 122q254 134 254 363q0 176 -152 269
q-149 91 -390 91q-252 0 -408 -87q-159 -89 -159 -258q0 -78 40 -121q10 -11 26 -22l1 -1l1 -1q1 -1 3.5 -2.5t3.5 -1.5l4 -2l6 -3q1 0 2.5 -1t2.5 -1t3.5 -1t3.5 -1t1 -1l2 -1q2 0 5 -1t4 -1q8 -2 24 -2q47 0 79 32q36 34 36 84q0 42 -27 74t-67 40q-1 5 -1 14
q0 101 106 155q112 57 308 57q192 0 286 -72.5t94 -221.5q0 -144 -106 -237q-111 -97 -356 -204t-338 -178q-176 -134 -161 -345q1 -8 7.5 -14t14.5 -6h6q10 0 16.5 6.5t5.5 16.5v1l37 3q3 -26 -15 -46q-17 -19 -44 -19h-6q-23 0 -40.5 16t-18.5 39q-17 231 176 378
q100 75 345 182q240 104 346 198q94 82 94 209q0 130 -80 192q-85 65 -263 65q-186 0 -290 -53q-80 -40 -86 -109q42 -17 68 -55.5t26 -85.5q0 -66 -48 -111q-42 -42 -104 -42q-16 0 -31 3h-1q-8 2 -11 3l-2 1h-3q-2 0 -4.5 1t-3.5 2l-1 1q-1 0 -3 1t-3 1q-2 0 -3.5 2
t-3.5 2q-1 0 -3.5 1t-3.5 2q-2 1 -4 2.5t-4 2.5q-2 2 -3 2q-19 13 -33 28q-49 52 -49 146q0 191 178 291q162 91 426 91q253 0 409 -96q170 -104 170 -301q0 -252 -273 -396q-93 -52 -305 -125q-97 -33 -115 -40q-23 -8 -102 -41q-61 -26 -96 -46q-12 -7 -67 -45q34 7 75 7
q121 0 343 -67q210 -63 281 -63q58 0 108 25q20 10 32 28q20 31 57 31q5 0 15 -2q29 -6 43 -32z" />
    <glyph glyph-name="three" unicode="3" horiz-adv-x="1411" 
d="M1286 610q48 -79 48 -183q0 -209 -187 -322q-173 -105 -464 -105q-256 0 -423 101q-182 110 -182 313q0 98 51 155q53 61 130 61q73 0 120 -53q20 -23 29 -52q9 -25 9 -51q0 -49 -28 -88.5t-73 -56.5v-3q0 -90 88 -140q104 -59 279 -59q225 0 322 76q92 72 92 224
q0 148 -122 221q-132 79 -405 79h-54q-26 0 -45 18.5t-19 44.5t19 44.5t45 18.5h54q245 0 351 75q96 68 96 182q0 113 -69 157q-83 52 -265 52q-159 0 -249 -45q-53 -26 -66 -67q47 -21 72 -67t17 -99q-7 -49 -43 -85t-85 -43q-16 -2 -25 -2q-70 0 -118 54l-1 1
q-46 49 -46 135q0 170 164 262q148 83 380 83q91 0 182 -13q88 -14 168 -43q94 -33 148 -105q56 -74 56 -175q0 -108 -56 -187q-55 -78 -155 -117q-2 -1 -8 -3t-8 -3q86 -25 154 -66q76 -46 122 -124zM1128 137q168 102 168 290q0 93 -42 164q-41 70 -109 111v1
q-63 38 -155 64q-72 20 -135 29q80 15 157 45q91 35 138 103q49 68 49 166q0 89 -48 152t-131 93q-79 29 -161 41q-88 13 -176 13q-224 0 -362 -78q-144 -81 -144 -230q0 -73 36 -110l1 -1q36 -42 90 -42q5 0 19 2q37 6 64 33t33 64q7 49 -20.5 87t-73.5 47q4 81 92 126
q97 49 265 49q195 0 285 -57q86 -55 86 -189q0 -135 -111 -213q-114 -81 -373 -81h-54q-10 0 -18 -8t-8 -18t8 -18t18 -8h54q285 0 424.5 -83.5t139.5 -253.5q0 -171 -106 -253q-109 -85 -345 -85q-184 0 -297 64q-107 61 -107 173q0 16 5 33q42 8 69 40t27 75q0 19 -7 40
q-6 22 -21 38q-36 40 -93 40q-60 0 -102 -48q-42 -47 -42 -130q0 -183 164 -281q159 -96 404 -96q280 0 445 100z" />
    <glyph glyph-name="four" unicode="4" horiz-adv-x="1372" 
d="M1274 514q26 0 44.5 -18.5t18.5 -44.5t-18.5 -44.5t-44.5 -18.5h-179v-189q0 -23 17 -40t40 -17q26 0 44.5 -19t18.5 -45t-18.5 -44.5t-44.5 -18.5h-328q-26 0 -45 18.5t-19 44.5t19 45t45 19q23 0 40 17t17 40v189h-809q-16 0 -26.5 10.5t-10.5 26.5v46q0 24 23 34l12 5
q251 101 386 266q132 160 132 314q0 70 -31 101q-15 16 -32 24q-18 -41 -56.5 -66t-84.5 -25q-64 0 -109.5 45t-45.5 109q0 36 17 70l1 1q1 1 2.5 5t2.5 5q6 10 22 28l1 1q11 11 17 16q56 42 132 42q115 0 204 -94q87 -92 87 -262q0 -252 -258 -572l424 -2v198
q0 44 31.5 75.5t75.5 31.5t75.5 -31.5t31.5 -75.5v-198zM1274 425q10 0 18 7.5t8 18.5t-8 18.5t-18 7.5l-216 2v235q0 29 -20.5 49.5t-49.5 20.5t-49.5 -20.5t-20.5 -49.5v-235l-540 2q300 347 300 609q0 154 -77 236q-77 83 -177 83q-63 0 -109 -35q-10 -8 -14 -12v-1
q-14 -17 -17 -21t-4 -8l-1 -1q-12 -24 -12 -53q0 -49 34 -83t83 -34q43 0 76 28t40 70q46 -3 84 -42q41 -44 41 -127q0 -168 -141 -338q-142 -172 -400 -276l-12 -5v-46h846v-226q0 -39 -27.5 -67t-66.5 -28q-10 0 -18 -8t-8 -18t8 -18t18 -8h328q10 0 18 8t8 18t-8 18
t-18 8q-39 0 -66.5 28t-27.5 67v226h216z" />
    <glyph glyph-name="five" unicode="5" horiz-adv-x="1417" 
d="M1187 886q150 -117 150 -342q0 -245 -196 -397q-191 -147 -471 -147q-243 0 -412 102q-184 109 -184 312q0 98 51 155q28 31 62 46q36 18 71 18q64 0 109.5 -45.5t45.5 -109.5q0 -49 -28 -88.5t-73 -56.5v-7q0 -91 86 -141q100 -58 272 -58q213 0 321 111
q109 114 109 306q0 142 -89 228q-90 87 -268 87q-220 0 -508 -150q-14 -7 -25 -7q-25 0 -43 21q-17 20 -12 45l110 600v2q8 35 33.5 55.5t62.5 20.5q24 0 264 -50q223 -47 357 -53q13 -1 37 -1q80 0 116 17q24 10 37 34q19 33 57 33q13 0 27 -6l2 -1q23 -11 32.5 -34
t1.5 -46q-33 -96 -100 -154q-87 -75 -269 -75q-96 0 -213 20q-119 21 -248 51q-70 17 -100 24l-60 -325q264 119 511 119q231 0 374 -113zM1118 176q182 141 182 368q0 207 -136 313q-134 104 -351 104q-271 0 -561 -146l80 435q24 -6 139 -33q136 -32 245 -50
q108 -19 207 -19q170 0 245 65q58 50 88 138q7 24 -14 34l-2 1q-6 3 -11 3q-17 0 -25 -15q-20 -34 -54 -49q-46 -20 -131 -20q-25 0 -39 1q-130 6 -362 54q-237 49 -257 49q-49 0 -60 -47l-110 -600q-1 -9 5 -15.5t14 -6.5q2 0 8 2q299 154 525 154q194 0 294 -97
q101 -96 101 -255q0 -207 -120 -332q-118 -123 -348 -123q-180 0 -291 64q-104 61 -104 173q0 20 6 37q41 8 68 40.5t27 74.5q0 49 -34.5 83.5t-83.5 34.5q-30 0 -55 -14q-27 -12 -50 -38q-42 -47 -42 -130q0 -180 167 -280q162 -97 392 -97q268 0 448 139z" />
    <glyph glyph-name="six" unicode="6" horiz-adv-x="1462" 
d="M1087 738q90 -81 90 -233q0 -107 -28 -184q-29 -79 -71 -121q-40 -41 -101 -68q-63 -27 -110 -34q-61 -9 -107 -9q-190 0 -318 123q-124 121 -154 361q92 91 232 169t303 78q171 0 264 -82zM1114 334q26 69 26 171q0 136 -78 205q-82 73 -239 73q-154 0 -285 -74
q-125 -69 -211 -150q32 -214 141 -320q115 -112 292 -112q56 0 101 7q44 7 101 32q52 22 90 60q37 38 62 108zM1236 810q141 -117 141 -311q0 -234 -181 -370q-172 -129 -436 -129q-324 0 -504 206q-176 202 -176 517q0 199 76 357q78 163 245 265q166 101 394 101
q223 0 376 -94q165 -103 165 -288q0 -93 -50 -146q-50 -55 -120 -55h-13q49 -25 83 -53zM1174 159q165 123 165 340q0 176 -127 282q-125 104 -353 104q-177 0 -335 -78q-134 -65 -242 -169q-3 42 -3 85q0 326 136 480q135 153 378 153q160 0 258 -58q95 -55 95 -154
q0 -2 -0.5 -5t-0.5 -5q-41 -8 -68 -40.5t-27 -74.5q0 -39 22 -69l9 -12q33 -38 85 -38q53 0 93 43q39 42 39 121q0 164 -146 256q-143 89 -357 89q-219 0 -375 -96q-156 -95 -230 -249q-73 -154 -73 -341q0 -302 167 -493q167 -193 476 -193q251 0 414 122zM1042 929
q-29 41 -29 90q0 47 26 86t68 57q-7 64 -75 104q-92 53 -239 53q-227 0 -350 -140q-127 -144 -127 -456q0 -1 0.5 -2.5t0.5 -2.5q90 73 191 122q164 82 351 82q121 0 214 -28q-14 12 -20 19q-2 3 -11 16z" />
    <glyph glyph-name="seven" unicode="7" horiz-adv-x="1284" 
d="M1222 1360q16 -17 14 -39q-10 -128 -29 -196q-31 -107 -91 -208q-58 -99 -106 -163q-38 -52 -122 -159q-80 -98 -106 -135q-33 -46 -62 -105q-17 -35 -24 -66q45 -26 65 -74q3 -4 5 -14q8 -24 8 -46q0 -64 -45.5 -109.5t-109.5 -45.5h-6h-7q-84 0 -135 54q-50 53 -50 144
q0 62 23 123q22 59 79 128q34 43 85 100q29 33 113 117q89 89 116 117q48 50 102 117q58 71 91 131q25 47 51 117q-71 -30 -166 -30q-96 0 -326 49q-215 46 -304 46q-63 0 -91 -23t-38 -59q-6 -20 -23 -32.5t-38 -12.5q-11 0 -21 3q-23 8 -35 29t-7 45q27 125 83 195
q71 88 232 88q120 0 362 -59q224 -55 331 -55q54 0 72 18q29 27 67 27h5q23 0 38 -17zM1171 1135q18 64 28 189q1 6 -4 10.5t-11 4.5h-5q-25 0 -41 -16q-28 -28 -98 -28q-107 0 -340 56q-240 58 -353 58q-143 0 -203 -74q-49 -61 -75 -180q-2 -10 2.5 -19t14.5 -12
q3 -1 9 -1q20 0 25 19q33 108 165 108q88 0 312 -47q228 -48 318 -48q104 0 178 40q31 18 50 37q-7 -34 -20 -76q-27 -84 -60 -143q-33 -60 -95 -137q-55 -68 -105 -120q-27 -28 -116 -117q-67 -67 -111 -115q-20 -22 -84 -99q-52 -62 -73 -117q-21 -54 -21 -110
q0 -76 40 -119q40 -42 108 -42q2 0 4 0.5t3 0.5t3 -0.5t3 -0.5q49 0 83 34.5t34 83.5q0 20 -6 38v2h-1q-20 54 -73 71q0 44 31 106t65 110q38 51 107 136q42 53 121 158q49 67 104 160q58 98 87 199z" />
    <glyph glyph-name="eight" unicode="8" horiz-adv-x="1449" 
d="M540 939l-16 -34q-26 12 -66 33q-37 18 -56 36q-6 5 -12 12t-14.5 16t-13.5 15q-20 23 -27 47q-8 27 -8 55q0 119 108 177q113 60 289 60q187 0 314 -67q122 -64 122 -189q0 -72 -78 -158q-78 -87 -228 -143q-4 1 -18 5.5t-29.5 9.5t-32.5 10l-90 28q-7 2 -29 9t-39 12
l-13 4q-54 17 -79 29l16 33q18 -9 74 -26l13 -4q17 -5 39 -12t29 -9l90 -28q14 -5 37 -12t31 -9q132 52 201 128q69 77 69 133q0 102 -103 156q-120 63 -296 63q-166 0 -272 -56q-88 -47 -88 -144q0 -21 7 -45q5 -17 18 -32q23 -27 39 -41q13 -13 47 -30l39 -19.5t26 -12.5z
M1076 555q76 -35 112 -83q35 -45 35 -105q0 -134 -144 -204q-151 -74 -374 -74q-136 0 -247 29q-106 27 -182 96q-72 68 -72 162q0 102 92 194q95 93 261 159q20 -7 176 -55q42 -13 105.5 -33t85.5 -27q70 -22 152 -59zM1063 196q123 60 123 171q0 45 -28 82q-30 40 -98 72
q-73 34 -147 58q-25 8 -89 27.5t-102 31.5q-34 11 -88.5 28.5t-74.5 23.5q-151 -62 -236 -147q-82 -80 -82 -167q0 -79 60 -135q66 -61 166 -87q105 -27 238 -27q216 0 358 69zM1332 575q42 -70 42 -160q0 -147 -111 -248q-104 -94 -251 -131q-141 -36 -312 -36
q-249 0 -428 85q-198 94 -198 278q0 242 318 393q-78 40 -130 86q-103 91 -103 231q0 192 179 287q161 86 386 86q140 0 260 -32q123 -33 210 -109q95 -84 95 -204q0 -109 -101 -212q-54 -56 -156 -109q7 -2 18.5 -7t15.5 -6q75 -31 144 -73q80 -48 122 -119zM1238 195
q99 89 99 220q0 79 -37 141q-36 62 -109 106q-69 42 -139 71q-54 22 -119 42q152 63 228 141q90 92 90 185q0 104 -81 176q-78 69 -195 101q-118 31 -251 31q-213 0 -368 -82q-159 -85 -159 -254q0 -124 90 -203q73 -64 196 -115q-372 -146 -372 -392q0 -161 177 -245
q170 -81 412 -81q165 0 303 35q139 36 235 123z" />
    <glyph glyph-name="nine" unicode="9" horiz-adv-x="1462" 
d="M1205 1240q176 -202 176 -517q0 -197 -77 -357q-79 -164 -244 -265q-166 -101 -395 -101q-223 0 -376 94q-164 102 -164 288q0 94 49 146q50 55 121 55h12q-49 25 -83 53q-140 116 -140 311q0 233 181 369q174 130 436 130q324 0 504 -206zM1271 382q73 154 73 341
q0 302 -167 493q-167 193 -476 193q-251 0 -414 -122q-166 -124 -166 -340q0 -176 127 -282q125 -104 354 -104q176 0 334 78q136 66 243 169q2 -28 2 -85q0 -327 -136 -481q-135 -153 -378 -153q-159 0 -257 58q-95 55 -95 155v9q41 8 68.5 41t27.5 75q0 38 -23 69l-9 12
q-33 38 -84 38q-53 0 -93 -43t-40 -121q0 -164 147 -256q143 -89 356 -89q219 0 375 96q158 96 231 249zM419 517q29 -41 29 -90q0 -47 -26.5 -86t-68.5 -57q7 -64 76 -104q92 -53 238 -53q227 0 350 140q127 144 127 456v5q-90 -73 -191 -122q-164 -82 -351 -82
q-122 0 -215 28q14 -12 20 -19q8 -10 12 -16zM701 1356q190 0 317 -122q125 -122 155 -361q-91 -89 -233 -169q-140 -78 -303 -78q-170 0 -263 82q-91 82 -91 233q0 105 29 184q29 80 70 121q39 41 102 68t110 34q54 8 107 8zM922 736q125 69 212 151q-31 212 -142 320
q-115 112 -291 112q-50 0 -101 -8q-49 -8 -102 -31q-49 -21 -89 -61q-37 -39 -62 -107q-26 -69 -26 -171q0 -136 78 -205q82 -73 238 -73q155 0 285 73z" />
    <glyph glyph-name="colon" unicode=":" horiz-adv-x="407" 
d="M203 788q-58 0 -99 41t-41 99t41 99t99 41t99 -41t41 -99t-41 -99t-99 -41zM130 1001q-29 -29 -29 -73t29 -73t73 -29t73 29q30 30 30 73t-30 73t-73 30t-73 -30zM203 259q58 0 99 -41t41 -99t-41 -99t-99 -41t-99 41t-41 99t41 99t99 41zM276 46q30 30 30 73t-30 73
t-73 30t-73 -30q-29 -29 -29 -73t29 -73t73 -29t73 29z" />
    <glyph glyph-name="semicolon" unicode=";" horiz-adv-x="432" 
d="M327 208q40 -44 40 -121q0 -70 -37 -161q-22 -51 -45 -90q-20 -33 -58 -33q-28 0 -48 20q-30 30 -17 69q12 38 5 76v1q-47 14 -76.5 54t-29.5 89q0 62 44.5 106t106.5 44q69 0 115 -54zM296 -60q34 81 34 147q0 62 -31 96q-35 42 -87 42q-46 0 -79.5 -33.5t-33.5 -79.5
q0 -43 28 -75t70 -37q3 -8 7 -26q8 -45 -6 -93q-5 -19 7 -31q9 -9 22 -9q18 0 27 15q24 39 42 84zM214 788q-58 0 -99 41q-40 40 -40 99t40 99q41 41 99 41q59 0 100 -41q40 -40 40 -99q0 -58 -41 -99t-99 -41zM142 1001q-30 -30 -30 -73t30 -73q29 -29 72 -29q44 0 73 29
q30 30 30 73t-30 73t-73 30q-42 0 -72 -30z" />
    <glyph glyph-name="less" unicode="&#x3c;" horiz-adv-x="657" 
d="M210 605l374 -421q15 -17 15.5 -39t-13.5 -40q-19 -24 -49 -24q-27 0 -45 20l-441 479q-10 10 -10 25t10 26l441 479q18 20 45 20q30 0 49 -24q14 -18 13.5 -40t-15.5 -39zM557 128q12 16 -1 31l-396 446l396 446q14 16 1 32q-7 9 -20 9q-10 0 -18 -8l-441 -479l441 -478
q8 -8 18 -8q13 0 20 9z" />
    <glyph glyph-name="equal" unicode="=" horiz-adv-x="1021" 
d="M911 484q27 0 46.5 -19t19.5 -46t-19.5 -46t-46.5 -19h-801q-27 0 -46 19t-19 46t19 46t46 19h801zM911 391q11 0 19.5 8.5t8.5 19.5t-8.5 19.5t-19.5 8.5h-801q-11 0 -19.5 -8.5t-8.5 -19.5t8.5 -19.5t19.5 -8.5h801zM110 727q-27 0 -46 19t-19 46t19 46t46 19h801
q27 0 46.5 -19t19.5 -46t-19.5 -46t-46.5 -19h-801zM110 820q-11 0 -19.5 -8.5t-8.5 -19.5t8.5 -19.5t19.5 -8.5h801q11 0 19.5 8.5t8.5 19.5t-8.5 19.5t-19.5 8.5h-801z" />
    <glyph glyph-name="greater" unicode="&#x3e;" horiz-adv-x="657" 
d="M606 631q10 -10 10 -25.5t-10 -25.5l-441 -479q-18 -20 -46 -20q-29 0 -48 24q-14 18 -13.5 40t15.5 39l374 421l-374 422q-15 17 -15.5 39t13.5 40q19 24 48 24q28 0 46 -20zM137 127l441 478l-441 479q-8 8 -18 8q-11 0 -19 -9q-13 -16 1 -32l395 -446l-395 -445
q-14 -16 -1 -32q8 -9 19 -9q10 0 18 8z" />
    <glyph glyph-name="question" unicode="?" horiz-adv-x="1239" 
d="M623 255q59 0 99 -40q41 -41 41 -100q0 -58 -41 -99q-40 -40 -99 -40t-99 40q-41 41 -41 99q0 59 41 100q40 40 99 40zM696 43q30 30 30 72q0 43 -30 73t-73 30t-73 -30q-29 -29 -29 -73q0 -43 29 -72q30 -30 73 -30t73 30zM1087 1284q101 -86 101 -216q0 -98 -67 -186
q-59 -78 -146 -142q-78 -56 -152 -114l-135 -104q-39 -30 -39 -49q0 -8 18 -54q13 -30 -5 -57q-17 -26 -48 -28h-2l-2 -1q-34 0 -58 33q-13 17 -22 46t-9 59q0 69 63 132q39 40 113 99l125 101q54 44 92 120q37 76 37 161q0 109 -69 156q-79 55 -268 55q-156 0 -251 -56
q-73 -43 -80 -104q46 -20 72 -64t21 -95q-5 -55 -45.5 -94.5t-95.5 -44.5q-3 0 -7 -0.5t-7 -0.5q-72 0 -119 56q-1 0 -2.5 2t-1.5 3q-47 53 -47 148q0 177 172 281q160 96 391 96q136 0 257 -29q123 -30 216 -109zM1091 904q60 78 60 164q0 112 -88 188q-84 72 -201 101
q-114 27 -248 27q-224 0 -372 -90q-154 -94 -154 -249q0 -81 38 -124l4 -4q36 -44 91 -44q1 0 5 0.5t6 0.5q42 4 72.5 34t34.5 72q4 46 -23 82.5t-70 45.5q0 2 -0.5 6t-0.5 6q0 93 99 151q105 61 270 61q199 0 289 -61q85 -60 85 -187q0 -98 -40 -178q-42 -84 -102 -132
l-126 -101q-52 -42 -109 -97q-53 -51 -53 -105q0 -26 7 -47q8 -24 17 -36q13 -17 28 -17h2q13 1 19.5 11.5t1.5 22.5q-21 50 -21 68q0 38 53 79l136 104q65 51 152 114q82 60 138 134z" />
    <glyph glyph-name="at" unicode="@" horiz-adv-x="1654" 
d="M1407 1073q174 -183 174 -441q0 -211 -125 -353q-128 -145 -354 -145q-52 0 -91 13q-47 17 -73 64q-16 28 -20 64q-22 -23 -50 -48q-113 -95 -215 -95q-92 0 -159 75q-64 71 -64 197q0 197 149 364q152 169 348 169q43 0 101 -14q43 -11 61 -13q9 0 39 12l31 12q6 3 14 3
q12 0 23 -8q16 -13 13 -36l-86 -490v-2q-20 -84 -15 -131v-2l1 -1l2 -1h4q160 0 246 103q90 108 90 263q0 204 -139 349q-138 144 -385 144q-304 0 -514 -210q-209 -209 -209 -479q0 -217 146 -355q147 -139 380 -139q83 0 167 21q5 1 16 1q27 0 46 -19t19 -46
q0 -23 -13.5 -40.5t-35.5 -22.5q-99 -24 -199 -24q-288 0 -471 174q-185 176 -185 450q0 208 109 397q107 186 307 305q200 118 437 118q306 0 480 -183zM1428 303q116 131 116 329q0 243 -164 415q-163 171 -453 171q-230 0 -418 -112q-190 -113 -294 -292t-104 -378
q0 -259 173 -423t446 -164q93 0 190 23q21 5 21 27q0 12 -8.5 20t-19.5 8q-5 0 -7 -1q-88 -21 -176 -21q-248 0 -406 149q-157 149 -157 382q0 284 220 506q219 221 540 221q264 0 412 -156q149 -155 149 -375q0 -169 -98 -287q-96 -116 -275 -116q-40 0 -44 37
q-6 47 16 143l86 491l-31 -13q-37 -15 -54 -15h-1q-1 1 -2 1q-33 6 -66 14q-55 13 -92 13q-180 0 -320 -157t-140 -339q0 -111 55 -172q57 -63 131 -63q87 0 191 87q67 58 114 130q-4 -44 -5 -58q-2 -66 17 -99q19 -35 53 -47q31 -11 79 -11q210 0 326 132zM923 842
q40 0 70 -30q29 -29 17 -95l-29 -183q-55 -123 -139 -191q-83 -67 -150 -67q-38 0 -65 31q-28 31 -28 103q0 87 37 183q36 95 116 174q78 75 171 75zM973 723q8 48 -7 63q-19 19 -43 19q-80 0 -145 -64q-73 -70 -107 -161q-35 -91 -35 -170q0 -57 19 -79q15 -18 37 -18
q53 0 126 59q75 61 127 173z" />
    <glyph glyph-name="A" unicode="A" 
d="M1542 134q26 0 45 -18.5t19 -43.5q0 -26 -18.5 -44t-44.5 -18h-283q-26 0 -44.5 18t-18.5 44q0 43 40 58l-174 343h-596l-137 -292q-14 -30 -4 -44q5 -5 14 -5q26 0 44.5 -18t18.5 -43t-18.5 -43t-44.5 -18h-284q-26 0 -44 18t-18 43t18 43t44 18h56q27 0 37 22l593 1241
q14 32 53 32h37q38 0 53 -33l545 -1195q16 -30 46 -47.5t66 -17.5zM1543 47q11 0 18.5 7.5t7.5 17.5t-8 17.5t-19 7.5q-47 0 -86.5 23t-59.5 63l-545 1195q-5 12 -19 12h-37q-14 0 -19 -12l-594 -1240q-20 -43 -70 -43h-56q-10 0 -17.5 -7t-7.5 -17t7.5 -17t17.5 -7h284
q10 0 17.5 7t7.5 17t-7.5 17t-17.5 7q-40 0 -51 33t8 69l146 313h643l195 -383q5 -11 -1.5 -20.5t-19.5 -9.5q-11 0 -18.5 -7.5t-7.5 -17.5t7.5 -17.5t18.5 -7.5h283zM464 563l310 651l285 -651h-595zM523 600h479l-229 525z" />
    <glyph glyph-name="B" unicode="B" horiz-adv-x="1474" 
d="M1373 611q48 -80 48 -185q0 -224 -201 -324q-181 -91 -531 -91h-576q-26 0 -45 18.5t-19 44.5t19 44.5t45 18.5q22 0 37.5 15.5t15.5 37.5v1057q0 22 -15.5 37.5t-37.5 15.5q-26 0 -45 18.5t-19 44.5t19 45t45 19h490q103 0 136 -1q62 -2 133 -7q82 -6 138 -17
q45 -9 116 -34q74 -27 112 -62q37 -33 68 -93q30 -62 30 -131q0 -135 -94 -220q-44 -41 -118 -71q74 -24 131 -59q71 -44 118 -121zM1203 136q181 90 181 290q0 93 -43 165q-44 72 -105 110q-60 38 -153 63q-45 12 -108 23q323 57 323 295q0 65 -25 115q-25 49 -60 81
q-36 33 -99 55q-71 24 -112 33q-45 10 -133 16q-46 3 -131 6q-33 1 -135 1h-491q-10 0 -18 -7.5t-8 -18.5t8 -18.5t18 -7.5q38 0 64.5 -26.5t26.5 -63.5v-1057q0 -37 -26.5 -63.5t-64.5 -26.5q-10 0 -18 -8t-8 -18t8 -18t18 -8h577q338 0 514 88zM986 726q134 -33 185 -101
q51 -69 51 -199q0 -187 -116 -255q-121 -71 -417 -71h-346v660h245q262 0 398 -34zM1087 203q98 59 98 223q0 117 -44 176q-43 57 -164 87q-133 33 -389 33h-208v-585h309q286 0 398 66zM1034 865q-117 -53 -446 -53h-245v525h260q324 0 437 -49q104 -46 104 -208
q0 -164 -110 -215zM380 1300v-451h208q322 0 431 50q87 39 87 181q0 138 -81 174q-103 46 -422 46h-223z" />
    <glyph glyph-name="C" unicode="C" horiz-adv-x="1394" 
d="M1133 1200q-48 55 -131 84.5t-185 29.5q-125 0 -221 -39q-95 -38 -149 -95t-93 -141q-39 -86 -52 -159q-14 -81 -14 -162t14 -162q13 -73 52 -159q39 -84 93 -141t149 -95q36 -15 75 -24q67 -15 146 -15h5h4q16 0 44 2q105 11 188.5 71.5t126.5 158.5q18 41 63 41
q39 0 59 -33q21 -32 3 -66q-59 -121 -167 -199.5t-240 -96.5q-13 -2 -39 -4q-13 -1 -34 -1h-5h-1h-2h-5q-323 0 -543 196q-223 199 -223 527t223 527q220 196 543 196q163 0 327 -53q14 6 23 15q18 18 43 18q41 0 56 -40q0 -1 0.5 -1t0.5 -1l81 -274q8 -25 -3 -49t-36 -34
q-13 -5 -24 -5q-39 0 -59 36l-13 23l-3 7q-22 40 -44 74q-12 19 -33 43zM582 1310q100 41 235 41q109 0 199 -32t144 -94q23 -27 37 -48q15 -23 49 -83l13 -23q8 -16 26 -16q4 0 10 2q11 4 16 14.5t1 21.5l-81 275q-6 16 -21 16q-10 0 -17 -7q-21 -21 -49 -29
q-163 56 -327 56q-308 0 -518 -187q-211 -187 -211 -499t211 -499q210 -187 518 -187h4h3h2h4q19 0 31 1q24 2 37 4q123 17 224 91t155 184q8 16 -1.5 31t-27.5 15q-21 0 -29 -19q-49 -110 -141.5 -175.5t-204.5 -76.5q-30 -2 -47 -2h-3q-1 0 -3 -0.5t-3 -0.5q-81 0 -154 17
q-36 8 -81 25q-101 40 -162 104t-100 151q-39 85 -55 169q-14 76 -14 168t14 168q16 84 55 169q39 86 100 150q62 65 162 105zM1070 711q-2 -30 -29 -38l-71 -23l30 -69q10 -21 -3 -40t-36 -19q-9 0 -19 5l-67 34l-27 -70q-10 -27 -39 -27q-30 0 -40 29l-23 72l-69 -31
q-7 -3 -17 -3q-23 0 -36 20q-12 20 -1 41l34 67l-70 27q-29 10 -27 40q2 31 30 39l71 23l-30 69q-10 21 3 40t35 19q9 0 19 -5l67 -34l27 70q10 27 40 27t40 -29l23 -72l68 30q10 4 17 4q23 0 36 -20q13 -21 2 -41l-34 -67l69 -27q13 -4 20.5 -15.5t6.5 -25.5zM1030 708
q3 1 3 4.5t-3 4.5l-108 42l53 104q1 2 -1 4.5t-4 2.5h-1l-1 -1l-106 -46l-36 110q-2 4 -4 4q-3 0 -5 -4l-42 -108l-104 53q-1 0 -1 0.5t-1 0.5q-6 0 -4 -7l47 -107l-111 -35q-3 -1 -3 -4.5t3 -4.5l108 -42l-53 -104q-5 -7 4 -7h2l107 47l35 -110q2 -4 5 -4t5 3l42 109
l103 -53q1 0 1 -0.5t1 -0.5q7 0 5 7l-47 106z" />
    <glyph glyph-name="D" unicode="D" horiz-adv-x="1574" 
d="M1162 1201q159 -139 159 -482q0 -342 -159 -480q-160 -139 -497 -139h-322v1237l322 2h8q331 0 489 -138zM1138 267q145 126 145 452q0 327 -145 454q-149 129 -465 129h-8l-285 -2v-1163h285q323 0 473 130zM1309 1254q211 -176 211 -535q0 -322 -216 -517
q-214 -191 -639 -191h-552q-26 0 -45 18.5t-19 44.5t19 44.5t45 18.5q22 0 37.5 15.5t15.5 37.5v1057q0 22 -15.5 37.5t-37.5 15.5q-26 0 -45 18.5t-19 44.5t19 45t45 19h552q436 0 644 -173zM1279 230q204 183 204 489q0 342 -198 507q-194 163 -620 163h-552q-11 0 -19 -8
t-8 -18t8 -18t19 -8q37 0 63.5 -26.5t26.5 -63.5v-1057q0 -38 -26.5 -64t-63.5 -26q-11 0 -19 -8t-8 -18t8 -18t19 -8h552q411 0 614 182z" />
    <glyph glyph-name="E" unicode="E" horiz-adv-x="1214" 
d="M1167 292q21 -16 24.5 -42t-11.5 -48l-156 -241q0 -1 -1 -1t-1 -1q-17 -25 -48 -25q-34 0 -53 32q-23 41 -70 41h-737q-23 0 -41.5 14.5t-22.5 36.5q-6 28 14 53q18 23 49 23q22 0 37 15.5t15 37.5v1063q0 22 -15 37.5t-37 15.5h-4q-28 0 -44 19q-19 22 -16 47
q2 23 20 38.5t42 15.5h632q46 0 69 41q19 32 53 32q32 0 49 -25q0 -1 0.5 -1t0.5 -1l157 -241q14 -19 12 -43t-18 -41q-18 -20 -49 -20q-28 0 -46 18l-20 20q-137 134 -213 134h-53h-71h-2h-4h-186q-17 0 -29.5 -12t-12.5 -29v-460h242q9 0 15 6t6 15v2q0 27 18 45
q19 19 46 19q7 0 11 -1q23 -4 37.5 -22t14.5 -42v-172q0 -26 -18.5 -45t-44.5 -19q-8 0 -12 1q-23 4 -37.5 22t-14.5 42v3q0 9 -6 15t-15 6h-242v-495q0 -17 12.5 -29t29.5 -12h261h39h72h52q76 0 213 134l19 18q22 20 48 20q22 0 41 -14zM1149 223q7 9 6 21t-11 19
q-8 6 -18 6q-13 0 -22 -9l-19 -19q-150 -145 -239 -145h-52h-72q-6 0 -19 0.5t-20 0.5h-261q-32 0 -55.5 23t-23.5 55v532h279q24 0 41 -17t17 -41v-3q0 -10 6 -18t16 -9q1 0 2.5 -0.5t2.5 -0.5q11 0 18.5 8t7.5 19v172q0 10 -6 18t-16 9q-1 0 -2 0.5t-2 0.5q-11 0 -19 -8
t-8 -19v-2q0 -24 -17 -41t-41 -17h-279v497q0 32 23.5 55t55.5 23h186h6h71h53q90 0 239 -144l20 -20q8 -8 20 -8q13 0 22 9q17 17 2 37l-157 242q-7 9 -19 9q-14 0 -20 -12q-15 -28 -42.5 -44t-59.5 -16h-632q-9 0 -16 -6t-8 -15q-1 -10 5.5 -17.5t16.5 -7.5h4
q37 0 63.5 -26t26.5 -64v-1063q0 -37 -26.5 -63.5t-63.5 -26.5q-12 0 -20 -9.5t-6 -22.5q1 -9 9 -15t18 -6h737q32 0 59.5 -16t42.5 -44q6 -12 21 -12q10 0 18 9z" />
    <glyph glyph-name="F" unicode="F" horiz-adv-x="1085" 
d="M1068 1233q15 -22 11.5 -48t-24.5 -42q-19 -14 -41 -14q-27 0 -48 19l-19 19q-136 133 -211 133h-53h-71h-2h-4h-185q-17 0 -29 -12t-12 -28v-465h240q9 0 15 6t6 14v3q0 27 18 45q19 19 46 19h3q25 -1 42.5 -20.5t17.5 -45.5v-170q0 -26 -19 -45t-45 -19h-3
q-26 2 -43 20.5t-17 44.5v2q0 9 -6.5 15t-15.5 6h-239v-475q0 -24 17 -41t41 -17q31 0 49 -23q19 -24 13 -52q-4 -22 -22 -36.5t-41 -14.5h-324q-31 0 -49 23q-19 23 -14 52q4 22 21.5 36.5t40.5 15.5h3q21 0 36 15t15 36v1064v1q0 22 -15.5 37.5t-37.5 15.5h-3
q-29 0 -45 19q-18 21 -15 47q2 23 19.5 38.5t41.5 15.5h629q46 0 69 41q18 31 53 31q32 0 49 -25h1v-1zM1032 1172q10 7 11 19t-6 21l-156 240q-8 10 -19 10q-14 0 -20 -12q-15 -28 -43 -44.5t-59 -16.5h-629q-22 0 -24 -20q-1 -10 6 -17.5t17 -7.5h3q37 0 63.5 -26.5
t26.5 -63.5v-1065q0 -36 -25.5 -62t-61.5 -27h-3q-10 0 -17 -6t-9 -15q-2 -13 6 -22t20 -9h324q23 0 27 21q2 13 -6 22t-20 9q-40 0 -67.5 27.5t-27.5 67.5v512h276q24 0 41.5 -17t17.5 -41v-2q0 -11 7.5 -19t17.5 -9h1q11 0 19 8t8 19v171q0 11 -7.5 18.5t-17.5 8.5h-2
q-11 0 -18.5 -7.5t-7.5 -18.5v-3q0 -24 -17 -40.5t-41 -16.5h-277v502q0 32 23 54.5t55 22.5h185h6q4 0 28 0.5t43 0.5h53q90 0 237 -144l19 -19q9 -9 22 -9q10 0 18 6z" />
    <glyph glyph-name="G" unicode="G" horiz-adv-x="1560" 
d="M1479 796q26 0 44.5 -19t18.5 -45t-18.5 -44.5t-44.5 -18.5h-98q-10 0 -16.5 -7t-6.5 -17v-521q0 -25 -17.5 -42t-42.5 -17q-26 0 -43 18l-51 55q-1 1 -3 1q-3 0 -4 -1q-28 -26 -77 -57l-1 -1h-1q-97 -63 -215 -80q-13 -2 -39 -4q-13 -1 -34 -1h-5h-1h-2h-5
q-323 0 -543 196q-223 199 -223 527t223 527q220 196 543 196q163 0 327 -53q13 6 23 16q17 17 43 17q41 0 56 -40q0 -1 0.5 -1t0.5 -1l81 -274q8 -25 -3 -49t-36 -34q-13 -5 -24 -5q-39 0 -59 36l-13 23l-3 7q-22 40 -44 74q-12 19 -33 43q-48 55 -131 84.5t-185 29.5
q-125 0 -221 -39q-95 -38 -149 -95t-93 -141q-39 -86 -52 -159q-14 -81 -14 -162t14 -162q13 -73 52 -159q39 -84 93 -141t149 -95q36 -15 75 -24q67 -15 146 -15h5h4q16 0 44 2q122 12 203 98q32 41 51 95.5t19 105.5v222q0 10 -6.5 17t-16.5 7h-155q-26 0 -45 18.5
t-19 44.5t19 45t45 19h514zM1479 706q11 0 18.5 8t7.5 18t-7.5 18t-18.5 8h-514q-11 0 -19 -8t-8 -18t8 -18t19 -8h155q26 0 43.5 -18t17.5 -43v-222q0 -59 -21.5 -119.5t-57.5 -106.5q-90 -96 -229 -110q-30 -2 -47 -2h-3q-1 0 -3 -0.5t-3 -0.5q-81 0 -154 17q-36 8 -81 25
q-101 40 -162 104t-100 151q-39 85 -55 169q-14 76 -14 168t14 168q16 84 55 169q39 86 100 150q62 65 162 105q100 41 235 41q109 0 199 -32t144 -94q23 -27 37 -48q15 -23 49 -83l13 -23q8 -16 26 -16q4 0 10 2q11 4 16 14.5t1 21.5l-81 275q-5 16 -21 16q-10 0 -17 -7
q-21 -21 -49 -29q-163 56 -327 56q-308 0 -518 -187q-211 -187 -211 -499t211 -499q210 -187 518 -187h4h3h2h4q19 0 31 1q24 2 37 4q108 15 202 76q41 25 73 53q13 11 28 11q19 0 31 -14l50 -54q7 -7 16 -7t15.5 6.5t6.5 15.5v521q0 25 18 43t43 18h98z" />
    <glyph glyph-name="H" unicode="H" horiz-adv-x="1628" 
d="M1515 137q26 0 44.5 -18.5t18.5 -44.5t-18.5 -44.5t-44.5 -18.5h-320q-26 0 -45 18.5t-19 44.5t19 44.5t45 18.5q22 0 37 15.5t15 37.5v473h-868v-472q0 -22 16 -38t38 -16q26 0 44.5 -18.5t18.5 -44.5t-18.5 -44.5t-44.5 -18.5h-320q-26 0 -45 18.5t-19 44.5t19 44.5
t45 18.5q22 0 37 15.5t15 37.5v1058q0 22 -15 37t-37 15q-26 0 -45 18.5t-19 44.5t19 45t45 19h320q26 0 44.5 -19t18.5 -45t-18.5 -44.5t-44.5 -18.5q-22 0 -38 -15.5t-16 -37.5v-454h868v454q0 22 -15 37.5t-37 15.5q-26 0 -45 18.5t-19 44.5t19 45t45 19h320
q26 0 44.5 -19t18.5 -45t-19 -44.5t-45 -18.5q-22 0 -37 -15.5t-15 -37.5v-1057q0 -22 15.5 -37.5t37.5 -15.5zM1515 48q11 0 18.5 8t7.5 18t-7.5 18t-18.5 8h-1q-38 0 -64 26t-26 64v1057q0 37 26 63.5t64 26.5h1q11 0 18.5 7.5t7.5 18.5t-7.5 18.5t-18.5 7.5h-320
q-11 0 -18.5 -7.5t-7.5 -18.5t7.5 -18.5t18.5 -7.5q37 0 63.5 -26.5t26.5 -63.5v-491h-943v491q0 37 26.5 63.5t64.5 26.5q11 0 18.5 7.5t7.5 18.5t-7.5 18.5t-18.5 7.5h-320q-11 0 -19 -8t-8 -18t8 -18t19 -8q37 0 63 -25.5t26 -63.5v-1058q0 -38 -26 -64t-63 -26
q-11 0 -19 -8t-8 -18t8 -18t19 -8h320q11 0 18.5 8t7.5 18t-7.5 18t-18.5 8q-37 0 -64 27t-27 64v509h943v-510q0 -38 -26.5 -64t-63.5 -26q-11 0 -18.5 -8t-7.5 -18t7.5 -18t18.5 -8h320z" />
    <glyph glyph-name="I" unicode="I" horiz-adv-x="546" 
d="M433 137q26 0 44.5 -18.5t18.5 -44.5t-18.5 -44.5t-44.5 -18.5h-320q-26 0 -45 18.5t-19 44.5t19 44.5t45 18.5q22 0 37 15.5t15 37.5v1057q0 22 -15 37.5t-37 15.5q-26 0 -45 18.5t-19 44.5t19 45t45 19h320q26 0 44.5 -19t18.5 -45t-18.5 -44.5t-44.5 -18.5
q-22 0 -37.5 -15.5t-15.5 -37.5v-1057q0 -22 15.5 -37.5t37.5 -15.5zM433 48q11 0 18.5 8t7.5 18t-7.5 18t-18.5 8q-38 0 -64.5 26.5t-26.5 63.5v1057q0 37 26.5 63.5t64.5 26.5q11 0 18.5 7.5t7.5 18.5t-7.5 18.5t-18.5 7.5h-320q-11 0 -19 -8t-8 -18t8 -18t19 -8
q37 0 63.5 -26.5t26.5 -63.5v-1057q0 -38 -26.5 -64t-63.5 -26q-11 0 -19 -8t-8 -18t8 -18t19 -8h320z" />
    <glyph glyph-name="J" unicode="J" horiz-adv-x="1241" 
d="M1193 1402q19 -24 13 -53q-5 -22 -22.5 -36t-40.5 -14q-21 0 -36 -15.5t-15 -36.5v-699q0 -273 -146 -413q-145 -140 -426 -140q-195 0 -341 89q-159 98 -159 269q0 93 45 146l2 2v1q27 33 67 47q1 1 4 1h1l1 1q21 6 43 6q43 0 79.5 -23t55.5 -62q16 -34 16 -65
q0 -43 -22 -79t-60 -55q3 -64 68 -102q82 -49 200 -49q40 0 85 5q33 4 92 28q55 24 90 57q36 34 63 105q28 71 28 174v755q0 22 -15.5 37.5t-38.5 15.5q-28 0 -46 20q-19 20 -17 47q2 26 20.5 43t44.5 17h318q30 0 49 -24zM1170 1357q3 12 -5.5 22t-20.5 10h-318
q-11 0 -19 -7.5t-9 -17.5q-1 -11 7 -19t19 -8q38 0 64.5 -26.5t26.5 -64.5v-755q0 -106 -31 -187q-31 -80 -71 -119q-42 -40 -102 -65q-54 -23 -101 -30q-42 -6 -90 -6q-126 0 -219 55q-87 53 -87 139q0 7 2 21q35 11 57.5 40.5t22.5 67.5q0 25 -11 49q-14 29 -41.5 46.5
t-60.5 17.5q-16 0 -33 -5l-1 -1q-1 -1 -2 -1q-32 -11 -52 -36l-1 -1q-36 -42 -36 -123q0 -152 141 -237q136 -84 321 -84q266 0 400.5 129.5t134.5 386.5v699q0 37 25.5 63t62.5 27q22 0 27 20z" />
    <glyph glyph-name="K" unicode="K" horiz-adv-x="1345" 
d="M1306 382q19 -19 17 -47q-8 -139 -90 -227q-95 -101 -266 -101q-185 0 -338 125q-92 76 -221 249q-4 7 -13.5 19t-14.5 19v-229q0 -22 15.5 -37.5t37.5 -15.5q30 0 48 -23q20 -25 14 -52q-5 -23 -22.5 -37.5t-40.5 -14.5h-319q-31 0 -49 23q-20 25 -14 53q4 22 22 36.5
t41 14.5q22 0 37.5 15.5t15.5 37.5v1056q0 22 -15.5 38t-37.5 16q-28 0 -46 20q-20 21 -18 47q1 25 20 42t45 17h319q31 0 49 -23q19 -24 13 -53q-5 -22 -22.5 -36t-40.5 -14q-21 0 -36.5 -15.5t-15.5 -37.5v-491l480 521q6 7 3 15t-13 8q-28 0 -46 20q-19 20 -17 46t20 43
t44 17h279q24 0 41.5 -14.5t21.5 -37.5q5 -28 -13 -51q-17 -21 -46 -23q-78 -4 -120 -50l-543 -589l-46 -49q29 -28 65 -80q59 -87 123 -148t124 -91.5t110 -43t99 -12.5q64 0 118 19q54 18 92 47.5t46 54.5q6 19 22.5 31t36.5 12q26 0 45 -19zM1206 134q72 78 80 204
q1 10 -6.5 18t-18.5 8q-18 0 -23 -17q-11 -36 -56.5 -71.5t-105.5 -55.5q-62 -20 -130 -20q-53 0 -106.5 13t-118 45t-132.5 96.5t-130 156.5q-47 69 -88 97l11 12l61 67l543 588q53 59 146 62q11 1 18.5 10t5.5 21q-3 21 -26 21h-279q-11 0 -18.5 -7t-8.5 -17
q-1 -11 7 -19.5t19 -8.5q33 0 46 -30.5t-9 -55.5l-544 -590v586q0 37 25.5 63t62.5 27q22 0 27 20q3 13 -5 22.5t-20 9.5h-319q-11 0 -19 -7t-9 -17q-1 -11 7 -19.5t19 -8.5q38 0 64.5 -26.5t26.5 -64.5v-1056q0 -38 -26.5 -64t-63.5 -26q-10 0 -17 -6t-9 -15
q-2 -13 5.5 -22t19.5 -9h320q22 0 26 21q2 13 -5.5 22t-19.5 9q-37 0 -63.5 26t-26.5 64v334q27 -29 95 -121q37 -49 56 -73.5t57.5 -70t66 -69.5t70.5 -56.5t82.5 -49t91 -28.5t105.5 -12q155 0 239 90z" />
    <glyph glyph-name="L" unicode="L" horiz-adv-x="1329" 
d="M1324 252q5 -28 -11 -51l-156 -240q0 -1 -0.5 -1t-0.5 -1q-16 -24 -49 -24q-35 0 -53 31q-23 41 -69 41h-665h-15h-2h-190q-26 0 -45 18.5t-19 44.5t19 45t45 19q22 0 37 15.5t15 37.5v1057q0 22 -15 37t-37 15q-29 0 -49 23q-19 22 -14 52q4 22 22.5 37t41.5 15h319
q29 0 48 -22t14 -52q-4 -23 -22 -37.5t-42 -14.5q-21 0 -36 -15.5t-15 -36.5v-1072q0 -16 11 -27.5t27 -11.5h400h39q4 0 28.5 -0.5t42.5 -0.5q8 0 25.5 0.5t26.5 0.5q74 0 212 133l19 19q21 19 48 19q19 0 34 -9q25 -15 31 -44zM1282 222q8 10 5 22.5t-14 19.5q-5 4 -14 4
q-13 0 -22 -9l-19 -19q-147 -144 -237 -144h-53h-71q-7 0 -20 0.5t-19 0.5h-400q-32 0 -54 22.5t-22 53.5v1072q0 37 26 63t63 26q24 0 27 21q2 12 -5.5 21.5t-19.5 9.5h-319q-24 0 -27 -21q-2 -13 6 -22t20 -9q37 0 63.5 -26t26.5 -64v-1057q0 -37 -26.5 -63.5t-63.5 -26.5
q-11 0 -19 -8t-8 -18q0 -11 8 -19t19 -8h192h15h665q32 0 59.5 -16t42.5 -44q6 -12 20 -12q11 0 19 9z" />
    <glyph glyph-name="M" unicode="M" horiz-adv-x="1918" 
d="M1836 1426q26 0 44.5 -18.5t18.5 -44.5t-18.5 -45t-44.5 -19q-59 0 -100.5 -41.5t-41.5 -99.5v-968q0 -22 15.5 -37.5t37.5 -15.5h1q26 0 44.5 -19t18.5 -45t-18.5 -44.5t-44.5 -18.5h-321q-26 0 -45 18.5t-19 44.5t19 45t45 19q22 0 37.5 15.5t15.5 37.5v887l-509 -1028
q-12 -25 -35.5 -39.5t-51.5 -14.5q-58 0 -86 52l-501 954v-811q0 -22 15.5 -37.5t37.5 -15.5h1q26 0 44.5 -19t18.5 -45t-18.5 -44.5t-44.5 -18.5h-238q-26 0 -45 18.5t-19 44.5t19 45t45 19q23 0 38 15.5t15 37.5v1056q0 22 -15 37.5t-38 15.5q-26 0 -45 19t-19 45t19 44.5
t45 18.5h287q26 0 44.5 -18.5t18.5 -44.5t-18.5 -45t-44.5 -19q-1 1 -1 0v-1l536 -1036l510 1034q1 1 0 2l-2 1q-26 0 -44.5 19t-18.5 45t18.5 44.5t44.5 18.5h393zM1836 1337q10 0 18 7.5t8 18.5t-8 18.5t-18 7.5h-393q-11 0 -18.5 -7.5t-7.5 -18.5t7.5 -18.5t18.5 -7.5
q22 0 33.5 -18.5t1.5 -38.5l-543 -1101l-569 1101q-10 20 1 38.5t33 18.5q10 0 18 7.5t8 18.5t-8 18.5t-18 7.5h-287q-11 0 -19 -8t-8 -18t8 -18t19 -8q37 0 63.5 -26.5t26.5 -64.5v-1056q0 -38 -26.5 -64.5t-63.5 -26.5q-11 0 -19 -8t-8 -18t8 -18t19 -8h238q11 0 18.5 7.5
t7.5 18.5t-7.5 18.5t-18.5 7.5h-1q-38 0 -64.5 26.5t-26.5 64.5v962l572 -1088q17 -32 53 -32t53 33l580 1171v-1046q0 -38 -26.5 -64.5t-63.5 -26.5q-11 0 -18.5 -7.5t-7.5 -18.5t7.5 -18.5t18.5 -7.5h321q10 0 18 7.5t8 18.5t-8 18.5t-18 7.5h-1q-37 0 -63.5 26.5
t-26.5 64.5v968q0 74 52.5 126.5t126.5 52.5z" />
    <glyph glyph-name="N" unicode="N" horiz-adv-x="1495" 
d="M1389 1426q26 0 44.5 -18.5t18.5 -44.5t-18.5 -45t-44.5 -19q-22 0 -37.5 -15.5t-15.5 -37.5v-1173q0 -36 -22 -56.5t-51 -20.5q-36 0 -59 28l-908 1049v-883q0 -22 15.5 -37.5t37.5 -15.5h1q26 0 44.5 -19t18.5 -45t-18.5 -44.5t-44.5 -18.5h-238q-26 0 -44.5 18.5
t-18.5 44.5t18.5 45t44.5 19q22 0 38 15.5t16 37.5v1056q0 22 -16 37.5t-38 15.5q-26 0 -44.5 19t-18.5 45t18.5 44.5t44.5 18.5h238q26 0 44.5 -18.5t18.5 -44.5q0 -38 -33 -56l825 -955v894q0 22 -15.5 37.5t-37.5 15.5q-26 0 -44.5 19t-18.5 45t18.5 44.5t44.5 18.5h237z
M1389 1337q11 0 18.5 7.5t7.5 18.5t-7.5 18.5t-18.5 7.5h-237q-10 0 -18 -7.5t-8 -18.5t8 -18.5t18 -7.5q37 0 63.5 -26.5t26.5 -64.5v-994l-908 1051q-8 10 -2.5 22t18.5 12q10 0 18 7.5t8 18.5t-8 18.5t-18 7.5h-237q-11 0 -19 -8t-8 -18t8 -18t19 -8q37 0 63.5 -26.5
t26.5 -64.5v-1056q0 -38 -26.5 -64.5t-63.5 -26.5q-11 0 -19 -8t-8 -18t8 -18t19 -8h237q10 0 18 7.5t8 18.5t-8 18.5t-18 7.5h-1q-37 0 -63.5 26.5t-26.5 64.5v983l973 -1125q14 -15 31 -15q15 0 25 10.5t10 29.5v1173q0 38 27 64.5t64 26.5z" />
    <glyph glyph-name="O" unicode="O" horiz-adv-x="1634" 
d="M1314 1054q39 -85 55 -169q14 -77 14 -168q0 -93 -14 -170q-16 -84 -55 -169q-38 -85 -100 -150q-61 -64 -162 -104q-103 -41 -235 -41t-235 41q-101 40 -162 104q-62 65 -100 150q-39 85 -55 169q-14 76 -14 170q0 92 14 168q16 84 55 169q39 86 100 150q62 65 162 105
q100 41 235 41t235 -41q100 -40 162 -105q61 -64 100 -150zM1332 553q14 81 14 164q0 80 -14 161q-13 75 -52 160q-39 84 -93 141t-149 95q-96 39 -221 39t-221 -39q-95 -38 -149 -95t-93 -141q-39 -85 -52 -160q-14 -81 -14 -161q0 -83 14 -164q13 -73 52 -159
q39 -84 93 -141t148 -94q97 -38 222 -38t222 38q94 37 148 94t93 141q39 86 52 159zM1360 1244q223 -199 223 -527q0 -229 -113 -398q-111 -167 -285 -247q-168 -78 -368 -78t-368 78q-174 80 -285 247q-113 169 -113 398q0 328 223 527q220 196 543 196t543 -196zM1439 339
q107 160 107 378q0 312 -211 499q-210 187 -518 187t-518 -187q-211 -187 -211 -499q0 -218 107 -378q105 -157 270 -233q165 -75 352 -75t352 75q164 76 270 233zM1045 750q13 -4 20.5 -15.5t6.5 -25.5q-2 -30 -29 -38l-72 -23l31 -69q9 -20 -4 -40q-13 -19 -35 -19
q-11 0 -19 4l-67 35l-27 -70q-10 -27 -39 -27q-30 0 -40 29l-23 71l-69 -30q-7 -3 -17 -3q-23 0 -36 20q-12 20 -1 41l34 67l-70 27q-29 10 -27 40q2 31 29 39l72 23l-31 69q-9 20 4 40q13 19 35 19q9 0 19 -5l67 -34l27 70q10 27 39 27q30 0 40 -29l23 -72l69 30q10 4 17 4
q23 0 36 -20q12 -20 1 -41l-34 -67zM1031 706q3 1 3.5 4t-2.5 5l-109 42l53 104q5 7 -4 7h-1l-1 -1l-106 -46l-36 110q-2 3 -5 3t-4 -3l-42 -108l-104 53q-1 0 -1 0.5t-1 0.5q-6 0 -4 -7l46 -107l-110 -35q-3 -1 -3.5 -4t2.5 -5l109 -43l-53 -103q-5 -7 4 -7h2l106 47
l36 -110q2 -4 5 -4t4 3l42 109l104 -53q1 0 1 -0.5t1 -0.5q6 0 4 7l-46 106z" />
    <glyph glyph-name="P" unicode="P" horiz-adv-x="1415" 
d="M1210 1321q174 -112 174 -330t-174 -330q-167 -106 -487 -106h-343v-367q0 -22 15.5 -37.5t37.5 -15.5q26 0 45 -18.5t19 -44.5t-19 -44.5t-45 -18.5l-321 2q-26 0 -44.5 18.5t-18.5 44.5t18.5 44.5t44.5 18.5q22 0 38 15.5t16 37.5v1057q0 22 -16 37.5t-38 15.5
q-26 0 -44.5 18.5t-18.5 44.5t18.5 45t44.5 19h611q320 0 487 -106zM723 592q624 0 624 399q0 398 -624 398h-611q-10 0 -18 -7.5t-8 -18.5t8 -18.5t18 -7.5q38 0 64.5 -26.5t26.5 -63.5v-1057q0 -37 -26.5 -63.5t-64.5 -26.5q-10 0 -18 -8t-8 -18t8 -18t18 -8l321 -2
q11 0 18.5 8t7.5 18t-7.5 18t-18.5 8q-37 0 -63.5 26t-26.5 64v404h380zM1084 1258q110 -77 110 -267t-110 -267q-113 -80 -361 -80h-380v693h380q249 0 361 -79zM1062 754q95 66 95 237q0 170 -95 236q-105 73 -339 73h-343v-619h343q234 0 339 73z" />
    <glyph glyph-name="Q" unicode="Q" horiz-adv-x="1660" 
d="M1658 -46q29 -131 -19 -231q-58 -124 -222 -177q-80 -26 -158 -26q-68 0 -134 17t-134 53.5t-109.5 63.5t-111.5 77q-57 40 -80 56t-63.5 38t-68.5 29l-27 7q-20 5 -26 23q-6 19 5 35l17 22q10 15 21 23l38 38q-67 17 -137 49q-174 80 -285 247q-113 169 -113 398
q0 328 223 527q220 196 543 196t543 -196q223 -199 223 -527q0 -229 -113 -398q-111 -167 -285 -247q-168 -78 -368 -78q-39 0 -76 3l-21 -21q33 -19 82 -56q203 -160 395 -160q136 0 236 73q43 31 70 69t30 65q2 22 17 37t36 19v1h10q23 0 40.5 -13.5t21.5 -35.5z
M1605 -261q43 92 17 207q-5 20 -26 20h-4h-1q-19 -3 -21 -24q-5 -37 -36 -81t-79 -79q-110 -80 -258 -80q-204 0 -418 168q-73 56 -124 73l71 72q50 -5 91 -5q187 0 352 75q163 75 270 234q107 160 107 377q0 312 -211 499q-210 187 -518 187t-518 -187q-211 -187 -211 -499
q0 -217 107 -377q106 -158 270 -234q97 -44 196 -61l-88 -88q-4 -3 -16 -17l-17 -22l27 -7q32 -8 73 -30t70.5 -41.5t81.5 -57.5q67 -48 108 -74.5t105.5 -61.5t127 -51t126.5 -16q73 0 146 23q146 46 200 158zM1052 103q-101 -40 -235 -40t-235 40q-104 41 -162 104
q-62 65 -100 150q-39 85 -55 169q-14 76 -14 170q0 92 14 168q16 84 55 169q40 88 100 151q61 64 162 104q102 42 235 42t235 -42q101 -40 162 -104q60 -63 100 -151q39 -85 55 -169q14 -77 14 -168q0 -93 -14 -170q-16 -84 -55 -169q-38 -85 -100 -150q-61 -64 -162 -104z
M447 232q54 -57 148 -94q97 -38 222 -38t222 38q94 37 148 94t93 141q39 85 52 160q14 81 14 163q0 81 -14 162q-13 73 -52 159q-39 84 -93 141q-56 59 -149 96q-94 38 -221 38t-221 -38q-93 -37 -149 -96q-54 -57 -93 -141q-39 -86 -52 -159q-14 -81 -14 -162
q0 -82 14 -163q13 -75 52 -160q39 -84 93 -141zM850 467q-10 -27 -39 -27q-30 0 -40 29l-23 72l-69 -30q-10 -4 -17 -4q-23 0 -36 20q-12 20 -1 41l34 67l-70 27q-13 4 -20.5 15.5t-6.5 25.5q2 30 29 38l72 23l-31 69q-9 20 4 40q13 19 35 19q9 0 19 -5l67 -34l27 70
q10 27 39 27q30 0 40 -29l23 -72l69 31q7 3 17 3q23 0 36 -20q12 -20 1 -41l-34 -67l70 -27q29 -10 27 -40q-2 -31 -29 -39l-72 -23l31 -69q9 -20 -4 -40q-13 -19 -35 -19q-9 0 -19 5l-67 34zM811 477q2 0 4 4l42 108l104 -53q1 0 1 -0.5t1 -0.5q6 0 4 7l-46 106l110 36
q3 1 3.5 4t-2.5 5l-109 42l53 104q5 7 -4 7h-1l-1 -1l-106 -46l-36 110q-2 4 -5 4t-4 -3l-42 -109l-104 53q-1 0 -1 0.5t-1 0.5q-6 0 -4 -7l46 -106l-110 -36q-3 -1 -3.5 -4t2.5 -5l109 -42l-53 -104q-5 -7 4 -7h1l1 1l106 46l36 -110q2 -4 5 -4z" />
    <glyph glyph-name="R" unicode="R" horiz-adv-x="1449" 
d="M1084 723q-112 -79 -361 -79h-380v693h380q249 0 361 -79q110 -77 110 -267q0 -191 -110 -268zM380 1300v-619h343q234 0 339 73q95 66 95 237q0 170 -95 236q-105 73 -339 73h-343zM1310 396q27 0 46 -21q19 -20 17 -47q-11 -135 -90 -220q-95 -101 -265 -101
q-186 0 -339 125q-41 34 -83 80t-68.5 79t-68.5 90q-55 74 -79 102v-295q0 -22 15.5 -37.5t37.5 -15.5q28 0 46 -19q20 -21 18 -47t-20.5 -43t-44.5 -17l-320 1q-26 0 -44.5 19t-18.5 45t18.5 44.5t44.5 18.5q22 0 38 15.5t16 37.5v1057q0 22 -16 37.5t-38 15.5
q-26 0 -44.5 18.5t-18.5 44.5t18.5 44.5t44.5 18.5h611q320 0 487 -106q174 -112 174 -329q0 -218 -174 -330q-167 -106 -487 -106h-198q5 -7 15 -23q59 -87 123 -148t124.5 -91.5t110.5 -43t99 -12.5q63 0 117 19q52 17 90 46t48 54q17 40 58 40zM1256 134q70 75 80 197
q1 11 -7 19t-19 8q-18 0 -24 -16q-14 -35 -58 -69t-102 -53q-62 -20 -129 -20q-53 0 -106.5 13t-118 45t-132.5 96.5t-130 156.5q-33 49 -65 81h278q624 0 624 399q0 398 -624 398h-611q-10 0 -18 -7.5t-8 -18.5t8 -18.5t18 -7.5q38 0 64.5 -26.5t26.5 -63.5v-1057
q0 -37 -26.5 -63.5t-64.5 -26.5q-10 0 -18 -8t-8 -18t8 -18t18 -8l320 -2q11 0 18.5 7.5t8.5 17.5q1 11 -7 19t-19 8q-37 0 -63.5 26t-26.5 64v386q49 -41 146 -171q37 -49 56 -73.5t57.5 -70t66 -69.5t70.5 -56.5t82.5 -49t91 -28.5t105.5 -12q154 0 238 90z" />
    <glyph glyph-name="S" unicode="S" horiz-adv-x="1378" 
d="M1246 627q71 -86 71 -205q0 -213 -203 -324q-188 -103 -447 -103q-77 0 -130 5q-136 12 -257 59q-11 -4 -24 -15q-16 -15 -40 -15q-20 0 -36 12t-22 31v1l-1 1l-65 279q-7 26 5.5 49t37.5 31q11 3 21 3q42 0 60 -38l12 -24l3 -7q25 -50 40 -77q17 -30 28 -41
q18 -18 65 -52q81 -56 171 -68q56 -7 132 -7q78 0 148 10q73 10 157 38q71 24 117 76q42 48 42 116q0 70 -44 117q-49 54 -132 84q-90 34 -202 60l-228 53q-119 27 -216 63q-110 40 -176 111q-74 79 -74 190q0 184 183 297q169 104 427 104q64 0 112 -4h2q1 0 1 -0.5t1 -0.5
q90 -6 174 -28q52 -13 128 -42q12 4 25 15q17 15 40 15q20 0 36 -12t22 -31v-2l65 -278q7 -26 -5.5 -49.5t-37.5 -31.5q-10 -3 -20 -3q-43 0 -61 38l-12 24l-3 7q-34 68 -39 77q-17 30 -28 41q-63 63 -141 96q-100 42 -259 42q-197 0 -316 -66q-104 -58 -104 -150
q0 -56 42 -96q52 -49 132 -75q98 -32 202 -56l228 -52q117 -27 218 -67q107 -44 175 -125zM1096 130q184 101 184 292q0 106 -63 181q-61 73 -160 114q-92 38 -212 66l-228 52q-114 26 -206 57q-90 30 -146 83q-53 50 -53 123q0 116 123 183q127 70 334 70q165 0 273 -45
q87 -37 153 -103q14 -14 34 -50q13 -22 44 -85l12 -24q8 -18 27 -18q5 0 8 1q11 4 16.5 14.5t2.5 21.5l-65 279q-5 17 -22 17q-10 0 -16 -6q-24 -20 -50 -26q-67 27 -137 45q-84 21 -167 27h-2q-60 5 -111 5q-249 0 -408 -99q-164 -101 -164 -265q0 -96 63 -164
q61 -66 161 -102q97 -35 213 -62l228 -53q109 -25 206 -61q89 -33 146 -94q54 -58 54 -142t-50 -141q-51 -59 -135 -86q-91 -30 -162 -40q-80 -11 -154 -11q-61 0 -137 9q-101 13 -188 74q-49 34 -70 55q-14 14 -34 50q-4 7 -43 85l-12 24q-8 18 -27 18q-6 0 -9 -1
q-11 -4 -16.5 -14.5t-2.5 -21.5l66 -279q5 -17 22 -17q9 0 15 6q23 20 51 26l1 -1q123 -49 257 -60q68 -5 127 -5q251 0 429 98z" />
    <glyph glyph-name="T" unicode="T" horiz-adv-x="1533" 
d="M1466 1440q16 0 26.5 -10.5t10.5 -26.5v-396q0 -27 -18.5 -46t-45.5 -19q-26 0 -45 18t-20 43q-11 178 -74 241q-36 36 -92 46t-155 10h-19h-160v-1163h52q31 0 49 -23q20 -25 14 -52q-4 -22 -22.5 -36.5t-41.5 -14.5h-319q-31 0 -49 23q-20 25 -14 52q4 22 22.5 36.5
t41.5 14.5h51v1163h-137h-40h-36q-86 0 -134.5 -10.5t-79.5 -40.5q-62 -62 -73 -243q-1 -25 -20 -43t-45 -18q-27 0 -45.5 18.5t-18.5 45.5v394q0 16 10.5 26.5t26.5 10.5h1400zM1466 1007v396h-1400v-394q0 -11 8 -19t19 -8t19 7.5t9 18.5q10 193 84 267q39 39 95.5 51
t144.5 12q6 0 18 -0.5t19 -0.5h39h174v-1237h-88q-23 0 -27 -21q-2 -13 6 -22t20 -9h319q23 0 27 21q2 13 -6 22t-20 9h-89v1237h197h19q105 0 167.5 -11.5t105.5 -54.5q75 -75 85 -266q1 -11 9 -18.5t19 -7.5t19 8.5t8 19.5z" />
    <glyph glyph-name="U" unicode="U" horiz-adv-x="1484" 
d="M1387 1426q26 0 44.5 -18.5t18.5 -44.5t-18.5 -45t-44.5 -19q-22 0 -32.5 -15.5t-10.5 -37.5v-617q0 -310 -151 -472t-439 -162q-326 0 -467 156q-140 154 -140 478v617q0 22 -15.5 37.5t-37.5 15.5q-26 0 -44.5 19t-18.5 45t18.5 44.5t44.5 18.5h320q26 0 45 -18.5
t19 -44.5t-19 -45t-45 -19q-22 0 -37.5 -15.5t-15.5 -37.5v-617q0 -87 5 -154q5 -63 27 -133q21 -71 59 -112t113 -71q78 -32 189 -32q226 0 334 124t108 384v618q0 46 -45 46q-26 0 -45 19t-19 45t19 44.5t45 18.5h236zM1387 1337q11 0 18.5 7.5t7.5 18.5t-7.5 18.5
t-18.5 7.5h-236q-11 0 -19 -8t-8 -18t8 -18t19 -8q37 0 60 -23t23 -61v-618q0 -273 -118 -409t-362 -136q-120 0 -203 34q-84 34 -127 81q-41 46 -66 126q-25 83 -29 141q-5 68 -5 157v617q0 38 26.5 64.5t63.5 26.5q10 0 18 7.5t8 18.5t-8 18.5t-18 7.5h-320
q-10 0 -18 -7.5t-8 -18.5t8 -18.5t18 -7.5q37 0 63.5 -26.5t26.5 -64.5v-618q0 -309 131 -452q131 -144 439 -144q271 0 411.5 150t140.5 446v618q0 39 22 65t59 26z" />
    <glyph glyph-name="V" unicode="V" horiz-adv-x="1581" 
d="M1523 1426q26 0 44.5 -18.5t18.5 -44.5t-18.5 -44.5t-44.5 -18.5q-63 0 -86 -51l-550 -1200q-9 -24 -30 -38.5t-46 -14.5q-48 0 -68 42l-585 1200q-13 28 -41 45t-60 17q-26 0 -44.5 18.5t-18.5 44.5t18.5 44.5t44.5 18.5h335q26 0 44.5 -18.5t18.5 -44.5t-18.5 -44.5
t-44.5 -18.5q-11 0 -16 -8q-5 -7 -1 -16l476 -962l450 984q-8 2 -20 2q-26 0 -44.5 18.5t-18.5 44.5t18.5 44.5t44.5 18.5h242zM1523 1337q11 0 18.5 7.5t7.5 18.5t-7.5 18.5t-18.5 7.5h-242q-11 0 -18.5 -7.5t-7.5 -18.5t7.5 -18.5t18.5 -7.5q35 0 51 -13.5t3 -41.5
l-483 -1054l-511 1031q-13 27 3.5 52.5t47.5 25.5q10 0 18 7.5t8 18.5t-8 18.5t-18 7.5h-335q-11 0 -18.5 -7.5t-7.5 -18.5t7.5 -18.5t18.5 -7.5q43 0 79 -22.5t55 -60.5l586 -1200q9 -20 34 -20q32 0 42 29l550 1202q34 72 120 72z" />
    <glyph glyph-name="W" unicode="W" horiz-adv-x="2279" 
d="M2223 1426q25 0 43.5 -18t18.5 -44t-18.5 -44t-43.5 -18h-69l-588 -1271q-16 -36 -56 -36q-41 0 -57 37l-321 731l-339 -732q-17 -37 -56 -37q-40 0 -57 38l-557 1269h-67q-26 0 -44 18t-18 43v2q0 26 18 44t44 18h337q25 0 43.5 -18t18.5 -44v-2q0 -25 -18 -43t-44 -18
h-36l422 -996l285 614l-168 382h-68q-26 0 -44 18t-18 43v2q0 26 18 44t44 18h334q26 0 44.5 -18.5t18.5 -43.5v-2q0 -25 -18.5 -43t-44.5 -18h-35l425 -998l460 999h-45q-26 0 -44.5 18.5t-18.5 43.5t18.5 43.5t44.5 18.5h256zM2223 1340q11 0 18 7t7 17t-7 17.5t-18 7.5
h-256q-11 0 -18 -7.5t-7 -17.5t7 -17t18 -7h65q13 0 20.5 -11.5t2.5 -23.5l-504 -1094l-466 1093q-5 12 2.5 23t20.5 11h54q11 0 18 7t7 17v2q0 10 -7.5 17.5t-17.5 7.5h-334q-10 0 -17.5 -7.5t-7.5 -17.5v-2q0 -10 7 -17t18 -7h76q16 0 23 -15l178 -404l-328 -706
l-462 1091q-5 12 2.5 23t21.5 11h54q11 0 18 7t7 17v2q0 10 -7 17.5t-18 7.5h-337q-10 0 -17.5 -7.5t-7.5 -17.5v-2q0 -10 7 -17t18 -7h75q16 0 23 -15q453 -1033 560 -1276q6 -15 23 -15q16 0 22 14l374 807l354 -806q6 -15 23 -15q16 0 22 14l591 1279q7 15 23 15h77z" />
    <glyph glyph-name="X" unicode="X" horiz-adv-x="1566" 
d="M1496 137q26 0 44.5 -18.5t18.5 -44.5t-18.5 -44.5t-44.5 -18.5h-345q-26 0 -45 18.5t-19 44.5t19 44.5t45 18.5v1l-405 470l-340 -405q-17 -21 -6 -43q12 -23 36 -23q26 0 45 -18.5t19 -44.5t-19 -44.5t-45 -18.5h-358q-26 0 -45 18.5t-19 44.5t19 44.5t45 18.5
q105 0 173 81l410 488l-467 541q-45 53 -116 53q-26 0 -45 18.5t-19 44.5t19 45t45 19h358q26 0 45 -19t19 -45t-19 -44.5t-45 -18.5q-3 0 -5 -3t1 -6l373 -432l350 432q2 2 1 6q-1 3 -5 3q-26 0 -45 18.5t-19 44.5t19 45t45 19h254q26 0 44.5 -19t18.5 -45t-18.5 -44.5
t-44.5 -18.5q-77 0 -126 -60l-388 -481l492 -570q44 -52 113 -52zM1496 48q10 0 18 8t8 18t-8 18t-18 8q-87 0 -142 65l-511 593l407 505q60 74 155 74q11 0 18.5 7.5t7.5 18.5t-7.5 18.5t-18.5 7.5h-254q-11 0 -18.5 -7.5t-7.5 -18.5t7.5 -18.5t18.5 -7.5q27 0 38.5 -24
t-5.5 -45l-378 -467l-402 465q-18 21 -7 46t39 25q10 0 18 7.5t8 18.5t-8 18.5t-18 7.5h-358q-10 0 -18 -7.5t-8 -18.5t8 -18.5t18 -7.5q88 0 145 -66l487 -564l-430 -513q-78 -94 -202 -94q-10 0 -18 -8t-8 -18t8 -18t18 -8h358q10 0 18 8t8 18t-8 18t-18 8q-49 0 -69.5 45
t10.5 82l368 438l434 -503q16 -18 6 -40t-34 -22q-11 0 -18.5 -8t-7.5 -18t7.5 -18t18.5 -8h345z" />
    <glyph glyph-name="Y" unicode="Y" horiz-adv-x="1529" 
d="M1473 1427q26 0 45 -19t19 -45t-19 -44.5t-45 -18.5q-73 0 -113 -62l-471 -722v-318q0 -25 17.5 -43t42.5 -18h8q26 0 45 -18.5t19 -44.5t-19 -44.5t-45 -18.5h-345q-26 0 -45 18.5t-19 44.5t19 44.5t45 18.5q25 0 43 18t18 43v310l-505 733q-41 59 -113 59
q-26 0 -44.5 18.5t-18.5 44.5t18.5 45t44.5 19h353q26 0 45 -19t19 -45t-19 -44.5t-45 -18.5q-9 0 -11 -7q-3 -8 1 -13l425 -629l411 631q4 6 1 12t-10 6q-26 0 -45 18.5t-19 44.5t19 45t45 19h248zM1473 1337q11 0 18.5 7.5t7.5 18.5t-7.5 18.5t-18.5 7.5h-248
q-11 0 -18.5 -7.5t-7.5 -18.5t7.5 -18.5t18.5 -7.5q29 0 43 -25t-2 -50l-442 -678l-457 675q-17 25 -3 51.5t44 26.5q10 0 18 7.5t8 18.5t-8 18.5t-18 7.5h-353q-11 0 -18.5 -7.5t-7.5 -18.5t7.5 -18.5t18.5 -7.5q43 0 81 -20t62 -55l512 -743v-321q0 -40 -29 -69t-69 -29
q-10 0 -18 -8t-8 -18t8 -18t18 -8h345q11 0 18.5 8t7.5 18t-7.5 18t-18.5 8h-8q-41 0 -69.5 29t-28.5 69v329l477 732q24 37 62.5 57.5t82.5 20.5z" />
    <glyph glyph-name="Z" unicode="Z" horiz-adv-x="1376" 
d="M1374 1386q0 -14 -9 -24l-1011 -1228l320 -1h39h71h53q74 0 212 133l19 19q22 20 47 20q17 0 34 -10q25 -15 31 -44q5 -28 -11 -51l-156 -239q0 -1 -0.5 -1t-0.5 -1q-17 -25 -48 -25q-34 0 -53 32q-23 41 -69 41h-648h-151q-23 0 -33 21q-10 22 5 40l1012 1229h-378h-39
h-71h-52q-74 0 -212 -133l-19 -19q-21 -19 -48 -19q-19 0 -34 9q-23 15 -30 44q-5 28 11 51l155 240h1q1 0 1 1q17 25 48 25q35 0 53 -31q23 -41 69 -41l628 -1h187h3h37q16 0 26.5 -10.5t10.5 -26.5zM275 97l1062 1289h-40h-187h-628q-31 0 -59 16.5t-43 44.5q-6 12 -20 12
q-10 0 -18 -10l-157 -240q-8 -10 -5 -22.5t14 -19.5q5 -4 14 -4q13 0 22 9l19 19q147 144 238 144h52q19 0 43 -0.5t28 -0.5h39h457l-1063 -1290h151h648q31 0 58.5 -16.5t42.5 -44.5q6 -12 21 -12q10 0 18 10l156 240q8 10 5.5 22.5t-13.5 19.5q-5 4 -15 4q-12 0 -21 -9
l-19 -18q-147 -144 -238 -144h-53h-71h-39h-399v1z" />
    <glyph glyph-name="bracketleft" unicode="[" horiz-adv-x="411" 
d="M632 -41q26 0 44 -18.5t18 -43.5q0 -26 -18.5 -44.5t-43.5 -18.5h-427q-38 0 -65 27t-27 65v1543q0 38 27 65t65 27h427q26 0 44 -18.5t18 -43.5q0 -26 -18.5 -44.5t-43.5 -18.5h-333v-1477h333zM632 -129q10 0 17.5 7.5t7.5 18.5t-7.5 18t-17.5 7h-370v1552h370
q10 0 17.5 7t7.5 18t-7.5 18t-17.5 7h-427q-23 0 -39 -16t-16 -39v-1543q0 -22 16 -38.5t39 -16.5h427z" />
    <glyph glyph-name="backslash" unicode="\" horiz-adv-x="1124" 
d="M1006 -87q16 -31 -4 -62q-19 -30 -54 -30q-40 0 -58 37l-771 1624q-16 31 4 62q19 30 54 30q40 0 58 -36zM948 -142q15 0 23 13t1 26l-771 1625q-7 15 -24 15q-15 0 -23 -13t-1 -26l770 -1624q7 -16 25 -16z" />
    <glyph glyph-name="bracketright" unicode="]" horiz-adv-x="411" 
d="M207 1561q38 0 65 -27t27 -65v-1543q0 -38 -27 -65t-65 -27h-427q-26 0 -44.5 19t-18.5 44t18.5 43.5t44.5 18.5h332v1477h-332q-26 0 -44.5 19t-18.5 44t18.5 43.5t44.5 18.5h427zM261 -74v1543q0 23 -16 39t-38 16h-427q-10 0 -17.5 -7t-7.5 -18t7.5 -18t17.5 -7h370
v-1552h-370q-10 0 -17.5 -7.5t-7.5 -18.5q0 -10 7.5 -17.5t17.5 -7.5h427q22 0 38 16t16 39z" />
    <glyph glyph-name="underscore" unicode="_" horiz-adv-x="1126" 
d="M947 -84q27 0 46.5 -19t19.5 -46t-19.5 -46t-46.5 -19h-769q-27 0 -46 19t-19 46t19 46t46 19h769zM947 -177q11 0 19.5 8.5t8.5 19.5t-8.5 19.5t-19.5 8.5h-769q-11 0 -19.5 -8.5t-8.5 -19.5t8.5 -19.5t19.5 -8.5h769z" />
    <glyph glyph-name="a" unicode="a" horiz-adv-x="1318" 
d="M1269 274q19 -19 17 -46q-6 -106 -47 -162q-46 -63 -129 -63q-99 0 -140 76q-32 58 -32 183v3q-64 -78 -141 -133q-183 -129 -403 -129q-147 0 -238 64q-101 70 -101 208q0 94 44 159q43 65 129 99q75 29 146 41q68 12 172 18q173 9 270 30q74 17 122 56v106q0 52 -21 91
q-20 37 -51 60q-36 24 -78 37q-50 16 -85 20q-33 4 -76 4q-65 0 -133 -15q-62 -15 -118 -50q-28 -18 -35 -37q32 -18 51 -50t19 -69q0 -35 -17 -66q-8 -15 -18 -27q-26 -28 -60 -38q-19 -6 -41 -6h-2q-61 0 -107 49q-44 47 -44 130q0 117 99 193q85 66 194 90q104 23 212 23
q94 0 177 -17q79 -17 159 -58q85 -44 133 -129q47 -85 47 -195v-462q0 -60 5 -107q11 30 13 80q1 25 19.5 42t43.5 17t45 -20zM1110 40q128 0 139 190q1 10 -6.5 18t-18.5 8q-10 0 -17.5 -6.5t-8.5 -16.5q-8 -133 -58 -133q-17 0 -24 25q-10 40 -10 137v462q0 102 -42 177
q-42 74 -118 114q-72 37 -150 54q-74 16 -169 16q-113 0 -204 -21q-101 -23 -180 -84q-83 -64 -83 -163q0 -70 34 -105q34 -36 79 -36h1h1q18 0 30 4q24 7 43 28q13 16 14 18q12 21 12 49q0 33 -20 59.5t-52 35.5q0 2 -0.5 5t-0.5 4q0 47 54 83q59 38 131 55q70 16 141 16
q44 0 80 -4q40 -5 92 -21q52 -17 89 -42q36 -25 62 -73q26 -47 26 -109v-123q-60 -55 -152 -75q-103 -23 -276 -32q-110 -7 -168 -17q-71 -12 -139 -39q-73 -28 -111 -85q-37 -55 -37 -138q0 -117 85 -177q82 -58 216 -58q206 0 381 123q132 93 201 227v-128q0 -114 27 -165
q31 -57 107 -57zM760 520q50 9 126 35q56 20 90 43v-76q-53 -179 -205 -297q-153 -118 -319 -118q-104 0 -155 49q-50 49 -50 134q0 36 11 67q10 29 26 51q14 18 42 33q29 15 55 25t70 17q55 9 74 11l84 8q101 9 151 18zM938 535q-16 -8 -40 -16q-76 -27 -132 -36
q-51 -9 -154 -18l-83 -8q-20 -2 -72 -11q-37 -6 -63 -15q-30 -12 -51 -23q-20 -10 -29 -22q-12 -16 -21 -42q-9 -22 -9 -54q0 -69 39 -107q40 -38 129 -38q155 0 297 110q139 108 189 272v8z" />
    <glyph glyph-name="a" unicode="&#xe3;" horiz-adv-x="1318" 
d="M1269 274q19 -19 17 -46q-6 -106 -47 -162q-46 -63 -129 -63q-99 0 -140 76q-32 58 -32 183v3q-64 -78 -141 -133q-183 -129 -403 -129q-147 0 -238 64q-101 70 -101 208q0 94 44 159q43 65 129 99q75 29 146 41q68 12 172 18q173 9 270 30q74 17 122 56v106q0 52 -21 91
q-20 37 -51 60q-36 24 -78 37q-50 16 -85 20q-33 4 -76 4q-65 0 -133 -15q-62 -15 -118 -50q-28 -18 -35 -37q32 -18 51 -50t19 -69q0 -35 -17 -66q-8 -15 -18 -27q-26 -28 -60 -38q-19 -6 -41 -6h-2q-61 0 -107 49q-44 47 -44 130q0 117 99 193q85 66 194 90q104 23 212 23
q94 0 177 -17q79 -17 159 -58q85 -44 133 -129q47 -85 47 -195v-462q0 -60 5 -107q11 30 13 80q1 25 19.5 42t43.5 17t45 -20zM1110 40q128 0 139 190q1 10 -6.5 18t-18.5 8q-10 0 -17.5 -6.5t-8.5 -16.5q-8 -133 -58 -133q-17 0 -24 25q-10 40 -10 137v462q0 102 -42 177
q-42 74 -118 114q-72 37 -150 54q-74 16 -169 16q-113 0 -204 -21q-101 -23 -180 -84q-83 -64 -83 -163q0 -70 34 -105q34 -36 79 -36h1h1q18 0 30 4q24 7 43 28q13 16 14 18q12 21 12 49q0 33 -20 59.5t-52 35.5q0 2 -0.5 5t-0.5 4q0 47 54 83q59 38 131 55q70 16 141 16
q44 0 80 -4q40 -5 92 -21q52 -17 89 -42q36 -25 62 -73q26 -47 26 -109v-123q-60 -55 -152 -75q-103 -23 -276 -32q-110 -7 -168 -17q-71 -12 -139 -39q-73 -28 -111 -85q-37 -55 -37 -138q0 -117 85 -177q82 -58 216 -58q206 0 381 123q132 93 201 227v-128q0 -114 27 -165
q31 -57 107 -57zM760 520q50 9 126 35q56 20 90 43v-76q-53 -179 -205 -297q-153 -118 -319 -118q-104 0 -155 49q-50 49 -50 134q0 36 11 67q10 29 26 51q14 18 42 33q29 15 55 25t70 17q55 9 74 11l84 8q101 9 151 18zM938 535q-16 -8 -40 -16q-76 -27 -132 -36
q-51 -9 -154 -18l-83 -8q-20 -2 -72 -11q-37 -6 -63 -15q-30 -12 -51 -23q-20 -10 -29 -22q-12 -16 -21 -42q-9 -22 -9 -54q0 -69 39 -107q40 -38 129 -38q155 0 297 110q139 108 189 272v8z" />
    <glyph glyph-name="a" unicode="&#xe1;" horiz-adv-x="1318" 
d="M1269 274q19 -19 17 -46q-6 -106 -47 -162q-46 -63 -129 -63q-99 0 -140 76q-32 58 -32 183v3q-64 -78 -141 -133q-183 -129 -403 -129q-147 0 -238 64q-101 70 -101 208q0 94 44 159q43 65 129 99q75 29 146 41q68 12 172 18q173 9 270 30q74 17 122 56v106q0 52 -21 91
q-20 37 -51 60q-36 24 -78 37q-50 16 -85 20q-33 4 -76 4q-65 0 -133 -15q-62 -15 -118 -50q-28 -18 -35 -37q32 -18 51 -50t19 -69q0 -35 -17 -66q-8 -15 -18 -27q-26 -28 -60 -38q-19 -6 -41 -6h-2q-61 0 -107 49q-44 47 -44 130q0 117 99 193q85 66 194 90q104 23 212 23
q94 0 177 -17q79 -17 159 -58q85 -44 133 -129q47 -85 47 -195v-462q0 -60 5 -107q11 30 13 80q1 25 19.5 42t43.5 17t45 -20zM1110 40q128 0 139 190q1 10 -6.5 18t-18.5 8q-10 0 -17.5 -6.5t-8.5 -16.5q-8 -133 -58 -133q-17 0 -24 25q-10 40 -10 137v462q0 102 -42 177
q-42 74 -118 114q-72 37 -150 54q-74 16 -169 16q-113 0 -204 -21q-101 -23 -180 -84q-83 -64 -83 -163q0 -70 34 -105q34 -36 79 -36h1h1q18 0 30 4q24 7 43 28q13 16 14 18q12 21 12 49q0 33 -20 59.5t-52 35.5q0 2 -0.5 5t-0.5 4q0 47 54 83q59 38 131 55q70 16 141 16
q44 0 80 -4q40 -5 92 -21q52 -17 89 -42q36 -25 62 -73q26 -47 26 -109v-123q-60 -55 -152 -75q-103 -23 -276 -32q-110 -7 -168 -17q-71 -12 -139 -39q-73 -28 -111 -85q-37 -55 -37 -138q0 -117 85 -177q82 -58 216 -58q206 0 381 123q132 93 201 227v-128q0 -114 27 -165
q31 -57 107 -57zM760 520q50 9 126 35q56 20 90 43v-76q-53 -179 -205 -297q-153 -118 -319 -118q-104 0 -155 49q-50 49 -50 134q0 36 11 67q10 29 26 51q14 18 42 33q29 15 55 25t70 17q55 9 74 11l84 8q101 9 151 18zM938 535q-16 -8 -40 -16q-76 -27 -132 -36
q-51 -9 -154 -18l-83 -8q-20 -2 -72 -11q-37 -6 -63 -15q-30 -12 -51 -23q-20 -10 -29 -22q-12 -16 -21 -42q-9 -22 -9 -54q0 -69 39 -107q40 -38 129 -38q155 0 297 110q139 108 189 272v8z" />
    <glyph glyph-name="b" unicode="b" horiz-adv-x="1280" 
d="M732 1031q156 -3 233 -105.5t77 -309.5q0 -264 -100.5 -394t-305.5 -130q-179 0 -272 96t-93 229v234q79 193 198 289q116 92 253 92q2 0 5 -0.5t5 -0.5zM636 130q189 0 279 118.5t90 367.5q0 70 -9.5 126.5t-24.5 95t-37.5 67.5t-45.5 45t-52 26.5t-53 14t-52 3.5h-9
q-124 0 -229 -84q-111 -87 -185 -266v-227q0 -117 83 -203q82 -84 245 -84zM1091 983q134 -139 134 -369q0 -249 -157 -429q-159 -182 -432 -182q-197 0 -313 104q-40 35 -71 79l-34 -135q-4 -19 -19 -31t-34 -14h-4q-24 0 -41 17t-17 41v1275q0 61 -11 85q-10 20 -32 20
q-2 0 -6 -0.5t-6 -0.5t-4 -1h-3q-20 0 -36.5 11.5t-23.5 30.5q-10 29 6 54q15 25 45 28l176 28q5 1 14 1q37 0 63 -26t26 -64l-4 -609q56 73 118 119q143 108 321 108q211 0 345 -140zM1040 210q147 168 147 404q0 216 -123 343q-123 128 -318 128q-165 0 -298 -100
q-105 -80 -179 -218l5 738q0 22 -15.5 37.5t-36.5 15.5q-2 0 -4 -0.5t-4 -0.5l-177 -27q-12 -2 -18.5 -12t-2.5 -22q6 -16 25 -16h3q6 1 16 1q33 0 51.5 -20.5t23.5 -48.5t5 -73v-1275q0 -9 6 -15t15 -6h2q15 2 19 18l58 230q32 -90 108 -157q106 -94 288 -94q255 0 404 170
z" />
    <glyph glyph-name="c" unicode="c" horiz-adv-x="1187" 
d="M1118 444q23 -11 31 -35.5t-3 -47.5q-173 -358 -539 -358q-245 0 -399 159q-153 159 -153 392q0 258 177 415q156 138 384 152q36 2 49 2q108 0 201 -29q10 5 17 12q16 16 40 16q40 0 53 -38v-1l1 -1l68 -232q8 -23 -3 -46q-12 -25 -35 -32q-12 -4 -20 -4q-37 0 -55 33
l-11 20l-3 6q-21 38 -37 63q-4 6 -28 35l-8 8q-55 55 -137 61q-28 2 -43 2q-194 0 -292 -115q-102 -120 -102 -300q0 -193 108 -298q107 -105 261 -105q128 0 238 69q102 64 159 170q18 33 54 33q15 0 27 -6zM1113 377q5 9 1.5 19t-12.5 14q-5 3 -11 3q-15 0 -22 -13
q-63 -118 -171 -185q-119 -74 -258 -74q-169 0 -288 116q-118 116 -118 324q0 195 110 325q108 127 321 127q31 0 46 -1q97 -8 161 -72q1 -2 4 -5.5t5 -4.5q24 -28 31 -40q14 -22 41 -71l11 -20q8 -13 23 -13q5 0 7 1q10 4 15 13t1 19l-69 233q-5 13 -18 13q-8 0 -14 -6
q-18 -18 -42 -24h-2v1h-2l-2 1q-85 28 -196 28q-32 0 -47 -1q-214 -12 -362 -143q-163 -144 -163 -387q0 -218 142 -366t372 -148q344 0 506 337z" />
    <glyph glyph-name="d" unicode="d" horiz-adv-x="1337" 
d="M635 1033q178 0 278 -97q98 -95 98 -227v-182q-110 -435 -441 -435q-167 0 -248.5 114.5t-81.5 347.5q0 246 93 363q92 116 302 116zM974 532v177q0 115 -88 201t-251 86q-192 0 -273 -102q-85 -108 -85 -340q0 -109 19 -189.5t47 -124.5t70 -70t77.5 -33t79.5 -7
q152 0 250 97q102 100 154 305zM1301 86q2 -28 -17 -48q-18 -20 -46 -20h-174q-37 0 -63.5 26t-26.5 63v111q-51 -76 -116 -124q-121 -91 -288 -91q-228 0 -371 155q-142 154 -142 393q0 258 160 415q159 157 418 157q180 0 301 -91q14 -10 39 -33l-1 252v150q0 17 -12 29
t-29 12q-6 0 -9 -1q-4 -1 -12 -1q-23 0 -40 14.5t-20 36.5v2q-3 26 12 46q16 21 40 24l170 30q5 1 16 1q37 0 63 -26t26 -63v-1302q0 -24 17 -40.5t41 -17.5q26 -1 44.5 -17.5t19.5 -41.5zM1238 55q11 0 19 8.5t7 19.5q-1 10 -9 17t-19 7q-39 1 -66.5 29t-27.5 67v1302
q0 22 -15.5 37t-36.5 15q-7 0 -10 -1l-170 -30q-10 -2 -16 -10t-5 -18v-2q3 -19 23 -19q1 0 2 0.5t2 0.5q12 2 17 2q32 0 55 -23t23 -56v-150l2 -357q-37 62 -99 109q-109 82 -279 82q-244 0 -392 -146t-148 -388q0 -226 131 -368q132 -143 344 -143q309 0 443 332l-2 -106
v-159q0 -22 15 -37t37 -15h175z" />
    <glyph glyph-name="e" unicode="e" horiz-adv-x="1222" 
d="M976 761q0 -34 -7 -67h-724q29 147 131 240q110 99 300 99q161 0 230 -80q70 -82 70 -192zM937 731q1 9 1 30q0 96 -61 168q-57 67 -201 67q-178 0 -275 -90q-76 -70 -108 -175h644zM1118 441q24 -11 32 -37t-4 -48q-72 -139 -183 -232q-147 -121 -356 -121
q-245 0 -399 159q-153 159 -153 392q0 258 180 415q177 154 441 154q255 0 387 -130q137 -137 80 -347l-3 -14q-7 -27 -36 -27h-832q0 -4 -0.5 -12t-0.5 -12q0 -193 108 -298q107 -105 261 -105q132 0 249 78q90 59 147 160q18 31 54 31q15 0 27 -6h1zM1113 373
q12 23 -11 34h-1q-5 3 -11 3q-14 0 -21 -12q-62 -109 -159 -173q-128 -84 -270 -84q-169 0 -288 116q-118 116 -118 324q0 21 4 61h866l3 14q51 188 -71 310q-121 119 -360 119q-252 0 -417 -144q-166 -144 -166 -387q0 -218 142 -366t372 -148q196 0 332 113
q105 87 174 220z" />
    <glyph glyph-name="e" unicode="&#xe9;" horiz-adv-x="1222" 
d="M976 761q0 -34 -7 -67h-724q29 147 131 240q110 99 300 99q161 0 230 -80q70 -82 70 -192zM937 731q1 9 1 30q0 96 -61 168q-57 67 -201 67q-178 0 -275 -90q-76 -70 -108 -175h644zM1118 441q24 -11 32 -37t-4 -48q-72 -139 -183 -232q-147 -121 -356 -121
q-245 0 -399 159q-153 159 -153 392q0 258 180 415q177 154 441 154q255 0 387 -130q137 -137 80 -347l-3 -14q-7 -27 -36 -27h-832q0 -4 -0.5 -12t-0.5 -12q0 -193 108 -298q107 -105 261 -105q132 0 249 78q90 59 147 160q18 31 54 31q15 0 27 -6h1zM1113 373
q12 23 -11 34h-1q-5 3 -11 3q-14 0 -21 -12q-62 -109 -159 -173q-128 -84 -270 -84q-169 0 -288 116q-118 116 -118 324q0 21 4 61h866l3 14q51 188 -71 310q-121 119 -360 119q-252 0 -417 -144q-166 -144 -166 -387q0 -218 142 -366t372 -148q196 0 332 113
q105 87 174 220z" />
    <glyph glyph-name="f" unicode="f" horiz-adv-x="634" 
d="M655 1449q63 -67 63 -155q0 -68 -40 -118q-45 -57 -120 -57q-49 0 -84 29q-62 45 -62 120q0 80 66 123h-2q-11 0 -18.5 -1.5t-22 -11.5t-23.5 -29t-16.5 -58.5t-7.5 -95.5v-1q0 -36 25.5 -61t61.5 -25h81q26 0 44.5 -19t18.5 -45t-18.5 -44.5t-44.5 -18.5h-158v-778
q0 -24 17 -41t41 -17q31 0 49 -23q19 -24 13 -53q-4 -22 -22 -36.5t-41 -14.5h-321q-28 0 -46 20q-19 20 -17 48q1 25 19.5 41.5t44.5 17.5q24 1 41 18t17 41v777h-99q-26 0 -44.5 19t-18.5 45t18.5 44.5t44.5 18.5h94q-1 13 -1 39q0 160 69 261q75 110 220 110
q114 0 179 -69zM649 1199q32 41 32 95q0 72 -54 129t-151 57q-126 0 -190 -93q-61 -89 -61 -240q0 -39 3 -76h-134q-10 0 -18 -8t-8 -19q0 -10 8 -18t18 -8h136v-815q0 -40 -27.5 -67.5t-66.5 -28.5q-11 0 -19 -7t-9 -17q-1 -11 7 -19.5t19 -8.5h321q23 0 27 21q2 13 -6 22
t-20 9q-40 0 -67.5 28t-27.5 68v815h195q10 0 18 8t8 18q0 11 -8 19t-18 8h-81q-51 0 -87.5 36t-36.5 87v1q0 233 125 233q38 0 56 -21q13 -14 17 -30q-42 -4 -71 -35t-29 -74q0 -58 48 -91q24 -21 61 -21q57 0 91 43z" />
    <glyph glyph-name="g" unicode="g" horiz-adv-x="1267" 
d="M1204 167q23 -44 23 -99q0 -178 -203 -294q-188 -108 -460 -108q-216 0 -349 71q-154 81 -154 234q0 82 45 130q24 26 55 38q-38 16 -64 45q-40 45 -40 108q0 91 77 157q35 31 105 70q-115 95 -115 244q0 164 146 266q136 94 357 94q63 0 122 -9q-6 78 35 145
q66 106 192 106q86 0 139 -53q26 -26 40 -59q13 -29 13 -62q0 -17 -3 -32q-6 -30 -22 -53q-46 -73 -133 -73q-17 0 -39 5q48 -31 85 -72q75 -87 75 -203q0 -162 -145 -265q-135 -96 -359 -96q-147 0 -261 45q-117 -58 -129 -103q42 -37 251 -37q55 0 105 1q55 1 122 1
q52 0 118 -2q30 -1 109 -9q63 -8 106 -21q45 -14 83 -36q49 -28 73 -74zM1006 -194q184 106 184 262q0 47 -19 82q-19 36 -58 58q-39 23 -77 34q-44 13 -98 19q-63 7 -107 8q-66 2 -116 2q-66 0 -121 -1q-50 -1 -106 -1q-74 0 -130 5.5t-85 13.5t-47 18.5t-22.5 18
t-4.5 15.5q0 68 166 147q113 -48 262 -48q210 0 337 89q129 92 129 235q0 103 -66 179q-61 72 -174 110q-12 52 4 83q13 26 36 30q9 -41 41.5 -68t75.5 -27q67 0 102 56q11 17 16 40q3 12 3 25q0 23 -10 48q-11 26 -32 47q-42 42 -113 42q-105 0 -160 -88q-47 -75 -21 -172
q-82 17 -168 17q-210 0 -336 -87q-129 -88 -129 -235q0 -160 148 -248q-97 -46 -151 -94q-64 -55 -64 -129q0 -51 30 -84q28 -31 85 -46q46 -12 108 -17q47 -4 134 -4q15 0 137 2q128 2 132 2q367 0 367 -140q0 -95 -142 -171q-149 -79 -378 -79q-308 0 -322 141q36 9 59 39
t23 68q0 43 -29 74t-72 35q-1 0 -4 0.5t-4 0.5h-1h-2q-48 0 -83 -38t-35 -104q0 -130 134 -201q127 -67 332 -67q262 0 442 103zM322 107q44 -44 44 -104q0 -40 -20.5 -74.5t-54.5 -54.5q40 -82 277 -82q218 0 360 75q122 65 122 138q0 50 -84.5 76t-244.5 26q-4 0 -132 -2
q-62 -1 -137 -1q-78 0 -130 3zM909 1070q-12 9 -24 25q0 -9 1 -15q5 -2 13.5 -6t9.5 -4zM633 491q-166 0 -248 69.5t-82 211.5q0 136 76 198q78 63 241 63q166 0 248 -69.5t82 -211.5q0 -136 -76 -198q-78 -63 -241 -63zM403 941q-62 -50 -62 -169q0 -125 68 -183
q72 -61 224 -61q148 0 217 55q63 51 63 169q0 125 -69 183q-72 61 -224 61q-148 0 -217 -55z" />
    <glyph glyph-name="h" unicode="h" horiz-adv-x="1425" 
d="M1406 85q2 -27 -17 -47q-18 -20 -46 -20h-362q-28 0 -46 20q-19 20 -17 48q1 25 20 41.5t45 17.5q23 1 39.5 17.5t16.5 39.5v470q0 175 -54 250q-47 67 -164 67q-157 0 -280 -115q-124 -117 -175 -344v-326q0 -25 17.5 -42t42.5 -17q28 0 46 -20q19 -20 17 -47
q-2 -26 -20 -43t-44 -17h-331q-31 0 -49 23q-19 24 -13 52q5 23 22.5 37.5t40.5 14.5h7q25 0 42 17t17 42v1209q0 16 -11 27t-27 11h-5h-9q-24 0 -42 16.5t-20 40.5q-2 25 14.5 44.5t41.5 22.5l166 21q2 0 6 0.5t6 0.5q37 0 63 -26t26 -64l-4 -645q45 69 103 121
q155 140 371 140q183 0 293 -108q111 -108 111 -328v-444q0 -40 28.5 -68.5t69.5 -29.5q25 0 43.5 -17.5t20.5 -42.5zM1343 55q11 0 19 8.5t7 19.5q-1 10 -9 17t-19 7q-56 1 -95 40.5t-39 95.5v444q0 203 -100 301q-98 97 -267 97q-203 0 -346 -130q-106 -96 -166 -251
l5 803q0 22 -15.5 37.5t-36.5 15.5q-1 0 -3.5 -0.5t-3.5 -0.5l-166 -21q-11 -2 -18 -9.5t-6 -17.5t8 -16.5t17 -6.5h4q2 0 5.5 0.5t4.5 0.5q31 0 53.5 -22.5t22.5 -53.5v-1209q0 -40 -28.5 -68.5t-68.5 -28.5h-7q-10 0 -17 -6t-9 -15q-2 -13 5.5 -22t19.5 -9h331
q11 0 18.5 7.5t8.5 17.5q1 11 -7 19t-19 8q-40 0 -68.5 28.5t-28.5 68.5v330q52 241 186 367q133 125 306 125q136 0 194 -83q61 -87 61 -271v-470q0 -39 -27.5 -66.5t-65.5 -28.5q-11 0 -18.5 -7t-8.5 -17q-1 -11 7 -19.5t19 -8.5h361z" />
    <glyph glyph-name="i" unicode="i" horiz-adv-x="534" 
d="M498 86q2 -28 -17 -48q-18 -20 -47 -20h-324q-27 0 -45 20q-20 21 -18 47t20.5 43t44.5 17q24 0 41 17t17 41v734q0 19 -14 33.5t-34 14.5q-1 0 -3.5 -0.5t-3.5 -0.5t-5 -0.5t-5 -0.5q-26 0 -45 19t-17 46q1 22 16 39t38 21l175 26q4 1 14 1q37 0 63 -26t26 -63v-842
q0 -24 17 -41t41 -18q26 -1 45 -17.5t20 -41.5zM434 55q11 0 19 8.5t7 19.5q-1 10 -8.5 17t-18.5 7q-40 1 -67.5 29t-27.5 68v842q0 22 -15.5 37t-36.5 15q-2 0 -4 -0.5t-4 -0.5l-175 -26q-21 -4 -23 -24q-1 -11 6.5 -18.5t18.5 -7.5h4q4 1 13 1q35 0 60 -24.5t25 -60.5
v-734q0 -40 -27.5 -68t-67.5 -28q-11 0 -19 -7t-9 -17q-1 -11 7 -19.5t19 -8.5h324zM272 1195q-61 0 -105 44t-44 105q0 62 44 106t105 44q62 0 106 -44q43 -43 43 -106q0 -62 -43 -105q-44 -44 -106 -44zM193 1424q-32 -32 -32 -80q0 -47 32 -79t79 -32q48 0 80 32t32 79
q0 48 -32 80t-80 32q-47 0 -79 -32z" />
    <glyph glyph-name="j" unicode="j" horiz-adv-x="559" 
d="M457 1450q43 -43 43 -106q0 -62 -43 -105q-44 -44 -106 -44t-106 44q-43 43 -43 105q0 63 43 106q44 44 106 44t106 -44zM430 1265q33 33 33 79q0 47 -33 80q-32 32 -79 32t-79 -32q-33 -33 -33 -80q0 -46 33 -79q32 -32 79 -32t79 32zM364 1135q37 0 63 -26t26 -63v-983
q0 -155 -47 -240q-57 -105 -199 -105q-85 0 -149 49q-72 55 -72 148q0 76 49 120q47 42 103 42h2h2q42 0 76.5 -22.5t51.5 -58.5q-3 39 -16 69l-2 4q-4 10 -4 16v852q0 20 -12 34.5t-28 14.5q-1 0 -3.5 -0.5t-3.5 -0.5q-4 -1 -11 -1q-22 0 -39.5 13t-22.5 34q-6 26 9 49
q14 22 41 27h1l171 27q5 1 14 1zM416 63v983q0 22 -15.5 37t-36.5 15q-2 0 -4 -0.5t-4 -0.5l-171 -26q-11 -2 -17 -11.5t-3 -19.5q5 -19 25 -19q1 0 2.5 0.5t2.5 0.5q4 1 13 1q33 0 55.5 -25.5t22.5 -60.5v-852l1 -4q21 -45 21 -115q0 -72 -26 -117q-24 -42 -75 -42
q-21 0 -33 12q-5 5 -9 17q35 8 58 36.5t23 64.5q0 43 -30.5 73t-73.5 30h-2h-2q-42 0 -78 -33q-37 -34 -37 -92q0 -74 58 -118q55 -42 126 -42q120 0 166 85q43 79 43 223z" />
    <glyph glyph-name="k" unicode="k" horiz-adv-x="1409" 
d="M1365 372q18 -19 16 -48q-11 -136 -89 -220q-95 -101 -266 -101q-186 0 -339 125q-41 34 -83 80t-68.5 79t-68.5 90q-57 75 -76 98q-1 1 -7 8.5t-10 11.5l-12 -9v-282q0 -25 17 -42t42 -17q31 0 49 -23q19 -24 13 -53q-4 -22 -22 -36.5t-41 -14.5h-322q-28 0 -46 20
q-20 21 -18 47t20.5 43t44.5 17q24 0 41 16.5t17 40.5v1197q0 21 -14.5 35.5t-35.5 14.5h-7q-1 0 -3.5 -0.5t-4.5 -0.5q-24 0 -41.5 16.5t-19.5 40.5t13.5 43t40.5 23l175 25q4 1 13 1q37 0 63 -26.5t26 -63.5v-862l472 338q-19 5 -32 18q-20 21 -18 47t20.5 43t44.5 17h289
q31 0 49 -23q19 -24 13 -53q-5 -22 -22.5 -36.5t-40.5 -14.5q-83 0 -152 -49l-373 -267l-109 -77q32 -38 46 -60q59 -87 123 -148t124 -91t110 -42.5t99 -12.5q67 0 118 18q52 17 89 45.5t48 53.5q14 37 52 40q1 0 3.5 0.5t3.5 0.5q28 0 46 -20zM1264 130q70 75 80 197
q1 11 -6.5 19t-18.5 8h-3q-15 -2 -22 -17q-14 -35 -58 -68.5t-102 -52.5q-62 -20 -129 -20q-53 0 -106.5 13t-118 45t-132.5 96.5t-130 156.5q-25 37 -70 87l142 102l373 266q79 56 174 56q23 0 27 21q2 13 -6 22.5t-20 9.5h-289q-11 0 -18.5 -7.5t-8.5 -17.5
q-1 -11 7 -19.5t19 -8.5q24 0 31 -22t-13 -36l-541 -388v935q0 22 -15.5 37t-36.5 15h-8l-175 -25q-10 -2 -16.5 -9t-5.5 -17q2 -22 24 -22h3h12q36 0 61.5 -25t25.5 -62v-1197q0 -40 -27.5 -67.5t-67.5 -27.5q-11 0 -18.5 -7t-8.5 -17q-1 -11 7 -19.5t19 -8.5h322
q10 0 18 6t9 15q2 13 -6 22t-20 9q-40 0 -68 28.5t-28 68.5v302l54 38q13 -13 41 -45q24 -28 77 -99q37 -50 56 -74t58 -69.5t66 -69.5t70 -57t82.5 -49t91 -28.5t105.5 -12.5q154 0 238 90z" />
    <glyph glyph-name="l" unicode="l" horiz-adv-x="520" 
d="M486 86q2 -28 -17 -48q-18 -20 -46 -20h-325q-28 0 -46 20q-19 20 -17 48q1 25 19.5 41.5t44.5 17.5q24 1 41.5 18t17.5 41v1194q0 19 -13 32t-32 13q-6 0 -9 -1q-4 -1 -12 -1q-28 0 -44 18q-17 17 -17 44q0 22 14.5 38.5t36.5 20.5l176 31q5 1 15 1q37 0 63.5 -26
t26.5 -63v-1300q0 -25 17 -42t42 -18q26 -1 44.5 -17.5t19.5 -41.5zM423 55q11 0 19 8.5t7 19.5q-1 10 -9 17t-19 7q-40 1 -68 29.5t-28 68.5v1300q0 22 -15.5 37t-36.5 15q-6 0 -9 -1l-175 -30q-21 -4 -21 -24q0 -10 7 -17t17 -7q1 0 2.5 0.5t2.5 0.5q6 1 16 1
q33 0 57.5 -24t24.5 -58v-1194q0 -40 -27.5 -68t-67.5 -29q-11 0 -19 -7t-9 -17q-1 -11 7 -19.5t19 -8.5h325z" />
    <glyph glyph-name="m" unicode="m" horiz-adv-x="1994" 
d="M1948 122q19 -24 13 -53q-4 -22 -22 -36.5t-41 -14.5h-322q-28 0 -46 20q-19 20 -17 48q1 25 19.5 41.5t44.5 17.5q24 1 40.5 17.5t16.5 40.5v558q0 135 -38 184q-34 44 -118 44q-119 0 -220 -106q-106 -111 -151 -350v-329q0 -24 17 -41.5t42 -17.5q31 0 49 -23
q19 -24 13 -53q-4 -22 -22 -36.5t-41 -14.5h-322q-28 0 -46 20q-19 20 -17 47q2 26 20 43t44 17q24 0 41 17t17 41v558q0 130 -38 183q-33 45 -113 45q-121 0 -224 -108q-109 -112 -154 -360v-321q0 -23 16.5 -39t39.5 -16h3q31 0 49 -23q20 -25 14 -53q-4 -22 -22 -36.5
t-41 -14.5h-320q-28 0 -46 20q-19 20 -17 48q1 25 19.5 41.5t44.5 17.5q23 1 39 17t16 38v722q0 19 -13.5 32.5t-32.5 13.5h-6q-2 0 -4 -0.5t-4 -0.5q-24 0 -42.5 16.5t-20.5 40.5q-2 25 14 44.5t42 23.5l174 23q4 1 12 1q37 0 64 -27q25 -25 25 -63l-1 -137q38 63 84 104
q142 130 313 130q148 0 242 -91q61 -59 82 -158q49 85 112 137q69 58 144 85q74 27 152 27q148 0 242 -91q93 -90 93 -271v-558q0 -24 17.5 -41t41.5 -17h1q31 0 49 -23zM1925 76q2 13 -6 22t-20 9h-1q-40 0 -68 28t-28 68v558q0 165 -82 245q-80 79 -216 79q-72 0 -140 -24
q-64 -23 -133 -79q-66 -54 -118 -154q-22 -42 -43 -101v34q0 165 -82 245q-80 79 -216 79q-158 0 -288 -120q-92 -85 -148 -249l3 310q0 22 -15 37.5t-37 15.5q-1 0 -3.5 -0.5t-3.5 -0.5l-174 -23q-11 -2 -18 -9.5t-6 -17.5t8.5 -17t17.5 -7h1q1 1 2 1h11q34 0 58.5 -24
t24.5 -59v-722q0 -38 -26.5 -65t-64.5 -28q-11 0 -19 -7t-9 -17q-1 -11 7 -19.5t19 -8.5h319q23 0 27 21q2 13 -6 22t-20 9h-3q-38 0 -65.5 27.5t-27.5 65.5v325q48 263 164 382t251 119q101 0 143 -60q45 -63 45 -205v-558q0 -40 -27.5 -68t-67.5 -28q-11 0 -18.5 -7
t-8.5 -17q-1 -11 7 -19.5t19 -8.5h322q23 0 27 21q2 13 -6 22t-20 9q-40 0 -68 28.5t-28 68.5v332q48 254 161 373q111 117 247 117q103 0 147 -59q47 -62 47 -206v-558q0 -39 -27.5 -67t-66.5 -29q-11 0 -19 -7t-9 -17q-1 -11 7 -19.5t19 -8.5h322q10 0 18 6t9 15z" />
    <glyph glyph-name="n" unicode="n" horiz-adv-x="1406" 
d="M1339 145q16 0 26.5 -11t10.5 -27v-52q0 -16 -10.5 -26.5t-26.5 -10.5h-376q-16 0 -26.5 10.5t-10.5 26.5v52q0 16 10.5 27t26.5 11q35 0 60.5 25t25.5 60v442q0 175 -54 250q-47 67 -164 67q-158 0 -281 -115t-174 -344v-327q0 -24 17.5 -41t41.5 -17h1q30 0 48 -23
q20 -25 14 -53q-4 -22 -22 -36.5t-41 -14.5h-323q-28 0 -46 20q-19 20 -17 48q1 25 19.5 41.5t44.5 17.5q24 1 41 17.5t17 40.5v716q0 19 -14.5 33.5t-33.5 14.5h-7q-2 0 -4 -0.5t-4 -0.5q-25 0 -43 16t-20 41t14 44.5t41 23.5l178 24q4 1 12 1q36 0 63 -27q26 -26 26 -64
l-2 -161q46 69 102 119q157 140 370 140q185 0 294 -108q111 -108 111 -328v-457q0 -35 25 -60t60 -25zM1339 55v52q-51 0 -87 36t-36 87v457q0 203 -99 301q-100 98 -268 98q-199 0 -345 -131q-106 -95 -166 -249l4 320q0 22 -15 37.5t-37 15.5q-1 0 -3.5 -0.5t-3.5 -0.5
l-177 -24q-11 -2 -18 -10t-6 -18t8.5 -16.5t17.5 -6.5l1 1h2q4 1 12 1q35 0 60 -25t25 -61v-716q0 -39 -27.5 -67t-66.5 -29q-11 0 -19 -7t-9 -17q-1 -11 7 -19.5t19 -8.5h323q10 0 17 6t9 15q2 13 -5.5 22t-19.5 9h-1q-40 0 -68 28t-28 68v331q52 241 186 367
q133 125 306 125q135 0 194 -83q61 -87 61 -271v-442q0 -51 -36 -87t-87 -36v-52h376z" />
    <glyph glyph-name="o" unicode="o" horiz-adv-x="1302" 
d="M1075 970q173 -156 173 -408q0 -251 -174 -407q-170 -152 -425 -152q-254 0 -424 153q-172 155 -172 406q0 253 172 408q170 153 424 153q257 0 426 -153zM1049 183q161 143 161 379q0 235 -160 380q-160 143 -401 143q-239 0 -399 -143q-159 -144 -159 -380
q0 -234 159 -378q161 -144 399 -144q240 0 400 143zM649 1033q221 0 318 -127q100 -130 100 -344q0 -217 -100 -344q-99 -126 -318 -126q-217 0 -316 126t-99 344q0 214 100 344q97 127 315 127zM938 240q92 118 92 322q0 200 -92 321q-86 113 -289 113q-200 0 -286 -113
q-92 -121 -92 -321q0 -204 92 -322q85 -110 286 -110q204 0 289 110z" />
    <glyph glyph-name="p" unicode="p" horiz-adv-x="1337" 
d="M789 1031q156 -3 232.5 -105.5t76.5 -309.5q0 -286 -114 -405q-113 -119 -292 -119t-272 96t-93 229v234q78 192 199 289q116 92 253 92q1 0 5 -0.5t5 -0.5zM957 237q104 109 104 379q0 96 -18 167.5t-44 110.5t-65 62.5t-72 30t-74 7.5h-9q-125 0 -230 -84
q-111 -87 -185 -266v-227q0 -117 83 -203q82 -84 245 -84t265 107zM1147 983q134 -139 134 -369q0 -249 -157 -429q-159 -182 -432 -182q-176 0 -288 84q-29 22 -40 33v-335q0 -25 17 -42.5t42 -17.5h2q31 0 49 -23q19 -24 13 -52q-4 -22 -22 -36.5t-41 -14.5h-324
q-28 0 -46 20q-19 20 -17 47q1 25 19.5 41.5t44.5 17.5q24 1 41 18.5t17 41.5v1133q0 20 -14 34.5t-34 14.5h-7q-2 0 -5 -0.5t-4 -0.5q-25 0 -42.5 16t-19.5 41t14 44.5t41 23.5l178 24q4 1 12 1q37 0 64 -27q25 -25 25 -64l-2 -127q52 68 116 117q143 108 321 108
q211 0 345 -140zM1096 210q148 169 148 404q0 214 -124 343t-318 129q-164 0 -298 -101q-104 -79 -178 -217l4 258q0 22 -15 37.5t-37 15.5q-1 0 -3.5 -0.5t-3.5 -0.5l-178 -24q-10 -2 -17 -10t-6 -18t8 -16.5t17 -6.5q1 0 4 1h12q35 0 60 -25t25 -61v-1133q0 -40 -27 -68
t-67 -29q-11 0 -19 -7t-9 -17q-1 -11 7 -19.5t19 -8.5h324q10 0 18 6t9 15q2 13 -6 22t-20 9h-2q-40 0 -68 28.5t-28 68.5v440q38 -62 100 -108q103 -77 265 -77q255 0 404 170z" />
    <glyph glyph-name="q" unicode="q" horiz-adv-x="1284" 
d="M635 1033q178 0 278 -97q98 -95 98 -227v-182q-110 -435 -441 -435q-167 0 -248.5 114.5t-81.5 347.5q0 246 93 363q92 116 302 116zM974 532v177q0 115 -88 201t-251 86q-192 0 -273 -102q-85 -108 -85 -340q0 -109 19 -189.5t47 -124.5t70 -70t77.5 -33t79.5 -7
q152 0 250 97q102 100 154 305zM1238 -275q26 0 45 -18.5t19 -44.5t-19 -44.5t-45 -18.5h-325q-26 0 -44.5 18.5t-18.5 44.5t18.5 44.5t44.5 18.5q25 0 43 17.5t18 43.5v148l1 284q-52 -76 -117 -125q-120 -90 -288 -90q-228 0 -371 155q-142 154 -142 393q0 258 160 415
q159 157 418 157q185 0 309 -98q55 -44 87 -91l33 124q5 19 21 31t36 12h7q22 -3 36.5 -19.5t14.5 -38.5v-1258q0 -25 17 -42.5t42 -17.5zM1238 -364q10 0 18 8t8 18t-8 18t-18 8q-40 0 -68 28.5t-28 68.5v1258q0 8 -5.5 14t-13.5 7h-2q-16 0 -21 -16l-59 -215
q-34 95 -120 163q-113 89 -286 89q-244 0 -392 -146t-148 -388q0 -226 131 -368q132 -143 344 -143q310 0 443 330l-2 -436v-148q0 -40 -28.5 -69t-69.5 -29q-11 0 -18.5 -8t-7.5 -18t7.5 -18t18.5 -8h325z" />
    <glyph glyph-name="r" unicode="r" horiz-adv-x="1226" 
d="M1087 1045q111 -82 109 -225q-3 -100 -55 -150t-115 -50q-17 0 -32 3q-49 9 -81 48t-32 89q0 46 27.5 83t70.5 50q0 41 -32 66q-40 31 -113 31q-154 0 -272 -102q-119 -102 -186 -336v-349q0 -24 17 -41t41 -17h3q31 0 49 -23q19 -24 13 -53q-4 -22 -22 -36.5t-41 -14.5
h-324q-28 0 -46 20q-19 20 -17 48q1 25 19.5 41.5t44.5 17.5q24 1 41 17.5t17 40.5v717q0 19 -14 33t-34 14h-7q-2 0 -4 -0.5t-4 -0.5q-25 0 -43 16.5t-20 40.5q-2 25 14 44.5t41 23.5l177 24q4 1 13 1q36 0 63 -27q26 -26 26 -64l-2 -163q68 102 149 158q78 54 158 79
q78 24 161 24q136 0 242 -78zM1115 697q41 40 43 124q2 123 -94 195q-93 69 -219 69q-80 0 -150 -22q-72 -23 -148 -74q-78 -53 -142 -152q-34 -52 -67 -129l4 318q0 22 -15 37.5t-37 15.5q-1 0 -4 -0.5t-4 -0.5l-176 -24q-11 -2 -18 -10t-6 -18t8.5 -16.5t17.5 -6.5l1 1h2
q4 1 12 1q35 0 60 -24.5t25 -60.5v-717q0 -39 -27.5 -67t-66.5 -29q-11 0 -19 -7t-9 -17q-1 -11 7 -19.5t19 -8.5h324q10 0 18 6t9 15q2 13 -6 22t-20 9h-3q-40 0 -68 28t-28 68v355q69 246 200 359q129 111 296 111q85 0 136 -39q49 -37 47 -103q0 -1 -3 -25
q-41 -2 -68.5 -31.5t-27.5 -69.5q0 -37 24 -65t60 -35q12 -3 24 -3q47 0 89 40z" />
    <glyph glyph-name="s" unicode="s" horiz-adv-x="1146" 
d="M989 560q112 -79 112 -212q0 -172 -165 -263q-148 -82 -380 -82h-6h-5h-6h-12h-4q-56 2 -94 8q-26 4 -55 11q-26 6 -37 10q-9 -4 -17 -12q-16 -16 -40 -16q-40 0 -53 37q0 1 -0.5 1t-0.5 1l-9 31l-5 17l-34 115l-21 71q-8 24 3 47t36 31q12 4 20 4q37 0 55 -33l11 -20
l3 -6q21 -38 37 -63q5 -9 28 -36l8 -8q40 -40 98 -55q17 -4 32 -5q4 0 12 -1t14.5 -1.5t12.5 -0.5h2h2h25q185 0 266 53q71 45 71 118q0 61 -61 97q-76 47 -192 67l-249 44q-134 24 -232 85q-114 72 -114 199q0 99 56 172q54 71 145 104q81 30 158 42q75 12 159 12
q20 0 60 -2q79 -1 148 -18q26 -6 37 -10q12 6 17 11q17 17 40 17q40 0 53 -38q0 -1 0.5 -1t0.5 -1l14 -48l55 -186q8 -23 -3 -46q-11 -24 -36 -32q-9 -3 -20 -3q-37 0 -55 33l-11 20l-3 5q-26 46 -37 64q-4 6 -28 35q-2 1 -4.5 4t-3.5 5q-39 39 -97 54q-12 2 -17 3
q-33 4 -56 5q-1 0 -4 0.5t-5 0.5h-4q-16 1 -43 1q-166 0 -252 -53q-72 -44 -72 -106q0 -43 59 -73q84 -41 201 -62l253 -47q140 -26 239 -95zM918 118q146 81 146 230q0 113 -97 181q-94 65 -224 89l-253 47q-125 23 -211 66q-79 39 -79 106q0 82 90 138q94 58 271 58
q30 0 44 -1h14q30 -1 59 -6q3 0 9.5 -1t10.5 -2q68 -17 116 -65q2 -1 5 -4.5t4 -5.5q24 -28 31 -40q21 -33 42 -71l11 -20q9 -14 22 -14q6 0 8 1q9 2 14 13q4 9 1 19l-55 187l-14 48q-5 13 -18 13q-8 0 -14 -6q-15 -15 -38 -23q-1 0 -2 -1t-2 -1t-3 1h-2l-2 1q-37 11 -40 12
q-62 15 -141 17q-19 1 -58 1q-86 0 -153 -11q-78 -13 -151 -40q-80 -30 -128 -92q-49 -64 -49 -149q0 -107 97 -168q88 -56 219 -79l248 -44q121 -21 205 -72q79 -48 79 -129q0 -92 -88 -149q-94 -60 -286 -60q-4 0 -13 0.5t-13 0.5h-4l-42 3q-19 2 -37 6q-68 17 -116 65
q-2 2 -5 5.5t-4 4.5q-24 28 -31 40q-21 33 -42 71l-11 20q-8 13 -22 13q-6 0 -8 -1q-9 -3 -14 -12t-1 -20l21 -72l34 -114l5 -17l9 -31q5 -13 18 -13q8 0 14 6q11 11 31 20q1 1 3.5 2t3.5 1h2l2 1l1 -1h2t2 -0.5t2 -0.5q26 -8 40 -11q19 -5 52 -10q46 -7 89 -8h16h5h11
q221 0 362 78z" />
    <glyph glyph-name="t" unicode="t" horiz-adv-x="608" 
d="M504 981h-140v-687q0 -107 16 -142q6 -13 15 -13q15 0 26 18q12 19 17 55q4 23 22.5 39.5t41.5 16.5q2 0 4 -0.5t4 -0.5q26 -4 42 -25.5t13 -47.5q-12 -92 -59 -136q-58 -55 -148 -55q-115 0 -162 94q-37 75 -37 232v652h-67q-31 0 -49 23q-19 24 -13 53q4 22 22 36.5
t41 14.5h2q52 0 91 35t44 88q6 63 7 101v39q0 25 19 44t44 19q26 0 45 -18.5t19 -44.5v-263h141q31 0 49 -23q20 -25 14 -53q-4 -22 -22.5 -36.5t-41.5 -14.5zM346 137q-20 43 -20 157v724h178q10 0 18 6t9 15q2 13 -6 22.5t-20 9.5h-179v300q0 11 -8 18.5t-18 7.5t-18 -7.5
t-8 -18.5v-39q-2 -60 -7 -104q-7 -66 -56.5 -111.5t-115.5 -45.5h-2q-23 0 -27 -21q-2 -13 6 -22.5t20 -9.5h104v-689q0 -148 34 -215q36 -74 128 -74q75 0 123 45q36 33 47 114q2 11 -5 20.5t-18 10.5h-4q-22 0 -26 -23q-6 -44 -23 -70q-22 -35 -57 -35q-33 0 -49 35z" />
    <glyph glyph-name="u" unicode="u" horiz-adv-x="1429" 
d="M1389 102q6 -30 -12 -53q-19 -24 -49 -24h-175q-35 0 -59 24.5t-24 58.5v161q-46 -69 -102 -119q-157 -140 -369 -140q-184 0 -295 108q-112 109 -112 329v426q0 39 -27.5 66.5t-65.5 27.5q-9 0 -13 -1q-2 0 -5 -0.5t-4 -0.5q-25 0 -45 20t-18 46q1 22 16.5 39t38.5 20
l228 32q4 1 13 1q37 0 63 -26t26 -63v-573q0 -175 54 -250q47 -67 164 -67q158 0 279 113t174 340v329q0 20 -15 34.5t-35 14.5h-6q-2 0 -4 -0.5t-4 -0.5q-24 0 -41.5 16.5t-19.5 40.5t13.5 43t40.5 23l174 25q4 1 13 1q37 0 63 -26t26 -63v-829q0 -22 15 -37.5t37 -15.5
q23 0 40 -14t22 -36zM1328 62q12 0 20 9.5t5 22.5q-5 21 -27 21q-37 1 -62.5 27t-25.5 63v829q0 22 -15.5 37t-36.5 15q-1 0 -3.5 -0.5t-4.5 -0.5l-174 -25q-10 -2 -16.5 -9t-5.5 -17q2 -22 24 -22h3q2 0 5.5 0.5t5.5 0.5q36 0 61.5 -25.5t25.5 -61.5v-333
q-54 -239 -186 -363q-132 -123 -304 -123q-136 0 -194 83q-61 87 -61 271v573q0 22 -15.5 37t-36.5 15q-1 0 -3.5 -0.5t-4.5 -0.5l-228 -32q-20 -3 -22 -24q-1 -11 6.5 -19t18.5 -8h1l2 1q6 1 19 1q54 0 92.5 -38.5t38.5 -92.5v-426q0 -205 100 -302t269 -97q200 0 345 130
q105 94 165 248l-2 -153v-165q0 -19 13.5 -32.5t32.5 -13.5h175z" />
    <glyph glyph-name="v" unicode="v" horiz-adv-x="1298" 
d="M1228 1108q26 0 45 -18.5t19 -44.5t-19 -45t-45 -19q-33 0 -60.5 -18t-41.5 -48l-426 -933q-13 -28 -45 -28q-31 0 -44 28l-441 935q-13 29 -41 46.5t-60 17.5q-26 0 -44.5 19t-18.5 45t18.5 44.5t44.5 18.5h340q26 0 44.5 -18.5t18.5 -44.5t-18.5 -45t-44.5 -19
q-14 0 -21 -11q-8 -12 -2 -25l306 -667l306 667q5 11 -2 24q-6 12 -22 12q-26 0 -44.5 19t-18.5 45t18.5 44.5t44.5 18.5h254zM1228 1018q10 0 18 8t8 19t-8 18.5t-18 7.5h-254q-10 0 -18 -7.5t-8 -18.5t8 -19t18 -8q34 0 52.5 -28.5t4.5 -60.5l-339 -740l-340 741
q-14 31 4.5 59.5t52.5 28.5q10 0 18 8t8 19t-7.5 18.5t-18.5 7.5h-340q-11 0 -18.5 -7.5t-7.5 -18.5t8 -19t18 -8q43 0 79.5 -23t55.5 -62l441 -935q3 -7 10 -7t11 7l426 933q18 40 55 63.5t81 23.5z" />
    <glyph glyph-name="w" unicode="w" horiz-adv-x="1972" 
d="M1902 1108q26 0 44.5 -19t18.5 -45t-18.5 -44.5t-44.5 -18.5q-34 0 -62.5 -18t-42.5 -49l-427 -935q-13 -27 -43 -27q-29 0 -42 27l-299 633l-289 -632q-13 -27 -43 -27q-29 0 -42 27l-443 938q-14 29 -41 46t-59 17q-26 0 -44.5 19t-18.5 45t18.5 44.5t44.5 18.5h339
q26 0 44.5 -18.5t18.5 -44.5t-18.5 -45t-44.5 -19q-14 0 -21 -11q-8 -12 -2 -24l306 -669l224 487l-71 150q-14 31 -43 49t-63 18q-26 0 -44.5 19t-18.5 45t18.5 44.5t44.5 18.5h343q26 0 45 -18.5t19 -44.5t-19 -45t-45 -19q-15 0 -21 -12q-7 -14 -2 -24l306 -667l306 666
q5 11 -2 25q-6 12 -22 12q-26 0 -44.5 19t-18.5 45t18.5 44.5t44.5 18.5h256zM1902 1018q10 0 18 8t8 19t-8 18.5t-18 7.5h-256q-10 0 -18 -7.5t-8 -18.5t8 -19t18 -8q34 0 52.5 -28.5t4.5 -60.5l-339 -740l-340 741q-14 31 4 59.5t53 28.5q11 0 18.5 8t7.5 18q0 11 -8 19
t-18 8h-343q-10 0 -18 -8t-8 -19q0 -10 8 -18t18 -8q45 0 82.5 -24t56.5 -64l79 -166l-265 -576l-340 743q-14 31 4.5 59t52.5 28q10 0 18 8t8 18q0 11 -8 19t-18 8h-339q-10 0 -18 -8t-8 -19q0 -10 7.5 -18t18.5 -8q43 0 79.5 -22.5t54.5 -61.5l442 -938q3 -6 9 -6t9 6
l323 704l333 -705q3 -6 8 -6q6 0 9 6l427 935q19 40 57 64t82 24z" />
    <glyph glyph-name="x" unicode="x" horiz-adv-x="1325" 
d="M1241 145q26 0 45 -19t19 -45t-19 -44.5t-45 -18.5h-354q-26 0 -45 18.5t-19 44.5t19 45t45 19q4 0 6 4t-1 7l-268 305l-270 -305q-3 -3 -1 -7t6 -4q26 0 44.5 -19t18.5 -45t-18.5 -44.5t-44.5 -18.5h-269q-26 0 -44.5 18.5t-18.5 44.5t18.5 45t44.5 19q81 0 136 61
l312 353l-318 363q-53 59 -130 59q-26 0 -44.5 19t-18.5 45t18.5 44.5t44.5 18.5h352q26 0 44.5 -18.5t18.5 -44.5t-18.5 -45t-44.5 -19q-4 0 -6 -3q-2 -4 1 -7l236 -269l242 268q3 3 1 7t-7 4q-26 0 -44.5 19t-18.5 45t18.5 44.5t44.5 18.5h268q26 0 44.5 -18.5t18.5 -44.5
t-18.5 -45t-44.5 -19q-78 0 -132 -59l-286 -318l350 -399q52 -60 132 -60zM1241 55q11 0 19 8t8 18t-8 18t-19 8q-97 0 -160 73l-372 424l308 343q65 71 160 71q11 0 18.5 8t7.5 18q0 11 -8 19t-18 8h-268q-10 0 -18 -8t-8 -19q0 -10 7.5 -18t18.5 -8q29 0 40.5 -26
t-7.5 -47l-269 -300l-264 302q-19 21 -7 46t40 25q10 0 18 8t8 18q0 11 -8 19t-18 8h-352q-10 0 -18 -8t-8 -19q0 -10 8 -18t18 -8q95 0 158 -71l340 -388l-334 -378q-66 -74 -164 -74q-10 0 -18 -7.5t-8 -18.5t8 -18.5t18 -7.5h269q11 0 18.5 7.5t7.5 18.5t-7.5 18.5
t-18.5 7.5q-28 0 -40 26.5t7 47.5l298 337l296 -338q19 -21 7 -47t-40 -26q-11 0 -18.5 -7.5t-7.5 -18.5t7.5 -18.5t18.5 -7.5h354z" />
    <glyph glyph-name="y" unicode="y" horiz-adv-x="1316" 
d="M1247 1108q26 0 44.5 -18.5t18.5 -44.5t-18.5 -45t-44.5 -19q-33 0 -61.5 -18t-41.5 -48l-420 -922v-1q-37 -71 -73 -130q-38 -60 -88 -118q-60 -70 -133 -107q-78 -38 -163 -38q-142 0 -219 70q-81 72 -81 172q0 72 44 125q43 52 112 57h12h2q61 0 99 -41
q42 -42 42 -102q0 -43 -23.5 -78.5t-62.5 -52.5l7 -7q18 -15 65 -15q54 0 103 26q56 30 92 76q49 61 77 108q29 50 56 106l-412 875q-13 29 -40.5 46t-59.5 17q-26 0 -45 19t-19 45t19 44.5t45 18.5h330q26 0 44.5 -18.5t18.5 -44.5t-18.5 -45t-44.5 -19q-11 0 -17 -9
q-6 -8 -1 -19l308 -674l307 668q5 12 -2 23t-20 11q-26 0 -45 19t-19 45t19 44.5t45 18.5h262zM1247 1018q10 0 18 8t8 19t-7.5 18.5t-18.5 7.5h-262q-11 0 -18.5 -7.5t-7.5 -18.5t8 -19t18 -8q34 0 51.5 -27.5t3.5 -58.5l-340 -742l-342 748q-13 29 4 54.5t48 25.5
q10 0 18 8t8 19t-8 18.5t-18 7.5h-330q-10 0 -18 -7.5t-8 -18.5t8 -19t18 -8q43 0 79 -22.5t54 -61.5l420 -891q-29 -63 -66 -126q-28 -47 -79 -111q-47 -57 -103 -87q-55 -29 -121 -29q-60 0 -89 24q-27 22 -27 52v9q39 5 66 35t27 70q0 46 -32 76q-27 30 -72 30h-2h-9
q-54 -5 -87 -44q-35 -43 -35 -101q0 -83 69 -144t194 -61q80 0 147 34q66 34 121 98q55 66 85 114q28 44 70 127l420 922q18 40 55 63.5t82 23.5z" />
    <glyph glyph-name="z" unicode="z" horiz-adv-x="1191" 
d="M1159 216q6 -25 -9 -47l-118 -182q0 -1 -1 -1t-1 -1q-16 -22 -44 -22q-32 0 -48 29q-15 26 -44 26h-729h-58q-51 0 -73 48t13 86l745 829h-296h-30q-3 0 -21.5 0.5t-32.5 0.5h-27q-65 0 -114 -47l-53 -52q-17 -17 -42 -17q-17 0 -28 7q-24 13 -30 39q-6 24 10 47l118 181
v1l1 1q16 22 44 22q32 0 48 -28q15 -26 44 -26l476 -1h142h2h31q46 0 64 -41q18 -42 -12 -75l-760 -847h4h215q5 0 14.5 -0.5t14.5 -0.5h230h102q50 0 138 85l15 14q18 18 43 18q16 0 27 -7q24 -13 30 -39zM1119 190q6 8 3.5 17.5t-11.5 14.5q-5 3 -9 3q-10 0 -17 -7
l-15 -14q-98 -96 -164 -96h-102h-230h-29l-215 1h-87l815 909q14 16 5.5 35t-29.5 19h-33h-142h-476q-52 0 -77 46q-4 9 -15 9q-8 0 -14 -7l-119 -182q-6 -8 -3.5 -18t11.5 -15q3 -2 10 -2q9 0 16 7l53 52q59 57 140 57h27h54h30l380 -1l-801 -891q-19 -21 -7.5 -46
t39.5 -25h58l729 -1q52 0 77 -46q5 -9 15 -9q8 0 14 7z" />
    <glyph glyph-name="braceleft" unicode="{" horiz-adv-x="544" 
d="M625 -63q24 -1 40.5 -19t16.5 -42q0 -26 -18 -44t-44 -18h-6q-118 12 -207 45q-115 43 -173 112q-53 63 -76 123q-22 59 -22 120q0 95 69 224q56 106 56 143q0 27 -14 38q-22 16 -61 16h-43q-26 0 -44.5 19t-18.5 45t18.5 44.5t44.5 18.5h43q39 0 61 16q14 10 14 38
q0 37 -56 143q-69 129 -69 224q0 61 22 120q24 61 76 124q57 67 173 111q89 33 207 45h6q26 0 44 -18.5t18 -43.5q0 -24 -16.5 -42t-40.5 -19q-147 -12 -219 -72q-80 -67 -80 -179q0 -62 37 -155q45 -114 45 -199q0 -83 -45 -143q-3 -5 -11 -13q8 -8 11 -13q45 -60 45 -144
q0 -86 -45 -200q-37 -93 -37 -154q0 -112 80 -179q72 -60 219 -72zM620 -149q10 0 17.5 7.5t7.5 17.5q0 22 -23 24q-158 12 -240 81q-93 78 -93 207q0 66 39 168q43 111 43 186q0 71 -38 121q-16 21 -40 36q26 15 40 35q38 50 38 121q0 77 -43 186q-39 101 -39 168
q0 130 93 208q81 68 240 80q10 1 16.5 8t6.5 17t-7.5 17t-17.5 7h-2q-111 -10 -198 -43q-106 -39 -158 -100q-48 -57 -69 -113q-20 -54 -20 -107q0 -84 65 -206q60 -113 60 -161q0 -49 -29 -69q-32 -22 -83 -22h-43q-11 0 -18.5 -7.5t-7.5 -18.5t7.5 -18.5t18.5 -7.5h43
q49 0 83 -23q29 -20 29 -69q0 -48 -60 -161q-65 -122 -65 -206q0 -53 20 -107q21 -56 69 -113q52 -61 158 -100q87 -33 198 -43h2z" />
    <glyph glyph-name="braceright" unicode="}" horiz-adv-x="544" 
d="M296 619q-14 -11 -14 -38q0 -37 56 -143q69 -129 69 -224q0 -61 -22 -120q-23 -60 -76 -123v-1q-57 -67 -173 -111q-88 -33 -207 -45h-7q-25 0 -43 18t-18 44q0 24 16 42t40 19q148 12 220 72q80 67 80 179q0 62 -37 155q-45 114 -45 199q0 84 45 144q3 5 11 13
q-8 8 -11 13q-45 60 -45 143q0 86 45 200q37 93 37 154q0 112 -80 179q-72 60 -220 72q-24 1 -40 19.5t-16 42.5q0 26 17.5 43.5t43.5 17.5h7q119 -12 207 -45q116 -44 173 -111q52 -63 76 -124q22 -59 22 -120q0 -95 -69 -224q-56 -106 -56 -143q0 -28 14 -38
q22 -16 61 -16h43q26 0 44.5 -18.5t18.5 -44.5t-18.5 -45t-44.5 -19h-43q-39 0 -61 -16zM305 420q-60 113 -60 161q0 49 29 69q34 23 83 23h43q10 0 18 7.5t8 18.5t-8 18.5t-18 7.5h-43q-51 0 -83 22q-29 20 -29 69q0 48 60 161q65 122 65 206q0 53 -20 107q-21 56 -69 113
q-52 61 -158 100q-87 33 -198 43h-3q-10 0 -17 -7t-7 -17q0 -23 22 -25q159 -12 240 -80q94 -79 94 -208q0 -65 -39 -167q-43 -111 -43 -187q0 -71 38 -121q14 -20 40 -35q-24 -15 -40 -36q-38 -50 -38 -121q0 -77 43 -186q39 -100 39 -168q0 -128 -94 -207
q-82 -69 -240 -81q-22 -2 -22 -24q0 -10 7 -17.5t17 -7.5h3q111 10 198 43q105 38 158 101q49 58 69 112t20 107q0 84 -65 206z" />
    <glyph glyph-name="asciitilde" unicode="~" horiz-adv-x="878" 
d="M834 685q6 -28 -11 -51q-75 -107 -184 -107q-96 0 -233 90q-111 72 -164 72q-44 0 -82 -54q-20 -28 -52 -28q-28 0 -46 20l-1 1q-16 17 -18 39.5t11 41.5q78 111 190 111q91 0 228 -91q108 -71 165 -71q45 0 81 50q20 28 52 28q16 0 32 -9l1 -1q25 -14 31 -41zM793 655
q7 10 4.5 21.5t-12.5 17.5q-1 0 -1 0.5t-1 0.5q-6 3 -13 3q-14 0 -22 -11q-48 -67 -111 -67q-67 0 -186 78q-127 84 -207 84q-93 0 -159 -94q-13 -18 3 -34l1 -1q7 -8 19 -8q15 0 22 11q50 71 112 71q66 0 184 -78q128 -85 213 -85q89 0 154 91z" />
    <glyph glyph-name="nonbreakingspace" unicode="&#xa0;" horiz-adv-x="851" 
 />
    <glyph glyph-name="cent" unicode="&#xa2;" horiz-adv-x="1224" 
d="M359 1017q86 101 241 122v-884q-135 17 -233 113q-118 116 -118 324q0 195 110 325zM562 1095q-109 -25 -175 -102q-101 -119 -101 -301q0 -193 107 -297q74 -73 169 -95v795zM1133 555q23 -11 31 -35t-3 -47q-155 -323 -472 -355v-299q0 -16 -10.5 -26.5t-26.5 -10.5
h-52q-16 0 -27 10.5t-11 26.5v298q-207 18 -340 156q-152 158 -152 393q0 258 176 414q131 116 316 145v304q0 16 11 26.5t27 10.5h52q16 0 26.5 -10.5t10.5 -26.5v-295q103 -1 192 -29q8 4 16 12q16 16 40 16q41 0 54 -37v-2l69 -233q8 -23 -3 -46q-11 -24 -36 -32
q-9 -3 -20 -3q-37 0 -55 32l-11 20l-3 6q-21 38 -37 63q-6 10 -27 35q-2 3 -8 9q-55 55 -137 61q-11 1 -34 1v-816q107 7 203 67q102 64 159 171q18 32 54 32q16 0 28 -6zM1127 489q4 9 1 18t-12 14q-4 3 -11 3q-15 0 -21 -13q-62 -116 -172 -184q-121 -75 -257 -75h-3v892
q4 0 13 0.5t14 0.5q16 0 46 -2q97 -8 161 -72q2 -1 5 -5t4 -5q27 -33 32 -40q14 -22 41 -71l11 -19q9 -14 22 -14q6 0 8 1q10 4 14.5 13t0.5 19l-68 233q-5 13 -19 13q-8 0 -14 -6q-18 -18 -41 -24h-1q-1 1 -2 1t-2 0.5t-2 0.5q-89 29 -196 29q-5 0 -14 -0.5t-13 -0.5v333
h-52v-337q-193 -19 -329 -140q-164 -144 -164 -386q0 -219 142 -367q136 -141 351 -147v-333h52v333q320 15 475 337z" />
    <glyph glyph-name="sterling" unicode="&#xa3;" horiz-adv-x="1398" 
d="M170 93q0 28 90 28h141q-34 -56 -141 -56q-90 0 -90 28zM1298 427q16 0 26.5 -11t10.5 -27v-2v-17q-1 -94 -21.5 -166t-52 -114t-74.5 -68.5t-84.5 -36t-88.5 -9.5q-81 0 -298 55q-150 38 -234 49q-54 -104 -222 -104q-80 0 -124 25q-55 31 -55 92t54 92q44 25 125 25
h118q-5 42 -19 91q-17 59 -68 198q-23 61 -52 142h-104q-26 0 -44.5 18.5t-18.5 44.5t18.5 45t44.5 19h65q-31 115 -31 206q0 235 169 344q161 104 410 104q190 0 321 -73q145 -81 145 -233q0 -84 -44 -131q-30 -32 -67 -42q-1 0 -3 -1h-1q-2 0 -3.5 -1t-3.5 -1
q-22 -4 -32 -4q-59 0 -101.5 43t-42.5 102q0 40 21 74.5t56 52.5q-10 28 -50 49q-71 38 -195 38q-176 0 -260 -79q-83 -78 -83 -242q0 -87 11 -206h457q26 0 44.5 -19t18.5 -45t-18.5 -44.5t-44.5 -18.5h-438q24 -143 36 -203q30 -154 34 -227l487 1q130 0 169 39t47 125
l2 17q2 14 12.5 24t24.5 10h51zM1298 370v19h-51l-1 -17q-9 -99 -58 -148q-48 -49 -196 -49l-524 -2q0 2 0.5 4t0.5 3q2 68 -34 251q-33 165 -44 247h482q11 0 18.5 8t7.5 18t-7.5 18t-18.5 8h-490q-15 135 -15 244q0 181 94 269.5t286 88.5q134 0 213 -42q71 -38 74 -106
q-36 -8 -59 -37t-23 -66q0 -44 31.5 -75.5t75.5 -31.5q12 0 24 3q4 0 6 1h1l1 1q28 8 51 32q34 35 34 105q0 130 -126 201q-119 67 -303 67q-239 0 -389 -97q-153 -100 -153 -313q0 -105 43 -244h-114q-11 0 -18.5 -8t-7.5 -18t7.5 -18t18.5 -8h130q24 -67 61 -166
q46 -121 69 -200q21 -75 21 -131v-8h-156q-142 0 -142 -80t142 -80q162 0 198 107q87 -7 267 -53q211 -54 290 -54q277 0 283 357z" />
    <glyph glyph-name="yen" unicode="&#xa5;" horiz-adv-x="1769" 
d="M1656 1355q6 -28 -13 -52q-18 -23 -49 -23q-74 0 -114 -62l-450 -691h227q26 0 44.5 -18.5t18.5 -44.5q0 -29 -22 -48q22 -19 22 -48q0 -26 -18.5 -45t-44.5 -19h-248v-126q0 -25 18 -43t43 -18h8q28 0 46 -19q19 -20 17 -47q-2 -26 -20 -43t-44 -17h-344q-29 0 -47 20
t-17 47q1 25 20 41.5t45 17.5q25 1 42 18.5t17 42.5v126h-225q-26 0 -44.5 19t-18.5 45q0 29 22 48q-22 19 -22 48q0 26 18.5 44.5t44.5 18.5h198l-477 694q-41 59 -113 59q-31 0 -49 23q-19 24 -13 52q5 23 22.5 37.5t40.5 14.5h352q28 0 47 -21q18 -19 16 -48
q-2 -25 -20 -41.5t-43 -16.5q-9 0 -11 -7q-3 -9 0 -13l426 -629l411 631q4 6 1 12t-10 6q-31 0 -49 23q-20 25 -14 52q5 23 22.5 37.5t40.5 14.5h247q23 0 40.5 -14.5t22.5 -37.5zM1594 1317q12 0 20 9t6 22q-4 21 -27 21h-247q-22 0 -26 -21q-2 -13 6 -22t20 -9
q29 0 43 -25t-2 -50l-442 -678l-457 675q-17 25 -3 51.5t44 26.5q10 0 17.5 7t8.5 17q1 11 -7 19.5t-19 8.5h-352q-23 0 -27 -21q-2 -13 6 -22t20 -9q43 0 81 -20t62 -55l512 -743v-9h-263q-10 0 -18 -8t-8 -18t8 -18t18 -8h263v-44h-263q-10 0 -18 -8t-8 -18q0 -11 8 -19
t18 -8h263v-163q0 -40 -28.5 -68.5t-68.5 -29.5q-11 0 -18.5 -7t-8.5 -17q-1 -11 7 -19.5t19 -8.5h344q11 0 18.5 7.5t8.5 17.5q1 11 -7 19t-19 8h-8q-40 0 -69 29t-29 69v163h285q10 0 18 8t8 19q0 10 -7.5 18t-18.5 8h-285v44h285q11 0 18.5 8t7.5 18t-7.5 18t-18.5 8
h-285v17l477 732q24 37 62.5 57.5t82.5 20.5z" />
    <glyph glyph-name="copyright" unicode="&#xa9;" horiz-adv-x="1564" 
d="M1216 1162q181 -181 181 -434t-181 -434q-180 -180 -434 -180t-434 180q-181 181 -181 434t181 434t434 181t434 -181zM1035 1178q-1 0 -1 0.5t-1 0.5t-2 0.5t-2 0.5q-83 27 -186 27q-29 0 -43 -1q-204 -12 -343 -136q-156 -138 -156 -366q0 -208 135 -348
q135 -139 353 -139q326 0 479 319q10 20 -11 31q-5 3 -10 3q-14 0 -20 -12q-59 -110 -163 -175q-113 -71 -244 -71q-160 0 -272 110t-112 307q0 186 104 308q104 121 303 121q16 0 44 -2q95 -8 153 -68q2 -2 4 -5t4 -4q16 -18 30 -39q27 -43 39 -66l10 -19q7 -13 22 -13
q5 0 7 1q9 3 13 12t1 18l-65 221q-5 12 -17 12q-8 0 -13 -5q-17 -17 -40 -23zM1189 321q170 170 170 407q0 238 -170 408q-25 25 -38 36l55 -188q8 -23 -3 -45q-11 -23 -35 -31q-9 -3 -19 -3q-36 0 -54 32l-11 19l-3 5q-3 6 -15 27t-19 33q-10 15 -26 33q-1 2 -4 4t-4 4
q-49 51 -128 57q-13 1 -42 1q-184 0 -275 -107q-95 -112 -95 -284q0 -183 101 -281q100 -99 246 -99q121 0 225 65q94 58 149 161q16 32 53 32q15 0 27 -6q22 -11 30.5 -35t-2.5 -46q-164 -340 -513 -340q-235 0 -380 150q-145 151 -145 374q0 244 168 394q150 133 365 145
q17 1 46 1q104 0 191 -27q12 7 15 10q6 6 10 8q-125 71 -277 71q-238 0 -408 -170t-170 -408q0 -237 170 -407t408 -170q237 0 407 170zM1282 1229q208 -208 208 -501q0 -292 -208 -500t-500 -208q-293 0 -501 208q-207 207 -207 500q0 294 207 501t501 207q293 0 500 -207z
M1256 254q196 196 196 474q0 279 -196 475t-474 196q-279 0 -475 -196t-196 -475q0 -278 196 -474t475 -196q278 0 474 196z" />
    <glyph glyph-name="softhyphen" unicode="&#xad;" horiz-adv-x="0" 
 />
    <glyph glyph-name="registered" unicode="&#xae;" horiz-adv-x="1564" 
d="M1282 1246q208 -208 208 -500q0 -293 -208 -501q-207 -207 -500 -207q-294 0 -501 207t-207 501q0 293 207 500q208 208 501 208q292 0 500 -208zM1256 271q197 197 197 475q0 277 -197 474t-474 197q-278 0 -475 -197q-196 -196 -196 -474q0 -279 196 -475t475 -196
q278 0 474 196zM1216 1180q181 -181 181 -434t-181 -434t-434 -181t-434 181t-181 434t181 434t434 181t434 -181zM660 623q-16 25 -27 37h152q397 0 397 256t-397 256h-379q-11 0 -18 -7t-7 -17t7.5 -17.5t17.5 -7.5q20 0 34 -14.5t14 -33.5v-656q0 -19 -14 -33.5
t-34 -14.5q-10 0 -17.5 -7.5t-7.5 -17.5t7.5 -17.5t17.5 -7.5l199 -1q10 0 17 7t8 17q0 12 -6 18q-8 8 -19 8q-19 0 -33 14t-14 33v221q23 -22 75 -92q32 -42 50.5 -65.5t53.5 -59t65.5 -54.5t74.5 -33.5t92 -14.5q100 0 154 58q47 50 52 128q2 11 -6 19t-18 8
q-17 0 -23 -16q-7 -20 -33.5 -40t-60.5 -31q-36 -12 -78 -12q-168 0 -296 190zM348 1126q-144 -160 -144 -380q0 -218 144 -380q6 18 22 30t36 12q10 0 10 11v656q0 11 -10 11q-42 0 -58 40zM1189 338q170 170 170 408q0 237 -170 407t-407 170q-194 0 -343 -113h347
q100 0 180 -17q82 -18 137 -54q116 -75 116 -223t-116 -223q-55 -36 -137 -54q-80 -17 -180 -17h-80q111 -151 250 -151q38 0 66 10t47.5 24t23.5 25q15 39 58 39q27 0 45 -20q18 -19 16 -47q-8 -93 -61 -150q-64 -70 -182 -70q-53 0 -102 16t-82.5 36.5t-72 59t-57.5 62
t-52 68.5q-2 2 -4.5 5.5t-3.5 5.5v-118q0 -10 10 -10q27 0 46 -19t17 -46q-2 -25 -20.5 -42t-43.5 -17l-168 1q151 -116 346 -116q237 0 407 170zM1005 757q-67 -48 -220 -48h-227v414h227q153 0 220 -48q65 -45 65 -159t-65 -159zM595 1086v-340h190q140 0 199 42
q49 34 49 128t-49 128q-59 42 -199 42h-190z" />
    <glyph glyph-name="Agrave" unicode="&#xc0;" 
d="M464 568l310 652l285 -652h-595zM523 605h479l-229 525zM1542 139q26 0 45 -18t19 -43q0 -26 -18.5 -44t-44.5 -18h-283q-26 0 -44.5 18t-18.5 44q0 42 40 57l-174 343h-596l-137 -292q-14 -29 -4 -43q5 -5 14 -5q26 0 44.5 -18t18.5 -43t-18.5 -43t-44.5 -18h-284
q-26 0 -44 18t-18 43t18 43t44 18h56q27 0 37 21l593 1241q15 33 53 33h37q38 0 53 -34l545 -1194q16 -30 46 -48t66 -18zM1543 53q11 0 18.5 7.5t7.5 17.5t-8 17t-19 7q-46 0 -86 23.5t-60 63.5l-545 1195q-5 11 -19 11h-37q-14 0 -19 -11l-594 -1241q-20 -43 -70 -43h-56
q-11 0 -18 -6.5t-7 -16.5t7.5 -17t17.5 -7h284q10 0 17.5 7t7.5 17t-7 16.5t-18 6.5q-40 0 -51 33t8 69l146 314h643l195 -384q5 -11 -1.5 -20.5t-19.5 -9.5q-11 0 -18.5 -7t-7.5 -17t7.5 -17.5t18.5 -7.5h283zM623 1675q-11 20 -14 31q-14 58 22 94q25 25 64 25q17 0 30 -4
q12 -4 24 -10q54 -29 88 -85q43 -69 56 -87q37 -51 85 -108q16 -19 16.5 -41.5t-15.5 -38.5q-15 -15 -37 -15q-23 0 -42 17q-46 40 -107 84q-43 32 -87 57q-54 32 -83 81zM658 1773q-22 -22 -13 -58q1 -7 10 -21q25 -41 70 -67q30 -17 89 -59q63 -46 110 -87q10 -8 18 -8
q7 0 11 4q11 11 -3 29q-44 51 -87 111q-37 54 -58 90q-28 47 -73 71q-12 6 -17 7q-11 3 -20 3q-22 0 -37 -15z" />
    <glyph glyph-name="Aacute" unicode="&#xc1;" 
d="M465 568l309 652l285 -652h-594zM523 605h479l-229 525zM1542 139q26 0 45 -18t19 -43q0 -26 -18.5 -44t-44.5 -18h-283q-26 0 -44.5 18t-18.5 44q0 42 40 57l-174 343h-596l-137 -292q-14 -29 -4 -43q5 -5 14 -5q26 0 44.5 -18t18.5 -43t-18.5 -43t-44.5 -18h-284
q-26 0 -44 18t-18 43t18 43t44 18h56q27 0 37 21l593 1241q15 33 53 33h37q38 0 53 -34l545 -1194q16 -30 46 -48t66 -18zM1543 53q11 0 18.5 7.5t7.5 17.5t-8 17t-19 7q-46 0 -86 23.5t-60 63.5l-545 1195q-5 11 -19 11h-37q-14 0 -19 -11l-594 -1241q-20 -43 -70 -43h-56
q-11 0 -18 -6.5t-7 -16.5t7.5 -17t17.5 -7h284q10 0 17.5 7t7.5 17t-7 16.5t-18 6.5q-40 0 -51 33t8 69l146 314h643l195 -384q5 -11 -1.5 -20.5t-19.5 -9.5q-11 0 -18.5 -7t-7.5 -17t7.5 -17.5t18.5 -7.5h283zM658 1436q-23 0 -38 15q-16 16 -15.5 38.5t16.5 41.5
q55 65 86 108q13 18 56 87q34 56 88 85q12 6 24 10q13 4 30 4q38 0 63 -25q37 -37 23 -94q-3 -11 -14 -31q-29 -49 -84 -81q-39 -22 -86 -57q-61 -44 -107 -84q-19 -17 -42 -17zM650 1506q-14 -18 -3 -29q4 -4 11 -4q8 0 18 8q52 46 109 87q56 40 90 59q45 26 70 67
q9 14 10 21q9 36 -13 58q-15 15 -37 15q-11 0 -21 -3q-3 -1 -16 -7q-45 -24 -73 -71q-21 -36 -58 -90q-43 -60 -87 -111z" />
    <glyph glyph-name="Acircumflex" unicode="&#xc2;" 
d="M465 568l309 652l285 -652h-594zM523 605h479l-229 525zM1542 139q26 0 45 -18t19 -43q0 -26 -18.5 -44t-44.5 -18h-283q-26 0 -44.5 18t-18.5 44q0 42 40 57l-174 343h-596l-137 -292q-14 -29 -4 -43q5 -5 14 -5q26 0 44.5 -18t18.5 -43t-18.5 -43t-44.5 -18h-284
q-26 0 -44 18t-18 43t18 43t44 18h56q27 0 37 21l593 1241q15 33 53 33h37q38 0 53 -34l545 -1194q16 -30 46 -48t66 -18zM1543 53q11 0 18.5 7.5t7.5 17.5t-8 17t-19 7q-46 0 -86 23.5t-60 63.5l-545 1195q-5 11 -19 11h-37q-14 0 -19 -11l-594 -1241q-20 -43 -70 -43h-56
q-11 0 -18 -6.5t-7 -16.5t7.5 -17t17.5 -7h284q10 0 17.5 7t7.5 17t-7 16.5t-18 6.5q-40 0 -51 33t8 69l146 314h643l195 -384q5 -10 -2 -20t-19 -10q-11 0 -18.5 -7t-7.5 -17t7.5 -17.5t18.5 -7.5h283zM538 1447q-19 16 -19 37t13 35l238 309q11 14 30 14q18 0 29 -14
l239 -309q13 -14 13 -35q-2 -23 -19 -37q-14 -11 -31 -11q-19 0 -33 12l-198 176l-198 -176q-14 -12 -33 -12q-17 0 -31 11zM560 1495q-11 -9 1 -19q3 -3 8 -3t8 3l223 198l223 -198q3 -3 8 -3t8 3q11 10 0 19l-239 310z" />
    <glyph glyph-name="Atilde" unicode="&#xc3;" 
d="M465 568l309 652l285 -652h-594zM523 605h479l-229 525zM1542 139q26 0 45 -18t19 -43q0 -26 -18.5 -44t-44.5 -18h-283q-26 0 -44.5 18t-18.5 44q0 42 40 57l-174 343h-596l-137 -292q-14 -29 -4 -43q5 -5 14 -5q26 0 44.5 -18t18.5 -43t-18.5 -43t-44.5 -18h-284
q-26 0 -44 18t-18 43t18 43t44 18h56q27 0 37 21l593 1241q15 33 53 33h37q38 0 53 -34l545 -1194q16 -30 46 -48t66 -18zM1543 53q11 0 18.5 7.5t7.5 17.5t-8 17t-19 7q-46 0 -86 23.5t-60 63.5l-545 1195q-5 11 -19 11h-37q-14 0 -19 -11l-594 -1241q-20 -43 -70 -43h-56
q-11 0 -18 -6.5t-7 -16.5t7.5 -17t17.5 -7h284q10 0 17.5 7t7.5 17t-7 16.5t-18 6.5q-40 0 -51 33t8 69l146 314h643l195 -384q5 -10 -2 -20t-19 -10q-11 0 -18.5 -7t-7.5 -17t7.5 -17.5t18.5 -7.5h283zM554 1613q-14 15 -16 36t10 38q53 76 132 76q60 0 150 -59
q62 -41 91 -41q17 0 35 24t47 24q16 0 29 -7v-1q22 -12 29 -38q6 -24 -10 -46q-52 -74 -129 -74q-62 0 -153 59q-63 41 -90 41q-17 0 -35 -26q-16 -22 -44 -24l-2 -1h-2q-25 0 -42 19zM579 1665q-10 -14 2 -26v-1q6 -6 15 -6h2q9 0 16 9q29 41 65 41q37 0 110 -47
q82 -53 133 -53q58 0 99 58q5 6 3 17q-2 10 -10 14l-3 -4l3 4q-4 3 -11 3q-11 0 -17 -9q-28 -39 -65 -39q-40 0 -111 47q-82 53 -130 53q-58 0 -101 -61z" />
    <glyph glyph-name="Adieresis" unicode="&#xc4;" 
d="M465 568l309 652l285 -652h-594zM523 605h479l-229 525zM1543 139q26 0 44.5 -18t18.5 -43q0 -26 -18.5 -44t-44.5 -18h-283q-26 0 -44.5 18t-18.5 44q0 42 40 57l-174 343h-596l-137 -292q-14 -29 -4 -43q5 -5 14 -5q26 0 44.5 -18t18.5 -43t-18.5 -43t-44.5 -18h-284
q-26 0 -44 18t-18 43t18 43t44 18h56q27 0 37 21l593 1241q15 33 53 33h37q38 0 53 -34l545 -1194q16 -30 46.5 -48t66.5 -18zM1543 53q11 0 18.5 7.5t7.5 17.5t-8 17t-19 7q-46 0 -86 23.5t-60 63.5l-545 1195q-5 11 -19 11h-37q-14 0 -19 -11l-594 -1241q-20 -43 -70 -43
h-56q-11 0 -18 -6.5t-7 -16.5t7.5 -17t17.5 -7h284q10 0 17.5 7t7.5 17t-7 16.5t-18 6.5q-40 0 -51 33t8 69l146 314h643l195 -384q5 -10 -2 -20t-19 -10q-11 0 -18.5 -7t-7.5 -17t7.5 -17.5t18.5 -7.5h283zM819 1514q-51 0 -87 36q-35 35 -35 86q0 52 35 87t87 35
q51 0 86 -35q36 -36 36 -87q0 -50 -36 -86t-86 -36zM759 1696q-25 -25 -25 -60t25 -60q24 -24 60 -24t60 24q25 25 25 60t-25 60t-60 25t-60 -25z" />
    <glyph glyph-name="Aring" unicode="&#xc5;" 
d="M1542 139q26 0 45 -18t19 -43t-19 -43.5t-45 -18.5h-282q-26 0 -44.5 18t-18.5 44q0 42 40 57l-174 343h-596l-137 -292q-14 -29 -4 -43q5 -5 14 -5q26 0 44.5 -18t18.5 -43t-18.5 -43t-44.5 -18h-284q-26 0 -44 18t-18 43t18 43t44 18h56q27 0 37 21l593 1241
q15 33 53 33h37q38 0 53 -34l545 -1194q16 -30 46 -48t66 -18zM1542 53q11 0 19 7.5t8 17.5t-8 17t-19 7q-46 0 -86 23.5t-60 63.5l-545 1195q-5 11 -19 11h-37q-14 0 -19 -11l-594 -1241q-20 -43 -70 -43h-56q-11 0 -18 -6.5t-7 -16.5t7.5 -17t17.5 -7h284q10 0 17.5 7
t7.5 17t-7 16.5t-18 6.5q-40 0 -51 33t8 69l146 314h643l195 -384q5 -11 -1.5 -20.5t-19.5 -9.5q-11 0 -18.5 -7t-7.5 -17t7.5 -17.5t18.5 -7.5h282zM464 568l310 652l285 -652h-595zM523 605h479l-229 525zM800 1534q-43 0 -73 30q-29 29 -29 72q0 44 29 73t73 29
q43 0 72 -29q30 -30 30 -73q0 -42 -30 -72t-72 -30zM752 1684q-19 -19 -19 -48t19 -48t48 -19t48 19t19 48t-19 48t-48 19t-48 -19z" />
    <glyph glyph-name="AE" unicode="&#xc6;" horiz-adv-x="1785" 
d="M464 568l310 652l2 -4v-648h-312zM738 605v453l-215 -453h215zM1740 301q21 -16 24.5 -42t-11.5 -48l-156 -241l-1 -1l-1 -1q-17 -25 -48 -25q-34 0 -53 32q-23 41 -70 41h-737q-23 0 -41.5 14.5t-22.5 36.5q-6 28 14 53q18 23 49 23q22 0 37 15.5t15 37.5v282h-271
l-137 -292q-14 -29 -4 -43q5 -5 14 -5q26 0 44.5 -18t18.5 -43t-18.5 -43t-44.5 -18h-284q-26 0 -44 18t-18 43t18 43t44 18h56q27 0 37 21l550 1150q-12 3 -13 3h-4q-27 0 -44 20q-19 22 -16 46q2 23 20 38.5t42 15.5h632q46 0 69 41q19 32 53 32q32 0 49 -25l1 -1v-1
l157 -241q14 -19 12 -42.5t-18 -40.5q-19 -21 -49 -21q-27 0 -46 19l-20 19q-137 134 -213 134h-53h-71h-3h-3h-187q-17 0 -29 -12t-12 -29v-460h242q9 0 15 6t6 15v2q0 27 18 45q19 19 46 19q7 0 11 -1q23 -4 37.5 -22t14.5 -42v-172q0 -26 -18.5 -45t-44.5 -19q-8 0 -12 1
q-22 4 -37 22.5t-15 42.5v2q0 9 -6 15t-15 6h-242v-495q0 -17 12 -29t29 -12h262h38h1h72h52q76 0 213 134l19 19q21 19 48 19q22 0 41 -14zM1722 232q7 9 6 21t-11 19q-7 6 -18 6q-13 0 -22 -9l-19 -19q-149 -144 -239 -144h-52h-72h-39h-262q-32 0 -55 23t-23 55v532h279
q24 0 41 -17t17 -41v-2q0 -10 6 -18.5t16 -9.5h5q11 0 18.5 7.5t7.5 18.5v172q0 10 -6 18t-16 9q-1 0 -2 0.5t-2 0.5q-11 0 -19 -8t-8 -19v-2q0 -24 -17 -41t-41 -17h-279v497q0 32 23 55t55 23h187v1h6h71h53q89 0 239 -145l20 -20q8 -8 20 -8t21 9q17 17 3 37l-157 242
q-8 10 -19 10q-14 0 -20 -13q-15 -28 -42.5 -44t-59.5 -16h-633q-9 0 -16 -6t-8 -15q-1 -10 6 -17.5t17 -7.5h4q15 0 30.5 -6.5t23.5 -12.5l7 -6l-565 -1181q-20 -43 -70 -43h-56q-11 0 -18 -6.5t-7 -16.5t7.5 -17t17.5 -7h284q10 0 17.5 7t7.5 17t-7 16.5t-18 6.5
q-40 0 -51 33t8 69l146 314h333v-320q0 -38 -26 -64t-64 -26q-12 0 -20 -9.5t-6 -22.5q4 -21 27 -21h737q32 0 59.5 -16t42.5 -44q6 -12 21 -12q11 0 18 9z" />
    <glyph glyph-name="Ccedilla" unicode="&#xc7;" horiz-adv-x="1394" 
d="M354 1046q-39 -85 -52 -160q-14 -81 -14 -162q0 -80 14 -161q13 -75 52 -160q39 -84 93 -141t149 -95q36 -15 75 -24q67 -15 146 -15h5h4q16 0 44 2q105 11 188.5 71.5t126.5 158.5q18 41 63 41q39 0 59 -33q21 -32 3 -66q-59 -121 -167 -199.5t-240 -96.5q-4 -1 -12 -1
q13 -10 31 -23q26 -19 47 -46q26 -34 26 -72q0 -53 -40 -87q-30 -26 -74 -37q-36 -9 -79 -9q-73 0 -125 32q-64 39 -64 107q0 39 22 64l1 1v1q22 27 60 27h7q28 -2 48 -22.5t23 -48.5q3 -24 -11 -48q17 -5 39 -5q36 0 52 8q3 3 3 12q0 16 -6 28q-5 12 -15 20l-34 28
q-24 20 -33 29q-17 18 -25 40q-277 21 -470 193q-223 199 -223 527t223 527q220 196 543 196q163 0 327 -53q13 6 23 16q17 17 43 17q41 0 56 -40q0 -1 0.5 -1t0.5 -1l81 -274q8 -25 -3 -49t-36 -34q-11 -4 -24 -4q-40 0 -59 35l-13 23l-3 7q-25 46 -44 75q-10 15 -33 42
q-48 55 -131 84.5t-185 29.5q-127 0 -221 -38q-93 -37 -149 -96q-55 -58 -93 -140zM265 556q-14 76 -14 168t14 168q16 84 55 169q40 88 100 151q61 64 162 104q102 42 235 42q109 0 198.5 -32.5t144.5 -94.5q23 -27 37 -48q23 -36 49 -83l13 -23q8 -16 26 -16q4 0 10 2
q11 4 16 15t1 22l-81 275q-6 15 -21 15q-10 0 -17 -7q-21 -21 -49 -29q-163 56 -327 56q-308 0 -518 -187q-211 -187 -211 -499t211 -499q197 -175 481 -186q-2 -8 -2 -13q0 -18 17 -35q13 -13 30 -27l34 -28q17 -13 26 -32q10 -19 10 -45q0 -30 -19 -43q-21 -15 -74 -15
q-41 0 -68 16q-21 12 -22 29q28 12 25 42q-1 15 -12 25.5t-26 12.5h-3q-20 0 -32 -15l-1 -1q-13 -15 -13 -40q0 -48 46 -76q41 -25 106 -25q41 0 70 7q32 7 58 30q27 23 27 58q0 26 -18 50q-17 22 -39 38q-10 7 -41 31l-37 28q-11 9 -11 14q0 1 5 14v-1h1t2 0.5t2 0.5h3h2
l2 -1h2q7 0 31 2q35 3 37 3q123 17 224 91t155 184q8 16 -1.5 31t-27.5 15q-20 0 -29 -19q-49 -110 -141.5 -175.5t-204.5 -76.5q-30 -2 -47 -2h-3h-6q-86 0 -154 16q-36 8 -81 25q-100 40 -162 105t-100 150q-39 85 -55 169z" />
    <glyph glyph-name="Egrave" unicode="&#xc8;" horiz-adv-x="1214" 
d="M1167 301q21 -16 24.5 -42t-11.5 -48l-156 -241l-1 -1l-1 -1q-18 -24 -48 -24q-35 0 -53 31q-23 41 -70 41h-737q-23 0 -41.5 14.5t-22.5 36.5q-6 28 14 53q18 23 49 23q22 0 37 15.5t15 37.5v1063q0 22 -15 37.5t-37 15.5h-4q-27 0 -44 20q-19 22 -16 46q2 23 20 38.5
t42 15.5h632q46 0 69 41q19 32 53 32q32 0 49 -25v-1l1 -1l157 -241q14 -19 12 -42.5t-18 -40.5q-19 -21 -49 -21q-27 0 -46 19l-20 19q-137 134 -213 134h-53h-71h-3h-3h-186q-17 0 -29.5 -12t-12.5 -29v-460h242q9 0 15 6t6 15v2q0 26 19 45t45 19q7 0 11 -1
q23 -4 37.5 -22t14.5 -42v-172q0 -26 -18.5 -45t-44.5 -19q-8 0 -12 1q-22 4 -37 22.5t-15 42.5v2q0 9 -6 15t-15 6h-242v-495q0 -17 12.5 -29t29.5 -12h261h38h1h72h52q76 0 213 134l19 19q21 19 48 19q22 0 41 -14zM1149 232q7 9 6 21t-11 19q-8 6 -18 6q-13 0 -22 -9
l-19 -19q-149 -144 -239 -144h-52h-72h-39h-262q-32 0 -55 23t-23 55v532h279q24 0 41 -17t17 -41v-2q0 -10 6 -18.5t16 -9.5h5q11 0 18.5 7.5t7.5 18.5v172q0 10 -6 18t-16 9q-1 0 -2 0.5t-2 0.5q-11 0 -19 -8t-8 -19v-2q0 -24 -17 -41t-41 -17h-279v497q0 32 23 55t55 23
h187v1h6h71h53q89 0 239 -145l20 -20q8 -8 20 -8q13 0 22 9q17 17 2 37l-157 242q-8 10 -19 10q-13 0 -20 -13q-15 -28 -42.5 -44t-59.5 -16h-632q-9 0 -16 -6t-8 -15q-1 -10 5.5 -17.5t16.5 -7.5h4q37 0 63.5 -26.5t26.5 -63.5v-1063q0 -38 -26.5 -64t-63.5 -26
q-12 0 -20 -9.5t-6 -22.5q1 -9 9 -15t18 -6h737q32 0 59.5 -16t42.5 -44q6 -12 21 -12q10 0 18 9zM308 1693q-9 17 -12 28q-12 50 20 82q22 22 55 22q13 0 26 -3q12 -4 22 -9q47 -24 77 -75q34 -54 49 -76q46 -62 74 -95q14 -16 14.5 -36t-13.5 -33q-14 -14 -32 -14
q-20 0 -38 15q-36 32 -93 74q-43 31 -76 50q-46 26 -73 70zM339 1780q-19 -19 -11 -51q2 -8 8 -19q23 -37 62 -59q44 -26 78 -51q39 -28 96 -77q7 -6 16 -6q5 0 9 4q11 11 -2 25q-38 42 -77 97q-25 35 -50 79q-23 39 -65 62q-7 4 -14 6q-9 3 -18 3q-19 0 -32 -13z" />
    <glyph glyph-name="Eacute" unicode="&#xc9;" horiz-adv-x="1214" 
d="M376 1449q-21 0 -36 15t-15 37t16 40q58 68 83 104q29 42 54 84q33 56 85 83q9 5 23 9q13 4 29 4q37 0 61 -24q36 -36 22 -91q-2 -10 -14 -30q-30 -49 -80 -78q-30 -17 -83 -55q-60 -42 -104 -81q-20 -17 -41 -17zM369 1517q-6 -7 -7 -15.5t4 -12.5q4 -4 10 -4q10 0 18 8
q50 44 106 84q41 29 86 56q45 26 68 66q8 12 9 20q9 35 -12 56q-14 14 -36 14q-13 0 -20 -2q-2 -1 -15 -7q-47 -26 -72 -69q-37 -62 -55 -87q-44 -61 -84 -107zM1167 301q21 -16 24.5 -42t-11.5 -48l-156 -241l-1 -1l-1 -1q-16 -24 -48 -24q-35 0 -53 31q-23 41 -70 41h-737
q-23 0 -41.5 14.5t-22.5 36.5q-6 28 14 53q18 23 49 23q22 0 37 15.5t15 37.5v1063q0 22 -15 37.5t-37 15.5h-4q-27 0 -44 20q-19 22 -16 46q2 23 20 38.5t42 15.5h632q46 0 69 41q19 32 53 32q32 0 49 -25v-1l1 -1l157 -241q14 -19 12 -42.5t-18 -40.5q-19 -21 -49 -21
q-27 0 -46 19l-20 19q-137 134 -213 134h-53h-71h-3h-3h-186q-17 0 -29.5 -12t-12.5 -29v-460h242q9 0 15 6t6 15v2q0 26 19 45t45 19q7 0 11 -1q23 -4 37.5 -22t14.5 -42v-172q0 -26 -18.5 -45t-44.5 -19q-8 0 -12 1q-22 4 -37 22.5t-15 42.5v2q0 9 -6 15t-15 6h-242v-495
q0 -17 12.5 -29t29.5 -12h261h38h1h72h52q76 0 213 134l19 19q21 19 48 19q22 0 41 -14zM1149 232q7 9 6 21t-11 19q-8 6 -18 6q-13 0 -22 -9l-19 -19q-149 -144 -239 -144h-52h-72h-39h-262q-32 0 -55 23t-23 55v532h279q24 0 41 -17t17 -41v-2q0 -10 6 -18.5t16 -9.5h5
q11 0 18.5 7.5t7.5 18.5v172q0 10 -6 18t-16 9q-1 0 -2 0.5t-2 0.5q-11 0 -19 -8t-8 -19v-2q0 -24 -17 -41t-41 -17h-279v497q0 32 23 55t55 23h187v1h6h71h53q89 0 239 -145l20 -20q8 -8 20 -8q13 0 22 9q17 17 2 37l-157 242q-8 10 -19 10q-13 0 -20 -13
q-15 -28 -42.5 -44t-59.5 -16h-632q-9 0 -16 -6t-8 -15q-1 -10 5.5 -17.5t16.5 -7.5h4q37 0 63.5 -26.5t26.5 -63.5v-1063q0 -38 -26.5 -64t-63.5 -26q-12 0 -20 -9.5t-6 -22.5q1 -9 9 -15t18 -6h737q32 0 59.5 -16t42.5 -44q6 -12 21 -12q10 0 18 9z" />
    <glyph glyph-name="Ecircumflex" unicode="&#xca;" horiz-adv-x="1214" 
d="M256 1460q-17 12 -17 34q0 20 12 33l222 288q11 14 28 14q16 0 27 -14l222 -288q13 -15 13 -33q0 -21 -18 -34q-13 -11 -29 -11q-18 0 -30 12l-185 164l-186 -164q-12 -12 -30 -12q-16 0 -29 11zM277 1504q-9 -9 1 -17q3 -3 7 -3t7 3l208 185l209 -185q3 -3 7 -3t7 3
q10 8 1 17l-223 290zM1167 301q21 -16 24.5 -42t-11.5 -48l-156 -241l-1 -1l-1 -1q-16 -24 -48 -24q-35 0 -53 31q-23 41 -70 41h-737q-23 0 -41.5 14.5t-22.5 36.5q-6 28 14 53q18 23 49 23q22 0 37 15.5t15 37.5v1063q0 22 -15 37.5t-37 15.5h-4q-27 0 -44 20
q-19 22 -16 46q2 23 20 38.5t42 15.5h632q46 0 69 41q19 32 53 32q32 0 49 -25v-1l1 -1l157 -241q14 -19 12 -42.5t-18 -40.5q-19 -21 -49 -21q-27 0 -46 19l-20 19q-137 134 -213 134h-53h-71h-3h-3h-186q-17 0 -29.5 -12t-12.5 -29v-460h242q9 0 15 6t6 15v2q0 26 19 45
t45 19q7 0 11 -1q23 -4 37.5 -22t14.5 -42v-172q0 -26 -18.5 -45t-44.5 -19q-8 0 -12 1q-23 4 -37.5 22.5t-14.5 42.5v2q0 9 -6 15t-15 6h-242v-495q0 -17 12.5 -29t29.5 -12h261h38h1h72h52q76 0 213 134l19 19q21 19 48 19q22 0 41 -14zM1149 232q7 9 6 21t-11 19
q-8 6 -18 6q-13 0 -22 -9l-19 -19q-149 -144 -239 -144h-52h-72h-39h-261q-32 0 -55.5 23t-23.5 55v532h279q24 0 41 -17t17 -41v-2q0 -10 6 -18.5t16 -9.5h5q11 0 18.5 7.5t7.5 18.5v172q0 10 -6 18t-16 9q-1 0 -2 0.5t-2 0.5q-11 0 -19 -8t-8 -19v-2q0 -24 -17 -41
t-41 -17h-279v497q0 32 23.5 55t55.5 23h186v1h6h71h53q89 0 239 -145l20 -20q8 -8 20 -8q13 0 22 9q17 17 2 37l-157 242q-8 10 -19 10q-13 0 -20 -13q-15 -28 -42.5 -44t-59.5 -16h-632q-9 0 -16 -6t-8 -15q-1 -10 5.5 -17.5t16.5 -7.5h4q37 0 63.5 -26.5t26.5 -63.5
v-1063q0 -38 -26.5 -64t-63.5 -26q-12 0 -20 -9.5t-6 -22.5q1 -9 9 -15t18 -6h737q32 0 59.5 -16t42.5 -44q6 -12 21 -12q10 0 18 9z" />
    <glyph glyph-name="Edieresis" unicode="&#xcb;" horiz-adv-x="1214" 
d="M1167 301q21 -16 24.5 -42t-11.5 -48l-156 -241l-1 -1l-1 -1q-16 -24 -48 -24q-35 0 -53 31q-23 41 -70 41h-737q-23 0 -41.5 14.5t-22.5 36.5q-6 28 14 53q18 23 49 23q22 0 37 15.5t15 37.5v1063q0 22 -15 37.5t-37 15.5h-4q-27 0 -44 20q-19 22 -16 46q2 23 20 38.5
t42 15.5h632q46 0 69 41q19 32 53 32q32 0 49 -25v-1l1 -1l157 -241q14 -19 12 -42.5t-18 -40.5q-19 -21 -49 -21q-27 0 -46 19l-20 19q-137 134 -213 134h-53h-71h-3h-3h-186q-17 0 -29.5 -12t-12.5 -29v-460h242q9 0 15 6t6 15v2q0 26 19 45t45 19q7 0 11 -1
q23 -4 37.5 -22t14.5 -42v-172q0 -26 -18.5 -45t-44.5 -19q-8 0 -12 1q-23 4 -37.5 22.5t-14.5 42.5v2q0 9 -6 15t-15 6h-242v-495q0 -17 12.5 -29t29.5 -12h261h38h1h72h52q76 0 213 134l19 19q21 19 48 19q22 0 41 -14zM1149 232q7 9 6 21t-11 19q-8 6 -18 6q-13 0 -22 -9
l-19 -19q-149 -144 -239 -144h-52h-72h-39h-262q-32 0 -55 23t-23 55v532h279q24 0 41 -17t17 -41v-2q0 -10 6 -18.5t16 -9.5h5q11 0 18.5 7.5t7.5 18.5v172q0 10 -6 18t-16 9q-1 0 -2 0.5t-2 0.5q-11 0 -19 -8t-8 -19v-2q0 -24 -17 -41t-41 -17h-279v497q0 32 23 55t55 23
h187v1h6h71h53q89 0 239 -145l20 -20q8 -8 20 -8q13 0 22 9q17 17 2 37l-157 242q-8 10 -19 10q-13 0 -20 -13q-15 -28 -42.5 -44t-59.5 -16h-632q-9 0 -16.5 -6t-8.5 -15q-1 -10 6 -17.5t17 -7.5h4q37 0 63.5 -26.5t26.5 -63.5v-1063q0 -38 -26.5 -64t-63.5 -26
q-12 0 -20 -9.5t-6 -22.5q1 -9 9 -15t18 -6h737q32 0 59.5 -16t42.5 -44q6 -12 21 -12q10 0 18 9zM398 1514q-51 0 -87 36q-35 35 -35 86q0 52 35 87t87 35q51 0 86 -35q21 -21 30 -47q10 28 29 47q35 35 86 35q52 0 87 -35t35 -87q0 -51 -35 -86q-36 -36 -87 -36
q-50 0 -86 36q-19 19 -29 47q-9 -26 -30 -47q-36 -36 -86 -36zM569 1696q-25 -25 -25 -60t25 -60q24 -24 60 -24t60 24q25 25 25 60t-25 60t-60 25t-60 -25zM338 1696q-25 -25 -25 -60t25 -60q24 -24 60 -24t60 24q25 25 25 60t-25 60t-60 25t-60 -25z" />
    <glyph glyph-name="Igrave" unicode="&#xcc;" horiz-adv-x="546" 
d="M433 143q26 0 44.5 -19t18.5 -45t-18.5 -44.5t-44.5 -18.5h-320q-26 0 -45 18.5t-19 44.5t19 45t45 19q22 0 37 15.5t15 37.5v1057q0 22 -15 37t-37 15q-26 0 -45 19t-19 45t19 44.5t45 18.5h320q26 0 44.5 -18.5t18.5 -44.5t-18.5 -45t-44.5 -19q-22 0 -37.5 -15
t-15.5 -37v-1057q0 -22 15.5 -37.5t37.5 -15.5zM433 53q11 0 18.5 7.5t7.5 18.5t-8 19t-18 8q-38 0 -64.5 26.5t-26.5 63.5v1057q0 37 26.5 63.5t64.5 26.5q11 0 18.5 7.5t7.5 18.5t-7.5 18.5t-18.5 7.5h-320q-11 0 -19 -8t-8 -18t8 -18t19 -8q37 0 63.5 -26.5t26.5 -63.5
v-1057q0 -38 -26.5 -64t-63.5 -26q-11 0 -19 -8t-8 -19q0 -10 8 -18t19 -8h320zM91 1647q-13 16 -19 29q-23 54 8 96q27 36 76 36q2 0 6 -0.5t7 -0.5q11 -2 26 -6q58 -20 100 -71q45 -55 68 -78q67 -67 100 -95q19 -16 22.5 -38.5t-9.5 -39.5q-16 -21 -43 -21q-20 0 -36 10
q-60 38 -118 68q-61 31 -94 44q-56 21 -94 67zM110 1750q-19 -26 -4 -60q2 -6 13 -19q31 -37 79 -56q42 -16 98 -45q67 -35 121 -70q8 -5 16 -5q9 0 13 6q10 14 -7 28q-59 50 -103 97q-28 29 -70 80q-35 43 -84 60q-12 4 -16 4q-2 0 -5 0.5t-5 0.5q-31 0 -46 -21z" />
    <glyph glyph-name="Iacute" unicode="&#xcd;" horiz-adv-x="546" 
d="M433 143q26 0 44.5 -19t18.5 -45t-18.5 -44.5t-44.5 -18.5h-320q-26 0 -45 18.5t-19 44.5t19 45t45 19q22 0 37 15.5t15 37.5v1057q0 22 -15 37t-37 15q-26 0 -45 19t-19 45t19 44.5t45 18.5h320q26 0 44.5 -18.5t18.5 -44.5t-18.5 -45t-44.5 -19q-22 0 -37.5 -15
t-15.5 -37v-1057q0 -22 15.5 -37.5t37.5 -15.5zM433 53q11 0 18.5 7.5t7.5 18.5t-8 19t-18 8q-38 0 -64.5 26.5t-26.5 63.5v1057q0 37 26.5 63.5t64.5 26.5q11 0 18.5 7.5t7.5 18.5t-7.5 18.5t-18.5 7.5h-320q-11 0 -19 -8t-8 -18t8 -18t19 -8q37 0 63.5 -26.5t26.5 -63.5
v-1057q0 -38 -26.5 -64t-63.5 -26q-11 0 -19 -8t-8 -19q0 -10 8 -18t19 -8h320zM130 1436q-22 0 -37 15q-16 16 -15.5 38.5t16.5 41.5q49 57 85 108q13 18 56 87q34 56 88 85q11 6 25 10q13 4 30 4q38 0 63 -25q36 -36 22 -94q-3 -11 -14 -31q-29 -49 -83 -81
q-39 -22 -86 -57q-61 -44 -107 -84q-19 -17 -43 -17zM122 1506q-14 -18 -3 -29q4 -4 11 -4q8 0 18 8q47 41 110 87q59 42 89 59q45 26 70 67q9 14 10 21q9 37 -12 58q-15 15 -37 15q-10 0 -21 -3q-3 -1 -16 -7q-46 -25 -74 -71q-26 -45 -57 -90q-38 -52 -88 -111z" />
    <glyph glyph-name="Icircumflex" unicode="&#xce;" horiz-adv-x="546" 
d="M433 1305q-22 0 -37.5 -15t-15.5 -37v-1057q0 -22 15.5 -37.5t37.5 -15.5q26 0 44.5 -19t18.5 -45t-18.5 -44.5t-44.5 -18.5h-321q-26 0 -44.5 18.5t-18.5 44.5t18.5 45t44.5 19q22 0 37.5 15.5t15.5 37.5v1057q0 22 -15.5 37t-37.5 15q-26 0 -44.5 19t-18.5 45
t18.5 44.5t44.5 18.5h321q26 0 44.5 -18.5t18.5 -44.5t-18.5 -45t-44.5 -19zM433 106q-38 0 -64.5 26.5t-26.5 63.5v1057q0 37 26.5 63.5t64.5 26.5q11 0 18.5 7.5t7.5 18.5t-7.5 18.5t-18.5 7.5h-321q-10 0 -18 -7.5t-8 -18.5t8 -18.5t18 -7.5q38 0 64.5 -26.5t26.5 -63.5
v-1057q0 -37 -26.5 -63.5t-64.5 -26.5q-10 0 -18 -8t-8 -19t8 -18.5t18 -7.5h321q11 0 18.5 7.5t7.5 18.5t-8 19t-18 8zM540 1519q13 -14 13 -35q-2 -24 -18 -37q-14 -11 -31 -11q-20 0 -33 12l-199 176l-198 -176q-13 -12 -33 -12q-17 0 -31 11q-16 13 -18 37q0 21 13 35
l238 309q11 14 29 14q19 0 30 -14zM511 1476q12 10 1 19l-240 310l-239 -310q-11 -9 1 -19q3 -3 7 -3q6 0 9 3l222 198l223 -198q3 -3 9 -3q4 0 7 3z" />
    <glyph glyph-name="Idieresis" unicode="&#xcf;" horiz-adv-x="544" 
d="M432 1305q-22 0 -37.5 -15t-15.5 -37v-1057q0 -22 15.5 -37.5t37.5 -15.5q26 0 45 -19t19 -45t-19 -44.5t-45 -18.5h-320q-26 0 -44.5 18.5t-18.5 44.5t18.5 45t44.5 19q22 0 37.5 15.5t15.5 37.5v1057q0 22 -15.5 37t-37.5 15q-26 0 -44.5 19t-18.5 45t18.5 44.5
t44.5 18.5h320q26 0 45 -18.5t19 -44.5t-19 -45t-45 -19zM432 106q-38 0 -64 26t-26 64v1057q0 37 26 63.5t64 26.5q10 0 18 7.5t8 18.5t-8 18.5t-18 7.5h-320q-10 0 -18 -7.5t-8 -18.5t8 -18.5t18 -7.5q38 0 64 -26.5t26 -63.5v-1057q0 -38 -26 -64t-64 -26q-10 0 -18 -8
t-8 -19t8 -18.5t18 -7.5h320q10 0 18 7.5t8 18.5t-8 19t-18 8zM157 1514q-51 0 -87 36q-35 35 -35 86q0 52 35 87t87 35q51 0 86 -35q19 -19 29 -47q10 28 29 47q35 35 87 35q51 0 86 -35q36 -36 36 -87q0 -50 -36 -86t-86 -36q-51 0 -87 36q-19 19 -29 47q-10 -28 -29 -47
q-36 -36 -86 -36zM328 1696q-25 -25 -25 -60t25 -60q24 -24 60 -24t60 24q25 25 25 60t-25 60t-60 25t-60 -25zM97 1696q-25 -25 -25 -60t25 -60q24 -24 60 -24t60 24q25 25 25 60t-25 60t-60 25t-60 -25z" />
    <glyph glyph-name="Eth" unicode="&#xd0;" horiz-adv-x="1710" 
d="M1445 1260q211 -176 211 -536q0 -322 -216 -517q-214 -191 -639 -191h-552q-26 0 -45 18.5t-19 44.5t19 45t45 19q22 0 37.5 15.5t15.5 37.5v464h-222q-27 0 -46.5 19t-19.5 46t19.5 46t46.5 19h222v462q0 22 -15.5 37.5t-37.5 15.5q-26 0 -45 19t-19 45t19 44.5t45 18.5
h552q437 0 644 -172zM1415 235q204 183 204 489q0 342 -198 507q-196 164 -620 164h-552q-11 0 -18.5 -7.5t-7.5 -18.5t7.5 -18.5t18.5 -7.5q37 0 63.5 -26.5t26.5 -64.5v-499h-259q-11 0 -19.5 -8.5t-8.5 -19.5t8.5 -19.5t19.5 -8.5h259v-501q0 -38 -26.5 -64t-63.5 -26
q-10 0 -18 -8t-8 -19t7.5 -18.5t18.5 -7.5h552q411 0 614 182zM1298 1207q159 -139 159 -483q0 -343 -158 -480q-159 -138 -498 -138h-322v591h187q11 0 19.5 8.5t8.5 19.5t-8.5 19.5t-19.5 8.5h-187v590l322 2h8q331 0 489 -138zM1274 273q146 126 146 451q0 327 -146 455
q-148 128 -465 128h-8l-285 -1v-516h150q27 0 46.5 -19t19.5 -46t-19.5 -46t-46.5 -19h-150v-517h285q323 0 473 130z" />
    <glyph glyph-name="Ntilde" unicode="&#xd1;" horiz-adv-x="1495" 
d="M1389 1432q26 0 44.5 -18.5t18.5 -44.5t-18.5 -45t-44.5 -19q-22 0 -37.5 -15.5t-15.5 -37.5v-1173q0 -36 -22 -56.5t-51 -20.5q-36 0 -59 28l-908 1050v-884q0 -22 15.5 -37.5t37.5 -15.5h1q26 0 44.5 -19t18.5 -45t-18.5 -44.5t-44.5 -18.5h-238q-26 0 -44.5 18.5
t-18.5 44.5t18.5 45t44.5 19q22 0 38 15.5t16 37.5v1056q0 22 -16 37.5t-38 15.5q-26 0 -44.5 19t-18.5 45t18.5 44.5t44.5 18.5h238q26 0 44.5 -18.5t18.5 -44.5q0 -38 -33 -56l825 -955v895q0 22 -15.5 37t-37.5 15q-26 0 -44.5 19t-18.5 45t18.5 44.5t44.5 18.5h237z
M1389 1343q11 0 18.5 7.5t7.5 18.5t-7.5 18.5t-18.5 7.5h-237q-10 0 -18 -7.5t-8 -18.5t8 -18.5t18 -7.5q37 0 63.5 -26.5t26.5 -64.5v-994l-908 1051q-8 10 -2.5 22t18.5 12q10 0 18 7.5t8 18.5t-8 18.5t-18 7.5h-238q-10 0 -18 -7.5t-8 -18.5t8 -18.5t18 -7.5
q38 0 64.5 -26.5t26.5 -64.5v-1056q0 -37 -26.5 -63.5t-64.5 -26.5q-10 0 -18 -8t-8 -19t8 -18.5t18 -7.5h238q10 0 18 7.5t8 18.5t-8 19t-18 8h-1q-37 0 -63.5 26t-26.5 64v984l973 -1126q14 -15 31 -15q15 0 25 10.5t10 29.5v1173q0 38 27 64.5t64 26.5zM505 1613h-1
q-14 15 -15.5 36t10.5 38q53 76 132 76q60 0 150 -59q62 -41 91 -41q16 0 34 24t48 24q16 0 29 -7v-1q23 -12 29 -38q6 -24 -10 -46q-52 -74 -129 -74q-62 0 -153 59q-63 41 -91 41q-16 0 -34 -26q-16 -22 -44 -24q-1 0 -2 -0.5t-2 -0.5q-25 0 -42 19zM529 1665
q-10 -14 2 -26l1 -1q6 -6 15 -6h2q9 0 16 9q29 41 64 41q38 0 111 -47q82 -53 133 -53q58 0 99 58q5 6 3 17q-2 10 -10 14l-3 -4l2 4q-5 3 -10 3q-11 0 -17 -9q-28 -39 -65 -39q-40 0 -111 47q-82 53 -130 53q-59 0 -102 -61z" />
    <glyph glyph-name="Ograve" unicode="&#xd2;" horiz-adv-x="1634" 
d="M1360 1244q223 -199 223 -527q0 -229 -113 -398q-111 -167 -285 -247q-168 -78 -368 -78t-368 78q-174 80 -285 247q-113 169 -113 398q0 328 223 527q220 196 543 196t543 -196zM1439 340q107 160 107 377q0 312 -211 499q-210 187 -518 187t-518 -187
q-211 -187 -211 -499q0 -217 107 -377q106 -158 270 -234q165 -75 352 -75t352 75q163 75 270 234zM1314 1054q39 -85 55 -169q14 -77 14 -168q0 -93 -14 -170q-16 -84 -55 -169q-38 -85 -100 -150q-61 -64 -162 -104t-235 -40t-235 40t-162 104q-62 65 -100 150
q-39 85 -55 169q-14 76 -14 170q0 92 14 168q16 84 55 169q40 88 100 151q61 64 162 104q102 42 235 42t235 -42q101 -40 162 -104q60 -63 100 -151zM1332 554q14 81 14 163q0 81 -14 162q-13 73 -52 159q-39 84 -93 141t-149 95q-96 39 -221 39t-221 -39q-95 -38 -149 -95
t-93 -141q-39 -86 -52 -159q-14 -81 -14 -162q0 -82 14 -163q13 -75 52 -160q39 -84 93 -141t148 -94q97 -38 222 -38t222 38q94 37 148 94t93 141q39 85 52 160zM633 1647q-11 14 -18 29q-23 54 8 96q27 36 75 36q2 0 6.5 -0.5t7.5 -0.5q11 -2 26 -6q57 -19 99 -71
q40 -49 69 -78q56 -58 100 -95q19 -16 22.5 -38.5t-9.5 -39.5q-16 -21 -44 -21q-20 0 -36 10q-60 38 -118 68q-61 31 -94 44q-56 21 -94 67zM653 1750q-19 -26 -4 -60q2 -6 13 -19q31 -37 79 -56q39 -14 97 -45q73 -38 122 -70q8 -5 15 -5q9 0 14 6q10 13 -8 28
q-53 46 -102 97q-35 37 -71 80q-36 44 -83 60q-12 4 -17 4q-2 0 -5 0.5t-5 0.5q-30 0 -45 -21z" />
    <glyph glyph-name="Oacute" unicode="&#xd3;" horiz-adv-x="1634" 
d="M675 1436q-23 0 -38 15q-16 16 -15 38.5t17 41.5q48 57 85 108q13 18 56 87q34 56 88 85q12 6 24 10q13 4 30 4q38 0 63 -25q37 -37 23 -94q-3 -11 -14 -31q-29 -49 -84 -81q-39 -22 -86 -57q-61 -44 -107 -84q-19 -17 -42 -17zM667 1506q-14 -18 -3 -29q4 -4 11 -4
q8 0 18 8q52 46 109 87q56 40 90 59q45 26 70 67q9 14 10 21q9 36 -13 58q-15 15 -37 15q-11 0 -21 -3q-3 -1 -16 -7q-45 -24 -73 -71q-21 -36 -58 -90q-44 -60 -87 -111zM1314 1054q39 -85 55 -169q14 -77 14 -168q0 -93 -14 -170q-16 -84 -55 -169q-38 -85 -100 -150
q-61 -64 -162 -104t-235 -40t-235 40t-162 104q-62 65 -100 150q-39 85 -55 169q-14 76 -14 170q0 92 14 168q16 84 55 169q40 88 100 151q61 64 162 104q102 42 235 42t235 -42q101 -40 162 -104q60 -63 100 -151zM1332 554q14 81 14 163q0 81 -14 162q-13 73 -52 159
q-39 84 -93 141t-149 95q-96 39 -221 39t-221 -39q-95 -38 -149 -95t-93 -141q-39 -86 -52 -159q-14 -81 -14 -162q0 -82 14 -163q13 -75 52 -160q39 -84 93 -141t148 -94q97 -38 222 -38t222 38q94 37 148 94t93 141q39 85 52 160zM1360 1244q223 -199 223 -527
q0 -229 -113 -398q-111 -167 -285 -247q-168 -78 -368 -78t-368 78q-174 80 -285 247q-113 169 -113 398q0 328 223 527q220 196 543 196t543 -196zM1439 340q106 158 106 377q0 313 -210 499q-210 187 -518 187t-518 -187q-211 -187 -211 -499q0 -217 107 -377
q106 -158 270 -234q165 -75 352 -75t352 75q163 75 270 234z" />
    <glyph glyph-name="Ocircumflex" unicode="&#xd4;" horiz-adv-x="1634" 
d="M555 1447q-19 16 -19 37t13 35l238 309q11 14 30 14q18 0 29 -14l239 -309q13 -14 13 -35t-19 -37q-14 -11 -31 -11q-20 0 -33 12l-198 176l-198 -176q-13 -12 -33 -12q-17 0 -31 11zM578 1495q-11 -9 0 -19q3 -3 8 -3t8 3l223 198l223 -198q3 -3 8 -3t8 3q11 10 0 19
l-239 310zM1360 1244q223 -199 223 -527q0 -229 -113 -398q-111 -167 -285 -247q-168 -78 -368 -78t-368 78q-174 80 -285 247q-113 169 -113 398q0 328 223 527q220 196 543 196t543 -196zM1439 340q107 160 107 377q0 312 -211 499q-210 187 -518 187t-518 -187
q-211 -187 -211 -499q0 -217 107 -377q106 -158 270 -234q165 -75 352 -75t352 75q163 75 270 234zM1314 1054q39 -85 55 -169q14 -77 14 -168q0 -93 -14 -170q-16 -84 -55 -169q-38 -85 -100 -150q-61 -64 -162 -104t-235 -40t-235 40t-162 104q-62 65 -100 150
q-39 85 -55 169q-14 76 -14 170q0 92 14 168q16 84 55 169q40 88 100 151q61 64 162 104q102 42 235 42t235 -42q101 -40 162 -104q60 -63 100 -151zM1332 554q14 81 14 163q0 81 -14 162q-13 73 -52 159q-39 84 -93 141t-149 95q-96 39 -221 39t-221 -39q-95 -38 -149 -95
t-93 -141q-39 -86 -52 -159q-14 -81 -14 -162q0 -82 14 -163q13 -75 52 -160q39 -84 93 -141t148 -94q97 -38 222 -38t222 38q94 37 148 94t93 141q39 85 52 160z" />
    <glyph glyph-name="Otilde" unicode="&#xd5;" horiz-adv-x="1634" 
d="M1360 1244q223 -199 223 -527q0 -229 -113 -398q-111 -167 -285 -247q-168 -78 -368 -78t-368 78q-174 80 -285 247q-113 169 -113 398q0 328 223 527q220 196 543 196t543 -196zM1439 340q107 160 107 377q0 312 -211 499q-210 187 -518 187t-518 -187
q-211 -187 -211 -499q0 -217 107 -377q106 -158 270 -234q165 -75 352 -75t352 75q163 75 270 234zM1314 1054q39 -85 55 -169q14 -77 14 -168q0 -93 -14 -170q-16 -84 -55 -169q-38 -85 -100 -150q-61 -64 -162 -104t-235 -40t-235 40t-162 104q-62 65 -100 150
q-39 85 -55 169q-14 76 -14 170q0 92 14 168q16 84 55 169q40 88 100 151q61 64 162 104q102 42 235 42t235 -42q101 -40 162 -104q60 -63 100 -151zM1332 554q14 81 14 163q0 81 -14 162q-13 73 -52 159q-39 84 -93 141t-149 95q-96 39 -221 39t-221 -39q-95 -38 -149 -95
t-93 -141q-39 -86 -52 -159q-14 -81 -14 -162q0 -82 14 -163q13 -75 52 -160q39 -84 93 -141t148 -94q97 -38 222 -38t222 38q94 37 148 94t93 141q39 85 52 160zM571 1613q-14 15 -16 36t10 38q53 76 132 76q61 0 151 -59q62 -41 90 -41q17 0 35 24t47 24q16 0 29 -7v-1
q23 -12 29 -38q6 -24 -10 -46q-52 -74 -129 -74q-62 0 -153 59q-63 41 -90 41q-17 0 -35 -26q-16 -23 -43 -24l-2 -1h-2q-26 0 -43 19zM596 1665q-10 -14 2 -26v-1q6 -6 16 -6h1q9 0 16 9q29 41 65 41q37 0 110 -47q82 -53 133 -53q58 0 99 58q6 7 4 17q-2 9 -11 14l-3 -4
l3 4q-5 3 -11 3q-11 0 -17 -9q-29 -39 -65 -39q-40 0 -111 47q-82 53 -130 53q-58 0 -101 -61z" />
    <glyph glyph-name="Odieresis" unicode="&#xd6;" horiz-adv-x="1634" 
d="M1314 1054q39 -85 55 -169q14 -77 14 -168q0 -93 -14 -170q-16 -84 -55 -169q-38 -85 -100 -150q-61 -64 -162 -104t-235 -40t-235 40t-162 104q-62 65 -100 150q-39 85 -55 169q-14 76 -14 170q0 92 14 168q16 84 55 169q40 88 100 151q61 64 162 104q102 42 235 42
t235 -42q101 -40 162 -104q60 -63 100 -151zM1332 554q14 81 14 163q0 81 -14 162q-13 73 -52 159q-39 84 -93 141t-149 95q-96 39 -221 39t-221 -39q-95 -38 -149 -95t-93 -141q-39 -86 -52 -159q-14 -81 -14 -162q0 -82 14 -163q13 -75 52 -160q39 -84 93 -141t148 -94
q97 -38 222 -38t222 38q94 37 148 94t93 141q39 85 52 160zM1360 1244q223 -199 223 -527q0 -229 -113 -398q-111 -167 -285 -247q-168 -78 -368 -78t-368 78q-174 80 -285 247q-113 169 -113 398q0 328 223 527q220 196 543 196t543 -196zM1439 340q106 158 106 377
q0 313 -210 499q-210 187 -518 187t-518 -187q-211 -187 -211 -499q0 -217 107 -377q106 -158 270 -234q165 -75 352 -75t352 75q163 75 270 234zM701 1514q-50 0 -86 36t-36 86q0 51 36 87q35 35 86 35q52 0 87 -35q19 -19 29 -47q10 28 29 47q35 35 87 35q51 0 86 -35
q36 -36 36 -87q0 -50 -36 -86t-86 -36q-51 0 -87 36q-19 19 -29 47q-10 -28 -29 -47q-36 -36 -87 -36zM872 1696q-24 -24 -24 -60t24 -60t61 -24q36 0 60 24t24 60t-24 60q-25 25 -60 25q-36 0 -61 -25zM641 1696q-24 -24 -24 -60t24 -60t60 -24q37 0 61 24t24 60t-24 60
q-25 25 -61 25q-35 0 -60 -25z" />
    <glyph glyph-name="multiply" unicode="&#xd7;" horiz-adv-x="817" 
d="M737 368q19 -19 19 -46t-19 -46t-46 -19t-46 19l-237 237l-237 -237q-19 -19 -46 -19q-28 0 -47 19t-19 46t19 46l238 237l-238 238q-19 19 -19 46q0 26 20 46q19 19 46 19t46 -19l237 -237l237 237q19 19 46 19t46 -19t19 -46t-19 -46l-237 -238zM711 303q19 19 0 39
l-264 263l264 264q19 19 0 39q-9 9 -20 9t-20 -9l-263 -263l-264 263q-9 9 -19 9q-11 0 -20 -9q-19 -20 0 -39l263 -264l-263 -263q-19 -20 0 -39q9 -9 19 -9q11 0 20 9l264 263l263 -263q9 -9 20 -9t20 9z" />
    <glyph glyph-name="Oslash" unicode="&#xd8;" horiz-adv-x="1634" 
d="M1052 1310q25 -10 43 -19l-573 -1138q-62 33 -102 76q-61 64 -100 151q-40 85 -55 168q-14 76 -14 170q0 93 14 169q15 83 55 168q40 88 100 151q61 64 162 104q102 42 235 42t235 -42zM507 205l537 1068l-6 3q-96 39 -221 39t-221 -39q-93 -37 -149 -96
q-55 -58 -93 -140q-39 -85 -52 -160q-14 -81 -14 -162q0 -82 14 -163q13 -75 52 -160q38 -82 93 -140q27 -28 60 -50zM1314 1055q40 -85 55 -168q14 -77 14 -169q0 -93 -14 -170q-15 -83 -55 -168q-39 -87 -100 -151q-59 -62 -162 -103t-235 -41t-235 41q-5 2 -17 6.5
t-18 7.5l572 1138q57 -32 95 -72q60 -63 100 -151zM1332 555q14 81 14 163q0 81 -14 162q-13 75 -52 160q-38 82 -93 140q-22 23 -53 45l-536 -1066q97 -37 219 -37q125 0 222 38q93 37 148 95t93 140q39 85 52 160zM1360 1246q223 -199 223 -528q0 -229 -113 -398
q-111 -167 -285 -247q-168 -78 -368 -78q-145 0 -279 44l-82 -163q-15 -28 -46 -28q-14 0 -23 5q-19 9 -25 30q-6 20 3 39l77 154q-168 79 -278 244q-113 169 -113 398q0 328 223 527q220 196 543 196q156 0 288 -46l84 166q15 28 45 28q12 0 23 -6q19 -10 26 -29.5
t-3 -38.5l-80 -160q83 -42 160 -109zM1439 341q106 158 106 377q0 314 -210 500q-84 75 -186 120l98 193q6 14 -6 19q-4 2 -7 2q-9 0 -12 -8l-98 -196q-141 56 -307 56q-309 0 -518 -186q-211 -187 -211 -500q0 -217 107 -377q106 -158 270 -234q18 -8 28 -12l-95 -190
q-6 -13 6 -18q4 -2 6 -2q10 0 13 8l96 191q139 -51 298 -51q189 0 352 74q163 75 270 234z" />
    <glyph glyph-name="Ugrave" unicode="&#xd9;" horiz-adv-x="1484" 
d="M1387 1433q26 0 44.5 -19t18.5 -45t-18.5 -44.5t-44.5 -18.5q-22 0 -32.5 -15.5t-10.5 -37.5v-618q0 -310 -151 -472q-150 -161 -439 -161q-326 0 -467 156q-140 154 -140 477v618q0 22 -15.5 37.5t-37.5 15.5q-26 0 -44.5 18.5t-18.5 44.5t18.5 45t44.5 19h320
q26 0 45 -19t19 -45t-19 -44.5t-45 -18.5q-22 0 -37.5 -15.5t-15.5 -37.5v-618q0 -86 5 -153q5 -63 27 -133q21 -71 59 -112q39 -43 113 -72q75 -31 189 -31q226 0 334 124t108 384v618q0 46 -45 46q-26 0 -45 18.5t-19 44.5t19 45t45 19h236zM1387 1343q11 0 18.5 7.5
t7.5 18.5t-7.5 18.5t-18.5 7.5h-236q-11 0 -19 -8t-8 -18t8 -18t19 -8q37 0 60 -22.5t23 -60.5v-618q0 -273 -118 -409t-362 -136q-120 0 -203 34q-84 34 -127 81q-41 46 -66 126q-25 83 -29 141q-5 68 -5 156v618q0 37 26 63.5t64 26.5q10 0 18 7.5t8 18.5t-8 18.5t-18 7.5
h-320q-10 0 -18 -7.5t-8 -18.5t8 -18.5t18 -7.5q38 0 64 -26.5t26 -63.5v-618q0 -309 131 -452q131 -144 439 -144q271 0 411.5 150t140.5 446v618q0 39 22 64.5t59 25.5zM470 1647q-11 14 -18 29q-23 54 8 96q27 36 76 36q2 0 6 -0.5t7 -0.5q11 -2 26 -6q58 -20 100 -71
q45 -55 68 -78q56 -58 100 -95q19 -16 22.5 -38.5t-9.5 -39.5q-16 -21 -44 -21q-19 0 -35 10q-56 36 -119 68q-64 33 -93 44q-58 22 -95 67zM490 1750q-19 -26 -4 -60q2 -6 13 -19q31 -37 79 -56q39 -14 97 -45q73 -38 122 -70q8 -5 15 -5q10 0 14 6q10 14 -7 28
q-59 50 -103 97q-28 29 -70 80q-35 43 -84 60q-12 4 -17 4q-1 0 -4 0.5t-5 0.5q-31 0 -46 -21z" />
    <glyph glyph-name="Uacute" unicode="&#xda;" horiz-adv-x="1484" 
d="M1387 1433q26 0 44.5 -19t18.5 -45t-18.5 -44.5t-44.5 -18.5q-22 0 -32.5 -15.5t-10.5 -37.5v-618q0 -310 -151 -472q-150 -161 -439 -161q-326 0 -467 156q-140 154 -140 477v618q0 22 -15.5 37.5t-37.5 15.5q-26 0 -44.5 18.5t-18.5 44.5t18.5 45t44.5 19h320
q26 0 45 -19t19 -45t-19 -44.5t-45 -18.5q-22 0 -37.5 -15.5t-15.5 -37.5v-618q0 -86 5 -153q5 -63 27 -133q21 -71 59 -112q39 -43 113 -72q75 -31 189 -31q226 0 334 124t108 384v618q0 46 -45 46q-26 0 -45 18.5t-19 44.5t19 45t45 19h236zM1387 1343q11 0 18.5 7.5
t7.5 18.5t-7.5 18.5t-18.5 7.5h-236q-11 0 -19 -8t-8 -18t8 -18t19 -8q37 0 60 -22.5t23 -60.5v-618q0 -273 -118 -409t-362 -136q-120 0 -203 34q-84 34 -127 81q-41 46 -66 126q-25 83 -29 141q-5 68 -5 156v618q0 37 26 63.5t64 26.5q10 0 18 7.5t8 18.5t-8 18.5t-18 7.5
h-320q-10 0 -18 -7.5t-8 -18.5t8 -18.5t18 -7.5q38 0 64 -26.5t26 -63.5v-618q0 -309 131 -452q131 -144 439 -144q271 0 411.5 150t140.5 446v618q0 39 22 64.5t59 25.5zM598 1436q-22 0 -37 15q-16 16 -15.5 38.5t16.5 41.5q48 57 85 108q13 18 56 87q34 56 88 85
q11 6 25 10q13 4 30 4q38 0 63 -25q36 -36 22 -94q-3 -11 -14 -31q-29 -49 -83 -81q-39 -22 -86 -57q-61 -44 -107 -84q-19 -17 -43 -17zM590 1506q-14 -18 -3 -29q4 -4 11 -4q8 0 18 8q47 41 110 87q59 42 89 59q45 26 70 67q9 14 10 21q9 37 -12 58q-15 15 -37 15
q-10 0 -21 -3q-3 -1 -16 -7q-46 -25 -74 -71q-21 -36 -58 -90q-43 -60 -87 -111z" />
    <glyph glyph-name="Ucircumflex" unicode="&#xdb;" horiz-adv-x="1484" 
d="M1387 1433q26 0 44.5 -19t18.5 -45t-18.5 -44.5t-44.5 -18.5q-22 0 -32.5 -15.5t-10.5 -37.5v-618q0 -310 -151 -472q-150 -161 -439 -161q-326 0 -467 156q-140 154 -140 477v618q0 22 -15.5 37.5t-37.5 15.5q-26 0 -44.5 18.5t-18.5 44.5t18.5 45t44.5 19h320
q26 0 45 -19t19 -45t-19 -44.5t-45 -18.5q-22 0 -37.5 -15.5t-15.5 -37.5v-618q0 -86 5 -153q5 -63 27 -133q21 -71 59 -112q39 -43 113 -72q75 -31 189 -31q226 0 334 124t108 384v618q0 46 -45 46q-26 0 -45 18.5t-19 44.5t19 45t45 19h236zM1387 1343q11 0 18.5 7.5
t7.5 18.5t-7.5 18.5t-18.5 7.5h-236q-11 0 -19 -8t-8 -18t8 -18t19 -8q37 0 60 -22.5t23 -60.5v-618q0 -273 -118 -409t-362 -136q-120 0 -203 34q-84 34 -127 81q-41 46 -66 126q-25 83 -29 141q-5 68 -5 156v618q0 37 26 63.5t64 26.5q10 0 18 7.5t8 18.5t-8 18.5t-18 7.5
h-320q-10 0 -18 -7.5t-8 -18.5t8 -18.5t18 -7.5q38 0 64 -26.5t26 -63.5v-618q0 -309 131 -452q131 -144 439 -144q271 0 411.5 150t140.5 446v618q0 39 22 64.5t59 25.5zM478 1447q-18 15 -18 37q0 21 13 35l238 309q11 14 30 14q18 0 29 -14l238 -309q13 -14 13 -35
q-2 -24 -18 -37q-14 -11 -31 -11q-20 0 -33 12l-198 176l-199 -176q-13 -12 -33 -12q-17 0 -31 11zM501 1495q-11 -9 1 -19q3 -3 7 -3q6 0 9 3l223 198l223 -198q3 -3 8 -3q4 0 7 3q12 10 1 19l-239 310z" />
    <glyph glyph-name="Udieresis" unicode="&#xdc;" horiz-adv-x="1484" 
d="M1387 1433q26 0 44.5 -19t18.5 -45t-18.5 -44.5t-44.5 -18.5q-22 0 -32.5 -15.5t-10.5 -37.5v-618q0 -310 -151 -472q-150 -161 -439 -161q-326 0 -467 156q-140 154 -140 477v618q0 22 -15.5 37.5t-37.5 15.5q-26 0 -44.5 18.5t-18.5 44.5t18.5 45t44.5 19h320
q26 0 45 -19t19 -45t-19 -44.5t-45 -18.5q-22 0 -37.5 -15.5t-15.5 -37.5v-618q0 -86 5 -153q5 -63 27 -133q21 -71 59 -112q39 -43 113 -72q75 -31 189 -31q226 0 334 124t108 384v618q0 46 -45 46q-26 0 -45 18.5t-19 44.5t19 45t45 19h236zM1387 1343q11 0 18.5 7.5
t7.5 18.5t-7.5 18.5t-18.5 7.5h-236q-11 0 -19 -8t-8 -18t8 -18t19 -8q37 0 60 -22.5t23 -60.5v-618q0 -273 -118 -409t-362 -136q-120 0 -203 34q-84 34 -127 81q-41 46 -66 126q-25 83 -29 141q-5 68 -5 156v618q0 37 26 63.5t64 26.5q10 0 18 7.5t8 18.5t-8 18.5t-18 7.5
h-320q-10 0 -18 -7.5t-8 -18.5t8 -18.5t18 -7.5q38 0 64 -26.5t26 -63.5v-618q0 -309 131 -452q131 -144 439 -144q271 0 411.5 150t140.5 446v618q0 39 22 64.5t59 25.5zM625 1514q-51 0 -87 36q-35 35 -35 86q0 52 35 87t87 35q51 0 86 -35q21 -21 30 -47q10 28 29 47
q35 35 86 35q52 0 87 -35t35 -87q0 -51 -35 -86q-36 -36 -87 -36q-50 0 -86 36q-19 19 -29 47q-9 -26 -30 -47q-36 -36 -86 -36zM796 1696q-25 -25 -25 -60t25 -60q24 -24 60 -24t60 24q25 25 25 60t-25 60t-60 25t-60 -25zM565 1696q-25 -25 -25 -60t25 -60q24 -24 60 -24
t60 24q25 25 25 60t-25 60t-60 25t-60 -25z" />
    <glyph glyph-name="Yacute" unicode="&#xdd;" horiz-adv-x="1529" 
d="M1473 1432q26 0 45 -19t19 -45t-19 -44.5t-45 -18.5q-73 0 -113 -62l-471 -722v-318q0 -25 17.5 -43t42.5 -18h8q26 0 45 -18.5t19 -44.5t-19 -44.5t-45 -18.5h-345q-26 0 -45 18.5t-19 44.5t19 44.5t45 18.5q25 0 43 18t18 43v310l-505 733q-41 59 -113 59
q-26 0 -44.5 18.5t-18.5 44.5t18.5 45t44.5 19h353q26 0 45 -19t19 -45t-19 -44.5t-45 -18.5q-9 0 -11 -7q-3 -8 1 -13l425 -629l411 631q4 6 1 12t-10 6q-26 0 -45 18.5t-19 44.5t19 45t45 19h248zM1473 1342q11 0 18.5 8t7.5 18q0 11 -8 19t-18 8h-248q-10 0 -18 -8
t-8 -19q0 -10 7.5 -18t18.5 -8q29 0 43 -25t-2 -50l-442 -678l-457 675q-17 25 -3 51.5t44 26.5q10 0 18 8t8 18q0 11 -8 19t-18 8h-353q-10 0 -18 -8t-8 -19q0 -10 7.5 -18t18.5 -8q43 0 81 -20t62 -55l512 -743v-321q0 -41 -29 -69.5t-69 -28.5q-10 0 -18 -7.5t-8 -18.5
t8 -18.5t18 -7.5h345q11 0 18.5 7.5t7.5 18.5t-7.5 18.5t-18.5 7.5h-8q-41 0 -69.5 28.5t-28.5 69.5v329l477 732q24 37 62.5 57.5t82.5 20.5zM622 1436q-22 0 -37 15q-16 16 -15.5 38.5t16.5 41.5q48 57 85 108q13 18 56 87q34 56 88 85q12 6 24 10q13 4 30 4q39 0 64 -25
q36 -36 22 -94q-3 -11 -14 -31q-29 -49 -83 -81q-44 -25 -87 -57q-61 -44 -107 -84q-19 -17 -42 -17zM614 1506q-14 -18 -3 -29q4 -4 11 -4q8 0 18 8q47 41 110 87q59 42 89 59q45 26 70 67q9 14 10 21q9 36 -13 58q-15 15 -37 15q-9 0 -20 -3q-3 -1 -16 -7q-46 -25 -74 -71
q-21 -36 -58 -90q-43 -60 -87 -111z" />
    <glyph glyph-name="Thorn" unicode="&#xde;" horiz-adv-x="1216" 
d="M920 957q97 -68 97 -233t-97 -233q-100 -70 -315 -70h-262v605h262q216 0 315 -69zM899 521q80 56 80 203q0 146 -80 202q-88 63 -294 63h-225v-531h225q205 0 294 63zM1033 1016q154 -98 154 -292t-154 -292q-147 -94 -428 -94h-225v-146q0 -22 15.5 -37.5t37.5 -15.5
q26 0 45 -19t19 -45q0 -22 -13.5 -39t-34.5 -22h-1l-2 -1q-3 -1 -7 -1h-6h-230q-7 0 -10 1l-81 1q-26 0 -44.5 18.5t-18.5 44.5t19 44.5t45 18.5q22 0 37.5 15.5t15.5 37.5v1057q0 22 -15.5 37.5t-37.5 15.5q-26 0 -45 18.5t-19 44.5q0 22 13.5 39.5t34.5 22.5h3q3 1 7 1
l2 1h3h231q3 0 9 -2h82q26 0 44.5 -18.5t18.5 -44.5t-19 -45t-45 -19q-22 0 -37.5 -15.5t-15.5 -37.5v-139h225q283 0 428 -93zM605 376q545 0 545 348t-545 348h-262v176q0 38 26.5 64t63.5 26q10 0 18 8t8 19t-7.5 18.5t-18.5 7.5h-90v1h-231h-1h-4q-21 -5 -21 -26
q0 -10 8 -18t19 -8q37 0 63.5 -26t26.5 -64v-1057q0 -37 -26.5 -63.5t-63.5 -26.5q-11 0 -19 -8t-8 -18q0 -11 8 -18.5t18 -7.5l91 -1v-1h230h2q1 0 2 0.5t2 0.5q20 5 20 25q0 11 -7.5 18.5t-18.5 7.5q-37 0 -63.5 26.5t-26.5 64.5v184h262z" />
    <glyph glyph-name="agrave" unicode="&#xe0;" horiz-adv-x="1318" 
d="M760 533q55 9 126 34q53 19 90 44v-76q-53 -179 -205 -297q-153 -118 -319 -118q-104 0 -155 49q-50 49 -50 134q0 36 11 67q9 27 26 50q15 20 42 34q29 15 55 25t70 17q55 9 74 11l84 8q101 9 151 18zM938 548q-16 -8 -40 -16q-76 -27 -132 -36q-51 -9 -154 -18l-83 -8
q-20 -2 -72 -11q-37 -6 -63 -15q-30 -12 -51 -23q-20 -10 -29 -22q-12 -17 -21 -42q-9 -23 -9 -54q0 -69 39 -107q41 -39 129 -39q154 0 297 111q139 108 189 272v8zM1269 287q19 -19 17 -46q-6 -106 -47 -162q-46 -63 -129 -63q-99 0 -140 76q-32 58 -32 183v2
q-62 -76 -141 -132q-183 -129 -403 -129q-147 0 -238 64q-101 70 -101 208q0 94 44 159q43 65 129 99q75 29 146 41q60 10 172 17q167 9 270 31q74 17 122 56v105q0 53 -21 92q-20 37 -51 60q-36 24 -78 37q-50 16 -85 20q-33 4 -76 4q-61 0 -133 -16q-62 -15 -118 -50
q-28 -19 -35 -36q32 -18 51 -50.5t19 -69.5q0 -35 -17 -66q-6 -13 -18 -26q-26 -28 -60 -38q-19 -6 -41 -6h-2q-62 0 -107 48q-44 47 -44 131q0 116 99 192q87 67 194 91q104 23 212 23q94 0 177 -17q79 -17 159 -58q85 -44 133 -129q47 -85 47 -195v-462q0 -61 5 -108
q11 30 13 81q1 25 19.5 42t43.5 17t45 -20zM1110 53q128 0 139 190q1 10 -6.5 18t-18.5 8q-10 0 -17.5 -6.5t-8.5 -16.5q-8 -133 -58 -133q-17 0 -24 25q-10 40 -10 137v462q0 102 -42 177q-42 74 -118 114q-72 38 -150 54q-74 16 -169 16q-109 0 -204 -22
q-103 -23 -180 -83q-83 -64 -83 -163q0 -68 34 -105q35 -37 79 -37h1h1q14 0 29 5q26 8 44 27q12 14 14 19q12 21 12 48q0 34 -20 60.5t-52 35.5q0 1 -0.5 4t-0.5 4q0 48 54 84q59 38 131 55q70 16 141 16q44 0 80 -4q40 -5 92 -21q52 -17 89 -42q36 -25 62 -73
q26 -47 26 -110v-122q-60 -55 -152 -75q-103 -23 -276 -32q-110 -7 -168 -17q-71 -12 -139 -39q-73 -28 -111 -85q-37 -55 -37 -138q0 -118 85 -178q81 -57 216 -57q206 0 381 123q132 93 201 226v-127q0 -115 27 -166q30 -56 107 -56zM428 1341q-13 16 -19 29q-23 54 8 96
q27 36 76 36q2 0 6 -0.5t7 -0.5q11 -2 26 -6q57 -20 100 -72q40 -49 68 -77q67 -67 100 -95q19 -16 22.5 -38.5t-9.5 -39.5q-17 -22 -43 -22q-19 0 -36 11q-60 38 -118 68q-61 31 -94 44q-56 21 -94 67zM447 1444q-19 -26 -4 -60q2 -6 13 -19q30 -36 80 -56q39 -14 97 -45
q67 -35 121 -70q8 -5 16 -5t13 6q11 14 -7 28q-59 50 -103 97q-28 29 -70 80q-36 44 -83 60q-12 4 -17 4q-1 0 -5 0.5t-5 0.5q-31 0 -46 -21z" />
    <glyph glyph-name="acircumflex" unicode="&#xe2;" horiz-adv-x="1318" 
d="M760 533q55 9 126 34q53 19 90 44v-76q-53 -179 -205 -297q-153 -118 -319 -118q-104 0 -155 49q-50 49 -50 134q0 36 11 67q9 27 26 50q15 20 42 34q29 15 55 25t70 17q55 9 74 11l84 8q101 9 151 18zM938 548q-16 -8 -40 -16q-76 -27 -132 -36q-51 -9 -154 -18l-83 -8
q-20 -2 -72 -11q-37 -6 -63 -15q-30 -12 -51 -23q-20 -10 -29 -22q-12 -17 -21 -42q-9 -23 -9 -54q0 -69 39 -107q41 -39 129 -39q154 0 297 111q139 108 189 272v8zM1269 287q19 -19 17 -46q-6 -106 -47 -162q-46 -63 -129 -63q-99 0 -140 76q-32 58 -32 183v2
q-62 -76 -141 -132q-183 -129 -403 -129q-147 0 -238 64q-101 70 -101 208q0 94 44 159q43 65 129 99q75 29 146 41q60 10 172 17q167 9 270 31q74 17 122 56v105q0 53 -21 92q-20 37 -51 60q-36 24 -78 37q-50 16 -85 20q-33 4 -76 4q-61 0 -133 -16q-62 -15 -118 -50
q-28 -19 -35 -36q32 -18 51 -50.5t19 -69.5q0 -35 -17 -66q-6 -13 -18 -26q-26 -28 -60 -38q-19 -6 -41 -6h-2q-62 0 -107 48q-44 47 -44 131q0 116 99 192q87 67 194 91q104 23 212 23q94 0 177 -17q79 -17 159 -58q85 -44 133 -129q47 -85 47 -195v-462q0 -61 5 -108
q11 30 13 81q1 25 19.5 42t43.5 17t45 -20zM1110 53q128 0 139 190q1 10 -6.5 18t-18.5 8q-10 0 -17.5 -6.5t-8.5 -16.5q-8 -133 -58 -133q-17 0 -24 25q-10 40 -10 137v462q0 102 -42 177q-42 74 -118 114q-72 38 -150 54q-74 16 -169 16q-109 0 -204 -22
q-103 -23 -180 -83q-83 -64 -83 -163q0 -70 34 -105q35 -37 79 -37h1h1q14 0 29 5q26 8 44 27q12 14 14 19q12 21 12 48q0 34 -20 60.5t-52 35.5q0 1 -0.5 4t-0.5 4q0 48 54 84q59 38 131 55q70 16 141 16q44 0 80 -4q40 -5 92 -21q52 -17 89 -42q36 -25 62 -73
q26 -47 26 -110v-122q-60 -55 -152 -75q-103 -23 -276 -32q-110 -7 -168 -17q-71 -12 -139 -39q-73 -28 -111 -85q-37 -55 -37 -138q0 -118 85 -178q81 -57 216 -57q206 0 381 123q132 93 201 226v-127q0 -115 27 -166q30 -56 107 -56zM409 1230q-19 16 -19 37t13 35
l238 309q11 14 30 14q18 0 29 -14l238 -309q13 -14 13 -35q-2 -24 -18 -37q-14 -11 -31 -11q-19 0 -33 12l-198 176l-199 -176q-14 -12 -32 -12q-17 0 -31 11zM431 1277q-10 -9 1 -18q3 -3 8 -3t8 3l223 198l223 -198q3 -3 8 -3t8 3q11 9 0 18l-239 311z" />
    <glyph glyph-name="adieresis" unicode="&#xe4;" horiz-adv-x="1318" 
d="M566 1183q-48 0 -81 33t-33 81t33 81t81 33t81 -33q15 -15 24 -35q9 20 24 35q33 33 80 33q48 0 81 -33t33 -81t-33 -81t-81 -33q-47 0 -80 33q-15 15 -24 35q-9 -20 -24 -35q-33 -33 -81 -33zM721 1352q-22 -22 -22 -55q0 -32 22 -54q23 -23 54 -23q32 0 55 23
q22 22 22 54q0 33 -22 55t-55 22q-32 0 -54 -22zM511 1352q-22 -22 -22 -55q0 -32 22 -54q23 -23 55 -23q31 0 54 23t23 54q0 32 -23 55q-22 22 -54 22q-33 0 -55 -22zM760 533q55 9 126 34q53 19 90 44v-77q-52 -178 -205 -296t-319 -118q-104 0 -155 49q-50 49 -50 134
q0 36 11 67q9 27 26 50q15 20 42 34q29 15 55 25t70 17q55 9 74 11l84 8q101 9 151 18zM938 548q-16 -8 -40 -16q-76 -27 -132 -36q-51 -9 -154 -18l-84 -8q-17 -2 -71 -11q-37 -6 -63 -15q-30 -12 -51 -23q-20 -10 -29 -22q-12 -17 -21 -42q-9 -23 -9 -54q0 -69 39 -107
q41 -39 129 -39q154 0 297 111q139 108 189 272v8zM1269 287q19 -19 17 -46q-6 -106 -47 -162q-46 -63 -129 -63q-99 0 -140 76q-32 58 -32 183v2q-62 -76 -141 -132q-183 -129 -403 -129q-147 0 -238 64q-101 70 -101 208q0 94 44 159q43 65 129 99q75 29 146 41
q60 10 172 17q167 9 270 31q74 17 122 56v105q0 53 -21 92q-20 37 -51 60q-36 24 -78 37q-50 16 -85 20q-33 4 -76 4q-61 0 -133 -16q-62 -15 -118 -50q-28 -19 -35 -36q32 -18 51 -50.5t19 -69.5q0 -35 -17 -66q-6 -13 -18 -26q-26 -28 -60 -38q-19 -6 -41 -6h-2
q-62 0 -107 48q-44 47 -44 131q0 116 99 192q87 67 194 91q104 23 212 23q89 0 177 -18q82 -18 159 -57q85 -44 133 -129q47 -85 47 -195v-462q0 -61 5 -108q11 30 13 81q1 25 19.5 42t43.5 17t45 -20zM1110 53q128 0 139 190q1 10 -6.5 18t-18.5 8q-10 0 -17.5 -6.5
t-8.5 -16.5q-8 -133 -58 -133q-17 0 -24 25q-10 40 -10 137v462q0 102 -42 177q-42 74 -118 114q-72 38 -150 54q-74 16 -169 16q-109 0 -204 -22q-103 -23 -180 -83q-83 -64 -83 -163q0 -68 34 -105q35 -37 79 -37h1h1q14 0 29 5q26 8 44 27q12 14 14 19q12 21 12 48
q0 34 -20 60.5t-52 35.5q0 1 -0.5 4t-0.5 4q0 48 54 84q59 38 131 55q70 16 141 16q44 0 80 -4q40 -5 92 -21q52 -17 89 -42q36 -25 62 -73q26 -47 26 -110v-122q-60 -55 -152 -75q-103 -23 -276 -32q-110 -7 -168 -17q-71 -12 -139 -39q-73 -28 -111 -85q-37 -55 -37 -138
q0 -118 85 -178q81 -57 216 -57q206 0 381 123q132 93 201 226v-127q0 -115 27 -166q30 -56 107 -56z" />
    <glyph glyph-name="aring" unicode="&#xe5;" horiz-adv-x="1318" 
d="M721 1206q-21 -21 -50 -21q-30 0 -51 21q-20 20 -20 50t20 50q21 21 51 21q29 0 50 -21q20 -20 20 -50t-20 -50zM637 1256q0 -14 10 -24t24 -10t24 10q9 9 9 24t-9 24t-24 9t-24 -9q-10 -10 -10 -24zM760 533q55 9 126 34q53 19 90 44v-76q-53 -179 -205 -297
q-153 -118 -319 -118q-104 0 -155 49q-50 49 -50 134q0 36 11 67q9 27 26 50q15 20 42 34q29 15 55 25t70 17q55 9 74 11l84 8q101 9 151 18zM938 548q-16 -8 -40 -16q-76 -27 -132 -36q-51 -9 -154 -18l-83 -8q-20 -2 -72 -11q-37 -6 -63 -15q-30 -12 -51 -23
q-20 -10 -29 -22q-12 -17 -21 -42q-9 -23 -9 -54q0 -69 39 -107q41 -39 129 -39q154 0 297 111q139 108 189 272v8zM1269 287q19 -19 17 -46q-6 -106 -47 -162q-46 -63 -129 -63q-99 0 -140 76q-32 58 -32 183v2q-62 -76 -141 -132q-183 -129 -403 -129q-147 0 -238 64
q-101 70 -101 208q0 94 44 159q43 65 129 99q75 29 146 41q60 10 172 17q167 9 270 31q74 17 122 56v105q0 53 -21 92q-20 37 -51 60q-36 24 -78 37q-50 16 -85 20q-33 4 -76 4q-61 0 -133 -16q-62 -15 -118 -50q-28 -19 -35 -36q32 -18 51 -50.5t19 -69.5q0 -35 -17 -66
q-6 -13 -18 -26q-26 -28 -60 -38q-19 -6 -41 -6h-2q-62 0 -107 48q-44 47 -44 131q0 116 99 192q87 67 194 91q89 20 192 22q-18 9 -33 24q-39 39 -39 97q0 57 39 96q40 40 97 40q56 0 96 -40t40 -96q0 -57 -40 -97q-16 -16 -43 -28q45 -5 80 -12q79 -17 159 -58
q85 -44 133 -129q47 -85 47 -195v-462q0 -61 5 -108q11 30 13 81q1 25 19.5 42t43.5 17t45 -20zM572 1256q0 -41 29 -70t70 -29t70 29q28 28 28 70t-28 70q-29 29 -70 29t-70 -29t-29 -70zM1110 53q128 0 139 190q1 10 -6.5 18t-18.5 8q-10 0 -17.5 -6.5t-8.5 -16.5
q-8 -133 -58 -133q-17 0 -24 25q-10 40 -10 137v462q0 102 -42 177q-42 74 -118 114q-72 38 -150 54q-74 16 -169 16q-109 0 -204 -22q-103 -23 -180 -83q-83 -64 -83 -163q0 -70 34 -105q35 -37 79 -37h1h1q14 0 29 5q26 8 44 27q12 14 14 19q12 21 12 48q0 34 -20 60.5
t-52 35.5q0 1 -0.5 4t-0.5 4q0 48 54 84q59 38 131 55q70 16 141 16q44 0 80 -4q40 -5 92 -21q52 -17 89 -42q36 -25 62 -73q26 -47 26 -110v-122q-60 -55 -152 -75q-103 -23 -276 -32q-110 -7 -168 -17q-71 -12 -139 -39q-73 -28 -111 -85q-37 -55 -37 -138q0 -118 85 -178
q81 -57 216 -57q206 0 381 123q132 93 201 226v-127q0 -115 27 -166q30 -56 107 -56z" />
    <glyph glyph-name="ae" unicode="&#xe6;" horiz-adv-x="2066" 
d="M886 567q27 10 53 23q31 17 37 21v-76q-8 -28 -23 -64q-59 -137 -182 -233q-153 -118 -319 -118q-104 0 -155 49q-50 49 -50 134q0 36 11 67q9 27 26 50q15 20 42 34q29 15 55 25t70 17q55 9 74 11l84 8q101 9 151 18q55 9 126 34zM938 540v8q-16 -8 -40 -16
q-76 -27 -132 -36q-51 -9 -154 -18l-83 -8q-20 -2 -72 -11q-37 -6 -63 -15q-30 -12 -51 -23q-20 -10 -29 -22q-12 -17 -21 -42q-9 -23 -9 -54q0 -69 39 -107q41 -39 129 -39q154 0 297 111q116 89 170 217q9 22 19 55zM1815 742h-724q5 27 12 48q35 115 119 192
q111 100 300 100q160 0 230 -81q70 -82 70 -191q0 -35 -7 -68zM1247 955q-76 -70 -108 -175h644q1 9 1 30q0 95 -61 167q-57 67 -201 67q-179 0 -275 -89zM1964 489q24 -11 32 -36q8 -26 -4 -49q-72 -139 -183 -232q-147 -121 -356 -121q-133 0 -241 48q-26 11 -47 24
q-46 27 -82 60q-26 24 -29 27q-51 52 -83 111q-68 -101 -174 -176q-183 -129 -403 -129q-146 0 -237 64q-102 71 -102 208q0 94 44 159q43 65 129 99q75 29 146 41q60 10 172 17q167 9 270 31q60 14 104 43q8 4 18 13v105v9v1q-2 48 -21 82q-20 37 -51 60q-36 24 -78 37
q-50 16 -85 20q-33 4 -76 4q-61 0 -133 -16q-65 -15 -118 -49q-28 -18 -35 -37q32 -18 51 -50.5t19 -69.5q0 -35 -17 -66q-6 -13 -18 -26q-26 -28 -60 -38q-19 -6 -41 -6h-2q-62 0 -107 48q-44 47 -44 131q0 116 99 192q87 67 194 91q104 23 212 23q94 0 177 -17
q79 -17 159 -58q51 -27 90 -69q1 1 28 25q177 154 441 154q255 0 387 -130q137 -137 80 -347l-3 -13q-3 -12 -13 -20t-23 -8h-832q0 -4 -0.5 -12t-0.5 -12q0 -90 24 -162q27 -80 84 -135q108 -106 261 -106q130 0 249 79q91 60 147 159q18 31 54 31q15 0 27 -6h1zM1959 421
q12 23 -11 34l-1 1q-3 2 -11 2q-14 0 -21 -12q-61 -107 -159 -172q-129 -85 -270 -85q-169 0 -288 116q-62 60 -92 150q-26 78 -26 174q0 21 4 61h866l3 14q51 189 -71 311q-121 119 -360 119q-251 0 -417 -145q-27 -23 -54 -55q-42 62 -105 94q-72 38 -150 54
q-74 16 -169 16q-109 0 -204 -22q-103 -23 -180 -83q-83 -64 -83 -163q0 -70 34 -105q35 -37 79 -37h1h1q15 0 30 5q25 7 43 27q12 14 14 19q12 21 12 48q0 34 -20 60.5t-52 35.5q0 1 -0.5 4t-0.5 4q0 48 54 84q59 38 131 55q70 16 141 16q44 0 80 -4q40 -5 92 -21
q52 -17 89 -42q36 -25 62 -73q24 -44 25 -99q0 -2 0.5 -5.5t0.5 -5.5v-122q-20 -18 -36 -28q-47 -31 -116 -47q-103 -23 -276 -32q-110 -7 -168 -17q-71 -12 -139 -39q-73 -28 -111 -85q-37 -55 -37 -138q0 -118 85 -178q81 -57 216 -57q206 0 381 123q132 94 200 224l1 -1
v-1q36 -90 105 -162l26 -26q35 -31 76 -55q14 -8 44 -22q101 -45 226 -45q196 0 332 113q105 87 174 220z" />
    <glyph glyph-name="ccedilla" unicode="&#xe7;" horiz-adv-x="1187" 
d="M1118 440q23 -11 31 -35.5t-3 -47.5q-144 -298 -424 -348q17 -14 32 -34q24 -31 24 -67q0 -47 -37 -79q-32 -27 -68 -35q-31 -7 -70 -7q-68 0 -114 28q-59 36 -59 99q0 36 21 60l1 1q23 26 56 26h6q27 -2 46.5 -21t21.5 -46q2 -22 -8 -41q10 -3 29 -3q30 0 44 7v7
q0 11 -5 23q-8 14 -12 17l-30 24q-16 14 -30 27q-1 1 -3 2.5t-3 2.5q-216 14 -356 158q-153 159 -153 393q0 257 177 414q156 138 384 152q36 2 49 2q108 0 201 -29q10 5 17 12q16 16 40 16q40 0 53 -37v-1l1 -2l68 -232q8 -23 -3 -46q-12 -25 -35 -32q-9 -3 -20 -3
q-37 0 -55 32l-11 20l-3 6q-21 38 -37 63q-4 6 -28 35q-2 3 -7 8q-55 55 -138 61q-28 2 -43 2q-195 0 -292 -114q-102 -120 -102 -301q0 -193 108 -298q107 -105 261 -105q128 0 238 69q102 64 159 171q18 32 54 32q15 0 27 -6zM1113 374q4 9 1 18t-12 14q-5 3 -11 3
q-15 0 -22 -13q-63 -118 -171 -185q-119 -74 -258 -74q-168 0 -287 116q-119 117 -119 324q0 195 110 325q108 127 321 127q31 0 46 -1q97 -8 161 -72q1 -2 4 -5.5t5 -4.5q24 -28 31 -40q21 -33 42 -71l11 -20q8 -13 22 -13q5 0 7 1q10 4 15 13t1 19l-69 233q-5 13 -18 13
q-8 0 -14 -6q-18 -18 -42 -24q-1 0 -1 0.5t-1 0.5h-2l-2 1q-89 29 -196 29q-17 0 -47 -2q-214 -12 -362 -143q-163 -144 -163 -386q0 -219 142 -367q135 -139 350 -147q7 -13 11 -16q12 -12 27 -24l30 -24q14 -11 23 -29t9 -40q0 -27 -17 -38q-19 -13 -65 -13q-39 0 -61 13
q-19 11 -20 27q26 11 23 37q-2 13 -11.5 22.5t-22.5 10.5q-1 0 -3 1q-16 0 -28 -14l-1 -1q-11 -13 -11 -35q0 -43 41 -67q38 -23 94 -23q34 0 61 7q31 8 52 26q24 21 24 51q0 25 -16 45q-15 20 -35 34l-36 27l-29 23q331 9 489 337z" />
    <glyph glyph-name="egrave" unicode="&#xe8;" horiz-adv-x="1222" 
d="M976 757q0 -34 -7 -67h-724q29 147 131 240q110 99 300 99q161 0 230 -80q70 -82 70 -192zM937 728q1 9 1 29q0 96 -61 168q-57 67 -201 67q-178 0 -275 -90q-77 -70 -108 -174h644zM1118 437q24 -11 32 -36q8 -26 -4 -49q-72 -139 -183 -232q-147 -121 -356 -121
q-245 0 -399 159q-153 159 -153 393q0 257 180 414q177 154 441 154q255 0 387 -130q137 -137 80 -347l-3 -14q-7 -27 -36 -27h-832q0 -4 -0.5 -12t-0.5 -12q0 -194 107 -298q106 -105 262 -105q132 0 249 78q90 59 147 160q18 31 54 31q15 0 27 -6h1zM1113 369
q12 23 -11 34l-1 1q-3 2 -11 2q-14 0 -21 -12q-62 -109 -159 -173q-128 -84 -270 -84q-169 0 -288 116q-118 116 -118 324q0 21 4 61h866l3 14q51 188 -71 310q-122 120 -360 120q-251 0 -417 -145q-166 -144 -166 -386q0 -219 142 -367t372 -148q196 0 332 113
q104 86 174 220zM424 1327q-13 16 -19 29q-23 54 8 96q27 36 76 36q2 0 6 -0.5t7 -0.5q11 -2 26 -6q57 -20 100 -72q45 -55 68 -78q60 -60 100 -94q19 -16 22.5 -39t-9.5 -40q-16 -21 -43 -21q-19 0 -36 11q-60 38 -118 68q-61 31 -94 44q-56 21 -94 67zM443 1430
q-19 -26 -4 -60q3 -7 13 -19q32 -38 80 -57q39 -14 97 -45q67 -35 121 -70q7 -4 16 -4q8 0 13 6q10 14 -7 28q-63 54 -103 96q-22 23 -70 81q-36 44 -83 60q-12 4 -17 4h-10q-32 0 -46 -20z" />
    <glyph glyph-name="ecircumflex" unicode="&#xea;" horiz-adv-x="1222" 
d="M976 757q0 -34 -7 -67h-724q29 147 131 240q110 99 300 99q161 0 230 -80q70 -82 70 -192zM937 728q1 9 1 29q0 96 -61 168q-57 67 -201 67q-178 0 -275 -90q-77 -70 -108 -174h644zM1118 437q24 -11 32 -36q8 -26 -4 -49q-72 -139 -183 -232q-147 -121 -356 -121
q-245 0 -399 159q-153 159 -153 393q0 257 180 414q177 154 441 154q255 0 387 -130q137 -137 80 -347l-3 -14q-7 -27 -36 -27h-832q0 -4 -0.5 -12t-0.5 -12q0 -193 108 -298q107 -105 261 -105q132 0 249 78q90 59 147 160q18 31 54 31q15 0 27 -6h1zM1113 369
q12 23 -11 34l-1 1q-3 2 -11 2q-14 0 -21 -12q-62 -109 -159 -173q-128 -84 -270 -84q-169 0 -288 116q-118 116 -118 324q0 21 4 61h866l3 14q51 188 -71 310q-122 120 -360 120q-251 0 -417 -145q-166 -144 -166 -386q0 -219 142 -367q143 -148 372 -148q196 0 332 113
q104 86 174 220zM345 1230q-18 15 -18 36q0 22 13 36l238 309q11 14 29 14q19 0 30 -14l238 -309q13 -14 13 -36q-2 -23 -18 -36q-14 -11 -31 -11q-19 0 -33 12l-199 176l-198 -176q-13 -12 -33 -12q-17 0 -31 11zM368 1277q-10 -9 1 -18q3 -3 7 -3q6 0 9 3l222 198
l223 -198q3 -3 9 -3q4 0 7 3q11 9 1 18l-240 311z" />
    <glyph glyph-name="edieresis" unicode="&#xeb;" horiz-adv-x="1222" 
d="M1118 437q24 -11 32 -36q8 -26 -4 -49q-72 -139 -183 -232q-147 -121 -356 -121q-245 0 -399 159q-153 159 -153 393q0 257 180 414q177 154 441 154q255 0 387 -130q137 -137 80 -347l-3 -14q-7 -27 -36 -27h-832q0 -4 -0.5 -12t-0.5 -12q0 -193 108 -298
q107 -105 261 -105q132 0 249 78q90 59 147 160q18 31 54 31q14 0 28 -6zM1113 369q12 23 -11 34l-1 1q-3 2 -11 2q-14 0 -21 -12q-62 -109 -159 -173q-128 -84 -270 -84q-169 0 -288 116q-118 116 -118 324q0 21 4 61h866l3 14q51 188 -71 310q-122 120 -360 120
q-251 0 -417 -145q-166 -144 -166 -386q0 -219 142 -367q143 -148 372 -148q196 0 332 113q104 86 174 220zM976 757q0 -34 -7 -67h-724q29 147 131 240q110 99 300 99q161 0 230 -80q70 -82 70 -192zM937 728q1 9 1 29q0 96 -61 168q-57 67 -201 67q-178 0 -275 -90
q-77 -70 -108 -174h644zM506 1183q-48 0 -81 33t-33 81t33 81t81 33t81 -33q13 -13 23 -35q9 20 24 35q33 33 81 33t81 -33t33 -81t-33 -81t-81 -33t-81 33q-15 15 -24 35q-10 -22 -23 -35q-33 -33 -81 -33zM661 1352q-23 -23 -23 -55q0 -31 23 -54t54 -23q32 0 55 23
q22 22 22 54q0 33 -22 55t-55 22q-32 0 -54 -22zM451 1352q-22 -22 -22 -55q0 -32 22 -54q23 -23 55 -23q31 0 54 23q22 22 22 54q0 33 -22 55t-54 22q-33 0 -55 -22z" />
    <glyph glyph-name="igrave" unicode="&#xec;" horiz-adv-x="534" 
d="M498 80q2 -28 -17 -48q-18 -20 -47 -20h-324q-27 0 -45 20q-20 21 -18 47t20.5 43t44.5 17q24 0 41 17t17 41v734q0 19 -14 33.5t-34 14.5q-1 0 -3.5 -0.5t-3.5 -0.5t-5 -0.5t-5 -0.5q-25 0 -45 20q-19 19 -17 46q1 22 16 38.5t38 20.5l175 26q4 1 14 1q37 0 63 -26
t26 -63v-842q0 -24 17 -41t41 -18q26 -1 45 -17.5t20 -41.5zM434 49q11 0 19 8.5t7 19.5q-1 10 -8.5 17t-18.5 7q-40 1 -67.5 29t-27.5 68v842q0 22 -15.5 37t-36.5 15q-2 0 -4 -0.5t-4 -0.5l-175 -26q-21 -4 -23 -24q-1 -11 6.5 -18.5t18.5 -7.5h4q4 1 13 1q35 0 60 -24.5
t25 -60.5v-734q0 -40 -27.5 -68t-67.5 -28q-11 0 -19 -7t-9 -17q-1 -11 7 -19.5t19 -8.5h324zM86 1327q-11 14 -18 29q-23 54 8 96q27 36 76 36q2 0 6 -0.5t7 -0.5q11 -2 26 -6q57 -20 100 -72q40 -49 68 -78q60 -60 100 -94q19 -16 22.5 -39t-9.5 -40q-16 -21 -43 -21
q-19 0 -36 11q-56 36 -119 68q-64 33 -93 44q-58 22 -95 67zM106 1430q-19 -26 -4 -60q3 -7 13 -19q32 -38 79 -57q42 -16 98 -45q67 -35 121 -70q7 -4 16 -4q8 0 13 6q10 14 -7 28q-63 54 -103 96q-22 23 -70 81q-35 43 -84 60q-12 4 -17 4h-9q-32 0 -46 -20z" />
    <glyph glyph-name="iacute" unicode="&#xed;" horiz-adv-x="534" 
d="M498 80q2 -28 -17 -48q-18 -20 -47 -20h-324q-27 0 -45 20q-20 21 -18 47t20.5 43t44.5 17q24 0 41 17t17 41v734q0 19 -14 33.5t-34 14.5q-1 0 -3.5 -0.5t-3.5 -0.5t-5 -0.5t-5 -0.5q-25 0 -45 20q-19 19 -17 46q1 22 16 38.5t38 20.5l175 26q4 1 14 1q37 0 63 -26
t26 -63v-842q0 -24 17 -41t41 -18q26 -1 45 -17.5t20 -41.5zM434 49q11 0 19 8.5t7 19.5q-1 10 -8.5 17t-18.5 7q-40 1 -67.5 29t-27.5 68v842q0 22 -15.5 37t-36.5 15q-2 0 -4 -0.5t-4 -0.5l-175 -26q-21 -4 -23 -24q-1 -11 6.5 -18.5t18.5 -7.5h4q4 1 13 1q35 0 60 -24.5
t25 -60.5v-734q0 -40 -27.5 -68t-67.5 -28q-11 0 -19 -7t-9 -17q-1 -11 7 -19.5t19 -8.5h324zM112 1137q-27 0 -43 21q-13 17 -9.5 40t22.5 39q50 42 100 94q23 23 68 78q43 52 100 72q16 5 25 6q3 0 7.5 0.5t6.5 0.5q48 0 75 -36q32 -43 9 -96q-6 -13 -19 -29
q-38 -46 -94 -67q-33 -13 -94 -44q-58 -30 -118 -68q-17 -11 -36 -11zM106 1209q-18 -14 -7 -28q5 -6 13 -6q9 0 16 4q54 35 121 70q58 31 97 45q48 19 80 57q8 10 12 19q15 34 -3 60q-14 20 -46 20h-10q-5 0 -17 -4q-47 -16 -83 -60q-48 -58 -70 -81q-40 -42 -103 -96z" />
    <glyph glyph-name="icircumflex" unicode="&#xee;" horiz-adv-x="534" 
d="M433 139q26 -1 45 -17.5t20 -41.5q2 -28 -17 -48q-18 -20 -47 -20h-323q-28 0 -46 20q-20 21 -18 47t20.5 43t44.5 17q24 0 41 17t17 41v734q0 19 -14 33.5t-34 14.5q-1 0 -3.5 -0.5t-3.5 -0.5q-2 0 -5 -0.5t-4 -0.5q-26 0 -46 20q-19 19 -17 46q1 22 16 38.5t38 20.5
l175 26q4 1 14 1q37 0 63 -26t26 -63v-842q0 -24 17 -41t41 -18zM434 49q11 0 19 8.5t7 19.5q-1 10 -8.5 17t-18.5 7q-40 1 -67.5 29t-27.5 68v842q0 22 -15.5 37t-36.5 15q-2 0 -4 -0.5t-4 -0.5l-175 -26q-21 -4 -23 -24q-1 -11 6.5 -18.5t18.5 -7.5h4q4 1 13 1
q35 0 60 -24.5t25 -60.5v-734q0 -40 -27.5 -68t-67.5 -28q-11 0 -19 -7t-9 -17q-1 -11 7.5 -19.5t19.5 -8.5h323zM538 1302q13 -14 13 -35q0 -22 -18 -37q-14 -11 -31 -11q-20 0 -33 12l-199 176l-198 -176q-14 -12 -33 -12q-17 0 -31 11q-16 13 -18 36q0 22 13 36l238 309
q11 14 29 14q19 0 30 -14zM509 1259q11 9 1 18l-240 311l-239 -311q-10 -9 1 -18q3 -3 7 -3q5 0 8 3l223 198l223 -198q3 -3 9 -3q4 0 7 3z" />
    <glyph glyph-name="idieresis" unicode="&#xef;" horiz-adv-x="534" 
d="M498 80q2 -28 -17 -48q-18 -20 -47 -20h-324q-27 0 -45 20q-20 21 -18 47t20.5 43t44.5 17q24 0 41 17t17 41v734q0 19 -14 33.5t-34 14.5q-1 0 -3.5 -0.5t-3.5 -0.5t-5 -0.5t-5 -0.5q-25 0 -45 20q-19 19 -17 46q1 22 16 38.5t38 20.5l175 26q4 1 14 1q37 0 63 -26
t26 -63v-842q0 -24 17 -41t41 -18q26 -1 45 -17.5t20 -41.5zM434 49q11 0 19 8.5t7 19.5q-1 10 -8.5 17t-18.5 7q-40 1 -67.5 29t-27.5 68v842q0 22 -15.5 37t-36.5 15q-2 0 -4 -0.5t-4 -0.5l-175 -26q-21 -4 -23 -24q-1 -11 6.5 -18.5t18.5 -7.5h4q4 1 13 1q35 0 60 -24.5
t25 -60.5v-734q0 -40 -27.5 -68t-67.5 -28q-11 0 -19 -7t-9 -17q-1 -11 7 -19.5t19 -8.5h324zM166 1183q-48 0 -81 33t-33 81t33 81t81 33t81 -33q13 -13 23 -35q9 20 24 35q33 33 81 33t81 -33t33 -81t-33 -81t-81 -33t-81 33q-15 15 -24 35q-9 -20 -24 -35
q-33 -33 -80 -33zM321 1352q-23 -23 -23 -55q0 -31 23 -54t54 -23q32 0 55 23q22 22 22 54q0 33 -22 55t-55 22q-32 0 -54 -22zM111 1352q-22 -22 -22 -55q0 -32 22 -54q23 -23 55 -23q31 0 54 23q22 22 22 54q0 33 -22 55t-54 22q-33 0 -55 -22z" />
    <glyph glyph-name="ntilde" unicode="&#xf1;" horiz-adv-x="1406" 
d="M1339 145q16 0 26.5 -10.5t10.5 -26.5v-53q0 -16 -10.5 -26.5t-26.5 -10.5h-376q-16 0 -26.5 10.5t-10.5 26.5v53q0 16 10.5 26.5t26.5 10.5q35 0 60.5 25t25.5 60v442q0 175 -54 250q-47 67 -164 67q-159 0 -281 -114q-123 -115 -174 -345v-326q0 -24 17.5 -41.5
t41.5 -17.5h1q30 0 48 -23q20 -25 14 -53q-4 -22 -22 -36.5t-41 -14.5h-323q-28 0 -46 20q-19 20 -17 48q1 25 19.5 41.5t44.5 17.5q24 1 41 18t17 41v716q0 20 -14.5 34t-33.5 14q-1 0 -3.5 -0.5t-3.5 -0.5q-2 0 -5 -0.5t-4 -0.5q-25 0 -42.5 16.5t-19.5 41.5t13.5 44
t41.5 23l178 24q4 1 12 1q37 0 63 -26t26 -64l-2 -162q46 69 102 119q157 140 370 140q185 0 294 -108q111 -108 111 -328v-457q0 -35 25 -60t60 -25zM963 55h376v53q-51 0 -87 35.5t-36 86.5v457q0 203 -99 301q-100 98 -268 98q-199 0 -345 -131q-106 -96 -166 -248l4 319
q0 22 -15 37.5t-37 15.5q-1 0 -3.5 -0.5t-3.5 -0.5l-178 -24q-25 -4 -23 -27q1 -10 8 -16.5t17 -6.5h4q4 1 12 1q35 0 60 -24.5t25 -60.5v-716q0 -39 -27.5 -67t-66.5 -29q-11 0 -19 -7.5t-9 -17.5q-1 -11 7 -19.5t19 -8.5h323q10 0 17 6t9 15q2 13 -5.5 22.5t-19.5 9.5h-1
q-40 0 -68 28t-28 68v330q53 242 186 368q131 124 306 124q137 0 194 -82q61 -87 61 -272v-442q0 -51 -36 -86.5t-87 -35.5v-53zM465 1271l-1 1q-14 15 -15.5 35.5t10.5 37.5q53 76 131 76q63 0 151 -58q62 -41 91 -41q17 0 34 23q18 25 48 25q15 0 29 -8v0q21 -11 28 -38
q6 -25 -9 -47q-51 -73 -129 -73q-64 0 -153 58q-63 41 -91 41q-16 0 -34 -25q-17 -23 -44 -25h-4q-25 0 -42 18zM489 1324q-11 -14 2 -27h1q7 -7 15 -7h2q8 0 15 9q29 41 65 41q38 0 111 -47q80 -52 133 -52q59 0 99 57q5 6 3 18q-1 9 -10 13l-3 -3l2 4q-3 2 -10 2
q-11 0 -17 -9q-29 -39 -65 -39q-38 0 -111 48q-80 52 -131 52q-59 0 -101 -60z" />
    <glyph glyph-name="ograve" unicode="&#xf2;" horiz-adv-x="1302" 
d="M649 1022q220 0 318 -128q100 -130 100 -343q0 -218 -100 -345q-98 -125 -318 -125q-218 0 -316 125q-99 126 -99 345q0 213 100 343q98 128 315 128zM938 229q92 118 92 322q0 200 -92 321q-87 113 -289 113q-200 0 -286 -113q-92 -121 -92 -321q0 -204 92 -322
q85 -110 286 -110q204 0 289 110zM1075 958q173 -156 173 -407t-174 -407q-170 -152 -425 -152q-254 0 -424 153q-172 155 -172 406q0 252 172 407q171 154 424 154q255 0 426 -154zM1049 172q161 143 161 379q0 235 -160 380q-160 143 -400 143t-400 -143
q-159 -144 -159 -380q0 -234 159 -378q161 -144 400 -144t399 143zM467 1327q-13 16 -19 29q-23 54 8 96q27 36 76 36q2 0 6 -0.5t7 -0.5q11 -2 26 -6q57 -20 100 -72q40 -49 68 -78q51 -52 100 -94q19 -16 22.5 -39t-9.5 -40q-16 -21 -43 -21q-19 0 -36 11q-60 38 -118 68
q-61 31 -94 44q-56 21 -94 67zM486 1430q-19 -26 -4 -60q3 -7 13 -19q32 -38 79 -57q42 -16 98 -45q67 -35 121 -70q7 -4 16 -4t13 6q10 14 -7 28q-63 54 -103 96q-22 23 -70 81q-35 43 -84 60q-12 4 -16 4h-10q-32 0 -46 -20z" />
    <glyph glyph-name="oacute" unicode="&#xf3;" horiz-adv-x="1302" 
d="M1075 958q173 -156 173 -407t-174 -407q-170 -152 -425 -152q-254 0 -424 153q-172 155 -172 406q0 252 172 407q171 154 424 154q255 0 426 -154zM1049 172q161 143 161 379q0 235 -160 380q-160 143 -401 143q-239 0 -399 -143q-159 -144 -159 -380q0 -234 159 -378
q161 -144 399 -144q240 0 400 143zM649 1022q220 0 318 -128q100 -130 100 -343q0 -218 -100 -345q-98 -125 -318 -125q-218 0 -316 125q-99 126 -99 345q0 213 100 343q98 128 315 128zM938 229q92 118 92 322q0 200 -92 321q-86 113 -289 113q-200 0 -286 -113
q-92 -121 -92 -321q0 -204 92 -322q85 -110 286 -110q204 0 289 110zM492 1137q-27 0 -43 21q-13 17 -9.5 40t22.5 39q50 42 100 94q23 23 68 78q43 52 100 72q16 5 26 6q3 0 7 0.5t6 0.5q49 0 76 -36q31 -42 8 -96q-6 -13 -19 -29q-38 -46 -94 -67q-38 -15 -94 -44
q-58 -30 -118 -68q-17 -11 -36 -11zM486 1209q-18 -14 -7 -28q4 -6 13 -6t16 4q54 35 121 70q58 31 97 45q48 19 80 57q8 10 12 19q15 34 -3 60q-14 20 -46 20h-10q-5 0 -17 -4q-47 -16 -83 -60q-48 -58 -70 -81q-40 -42 -103 -96z" />
    <glyph glyph-name="ocircumflex" unicode="&#xf4;" horiz-adv-x="1302" 
d="M388 1230q-18 15 -18 37q0 21 13 35l238 309q11 14 29 14q19 0 30 -14l238 -309q13 -14 13 -36q-2 -23 -18 -36q-14 -11 -31 -11q-20 0 -33 12l-199 176l-198 -176q-13 -12 -33 -12q-17 0 -31 11zM411 1277q-10 -9 1 -18q3 -3 7 -3q5 0 8 3l223 198l223 -198q3 -3 9 -3
q4 0 7 3q11 9 1 18l-240 311zM1075 958q173 -156 173 -407t-174 -407q-170 -152 -425 -152q-254 0 -424 153q-172 155 -172 406q0 252 172 407q171 154 424 154q255 0 426 -154zM1049 172q161 143 161 379q0 235 -160 380q-160 143 -401 143q-239 0 -399 -143
q-159 -144 -159 -380q0 -234 159 -378q161 -144 399 -144q240 0 400 143zM649 1022q220 0 318 -128q100 -130 100 -343q0 -218 -100 -345q-98 -125 -318 -125q-218 0 -316 125q-99 126 -99 345q0 213 100 343q98 128 315 128zM938 229q92 118 92 322q0 200 -92 321
q-86 113 -288 113q-201 0 -287 -113q-92 -121 -92 -321q0 -204 92 -322q85 -110 286 -110q204 0 289 110z" />
    <glyph glyph-name="otilde" unicode="&#xf5;" horiz-adv-x="1302" 
d="M649 1022q220 0 318 -128q100 -130 100 -343q0 -218 -100 -345q-98 -125 -318 -125q-218 0 -316 125q-99 126 -99 345q0 213 100 343q98 128 315 128zM938 229q92 118 92 322q0 200 -92 321q-87 113 -289 113q-200 0 -286 -113q-92 -121 -92 -321q0 -204 92 -322
q85 -110 286 -110q204 0 289 110zM1075 958q173 -156 173 -407t-174 -407q-170 -152 -425 -152q-254 0 -424 153q-172 155 -172 406q0 252 172 407q171 154 424 154q255 0 426 -154zM1049 172q161 143 161 379q0 235 -160 380q-160 143 -400 143t-400 -143
q-159 -144 -159 -380q0 -234 159 -378q161 -144 400 -144t399 143zM405 1271l-1 1q-14 15 -15.5 35.5t10.5 37.5q53 76 131 76q63 0 151 -58q62 -41 91 -41q17 0 34 23q18 25 48 25q14 0 28 -8h1q21 -11 28 -38q6 -25 -9 -47q-51 -73 -129 -73q-64 0 -153 58q-63 41 -91 41
q-16 0 -34 -25q-17 -23 -44 -25h-4q-25 0 -42 18zM429 1324q-11 -14 2 -27h1q7 -7 15 -7h1q9 0 16 9q29 41 65 41q38 0 111 -47q80 -52 133 -52q59 0 99 57q5 6 3 18q-1 9 -10 13l-3 -3l2 4q-3 2 -10 2q-12 0 -18 -9q-28 -39 -64 -39q-39 0 -112 48q-80 52 -130 52
q-59 0 -101 -60z" />
    <glyph glyph-name="odieresis" unicode="&#xf6;" horiz-adv-x="1302" 
d="M1075 958q173 -156 173 -407t-174 -407q-170 -152 -425 -152q-254 0 -424 153q-172 155 -172 406q0 252 172 407q171 154 424 154q255 0 426 -154zM1049 172q161 143 161 379q0 235 -160 380q-160 143 -401 143q-239 0 -399 -143q-159 -144 -159 -380q0 -234 159 -378
q161 -144 399 -144q240 0 400 143zM649 1022q220 0 318 -128q100 -130 100 -343q0 -218 -100 -345q-98 -125 -318 -125q-218 0 -316 125q-99 126 -99 345q0 213 100 343q98 128 315 128zM938 229q92 118 92 322q0 200 -92 321q-86 113 -289 113q-200 0 -286 -113
q-92 -121 -92 -321q0 -204 92 -322q85 -110 286 -110q204 0 289 110zM546 1183q-48 0 -81 33t-33 81t33 81t81 33t81 -33q13 -13 23 -35q9 20 24 35q33 33 81 33t81 -33t33 -81t-33 -81t-81 -33t-81 33q-15 15 -24 35q-10 -22 -23 -35q-33 -33 -81 -33zM701 1352
q-23 -23 -23 -55q0 -31 23 -54t54 -23q32 0 55 23q22 22 22 54q0 33 -22 55t-55 22q-32 0 -54 -22zM491 1352q-22 -22 -22 -55q0 -32 22 -54q23 -23 55 -23q31 0 54 23q22 22 22 54q0 33 -22 55t-54 22q-33 0 -55 -22z" />
    <glyph glyph-name="divide" unicode="&#xf7;" horiz-adv-x="976" 
d="M488 781q-61 0 -103 42t-42 103t42 103t103 42t103 -42q43 -43 43 -103t-43 -103q-42 -42 -103 -42zM412 1002q-32 -32 -32 -76q0 -45 32 -77q31 -31 76 -31q46 0 77 31t31 77q0 45 -31 76q-32 32 -77 32q-44 0 -76 -32zM889 671q27 0 46 -19.5t19 -46.5t-19 -46t-46 -19
h-801q-27 0 -46 19t-19 46t19 46.5t46 19.5h801zM889 578q11 0 19.5 8t8.5 19t-8.5 19.5t-19.5 8.5h-801q-11 0 -19.5 -8.5t-8.5 -19.5t8.5 -19t19.5 -8h801zM488 430q61 0 103 -42q43 -43 43 -103t-43 -103q-42 -42 -103 -42t-103 42t-42 103t42 103t103 42zM565 208
q31 31 31 77t-31 77t-77 31q-45 0 -76 -31q-32 -32 -32 -77t32 -77q31 -31 76 -31q46 0 77 31z" />
    <glyph glyph-name="oslash" unicode="&#xf8;" horiz-adv-x="1302" 
d="M649 1022q120 0 201 -37l-419 -859q-59 30 -98 80q-99 126 -99 345q0 213 100 343q98 128 315 128zM416 179l383 786q-61 20 -150 20q-200 0 -286 -113q-92 -121 -92 -321q0 -204 92 -322q23 -29 53 -50zM869 976q58 -30 98 -82q100 -130 100 -343q0 -218 -100 -345
q-98 -125 -318 -125q-114 0 -199 37zM938 229q92 118 92 322q0 200 -92 321q-18 24 -54 51l-382 -785q63 -19 147 -19q204 0 289 110zM1075 958q173 -156 173 -407t-174 -407q-170 -152 -424 -152q-109 0 -205 29l-53 -108q-14 -27 -43 -27q-10 0 -22 5q-17 9 -23 28t2 36
l50 101q-74 36 -131 89q-172 155 -172 406q0 252 172 407q171 154 424 154q111 0 207 -30l53 109q13 27 43 27q8 0 22 -6q17 -9 23 -27.5t-2 -35.5l-50 -102q71 -35 130 -89zM1049 172q161 143 161 379q0 235 -160 380q-67 61 -155 98l66 136q5 9 -4 14q-1 1 -5 1
q-6 0 -9 -5l-68 -139q-103 38 -225 38q-240 0 -400 -143q-159 -144 -159 -380q0 -234 159 -378q68 -62 156 -99l-66 -136q-5 -9 4 -14q1 -1 5 -1q6 0 9 6l67 138q103 -38 225 -38q239 0 399 143z" />
    <glyph glyph-name="ugrave" unicode="&#xf9;" horiz-adv-x="1431" 
d="M1391 93q6 -30 -12 -53q-19 -24 -49 -24h-175q-35 0 -59 24t-24 59v161q-46 -69 -102 -119q-157 -140 -369 -140q-183 0 -295 109t-112 328v426q0 39 -27.5 66.5t-65.5 27.5q-9 0 -13 -1q-2 0 -5 -0.5t-4 -0.5q-25 0 -45 20t-18 46q1 22 16.5 39t38.5 20l228 32q4 1 13 1
q37 0 63 -26t26 -63v-573q0 -175 54 -250q46 -66 164 -66q160 0 279 112q121 113 174 340v329q0 20 -15 34.5t-35 14.5h-6q-2 0 -4 -0.5t-4 -0.5q-24 0 -41.5 16.5t-19.5 40.5t13.5 43t40.5 23l174 25q4 1 13 1q37 0 63 -26t26 -63v-829q0 -22 15 -37.5t37 -15.5
q23 0 40 -14t22 -36zM1330 54q12 0 20 9.5t5 21.5q-5 21 -27 21q-37 1 -62.5 27t-25.5 63v829q0 22 -15.5 37t-36.5 15q-1 0 -3.5 -0.5t-4.5 -0.5l-174 -25q-10 -2 -16.5 -9t-5.5 -17q2 -22 24 -22h3q2 0 5.5 0.5t5.5 0.5q36 0 61.5 -25.5t25.5 -61.5v-333
q-54 -239 -186 -363q-132 -123 -304 -123q-136 0 -194 83q-61 87 -61 271v573q0 22 -15.5 37t-36.5 15q-1 0 -3.5 -0.5t-4.5 -0.5l-228 -32q-20 -3 -22 -24q-1 -11 6.5 -18.5t18.5 -7.5h3q6 1 19 1q54 0 92.5 -38.5t38.5 -92.5v-426q0 -205 100 -302t269 -97q200 0 345 130
q105 94 165 248l-2 -153v-165q0 -19 13.5 -32t32.5 -13h175zM521 1327q-13 16 -19 29q-23 53 9 96q27 36 75 36q2 0 6.5 -0.5t7.5 -0.5q10 -1 25 -6q57 -20 100 -72q40 -49 68 -78q51 -52 100 -94q19 -16 22.5 -39t-9.5 -40q-16 -21 -43 -21q-19 0 -36 11q-60 38 -118 68
q-61 31 -94 44q-56 21 -94 67zM540 1430q-18 -26 -3 -60q4 -9 12 -19q32 -38 80 -57q39 -14 97 -45q67 -35 121 -70q7 -4 16 -4t13 6q10 14 -7 28q-63 54 -103 96q-22 23 -70 81q-36 44 -83 60q-12 4 -17 4h-10q-32 0 -46 -20z" />
    <glyph glyph-name="uacute" unicode="&#xfa;" horiz-adv-x="1431" 
d="M1391 93q6 -30 -12 -53q-19 -24 -49 -24h-175q-35 0 -59 24t-24 59v161q-46 -69 -102 -119q-157 -140 -369 -140q-183 0 -295 109t-112 328v426q0 39 -27.5 66.5t-65.5 27.5q-9 0 -13 -1q-2 0 -5 -0.5t-4 -0.5q-25 0 -45 20t-18 46q1 22 16.5 39t38.5 20l228 32q4 1 13 1
q37 0 63 -26t26 -63v-573q0 -175 54 -250q46 -66 164 -66q160 0 279 112q121 113 174 340v329q0 20 -15 34.5t-35 14.5h-6q-2 0 -4 -0.5t-4 -0.5q-24 0 -41.5 16.5t-19.5 40.5t13.5 43t40.5 23l174 25q4 1 13 1q37 0 63 -26t26 -63v-829q0 -22 15 -37.5t37 -15.5
q23 0 40 -14t22 -36zM1330 54q12 0 20 9.5t5 21.5q-5 21 -27 21q-37 1 -62.5 27t-25.5 63v829q0 22 -15.5 37t-36.5 15q-1 0 -3.5 -0.5t-4.5 -0.5l-174 -25q-10 -2 -16.5 -9t-5.5 -17q2 -22 24 -22h3q2 0 5.5 0.5t5.5 0.5q36 0 61.5 -25.5t25.5 -61.5v-333
q-54 -239 -186 -363q-132 -123 -304 -123q-136 0 -194 83q-61 87 -61 271v573q0 22 -15.5 37t-36.5 15q-1 0 -3.5 -0.5t-4.5 -0.5l-228 -32q-20 -3 -22 -24q-1 -11 6.5 -18.5t18.5 -7.5h3q6 1 19 1q54 0 92.5 -38.5t38.5 -92.5v-426q0 -205 100 -302t269 -97q200 0 345 130
q105 94 165 248l-2 -153v-165q0 -19 13.5 -32t32.5 -13h175zM546 1137q-27 0 -43 21q-13 17 -9.5 40t22.5 39q49 42 100 94q28 29 68 78q43 52 100 72q16 5 26 6q3 0 7 0.5t6 0.5q49 0 76 -36q31 -42 8 -96q-7 -15 -18 -29q-37 -45 -95 -67q-29 -11 -93 -44
q-63 -32 -119 -68q-17 -11 -36 -11zM540 1209q-18 -14 -7 -28q4 -6 13 -6t16 4q41 27 104 61q-9 18 8 27q48 25 99 46q46 18 72 50q12 14 26 4q2 2 2 3q15 34 -4 60q-14 20 -46 20h-9q-5 0 -17 -4q-49 -17 -84 -60q-48 -58 -70 -81q-40 -42 -103 -96z" />
    <glyph glyph-name="ucircumflex" unicode="&#xfb;" horiz-adv-x="1431" 
d="M1391 93q6 -30 -12 -53q-19 -24 -49 -24h-175q-35 0 -59 24t-24 59v161q-46 -69 -102 -119q-157 -140 -369 -140q-183 0 -295 109t-112 328v426q0 39 -27.5 66.5t-65.5 27.5q-9 0 -13 -1q-2 0 -5 -0.5t-4 -0.5q-25 0 -45 20t-18 46q1 22 16.5 39t38.5 20l228 32q4 1 13 1
q37 0 63 -26t26 -63v-573q0 -175 54 -250q46 -66 164 -66q160 0 279 112q121 113 174 340v329q0 20 -15 34.5t-35 14.5h-6q-2 0 -4 -0.5t-4 -0.5q-24 0 -41.5 16.5t-19.5 40.5t13.5 43t40.5 23l174 25q4 1 13 1q37 0 63 -26t26 -63v-829q0 -22 15 -37.5t37 -15.5
q23 0 40 -14t22 -36zM1330 54q12 0 20 9.5t5 21.5q-5 21 -27 21q-37 1 -62.5 27t-25.5 63v829q0 22 -15.5 37t-36.5 15q-1 0 -3.5 -0.5t-4.5 -0.5l-174 -25q-10 -2 -16.5 -9t-5.5 -17q2 -22 24 -22h3q2 0 5.5 0.5t5.5 0.5q36 0 61.5 -25.5t25.5 -61.5v-333
q-54 -239 -186 -363q-132 -123 -304 -123q-136 0 -194 83q-61 87 -61 271v573q0 22 -15.5 37t-36.5 15q-1 0 -3.5 -0.5t-4.5 -0.5l-228 -32q-20 -3 -22 -24q-1 -11 6.5 -18.5t18.5 -7.5h3q6 1 19 1q54 0 92.5 -38.5t38.5 -92.5v-426q0 -205 100 -302t269 -97q200 0 345 130
q105 94 165 248l-2 -153v-165q0 -19 13.5 -32t32.5 -13h175zM443 1230q-19 16 -19 37t13 35l238 309q11 14 30 14q18 0 29 -14l238 -309q13 -14 13 -36q-2 -23 -18 -36q-14 -11 -31 -11q-20 0 -33 12l-198 176l-199 -176q-13 -12 -32 -12q-17 0 -31 11zM465 1277
q-10 -9 1 -18q3 -3 8 -3t8 3l223 198l223 -198q3 -3 8 -3q4 0 7 3q11 9 1 18l-239 311z" />
    <glyph glyph-name="udieresis" unicode="&#xfc;" horiz-adv-x="1431" 
d="M1391 93q6 -30 -12 -53q-19 -24 -49 -24h-175q-35 0 -59 24t-24 59v161q-46 -69 -102 -119q-157 -140 -369 -140q-183 0 -295 109t-112 328v426q0 39 -27.5 66.5t-65.5 27.5q-9 0 -13 -1q-2 0 -5 -0.5t-4 -0.5q-25 0 -45 20t-18 46q1 22 16.5 39t38.5 20l228 32q4 1 13 1
q37 0 63 -26t26 -63v-573q0 -175 54 -250q46 -66 164 -66q160 0 279 112q121 113 174 340v329q0 20 -15 34.5t-35 14.5h-6q-2 0 -4 -0.5t-4 -0.5q-24 0 -41.5 16.5t-19.5 40.5t13.5 43t40.5 23l174 25q4 1 13 1q37 0 63 -26t26 -63v-829q0 -22 15 -37.5t37 -15.5
q23 0 40 -14t22 -36zM1330 54q12 0 20 9.5t5 21.5q-5 21 -27 21q-37 1 -62.5 27t-25.5 63v829q0 22 -15.5 37t-36.5 15q-1 0 -3.5 -0.5t-4.5 -0.5l-174 -25q-10 -2 -16.5 -9t-5.5 -17q2 -22 24 -22h3q2 0 5.5 0.5t5.5 0.5q36 0 61.5 -25.5t25.5 -61.5v-333
q-54 -239 -186 -363q-132 -123 -304 -123q-136 0 -194 83q-61 87 -61 271v573q0 22 -15.5 37t-36.5 15q-1 0 -3.5 -0.5t-4.5 -0.5l-228 -32q-20 -3 -22 -24q-1 -11 6.5 -18.5t18.5 -7.5h3q6 1 19 1q54 0 92.5 -38.5t38.5 -92.5v-426q0 -205 100 -302t269 -97q200 0 345 130
q105 94 165 248l-2 -153v-165q0 -19 13.5 -32t32.5 -13h175zM600 1183q-48 0 -81 33t-33 81t33 81t81 33t81 -33q15 -15 24 -35q10 22 23 35q33 33 81 33t81 -33t33 -81t-33 -81t-81 -33q-47 0 -80 33q-15 15 -24 35q-9 -20 -24 -35q-33 -33 -81 -33zM755 1352
q-22 -22 -22 -55q0 -32 22 -54q23 -23 54 -23q32 0 55 23q22 22 22 54q0 33 -22 55t-55 22q-32 0 -54 -22zM545 1352q-22 -22 -22 -55q0 -32 22 -54q23 -23 55 -23q31 0 54 23t23 54q0 32 -23 55q-22 22 -54 22q-33 0 -55 -22z" />
    <glyph glyph-name="yacute" unicode="&#xfd;" horiz-adv-x="1316" 
d="M1247 1105q26 0 44.5 -18.5t18.5 -44.5t-18.5 -45t-44.5 -19q-33 0 -61.5 -18t-41.5 -48l-420 -922v-1q-33 -64 -73 -129q-41 -64 -88 -119q-60 -70 -133 -107q-78 -38 -163 -38q-142 0 -219 70q-81 72 -81 172q0 72 44 125q43 52 112 57q3 0 6.5 0.5t5.5 0.5h2
q60 0 99 -42q42 -42 42 -102q0 -43 -23.5 -78.5t-62.5 -52.5l7 -7q18 -15 65 -15q54 0 103 26q54 30 92 77q51 63 77 107q29 50 56 106l-412 875q-13 29 -40.5 46t-59.5 17q-26 0 -45 19t-19 45t19 44.5t45 18.5h330q26 0 44.5 -18.5t18.5 -44.5t-18.5 -45t-44.5 -19
q-11 0 -17 -9t-1 -19l308 -673l307 667q5 12 -2 23t-20 11q-26 0 -45 19t-19 45t19 44.5t45 18.5h262zM1247 1016q11 0 18.5 8t7.5 18t-7.5 18t-18.5 8h-262q-11 0 -18.5 -8t-7.5 -18t7.5 -18t18.5 -8q34 0 51.5 -28t3.5 -59l-340 -742l-342 748q-13 29 4 55t48 26
q10 0 18 8t8 18t-8 18t-18 8h-330q-10 0 -18 -8t-8 -18t8 -18t18 -8q43 0 79 -23t54 -62l420 -891q-27 -59 -66 -125q-31 -51 -79 -112q-45 -56 -103 -86q-57 -30 -121 -30q-60 0 -89 24q-27 23 -27 53v8q39 5 66 35t27 70q0 46 -32 76q-27 30 -72 30h-2h-9q-54 -5 -87 -44
q-35 -43 -35 -101q0 -82 69 -144q69 -61 194 -61q80 0 147 34q66 34 121 98q55 66 85 114q28 44 70 127l420 922q18 40 55.5 64t81.5 24zM550 1137q-27 0 -43 21q-13 17 -9.5 40t21.5 39q55 47 101 94q23 23 68 78q43 52 100 72q16 5 25 6q3 0 7.5 0.5t6.5 0.5q48 0 75 -36
q32 -43 9 -96q-6 -13 -19 -29q-38 -46 -94 -67q-33 -13 -94 -44q-58 -30 -118 -68q-17 -11 -36 -11zM544 1209q-18 -14 -7 -28q5 -6 13 -6q9 0 16 4q54 35 121 70q58 31 97 45q47 19 79 57q10 12 13 19q15 34 -4 60q-14 20 -45 20h-10q-5 0 -17 -4q-47 -16 -83 -60
q-36 -43 -71 -80q-49 -51 -102 -97z" />
    <glyph glyph-name="ydieresis" unicode="&#xff;" horiz-adv-x="1316" 
d="M1247 1105q26 0 44.5 -18.5t18.5 -44.5t-18.5 -45t-44.5 -19q-33 0 -61.5 -18t-41.5 -48l-420 -922v-1q-33 -64 -73 -129q-41 -64 -88 -119q-60 -70 -133 -107q-78 -38 -163 -38q-142 0 -219 70q-81 72 -81 172q0 72 44 125q43 52 112 57q3 0 6.5 0.5t5.5 0.5h2
q60 0 99 -42q42 -42 42 -102q0 -43 -23.5 -78.5t-62.5 -52.5l7 -7q18 -15 65 -15q54 0 103 26q54 30 92 77q51 63 77 107q29 50 56 106l-412 875q-13 29 -40.5 46t-59.5 17q-26 0 -45 19t-19 45t19 44.5t45 18.5h330q26 0 44.5 -18.5t18.5 -44.5t-18.5 -45t-44.5 -19
q-11 0 -17 -9t-1 -19l308 -673l307 667q5 12 -2 23t-20 11q-26 0 -45 19t-19 45t19 44.5t45 18.5h262zM1247 1016q11 0 18.5 8t7.5 18t-7.5 18t-18.5 8h-262q-11 0 -18.5 -8t-7.5 -18t7.5 -18t18.5 -8q34 0 51.5 -28t3.5 -59l-340 -742l-342 748q-13 29 4 55t48 26
q10 0 18 8t8 18t-8 18t-18 8h-330q-10 0 -18 -8t-8 -18t8 -18t18 -8q43 0 79 -23t54 -62l420 -891q-27 -59 -66 -125q-31 -51 -79 -112q-45 -56 -103 -86q-57 -30 -121 -30q-60 0 -89 24q-27 23 -27 53v8q39 5 66 35t27 70q0 46 -32 76q-27 30 -72 30h-2h-9q-54 -5 -87 -44
q-35 -43 -35 -101q0 -82 69 -144q69 -61 194 -61q80 0 147 34q66 34 121 98q55 66 85 114q28 44 70 127l420 922q18 40 55.5 64t81.5 24zM534 1183q-48 0 -81 33t-33 81t33 81t81 33t81 -33q15 -15 24 -35q10 22 23 35q33 33 81 33t81 -33t33 -81t-33 -81t-81 -33t-81 33
q-13 13 -23 35q-9 -20 -24 -35q-33 -33 -81 -33zM689 1352q-22 -22 -22 -55q0 -32 22 -54q23 -23 54 -23q32 0 55 23q22 22 22 54q0 33 -22 55t-55 22q-32 0 -54 -22zM479 1352q-22 -22 -22 -55q0 -32 22 -54q23 -23 55 -23q31 0 54 23t23 54q0 32 -23 55q-22 22 -54 22
q-33 0 -55 -22z" />
    <glyph glyph-name="Lslash" unicode="&#x141;" horiz-adv-x="1456" 
d="M1450 260q4 -27 -11 -50l-156 -240l-1 -1v-1q-17 -25 -49 -25q-34 0 -53 32q-23 41 -69 41h-665h-15h-2h-190q-26 0 -45 18.5t-19 44.5t19 45t45 19q22 0 37.5 15t15.5 37v410l-215 -74q-5 -2 -16 -2t-21 5q-17 9 -23 28q-6 18 2.5 35t26.5 23l246 85v547
q0 22 -15.5 37.5t-37.5 15.5q-29 0 -49 23q-19 22 -14 52q4 22 22.5 37t41.5 15h319q28 0 48 -23q19 -22 14 -52q-4 -23 -22 -37.5t-42 -14.5q-21 0 -36 -15t-15 -36v-475l186 64q5 2 15 2q11 0 21 -5q18 -10 24 -27q6 -18 -3 -35.5t-27 -23.5l-216 -75v-498q0 -16 11.5 -27
t27.5 -11h399q6 0 19 -0.5t20 -0.5h71h53q72 0 211 134l20 18q22 20 47 20q17 0 34 -10q25 -15 31 -44zM1408 231q8 10 5.5 22.5t-13.5 19.5q-5 4 -15 4q-12 0 -21 -9l-20 -19q-147 -144 -237 -144h-53h-71h-39h-399q-32 0 -54.5 22.5t-22.5 53.5v525l242 83q9 4 6 12
q-2 5 -5 6q-1 1 -4 1h-1l-2 -1l-235 -81v528q0 37 25.5 62.5t62.5 25.5q10 0 18 6t9 16q2 12 -5.5 21.5t-19.5 9.5h-319q-10 0 -18 -6t-9 -16q-2 -13 6 -22t20 -9q37 0 63.5 -26t26.5 -64v-574l-271 -93q-9 -4 -6 -12q2 -5 5 -6q1 -1 4 -1h1l2 1l265 91v-463
q0 -37 -26.5 -63.5t-63.5 -26.5q-11 0 -18.5 -7.5t-7.5 -18.5t7.5 -18.5t18.5 -7.5h192h15h665q32 0 59.5 -16t42.5 -44q6 -12 20 -12q11 0 19 9z" />
    <glyph glyph-name="lslash" unicode="&#x142;" horiz-adv-x="778" 
d="M756 813q6 -18 -3 -35.5t-27 -23.5l-234 -81v-470q0 -25 17.5 -42.5t42.5 -18.5q26 -1 44.5 -17.5t19.5 -40.5q2 -28 -17 -48q-18 -20 -46 -20h-325q-29 0 -47 20q-19 20 -17 48q1 24 20 40.5t45 17.5q24 1 41 18.5t17 41.5v401l-206 -72q-5 -2 -16 -2t-21 5
q-17 9 -23 28q-6 18 2.5 35t26.5 23l237 82v694q0 19 -12.5 32t-31.5 13q-6 0 -9 -1q-4 -1 -12 -1q-28 0 -44 18q-18 18 -18 44q0 22 15 38.5t37 20.5l175 31q5 1 16 1q37 0 63 -26t26 -63v-730l204 70q5 2 15 2q11 0 21 -5q18 -10 24 -27zM714 789q9 4 6 12q-3 5 -4 6t-5 1
h-1l-2 -1l-253 -87v783q0 22 -15.5 37t-36.5 15q-6 0 -9 -1l-176 -31q-20 -4 -20 -23q0 -10 7 -17t17 -7h4q12 2 17 2q33 0 57.5 -24t24.5 -58v-721l-263 -90q-9 -4 -6 -12q2 -5 5 -6q1 -1 4 -1q1 0 2 0.5t2 0.5l256 88v-453q0 -40 -28 -68t-68 -29q-11 0 -18.5 -7t-8.5 -17
q-1 -11 7 -19.5t19 -8.5h325q11 0 19 8.5t7 19.5q-1 10 -9 17t-19 7q-40 1 -68 29.5t-28 68.5v497z" />
    <glyph glyph-name="OE" unicode="&#x152;" horiz-adv-x="2408" 
d="M1314 1061q39 -85 55 -169q14 -77 14 -168q0 -93 -14 -170q-16 -84 -55 -169q-39 -87 -100 -151q-59 -62 -162 -103t-235 -41t-235 41q-105 42 -162 103q-61 64 -100 151q-39 85 -55 169q-14 76 -14 170q0 92 14 168q16 84 55 169q39 86 100 150q62 65 162 105
q100 41 235 41t235 -41q100 -40 162 -105q61 -64 100 -150zM1332 560q14 81 14 164q0 80 -14 161q-13 75 -52 160q-39 84 -93 141t-149 95q-96 39 -221 39t-221 -39q-95 -38 -149 -95t-93 -141q-39 -85 -52 -160q-14 -81 -14 -161q0 -83 14 -164q13 -73 52 -159
q39 -84 93 -141t148 -94q97 -38 222 -38t222 38q94 37 148 94t93 141q39 86 52 159zM2362 302q21 -16 25 -42.5t-11 -48.5l-157 -241h-1v-1q-17 -25 -49 -25q-35 0 -53 31q-24 42 -69 42h-738q-23 0 -41 14.5t-22 36.5q-5 27 11 49q-37 -23 -72 -38q-168 -78 -368 -78
t-368 78q-174 80 -285 247q-113 169 -113 398q0 328 223 527q220 196 543 196t543 -196l1 -1v9q0 22 -15.5 37.5t-37.5 15.5h-3q-28 0 -45 20q-18 21 -15 46q2 23 19.5 38.5t41.5 15.5h632q46 0 70 42q18 31 53 31q33 0 49 -24q0 -1 0.5 -1t0.5 -1l156 -241q14 -19 12 -43
t-18 -41q-19 -21 -48 -21q-27 0 -46 19l-21 20q-137 134 -212 134h-53h-71h-3h-3h-187q-17 0 -29 -12.5t-12 -29.5v-432q0 -5 1 -14.5t2 -13.5h238q9 0 15 6.5t6 15.5v2q0 26 19 45t45 19q7 0 11 -1q23 -4 38 -22.5t15 -42.5v-171q0 -26 -19 -45t-45 -19q-7 0 -11 1
q-23 4 -38 22t-15 42v2q0 9 -6 15t-15 6h-235q-1 -31 -6 -63v-431q0 -17 12 -29t29 -12h262q7 0 20 -0.5t19 -0.5h72h52q76 0 213 134l19 19q22 20 48 20q21 0 40 -14zM2345 232q7 9 5.5 21t-11.5 19q-8 6 -17 6q-13 0 -22 -9l-19 -18q-150 -145 -239 -145h-53h-71h-39h-262
q-32 0 -55 23.5t-23 55.5v433q6 48 6 99h272q24 0 41.5 -17.5t17.5 -41.5v-2q0 -24 21 -27q1 0 2.5 -0.5t2.5 -0.5q11 0 19 8t8 19v171q0 10 -6 18.5t-16 9.5h-5q-11 0 -18.5 -7.5t-7.5 -18.5v-2q0 -24 -17.5 -41.5t-41.5 -17.5h-273q-2 43 -5 63v434q0 32 23 55.5t55 23.5
h187h5h72h53q89 0 238 -144l21 -20q8 -8 20 -8t21 9q17 17 2 37l-156 242q-8 9 -19 9q-14 0 -20 -12q-15 -28 -43 -44.5t-60 -16.5h-632q-22 0 -24 -20q-1 -10 6 -17.5t17 -7.5h3q37 0 63.5 -26.5t26.5 -64.5v-101q-30 36 -63 65q-209 186 -518 186t-518 -186
q-211 -187 -211 -499q0 -218 107 -378q106 -158 270 -234q163 -74 352 -74t352 74q132 61 229 179v-95q0 -38 -26 -64t-64 -26q-12 0 -19.5 -9t-5.5 -22q2 -9 9 -15t17 -6h738q32 0 59.5 -16.5t42.5 -44.5q6 -12 20 -12q11 0 19 10zM1294 142q10 2 14 2q22 0 37.5 15
t15.5 37v1q-26 -24 -67 -55z" />
    <glyph glyph-name="oe" unicode="&#x153;" horiz-adv-x="2197" 
d="M1950 750q0 -34 -7 -67h-724q29 147 131 240q110 99 300 99q161 0 230 -80q70 -82 70 -192zM1911 720q2 18 2 30q0 96 -61 168q-57 67 -202 67q-176 0 -274 -90q-77 -71 -109 -175h644zM2092 430q24 -11 32 -37t-4 -48q-72 -139 -183 -232q-147 -121 -356 -121
q-246 0 -399 158q-26 27 -48 57q-27 -33 -60 -63q-170 -152 -425 -152q-254 0 -424 153q-172 155 -172 406q0 252 172 407q171 154 424 154q255 0 426 -154q43 -39 66 -71q27 35 68 71q177 154 441 154q255 0 387 -130q138 -138 81 -347l-4 -14q-7 -27 -36 -27h-832v-4
q2 -30 2 -39q0 -4 -0.5 -12t-0.5 -11q11 -162 106 -256q107 -105 262 -105q131 0 248 78q92 61 148 160q18 31 54 31q15 0 27 -6zM2087 362q12 23 -11 34q-6 3 -11 3q-14 0 -22 -13q-61 -107 -159 -172q-128 -84 -269 -84q-170 0 -288 115q-107 105 -117 283v23q0 26 -1 39
q0 2 3 41h866l4 14q51 189 -71 310q-121 119 -361 119q-251 0 -416 -144q-54 -47 -93 -109q-35 59 -91 110q-160 143 -400 143t-400 -143q-159 -144 -159 -380q0 -234 159 -378q161 -144 400 -144t399 143q54 47 87 101q30 -53 73 -97q143 -147 372 -147q198 0 332 112
q105 87 174 221zM650 1022q219 0 317 -128q100 -130 100 -343q0 -218 -100 -345q-98 -125 -317 -125t-317 125q-99 126 -99 345q0 213 100 343q98 128 316 128zM938 229q92 118 92 322q0 200 -92 321q-87 113 -288 113t-287 -113q-92 -121 -92 -321q0 -204 92 -322
q85 -110 287 -110q203 0 288 110z" />
    <glyph glyph-name="Scaron" unicode="&#x160;" horiz-adv-x="1378" 
d="M1246 624q71 -86 71 -206q0 -212 -203 -323q-188 -103 -447 -103q-77 0 -130 5q-139 12 -257 58q-13 -4 -24 -14q-16 -15 -40 -15q-20 0 -36 12t-22 31q0 1 -0.5 1t-0.5 1l-65 278q-7 26 5.5 49.5t37.5 31.5q11 3 21 3q41 0 60 -39l12 -24l3 -6q25 -50 40 -77
q18 -32 28 -42q14 -14 65 -51q81 -56 171 -68q64 -8 132 -8q71 0 148 11q73 10 157 38q71 24 117 76q42 48 42 116q0 70 -44 117q-49 54 -132 84q-90 34 -202 60l-228 53q-119 27 -216 63q-110 40 -176 111q-74 79 -74 190q0 183 183 296q170 105 427 105h9q-11 3 -19 12
l-238 309q-13 14 -13 35q0 22 18 37q14 11 31 11q19 0 33 -12l198 -176l198 176q14 12 33 12q17 0 31 -11q17 -14 19 -36q0 -22 -13 -36l-238 -309q-8 -10 -20 -13q82 -3 83 -3l2 -1h2q90 -6 174 -28q52 -13 128 -42q12 4 25 15q17 15 40 15q20 0 36 -12t22 -31v-2l65 -279
q7 -26 -5.5 -49t-37.5 -31q-10 -3 -20 -3q-43 0 -61 38l-12 24l-3 7q-34 68 -39 77q-17 30 -28 41q-63 63 -141 96q-100 42 -259 42q-197 0 -316 -66q-104 -58 -104 -150q0 -55 42 -96q52 -49 132 -75q98 -32 202 -56l228 -52q117 -27 218 -67q107 -44 175 -125zM449 1784
l239 -311l240 311q10 9 -1 18q-3 3 -8 3t-8 -3l-223 -198l-223 198q-3 3 -8 3t-8 -3q-11 -9 0 -18zM1096 127q184 101 184 291q0 107 -63 182t-160 114q-86 36 -212 65l-228 53q-114 26 -206 57q-90 30 -146 83q-53 50 -53 123q0 116 123 183q127 70 334 70q165 0 273 -45
q87 -37 153 -103q14 -14 34 -50q13 -23 44 -85l12 -25q8 -17 27 -17q5 0 8 1q11 4 16.5 14.5t2.5 21.5l-65 279q-5 17 -22 17q-9 0 -15 -6q-23 -20 -51 -26q-59 24 -137 44q-90 22 -167 28h-2q-48 4 -111 4q-251 0 -408 -98q-164 -101 -164 -265q0 -97 63 -165
q60 -64 161 -101q97 -35 213 -62l228 -53q109 -25 206 -61q89 -33 146 -94q54 -58 54 -142t-50 -141q-51 -59 -135 -86q-91 -30 -162 -40q-80 -11 -154 -11q-70 0 -137 8q-101 13 -188 74q-46 32 -70 56q-14 14 -34 50q-4 8 -43 85l-12 24q-8 18 -27 18q-3 0 -9 -2
q-26 -9 -19 -35l66 -280q5 -16 22 -16q9 0 15 6q23 20 51 26l1 -1q123 -49 257 -60q68 -5 127 -5q251 0 429 98z" />
    <glyph glyph-name="scaron" unicode="&#x161;" horiz-adv-x="1146" 
d="M989 548q112 -79 112 -211q0 -172 -165 -263q-148 -82 -380 -82h-6h-5h-6h-12h-4q-56 2 -94 8q-26 4 -55 11q-26 6 -37 10q-9 -4 -17 -12q-17 -17 -40 -17q-40 0 -53 38l-1 1v1l-9 31l-5 17l-34 115l-21 71q-8 24 3 47t36 31q12 4 20 4q37 0 55 -33l11 -20l3 -6
q21 -38 37 -63q5 -9 28 -36l8 -8q40 -40 98 -55q17 -4 32 -5q4 0 12 -1t14.5 -1.5t12.5 -0.5h2h2h25q185 0 266 53q71 45 71 118q0 61 -61 97q-76 47 -192 67l-249 44q-134 24 -232 85q-114 72 -114 199q0 99 56 172q54 71 145 104q81 30 158 42q75 12 159 12q20 0 60 -2
q79 -1 148 -18q26 -6 37 -10q12 6 17 11q17 17 40 17q40 0 53 -38v-1l1 -1l14 -48l55 -186q8 -24 -3 -47t-36 -31q-9 -3 -20 -3q-37 0 -55 33l-11 19l-3 6q-26 46 -37 64q-4 6 -28 35l-8 8q-40 40 -97 55q-12 2 -17 3q-33 4 -56 5q-1 0 -4 0.5t-5 0.5h-4q-16 1 -43 1
q-166 0 -252 -53q-72 -44 -72 -106q0 -44 59 -73q87 -43 201 -63l253 -46q138 -25 239 -96zM918 107q146 81 146 230q0 113 -97 181q-92 65 -224 89l-253 47q-125 23 -211 66q-79 40 -79 106q0 82 90 138q94 58 271 58q30 0 44 -1h14q30 -1 59 -6q3 0 9.5 -1.5t10.5 -2.5
q69 -17 116 -64q2 -1 5 -4.5t4 -5.5q22 -26 31 -41q25 -39 42 -70l11 -20q9 -14 22 -14q6 0 8 1q9 3 14 13q4 9 1 19l-55 187l-14 48q-5 13 -18 13q-8 0 -14 -6q-15 -15 -38 -23q-1 0 -2 -1t-2 -1h-1l-2 1l-2 1h-2q-37 11 -40 12q-62 15 -141 17q-19 1 -58 1q-86 0 -153 -11
q-78 -13 -151 -40q-80 -30 -128 -92q-49 -64 -49 -149q0 -107 97 -168q88 -56 219 -79l248 -44q119 -21 205 -73q79 -48 79 -128q0 -92 -88 -149q-94 -60 -286 -60q-4 0 -13 0.5t-13 0.5h-4q-7 0 -21 1t-21 1q-14 1 -37 7q-68 17 -116 65l-9 9q-22 26 -31 41q-21 33 -42 71
l-11 20q-8 13 -22 13q-6 0 -8 -1q-9 -3 -14 -12t-1 -20l21 -72l34 -115l4 -16l10 -31q5 -13 18 -13q9 0 14 5q13 13 31 21q1 0 3.5 1t3.5 2l2 1h2h1q1 -1 2 -1t2 -0.5t2 -0.5q26 -8 40 -11q19 -5 52 -10q46 -7 89 -8h16h5h11q221 0 362 78zM544 1251l-226 292q-12 12 -12 35
q0 21 18 36q14 11 31 11q19 0 32 -12l186 -166l187 166q14 12 32 12q17 0 31 -11q16 -13 18 -36q0 -22 -13 -35l-225 -292q-11 -14 -30 -14q-18 0 -29 14zM347 1585q-10 -7 0 -17l226 -294l227 294q10 10 -1 17q-3 3 -7 3q-5 0 -8 -3l-211 -187l-211 187q-3 3 -7 3
q-5 0 -8 -3z" />
    <glyph glyph-name="Ydieresis" unicode="&#x178;" horiz-adv-x="1529" 
d="M1473 1433q26 0 44.5 -19t18.5 -45t-18.5 -44.5t-44.5 -18.5q-73 0 -113 -62l-471 -722v-318q0 -25 17.5 -43t42.5 -18h8q26 0 45 -18.5t19 -44.5t-19 -44.5t-45 -18.5h-345q-26 0 -45 18.5t-19 44.5t19 44.5t45 18.5q25 0 43 18t18 43v309l-505 734q-41 59 -113 59
q-26 0 -44.5 18.5t-18.5 44.5t18.5 45t44.5 19h353q26 0 45 -19t19 -45t-19 -44.5t-45 -18.5q-9 0 -11 -7q-3 -8 1 -13l425 -629l411 631q4 6 1 12t-10 6q-26 0 -45 18.5t-19 44.5t19 45t45 19h248zM1473 1343q11 0 18.5 7.5t7.5 18.5t-7.5 18.5t-18.5 7.5h-248
q-11 0 -18.5 -7.5t-7.5 -18.5t7.5 -18.5t18.5 -7.5q29 0 43 -25t-2 -50l-442 -678l-457 675q-17 25 -3 51.5t44 26.5q10 0 18 7.5t8 18.5t-8 18.5t-18 7.5h-353q-11 0 -18.5 -7.5t-7.5 -18.5t7.5 -18.5t18.5 -7.5q43 0 81 -20t62 -55l512 -743v-321q0 -40 -29 -69t-69 -29
q-10 0 -18 -8t-8 -18t8 -18t18 -8h345q11 0 18.5 8t7.5 18t-7.5 18t-18.5 8h-8q-41 0 -69.5 29t-28.5 69v329l477 732q24 37 62.5 57.5t82.5 20.5zM702 1514q-50 0 -86 36t-36 86q0 51 36 87q35 35 86 35q52 0 87 -35q19 -19 29 -47q10 28 29 47q35 35 86 35q52 0 87 -35
t35 -87q0 -51 -35 -86q-36 -36 -87 -36q-50 0 -86 36q-19 19 -29 47q-10 -28 -29 -47q-36 -36 -87 -36zM873 1696q-24 -24 -24 -60t24 -60t60 -24q37 0 61 24t24 60t-24 60q-25 25 -61 25q-35 0 -60 -25zM642 1696q-24 -24 -24 -60t24 -60t60 -24t60 24q25 25 25 60t-25 60
t-60 25t-60 -25z" />
    <glyph glyph-name="Zcaron" unicode="&#x17d;" horiz-adv-x="1376" 
d="M1377 1395q0 -12 -10 -24l-1011 -1228h320h40q4 0 28 -0.5t43 -0.5h52q73 0 212 134l19 19q21 19 48 19q18 0 33 -9q25 -15 31 -44q5 -28 -11 -51l-156 -240l-1 -1v-1q-16 -24 -48 -24q-35 0 -53 31q-23 41 -69 41l-648 1h-151q-23 0 -33 21q-10 22 5 40l1012 1228h-378
q-7 0 -20 0.5t-19 0.5h-71h-52q-75 0 -212 -134l-19 -18q-22 -20 -48 -20q-17 0 -34 10q-23 15 -30 44q-4 27 11 50l155 240q0 1 1 1t1 1q17 25 48 25q34 0 53 -32q23 -41 69 -41h628h187h3h37q16 0 27 -11t11 -27zM277 106l1062 1289h-40h-187l-628 1q-32 0 -59.5 16
t-42.5 44q-6 12 -20 12q-10 0 -18 -9l-157 -241q-8 -10 -5 -22.5t14 -19.5q5 -4 14 -4q13 0 22 9l19 19q147 144 238 144h52h71h39l457 -1l-1063 -1289h151l648 -1q32 0 59 -16t42 -44q6 -12 21 -12q10 0 18 9l156 241q8 10 5.5 22.5t-13.5 19.5q-5 4 -14 4q-13 0 -22 -9
l-19 -19q-147 -144 -238 -144h-52h-72h-39zM787 1450l-239 309q-13 14 -13 36q2 22 19 36q14 11 31 11q19 0 33 -12l198 -176l198 176q14 12 33 12q17 0 31 -11q19 -16 19 -37t-13 -35l-238 -309q-11 -14 -30 -14q-18 0 -29 14zM577 1802q-11 -9 0 -18l239 -311l240 311
q10 9 -1 18q-3 3 -8 3t-8 -3l-223 -198l-223 198q-3 3 -8 3t-8 -3z" />
    <glyph glyph-name="zcaron" unicode="&#x17e;" horiz-adv-x="1191" 
d="M1159 213q6 -24 -10 -47l-117 -181q0 -1 -1 -1t-1 -1q-16 -22 -44 -22q-32 0 -48 28q-15 27 -44 27h-729h-58q-51 0 -73 48t13 86l745 829h-296h-30h-54h-27q-66 0 -114 -46l-53 -52q-18 -18 -42 -18q-17 0 -28 7q-24 13 -30 40q-6 24 10 46l118 182v1l1 1q16 22 44 22
q32 0 48 -29q15 -26 44 -26h476h142h2h31q21 0 38.5 -11.5t25.5 -30.5q18 -42 -12 -75l-760 -846h4l215 -1h29h230h102q50 0 138 85l15 14q17 17 43 17q17 0 27 -6q24 -13 30 -40zM1119 187q6 8 3.5 18t-11.5 15q-3 2 -9 2q-10 0 -17 -7l-15 -14q-97 -95 -164 -95h-102h-230
h-29h-215h-87l815 909q14 16 5.5 35.5t-29.5 19.5h-33h-142h-476q-52 0 -77 46q-4 9 -15 9q-8 0 -14 -7l-119 -183q-6 -8 -3.5 -17.5t11.5 -14.5q3 -2 10 -2q10 0 16 6l53 52q59 57 140 57h27h54h30h380l-801 -891q-19 -21 -7.5 -46.5t39.5 -25.5h58h729q52 0 77 -46
q5 -9 15 -9q8 0 14 7zM702 1251l-225 292q-13 13 -13 35q0 21 18 36q14 11 31 11q19 0 32 -12l186 -166l187 166q14 12 32 12q17 0 31 -11q16 -13 18 -36q0 -22 -13 -35l-225 -292q-11 -14 -30 -14q-18 0 -29 14zM505 1585q-10 -7 0 -17l226 -294l227 294q10 10 -1 17
q-3 3 -7 3q-5 0 -8 -3l-211 -187l-211 187q-3 3 -7 3q-5 0 -8 -3z" />
    </font>
</defs>
</svg>
